<?xml version="1.0" encoding="utf-8"?>
<!-- Generator: Adobe Illustrator 27.3.1, SVG Export Plug-In . SVG Version: 6.00 Build 0)  -->
<svg version="1.1" id="Capa_1" xmlns="http://www.w3.org/2000/svg" xmlns:xlink="http://www.w3.org/1999/xlink" x="0px" y="0px"
	 viewBox="0 0 2011.2 619.7" style="enable-background:new 0 0 2011.2 619.7;" xml:space="preserve">
<style type="text/css">
	.st0{opacity:0.45;}
	.st1{fill:#FFFFFF;}
</style>
<g class="st0">
	<path class="st1" d="M869.3,408.5c-3.8-0.3-1.6-2.4-1-3.7c3.5-7.2,8.7-10.5,20-13c0-3.2,0-6.4,0-9.7c0-4.1-0.5-8.3,2.8-11.7
		c0.9-1,0.8-3.1,0.8-4.8c0-83.2,0-166.3,0-249.5c0-2.4-0.1-4.2-3-5.4c-5.7-2.3-8.1-7.5-6.8-12.9c1.3-5.3,5.4-8.6,10.8-8.7
		c5.5,0,9.9,3.6,11.1,9c1.1,5.2-1.5,10-6.7,12.6c-0.9,0.4-1.8,0.8-2.9,1.2c0,3.1,0,6.3,0,10c8,0,16,1.4,23.4-0.3
		c13.9-3.1,27.9-1.6,41.8-2c9.9-0.3,15.1,3.1,20.8,13.2c-17.9-1.4-36.1,4-51.9-8.3c-1.6-1.3-4.7-1.6-6.8-1
		c-15.1,3.9-26.5,18.2-27.5,33.8c-0.1,1.8-0.1,3.7-0.1,5.5c0,67-0.1,134,0.1,201c0,3.1,1.6,6.2,2.4,9.3c0.4,1.6,0.9,3.2,1,4.8
		c0.1,4.8-0.1,9.7,0.1,14.5c0.6,18.6,1.3,37.1,1.9,56.2c3,0,6.2,0,9.9,0c-2.9-6-4-11.9,2.3-16.3c4-2.8,8.3-2.6,12.1,0.4
		c5.6,4.5,4.7,10.1,1.4,16c3.4,0,6.3,0,9.9,0c0-8.5,0-16.8,0-25.1c0-2.5-0.1-5,0-7.5c0.2-4-0.2-7.2-4.1-10.2c-2.8-2-4.5-6.3-5.4-9.8
		c-7.9-32.5-4.6-64.1,9-94.7c0.3-0.6,0.8-1,1.9-2.3c1.7,3.9,3.4,7.3,4.7,10.8c9.9,26.2,11.9,53.2,6.8,80.6
		c-1.3,6.8-2.8,13.9-9.7,17.8c-0.6,0.4-1.1,1.6-1.1,2.5c-0.1,12.5,0,24.9,0,37.8c2,0.1,3.7,0.3,5.3,0.3c25.3,0,50.7,0,76,0
		c6.5,0,7.5-1.4,5.1-7.3c-3-7.5-1-15.3,5-21c1.2-1.1,2.4-3.2,2.2-4.7c-1.6-12.9,5.5-21.7,18.5-22.5c0.7,0,1.3-0.2,2.1-0.2
		c2.8-12.7-1.1-23.5-9.3-33.4c-4.6,3.1-9.4,5-14.9,2.7c-6.4-2.6-10-9.8-8.1-16.4c2-7.1,8.7-11.2,15.8-9.7
		c7.1,1.5,12.9,8.4,10.6,14.9c-2.2,6.2,0.5,10,3.3,14.4c0.7,1.1,1.4,2.2,3,3.1c0-11.7,1.5-23.6-0.4-35c-2-11.7-10.1-20.7-19.6-28.6
		c-1.3,1.4-2.3,2.6-3.5,3.7c-4.6,4.4-11.9,5-17,1.5c-5.3-3.6-7.4-10.4-5.1-16.3c2.4-6,8.3-9.4,14.8-8.5c6.3,0.9,11.5,6.1,11.4,12.6
		c-0.1,3.8,1.6,5.8,3.9,8.3c5.4,5.8,10.2,12.1,15.7,18.8c0-8.8,0.1-17.5-0.2-26.2c0-0.9-2.5-2.1-4-2.5
		c-12.1-2.7-20.7-12.9-21.1-25.3c-0.4-12.1,8-22.9,20-26c13.9-3.6,28.3,5,31.7,18.8c3.6,14.6-4.9,29.2-19.4,32.1
		c-4,0.8-5.1,2.2-5,6.1c0.2,12.3,0.1,24.7,0.1,37c0,1.1,0.1,2.1,0.2,3.4c4.4-5.8,8.8-11.2,12.7-16.8c0.7-1-0.1-3.4-0.6-5
		c-3.1-10.8,2.7-22,13.2-25.1c10.7-3.2,21.6,2.7,24.9,13.4c2.5,8.1-0.8,17.3-7.8,22c-7.2,4.8-16.7,4.5-23.4-0.7
		c-1.3-1-2.5-2.1-4.3-3.6c-7.3,9.3-15.4,17.7-15,30.6c0.3,9.5,0,19,0.1,28.5c0,1.6,0.2,3.2,0.3,5.6c5.1-4.8,10.4-7,16.7-6.8
		c1,0,2.2-1.2,3-2.2c8.6-10.4,21-14.5,33-10.8c12.4,3.8,20,13.9,21.5,27.8c0.2,2.1,2,4,3.1,6c0.7-0.2,1.4-0.4,2.2-0.7
		c0-7.3-0.1-14.6,0-21.8c1-48.7,2-97.3,3.2-145.9c0.1-4-1.3-4.9-4.8-6.3c-6.2-2.4-11.9-6.2-17.8-9.6c-1.1-0.6-1.7-2.1-2.1-3.8
		c7.1,6.2,14.6,11.3,24.6,12.2c0.5-11,1-21.7,1.4-32.4c-10.6-4.3-20.8-8.5-31.4-12.9c-3.2,7.7-1.3,15.3,0.2,22.8
		c-0.5,0.1-0.9,0.2-1.4,0.3c-0.6-1.7-1.6-3.4-1.8-5.1c-0.3-5.1-0.9-10.3-0.2-15.4c0.5-3.4-0.5-4.6-3.3-5.9
		c-7.6-3.7-15.2-7.6-22.7-11.6c-2.1-1.1-4-2.7-5.6-5c12.5,0.8,23.1,7.5,34.6,11.5c2.3-2.8,4.5-5.5,6.8-8.3c0.4,0.3,0.9,0.7,1.3,1
		c-1.8,2.6-3.5,5.2-5.6,8.4c3.2,1.7,6.1,3.1,9,4.6c1.8-2,3.5-3.8,5.2-5.6c0.4,0.3,0.7,0.5,1.1,0.8c-1.1,1.8-2.2,3.7-3.6,5.8
		c5.7,3.1,11.2,6,17.2,9.2c0.7-3.5,1.3-6.6,1.9-9.8c0.4-0.1,0.9-0.2,1.3-0.2c0.7,1.8,1.5,3.6,2.3,5.7c5.7-7.7,11.4-15.3,17.3-23.2
		c-13.1-8.2-26.1-8-40-0.5c5.3-9.5,25-9.8,41.7-1.5c3.9-4.6,7.7-9.4,11.7-14c3.9-4.4,7.4-9.5,13.5-11.7c-4.9,11.4-12.5,21-20,30.5
		c-7.7,9.6-15.7,19-23.9,28.9c3.9,4.6,8.1,9.5,12.3,14.3c1.4-0.8,2.6-1.4,5.1-2.8c-1.5,2.6-2.2,3.9-3,5.4
		c10.1,13.7,21.2,26.9,29,42.2c-0.5,0.5-1,1-1.5,1.5c-1.9-1.7-4.2-3.2-5.8-5.1c-10.8-13.8-21.4-27.6-32.1-41.4
		c-1-1.2-1.9-2.5-3.8-3.4c0.2,3.1,0.3,6.1,0.5,9.4c1.5,0.2,2.9,0.4,5.3,0.8c-7.6,2.8-4.4,8-4.7,12.5c2.6-0.3,4.9-0.6,7.2-0.8
		c0.1,0.4,0.2,0.8,0.4,1.1c-2.3,0.8-4.6,1.6-7.3,2.6c1.3,71.8,2.7,143.8,4,216.3c7.5,0,14.7,0,21.9,0c3-15.4,0.8-31.6-5.3-39.3
		c-1.3,0.4-2.7,1-4.1,1.3c-4.2,0.9-7.7-0.5-9.8-4.2c-2.1-3.7-1.6-7.5,1.4-10.6c2.9-3,6.5-3.4,10.1-1.7c3.9,1.8,5.9,5.3,4.8,9.4
		c-0.9,3.6,0.1,5.9,3.3,8.9c0-7.4,0.2-13.8-0.2-20.2c-0.1-1.3-2.8-2.7-4.5-3.4c-7.8-3.1-12.2-10.7-10.7-18.8
		c1.5-8,8.4-13.7,16.7-13.7c8,0.1,14.7,5.7,16.2,13.6c1.5,8.1-2.9,15.9-10.6,18.7c-1.4,0.5-2.8,0.9-4.5,1.4c0,12.6,0,25.1,0,37.7
		c3.1-4.3,8.9-6.8,6.5-14c-1.7-5,2.9-11,8.1-12.9c5.1-1.9,11-0.1,14.4,4.2c3.6,4.6,3.7,10.7,0.3,15.3c-3.4,4.6-9.4,6.3-14.7,4.1
		c-2-0.8-3.7-2-5.8-3.2c-7.9,7.3-10.5,16.2-8.6,27.1c10.9,0,22,0,33.7,0c0-5.9,0-11.6,0-17.2c-0.1-17.2,0-34.3-0.3-51.5
		c0-1.9-1.8-3.7-2.8-5.6c-2.4-4.5-6-8.6-7.1-13.4c-7.2-31.9-3.9-62.9,9.6-92.7c0.2-0.4,0.6-0.7,1.4-1.6c0.8,1.2,1.6,2.1,2.1,3.1
		c12.8,28.6,15.4,58.4,9.6,89c-1.2,6.4-2.9,13.2-9.7,16.7c-0.6,0.3-0.9,1.7-0.9,2.6c0,23.3,0,46.6,0,70.4c5.7,0,11.1,0,17.1,0
		c0-91.3,0-182.7,0-274.3c1.8-0.2,3.1-0.4,4.4-0.4c13.7,0,27.3,0,41,0c5.7,0,12.4,6.6,12.4,12.3c0,4.5,0,9,0,14.8
		c5.3-5.1,9.8-9.4,15.4-14.7c8.1,8.9,16,17.7,24,26.5c0.6-0.4,1.1-0.8,1.7-1.2c0.1-1.6,0.3-3.1,0.3-4.7c0-12.2-0.1-24.3,0.1-36.5
		c0-2.2,1.1-4.9,2.6-6.5c21.9-21.7,43.6-43.6,66-64.7c5.2-4.9,12.8-7.4,19.5-10.7c0.8-0.4,2.8,0.7,3.7,1.5
		c22.6,22.2,45.1,44.4,67.5,66.8c1.5,1.5,2.2,4.4,2.2,6.6c0.1,68.2,0.1,136.3,0.1,204.5c0,25,0,50,0,75c0,1.8,0,3.6,0,6.1
		c6.7,0,13.1,0.7,19.2-0.3c3.5-0.5,7.2-3.3,7.3-8.1c0-1.8-0.1-3.7,0.1-5.5c0.2-3.1-0.6-5.1-3.8-6.6c-5.1-2.3-8.1-6.7-9.2-12.3
		c-0.6-3.1,0.4-4.4,3.6-4.2c2.3,0.1,4.6,0,7.5,0c-2.7-5.7-7.8-6.3-13.2-7.5c5.1-1.9,9.9-0.3,13.8,4c4.5,4.9,5.5,4.9,10.1,0.2
		c3.6-3.6,7.6-6.1,13.7-5.3c-4.8,2.5-9,4.6-13.1,6.7c0.2,0.5,0.4,1.1,0.6,1.6c3.7,0.2,7.5,0.4,11.2,0.6c1.2,6.7-2.1,12.7-8.8,16.4
		c-4.2,2.3-5.2,12.7-1.9,16.2c3.1,3.4,6.6,4.4,11,4c4.1-0.3,8.3-0.1,13.2-0.1c0-2.2,0-4,0-5.8c0-24.2-0.1-48.3,0.1-72.5
		c0-2.3,1.2-5.2,2.8-6.9c6.6-7.3,13.7-14.1,20.4-21.3c1.5-1.6,2.5-4.3,2.6-6.5c0.3-6.6-0.2-13.3,0.2-20c0.5-9.8-4.7-16.9-8.8-22.9
		c-5.8,0.6-10.5,2.1-14.9,1.4c-7-1.1-11.1-8.8-9.6-15.7c1.5-7,8.3-11.8,15.2-10.8c7.1,1.1,13.6,7.9,11.5,14.3
		c-2.8,8.3,2.3,12.9,5.5,18.9c5.2-15.9-3.5-38-19.4-48.9c-0.8,0.9-1.7,1.8-2.6,2.7c-4.8,5-11.7,5.9-17.3,2.3
		c-5.6-3.5-7.9-10.4-5.5-16.6c2.3-6.1,8.7-9.6,15.3-8.4c6.5,1.2,11.3,6.7,11,13.5c-0.2,3.1,1.2,4.6,3.1,6.7c4.6,5,8.7,10.4,13,15.7
		c1,1.2,1.7,2.6,3.5,3.6c0-8.6,0.1-17.2-0.2-25.7c0-1-2.6-2.4-4.1-2.8c-10.6-2.8-17.8-9.3-20.2-20c-2.4-10.4,0.7-19.5,9.1-26.4
		c8.3-6.8,20.1-7.7,29.5-2.3c9.5,5.4,14.5,16,12.8,27.2c-1.5,10.1-9.6,19-20.1,21.1c-4,0.8-5,2.2-4.9,6.1c0.3,13.3,0.1,26.6,0.1,41
		c1.2-1.4,1.9-2.2,2.4-3c3.2-4.4,6.6-8.8,9.6-13.3c0.8-1.3,1.4-3.3,1-4.7c-3.4-11,0.3-20.8,9.8-25.5c8.9-4.3,19.8-1.4,25.2,6.8
		c5.4,8.2,4,19.4-3.3,25.9c-7.9,7-18.8,6.6-27.6-1.1c-0.5-0.4-1-0.9-1.9-1.6c-7.8,9.4-15.9,18.4-15.2,31.9
		c0.5,10.1,0.1,20.3,0.1,31.6c1.9-1.6,3.1-2.6,4.1-3.6c7.2-7.4,14.5-14.7,21.6-22.3c2.5-2.7,5.1-3.6,8.7-3.6c11,0.2,22,0.1,33,0.1
		c1.6,0,3.3-0.1,5.5-0.2c0-10.1,0-19.9-0.1-29.6c0-0.8-0.6-2-1.3-2.4c-5.8-3.3-7.7-9.1-8.9-15c-6.5-31.1-3.7-61.3,9.2-90.4
		c0.4-1,1.2-1.9,2.1-3.5c1,1.7,1.9,2.8,2.5,4.1c12.2,28.2,15.1,57.5,9.4,87.6c-1.3,6.7-2.9,13.5-9.6,17.3c-0.6,0.4-1.1,1.7-1.1,2.5
		c-0.1,9.6,0,19.3,0,29.3c2.4,0,4.5,0,6.8,0c-0.5-9.5,3.7-15.5,13.1-17.5c-0.2-5.6,0.9-11.8,6.7-12.5c6.8-0.8,12.2-4.7,18.4-6.1
		c5-1.1,10.2-0.9,14.9-4c1.9-1.2,6.4-0.6,8.3,0.9c3.3,2.7,6.7,4.2,10.8,5.3c5.9,1.6,9,6.2,9.5,12.2c0.5,5.8-2,10.3-7,13.4
		c-1.1,0.7-2.3,1.2-3.4,1.7c0.4,10.5-0.8,12.2-9.6,15.9c4.3,4.3,8.6,8.8,13,13.2c6-22.4,25-28.8,42.2-22c2.4-7.4,6.2-13.9,13-18.2
		c18.8-11.7,42.8,0.3,44.4,22.4c0.3,3.7,1.4,4.9,5,5.8c21.7,5.2,34.5,27,28.7,48.5c-5.6,20.9-27.5,33.4-48.5,27.2
		c-4.3-1.3-6.7,1.2-10.1,2.2c-6.2,1.9-7.2,5.7-7,11.5c0.4,11.6,0.1,23.3,0.1,35c0,2,0,3.9,0,5.9c5.5,0,10.4,0,15.2,0
		c0.1-0.5,0.1-0.9,0.2-1.4c-2.9-0.5-5.8-1-8.7-1.5c0-0.4,0-0.9,0.1-1.3c2.1-0.1,4.1,0,6.1-0.4c0.9-0.1,1.6-1.1,2.4-1.7
		c-0.8-0.6-1.6-1.6-2.5-1.7c-1.8-0.3-3.6-0.1-6.1-0.1c-0.1-1.9-0.2-3.6-0.4-6c2.6,0,4.7,0.1,6.8-0.1c0.8-0.1,1.4-1,2.2-1.5
		c-0.7-0.7-1.4-1.8-2.2-1.9c-1.9-0.3-3.9-0.1-6.3-0.1c0-4,0-7.6,0-11.2c3.3-0.7,6.6-1.4,10.3-2.3c0.8,0.3,2.5,1.4,4.1,1.4
		c12.3,0.1,24.7,0.1,37,0c1.5,0,3-1,4-1.4c3.3,0.7,6.4,1.4,10,2.2c0,3.2,0,6.8,0,10.8c-1.5,0.1-3.2,0-4.7,0.4
		c-1.3,0.3-2.4,1.1-3.6,1.6c1.3,0.7,2.5,1.6,3.8,2c1.4,0.4,2.9,0.3,4.6,0.4c0,1.9,0,3.4,0,5.7c-2.3,0-4.4-0.1-6.5,0.1
		c-0.7,0.1-1.3,1.1-1.9,1.7c0.6,0.6,1.2,1.5,2,1.7c1.8,0.3,3.7,0.3,5.6,0.4c0,0.4,0,0.8,0,1.3c-2.5,0.4-5,0.9-7.5,1.3
		c0,0.5,0.1,0.9,0.1,1.4c4.9,0,9.8,0,16.1,0c0-10-0.2-20.1,0.1-30.2c0.1-2.7,1.8-5.3,2.7-8c0.6-1.7,1.5-3.3,1.5-5
		c0.1-42.3,0.1-84.7,0-127c0-1.2,0.1-2.4-0.3-3.5c-6.2-18.5-14.4-35.9-28.9-49.5c-3-2.8-6.7-4.7-10.7-7.5c-1.5,6.4-5.6,5.3-9,3.8
		c-3.8-1.6-7.3-3.9-10.6-6.3c-0.9-0.6-1.3-2.8-0.9-3.9c0.2-0.7,2.3-1.5,3.4-1.3c2.8,0.5,5.5,1.3,8.1,2.3c13.2,5.4,26.4,11,39.7,16.3
		c1.6,0.6,4.1,0.2,5.6-0.6c3.5-1.9,6.5-1.6,9.8,0.3c1.5,0.9,4,1.3,5.6,0.7c16.3-5.8,32.5-11.8,48.8-17.8c0.5-0.2,0.9-0.5,1.4-0.6
		c3.1-0.7,6.9-3.2,8.8,0.6c0.6,1.2-3.2,5.1-5.6,7c-2,1.6-4.7,2.5-7.3,3.1c-3.3,0.8-7,1.5-7-3.7c-13.1,2.2-23.3,8.8-29.7,19.7
		c-6.7,11.4-12.3,23.5-18.2,35.4c-0.9,1.8-0.9,4.2-0.9,6.3c0,41.7-0.1,83.3,0.1,125c0,2.4,1.7,4.7,2.5,7.1c0.7,2,1.7,3.9,1.8,5.9
		c0.2,10.3,0.1,20.6,0.1,31.4c6.4,0,11.7,0,17.1,0c-3.2-8.6-3-9.3,4.5-15.3c0.6-0.5,1.1-1.2,1.3-2c1.6-6.4-4.3-15.2-10.9-16.5
		c-6.4-1.3-11.9-7.6-14.1-16.5c6.7-0.5,15,4.6,17.9,11.1c0.7,1.5,1,3.2,1.9,4.6c1.2,1.8,2.8,3.3,4.2,4.9c3.3-7.2,0.8-19.3-5.1-24
		c-1.1-0.8-2.7-1.1-4.1-1.4c-7.3-1.5-13.8-9.1-14.4-17.6c7.6,1.9,14.2,4.7,17.8,12.2c1.5,3.2,3.5,6.2,5.5,9.8
		c3.6-8,1.3-19.3-4.5-24.4c-0.7-0.6-1.6-1.4-2.5-1.4c-10.4-0.8-13.6-8.7-17.1-16.7c7.4-0.7,15.8,4.9,18.9,11.8
		c1.4,3.2,3.5,6.1,5.9,8.9c0.6-5.4,1.5-10.4-1.3-15.5c-4-7.3-1.5-14.4,2.6-21.2c5.3,4.8,6.8,14.9,4.3,21.2
		c-1.9,4.7-2.4,9.9-3.5,14.8c0.8,0.3,1.5,0.6,2.3,0.8c1.8-3,3.8-5.9,5.3-9c3.6-7.7,10.1-10.9,18-12.7c-0.4,7.8-6.7,16.3-13.3,17.2
		c-6.8,0.9-9.5,5.6-10.7,10.9c-1.1,4.6-0.2,9.7,0.8,15.1c1.7-2.9,3.8-5.6,5-8.6c2.8-6.7,10.8-12.3,18.3-12.3
		c-1,7.8-7,15.1-13.6,16.7c-6.3,1.4-10.5,6.1-11.1,12.8c-0.3,4.1-0.1,8.3,1.1,13.1c1.7-2.7,3.9-5.3,5.1-8.3
		c2.9-7.2,11-12.9,18.5-12.6c-1.8,9.3-7.2,15-15.8,16.8c-5.3,1-11.5,12.8-8.7,17.1c1.9,2.8,5.2,4.7,8.2,7.3c2.4-2.1,5.8-3.8,9.5-0.9
		c3.7,2.8,2.6,6.4,1,10.7c3.5,0,6.6,0,9.7,0c3,0,6,0,9.7,0c0-2,0-3.6,0-5.1c0-30.2,0-60.3,0-90.5c0-2.7-0.5-4.6-2.9-6.7
		c-2.8-2.5-5-6.3-6.1-10c-5.7-19.2-6-38.9-2.4-58.4c2.1-11.7,6.5-23,9.9-34.4c0.4-1.5,1.4-2.8,2.6-5.1c1.2,2.3,2.1,3.6,2.7,5.1
		c12.2,28.4,14.9,57.8,8.9,88.1c-1.2,6.2-3,12.3-9,16.1c-1,0.6-1.5,2.5-1.5,3.9c-0.1,31.7,0,63.3,0,95c0,0.5,0.2,0.9,0.5,1.8
		c3.8,0,7.7,0,12.2,0c0-10.8,0-21.4-0.1-32c0-0.8-1.2-1.6-1.8-2.5c-2-2.9-5.2-5.6-5.8-8.7c-3.2-18.2-0.1-35.8,7.5-52.6
		c0.2-0.4,0.6-0.7,1.2-1.3c0.5,0.5,1.1,0.8,1.4,1.3c7.5,16.5,10.3,33.7,7.8,51.6c-0.6,4.2-1.9,8.1-6.5,9.9c-0.7,0.3-1.5,1.4-1.5,2.2
		c-0.1,10.6-0.1,21.3-0.1,32c3.2,0.3,5.8,0.6,8.5,0.9c0,0.4-0.1,0.8-0.1,1.3c-648.4,0-1296.8,0-1945.2,0c0-0.5,0-0.9,0-1.4
		c6,0,11.9,0,18.1,0c-3.5-9.1-2.9-13.5,1.9-16.8c4-2.8,9.3-2.5,12.9,0.8c4.1,3.6,4.5,8.3,0.9,15.5c1.9,0.1,3.6,0.2,5.7,0.3
		c0-32.1,0-63.8,0-95.8c-5.3,4.9-10.3,10.1-16,14.4c-5.6,4.3-12,7.1-19.4,4.8c13.1-0.2,21.2-8.6,29.9-16.8
		c7.2-6.8,5.9-14.8,5.7-23.4c-5.2,4.6-9.8,9.3-14.9,13.2c-5.1,3.9-10.9,6.5-17.8,4.1c10.2-0.2,17.3-6.1,24.5-12.3
		c8.2-7,9.8-15.7,7.9-25.9c-4.3,3.9-8.5,8-13.1,11.6c-4.7,3.6-10.1,6.1-16.5,3.7c9.6-0.4,16.2-6,23.1-11.9
		c7.9-6.8,7.5-15.2,6.6-24.8c-7.9,7.3-14.4,16.4-26.7,13.9c8.7-0.6,14.8-5.7,21.1-11.2c7.6-6.6,5.9-14.8,5.9-23.6
		c-4,3.4-7.4,6.8-11.2,9.5c-3.8,2.7-8.1,4.7-12.8,2.8c19.9-5,27.1-16.5,23.6-33c-3.2,2.7-6.1,5.6-9.4,7.9c-3.3,2.3-7,4.3-11.6,1.8
		c7.7-0.5,12.8-5.1,17.9-10.1c6.3-6.1,2.3-13.5,4.1-21.4c-3.8,3.1-6.5,5.6-9.4,7.5c-2.9,2-6.2,3.4-10.7,1.2
		c14.1-3.3,22.3-9.3,19.4-28.9c-4.9,2.9-8.6,8.7-15.8,6.1c7.8-0.8,12.3-6.3,16.3-11.2c5.8,4.1,11.3,8.1,17,12.1c-5.9,1-9.8-3.3-14-7
		c-3.5,13.4-0.8,24.2,17.4,28.7c-4.6,2.5-7.2,1.4-17.5-7.4c-4,13.1,0.5,25.8,20.4,30.2c-4.5,2.7-4.9,2.6-20.7-9.2
		c-3,13-0.5,25.8,23.6,32.2c-5.6,2.8-9.6,0.8-23.3-11.2c-4.2,11.3,0,27.9,25.9,34c-5.9,2.7-7.3,2-26.3-13.3
		c-4.1,17.7,7.2,31.5,29.3,35.8c-3.8,2.5-9.5,1.7-16-3.2c-4.7-3.5-8.9-7.7-13.3-11.6c-3.8,18.7,8.5,33.1,32.2,37.7
		c-4,2.7-10.6,1.6-17.9-4c-5.1-3.8-9.6-8.5-14.4-12.8c-3.9,19.1,9,33.7,35,39.7c-4.4,2.7-11.6,1.4-19.3-4.6
		c-5.6-4.3-10.5-9.4-16-14.5c0,31.9,0,63.6,0,95.6c1.9,0,3.5,0,5.1,0c-1.4-9.6,0-12,9-15.7c1.1-0.5,2-1.6,3-2.4
		c1.4-1.1,2.7-3.2,4.2-3.3c8.7-0.6,16.7-6.6,24.8-3.6c3.5-3.4,6.6-6.3,9.6-9.5c0.8-0.8,1.1-2.3,1.1-3.6c0.1-11.3,0.1-22.7,0.1-34
		c0-1.3-0.5-3.3-1.5-3.9c-5.5-3.2-7.3-8.7-8.5-14.1c-6.8-31.2-3.8-61.6,8.8-90.9c0.5-1.1,1.4-2.1,2.7-4.2c2.3,5.6,4.4,10.2,6,15
		c8.9,26,10.6,52.5,4.8,79.3c-1.2,5.8-2.9,11.7-8.8,15.1c-0.8,0.4-1.3,1.9-1.3,2.9c-0.1,12.3-0.1,24.6-0.1,37.3
		c5.7,1,10.1,3.3,12.7,8.7c0.6,1.3,4,1.3,6.8,2.1c0-2.7,0-4.7,0-6.7c0-46.3,0-92.7-0.1-139c0-4.1,1-7.4,3.5-10.5
		c3.5-4.3,6.8-8.7,9.7-13.3c2.5-3.9,5.4-6.1,10.1-5.3c1.2,0.2,2.6-0.2,4.4-0.5c0-8.4,0.2-16.5-0.1-24.6c-0.1-3.5,0.8-6.1,3.4-8.3
		c2.4-2.1,4.4-4.6,6.8-6.6c2-1.7,4.5-2.9,7.8-5.1c0-2.1,0.2-5.6-0.1-9c-0.3-3.1,1-4.9,3.6-6.3c5.5-3,10.9-6.2,17.3-9.9
		c0-2,0-5.3,0-8.6c0.1-7.2,3.7-10.6,10.6-10.6c3,0,4.2,0.9,4.1,4c-0.2,4-0.1,8-0.1,12c0,2.9-0.6,6.3,4.6,5c0,89.6,0,178.5,0,268
		c4,0,7.5,0,11.9,0c0-2.2,0-4.3,0-6.4c0-95.7,0-191.3-0.1-287c0-3.7,1-6.2,3.6-8.7c7.1-6.8,13.9-13.9,21-20.7
		c1.4-1.3,3.6-2.4,5.5-2.4c7.8-0.3,15.7-0.3,23.5,0c1.9,0.1,4.3,0.9,5.7,2.2c7.7,7.4,15.2,14.9,22.6,22.6c1.2,1.3,2.1,3.4,2.1,5.2
		c0.1,53.3,0,106.7-0.1,160c0,44,0.1,88,0.1,132c0,1,0.1,1.9,0.3,3.2c4.3,0,8.4,0,13.1,0c0-2,0-3.8,0-5.6c0-50.8,0-101.7,0-152.5
		c0-17.5-0.1-35,0.1-52.5c0-2,1.2-4.5,2.7-5.8c8.8-7.7,17.8-15.1,26.9-22.4c1.5-1.2,3.8-1.9,5.8-2c6.1-0.3,12.2-0.1,19-0.1
		c0-2.7,0-4.8,0-6.9c0-36-0.1-72,0.1-108c0-2.9,1.2-6.2,3-8.5c6.8-9,14-17.8,21.1-26.6c0.9-1.1,1.9-2.2,3.2-3.6
		c6.8,4.9,13.4,9.7,19.9,14.5c13.1,9.5,26,19.2,39.2,28.5c2.9,2,3.7,4.2,3.7,7.4c-0.1,37.3,0,74.7-0.2,112c0,5.1,1.7,7.7,7.1,8.9
		c0-9.9,0.2-19.5-0.1-29c-0.2-4.3,1.3-7.2,4.3-10c5.4-5,10.3-10.5,15.7-15.4c1.8-1.6,4.5-2.7,6.9-2.8c9.4-0.3,18.9-0.1,29-0.1
		c0-11,0.2-21.3-0.1-31.6c-0.1-3.9,1-6.9,3.6-9.9c7.2-8.1,14.1-16.4,20.9-24.8c2-2.4,4.1-3.5,7.2-3.3c4.5,0.3,9-0.2,13.5,0.1
		c4.1,0.3,5.1-1.4,5-5.2c-0.2-6.7-0.3-13.3,0-20c0.1-2.5,1.1-5.2,2.5-7.2c5.1-6.8,10.5-13.3,16-19.8c1-1.1,2.6-2.4,3.9-2.4
		c13.7-0.1,27.3,0,41,0.1c0.5,0,0.9,0.3,1.8,0.7c0,134.3,0,268.8,0,403.7c8.3,0,16.2,0,24.4,0c0-28.2,0-56.5,0-85.5
		c-6.6,0-13.4,0-20.2,0c-1-6-1-10.6,4.1-14.3c4.3-3.1,7.9-7.2,11.8-10.8c6.1-5.5,6.6-15.5,0.7-21.5c-1.1-1.2-3.1-1.8-4.7-2.2
		c-5.8-1.6-10.4-7.3-11.1-14c10.5,0.3,14.2,8.7,18.8,16.1c1.4-6.2,1.7-11.8-2.6-16.6c-1-1.2-2.5-2.4-4-2.6
		c-7.8-1.4-10.5-7.2-13.1-14.1c11.3,0.1,14.7,8.8,19.3,16.5c3.7-9.6,0.1-17.6-8.4-20.1c-5.1-1.5-9.5-7.4-10.1-13.7
		c10.8,0,13.9,9.1,18.6,16.3c0.6-0.3,1.2-0.6,1.8-0.8c-0.7-3.5-1-7.2-2.3-10.4c-2.5-6.4-1.4-11.9,2.2-17.5
		c4.6,3.7,5.9,11.6,3.8,16.9c-1.4,3.5-2,7.3-2,11.5c5.7-6.7,8.9-16,19.7-16c-0.7,6.7-5.3,12.4-10.6,13.8c-5.2,1.4-8.5,5.1-9.1,10.3
		c-0.2,1.8-0.1,3.7-0.1,5.5c0,1.1,0.1,2.2,0.3,5.1c5.6-8.1,8.7-17.3,19.2-17.5c0.5,5.3-4.5,12.2-9.8,13.7c-6.3,1.8-9.3,5.5-9.6,12
		c-0.1,2.4,0,4.9,0,7.3c0.4,0.1,0.8,0.3,1.2,0.4c2.3-3.6,4.1-7.8,7.1-10.7c2.9-2.8,7.1-4.3,11.2-6.7c0,6.9-4.1,12.8-9.2,14.8
		c-8.9,3.4-10.9,6.6-10,17.6c3.9-3.6,7.8-6.5,10.8-10c5.1-5.9,11-8.7,18.8-7.4c2.1,0.4,4.3,0.1,7.3,0.1c0-2.1,0-3.8,0-5.6
		c0-12.7-0.5-25.4,0.2-38c0.6-11.5-4.9-19.6-12.1-27.7c-1.3,1-2.4,2-3.5,2.8c-6.6,4.7-15.5,4.1-21.2-1.4c-5.6-5.4-6.5-14.1-2.3-20.6
		c4.2-6.6,12.5-9.2,19.8-6.4c7.3,2.8,11.9,10.9,9.7,18.7c-1.2,4.1,0.1,6.4,2.4,9.2c2.2,2.6,4.1,5.7,6.6,9.3c0-12.4,0-24,0-35.9
		c-1.2-0.3-2.7-0.6-4.1-1c-10.7-3-17.1-12.9-15.6-24.2c1.3-10.1,10.3-18,20.7-18.3c10.7-0.3,20,7.4,21.9,18.1
		c1.8,10.2-4.2,21-14.6,23.7c-5.6,1.4-6.1,4.2-5.8,8.7c0.3,4.6,0.1,9.2,0.1,14.1c5.2-5.8,10.2-11.2,15-16.7c0.6-0.7,0.4-2.2,0.5-3.3
		c0.3-6,3.8-10.2,9.4-11.2c5.1-0.9,10.1,1.8,12.2,6.7c2.1,4.8,0.6,10.4-3.4,13.5c-4.4,3.3-10.3,3-14.7-0.8c-0.9-0.8-1.6-1.7-2.8-2.9
		c-8.9,8.7-17,17.4-16.2,31.1c0.4,6.3,0.1,12.5,0.1,19.3c5.1-4.6,5.8-6.7,4.8-12.5c-0.9-5.2,1.7-10.2,6.4-12.4
		c4.3-2,10.1-0.8,13.3,2.9c3.4,3.9,3.7,9.7,0.7,13.9c-2.9,4.2-8.4,5.9-13.3,4.1c-1.2-0.5-2.4-1.1-4.7-2.3c-2.4,4.9-6.2,9.5-6.7,14.5
		c-1.1,9.8-0.3,19.9-0.3,30.4c5.1,0,9.7,0,14.3,0c21.2,0,42.3-0.1,63.5,0.1c2.5,0,5.4,1.3,7.4,3c5.3,4.3,10.1,9.1,15.9,14.4
		c0-18.8,0-36.6,0-54.7c-5.3,4.8-10.4,9.9-16,14.4c-5.6,4.5-11.9,7.4-19.9,5.4c5.9-1.9,12-2.6,16.3-5.7c7-5.1,13.8-11.2,18.7-18.3
		c2.7-3.9,1.1-10.7,0.9-16.4c-8.5,8.1-16,17.1-28.4,18.4c-1.4,0.1-3-0.4-5.3-0.8c5.6-1.7,10.9-1.9,14.4-4.5
		c6.7-5,13.5-10.6,18.2-17.3c2.7-4,1.5-10.7,1.4-16.6c-8.9,7.8-16.4,17.6-29.9,15.4c9.4-0.7,16-6.2,22.9-12.1
		c7.8-6.8,7.9-15,6.7-24.4c-4.2,3.7-8,7.6-12.4,10.6c-4.2,3-9,5.5-14.7,2.7c9-0.2,15.1-5.5,21.4-11c7.5-6.6,6.2-14.7,5.9-23.5
		c-4,3.5-7.4,6.7-11.2,9.5c-3.8,2.8-8.2,4.5-13,2.8c20.8-5.7,27.1-16.9,23.8-33.1c-6.2,5.1-11.4,12.5-21.1,10
		c10.6-1.1,16.6-8.5,22.6-16.4c6,7.6,11.8,15.4,23.6,15.7c-6.3,2.9-7.6,2.3-21.7-9.1c-3.8,15,2.6,27.2,23.3,32.4
		c-5.5,2.6-6.5,2.1-23.5-11.4c-3.2,18,7.1,31.2,26.2,33.8c-2.9,2.6-8.1,2-14.3-2.5c-4.2-3.1-7.9-6.8-11.9-10.3
		c-3.3,18.5,6,30,29.3,36c-6.5,3.8-13.8,0-29-15.2c-7.2,15,12.2,37.5,31.8,37.7c-3.6,2.7-9.6,1.8-17.7-3.9
		c-5.2-3.7-9.7-8.4-14.4-12.6c-4.7,18.1,12.4,37.3,34.9,38.9c-3.2,3.4-11.5,2.1-19.3-4c-5.6-4.3-10.6-9.5-16.1-14.6
		c-0.1,1.1-0.3,2.3-0.3,3.5c0,16.7-0.1,33.3,0.2,50c0,2,1.2,4.5,2.6,5.9c4.1,4.3,8.4,8.7,13.2,12.2c5,3.7,6.1,8.2,4.7,14.6
		c-6.6,0-13.3,0-20.3,0c0,10.1,0,19.6,0,29.4c9.9,1.3,16.4,6.7,19.4,16.2c-4.9-6.5-9.5-13.5-19.4-13.7c0,18,0,35.8,0,53.4
		c7,2.6,12.3,0.1,16-5.3c1.4-2.1,0.6-5.7,1-8.7c0.4-3.4-0.8-5.2-4.1-6.9c-6.1-3.1-9.1-8.5-9-16c3.7-0.2,7.3-0.4,10.8-0.6
		c0.2-0.5,0.4-1,0.6-1.6c-4-2.1-8.1-4.2-12.1-6.4c0-0.3,0-0.5,0-0.8c2.4,0.5,5,0.5,7.1,1.6c2.6,1.4,4.7,3.6,6.9,5.6
		c2.5,2.2,4.9,3.6,6.9-0.5c4.3-3.4,8.3-7.6,14.8-6.2c-4.5,2.3-8.5,4.5-12.5,6.6c0.2,0.5,0.4,1,0.7,1.5c1.1,0.1,2.3,0.2,3.4,0.4
		c2.7,0.4,5.4,0.8,8.1,1.2c-0.9,3.3-1.5,6.7-3,9.8c-0.8,1.8-2.7,3.8-4.5,4.4c-5.6,1.8-5.7,5.8-5.5,10.6c0.3,9.6,6.5,14,16.6,10.7
		c0-17.4,0-35.1,0-52.8C879.5,394.3,872.6,399.4,869.3,408.5z M1165.4,166.6c-1.1,0.1-2.6-0.1-3.1,0.5c-5.3,6.8-10.5,13.7-15.7,20.6
		c0.4,0.3,0.8,0.6,1.3,1c5.8-7.4,11.6-14.8,17.4-22.2c5.6-7,11.2-14.1,16.7-21.1c-0.4-0.3-0.8-0.6-1.2-0.9
		c-4.7,5.6-9.4,11-13.9,16.7C1165.8,162.6,1165.9,164.8,1165.4,166.6z M1653.9,246.3l-0.1-0.1c0.2,0.8,0.6,1.6,0.5,2.3
		c-0.8,4.4-1.8,8.8-3,14.3c2.5-1.1,3.5-1.6,5-2.3c-1.7,4.3-3.2,7.9-4.6,11.6c0.5,0.2,1.1,0.5,1.6,0.7c4.6-2.5,6-7.3,7-11.8
		c6.6-29.8,4.2-58.8-7.5-87.1c-0.3-0.8-1-1.4-1.8-2.5c-0.6,1.2-1,1.9-1.3,2.7c-10.7,25.9-13.3,52.7-8.7,80.3
		c0.8,4.7,2.5,9.3,4.2,13.8c0.7,1.9,2.5,3.4,3.8,5c0.5-0.2,1.1-0.5,1.6-0.7c-0.4-5,0.1-10.4-1.5-15c-1.6-4.6-5.4-8.5-8.3-12.7
		c0.5-0.3,1-0.6,1.5-1c2.3,3.1,4.6,6.1,7.1,9.4c3.1-7.6-1.1-13.2-3.3-19.3c1.1,1,2.2,2,3.3,3c4.4-10.5-5.3-16.2-8.5-23.9
		c0.4-0.2,0.8-0.4,1.2-0.7c2.4,3.1,4.8,6.1,7.2,9.2c0.5-0.2,0.9-0.4,1.4-0.6c0-8.6,0-17.1,0-25.7c0.5,0,1,0,1.4,0c0,6,0,12,0,18.4
		c1.7-1,2.7-1.6,3.7-2.1c-3.7,5.7-4.8,11.6-2.7,19.5c1.8-2.6,2.9-4.3,4.2-6.1c0.6,1.1,0.8,1.3,0.8,1.4c-1.5,2.4-3,4.7-4.5,7.1
		C1651.6,236.7,1651.7,244,1653.9,246.3z M673.1,425.1c0-85.1,0-169.7,0-254.5c-48.3,0-96.4,0-144.5,0c0,92.9,0,185.4,0,277.9
		c18.5,0,36.5,0,54.7,0c-0.3-0.7-0.3-1-0.5-1.3c-6.1-6.8-7.6-13.8-4.3-20.5c3.4-6.7,9.6-9.5,18.9-8.8c1,0.1,2.6-0.2,2.9-0.9
		c3.8-7.6,7.4-15.3,11.4-23.7c-3.5,0.6-6,1-8.4,1.4c-2.2,0.3-4.4,0.6-6.6,0.9c0-0.4,0-0.9,0-1.3c10.8-3.6,21.5-4.6,32.2,0.8
		c-3.7-0.1-7.3-0.6-10.9-1.5c-2.7-0.7-4.3,0-5.4,2.7c-2,4.8-4.4,9.3-6.5,14c-0.5,1-0.7,2.8-0.1,3.6c3.8,5.3,7.5,10.6,11.9,15.4
		c1.9,2.1,5.3,2.9,8.3,3.7c0.9,0.2,3.4-1.6,3.5-2.6c0.3-5.6,0.2-11.2,0.2-16.8c-2.2-0.5-3.9-1-5.5-1.4c0-0.3,0.1-0.6,0.1-0.9
		c4.3,0,8.6,0,14,0c-1.7,1.3-2.5,2-3.6,2.8c3.7,3,7.1,5.8,10.5,8.6C657,415.3,661.9,415.7,673.1,425.1z M1355.9,160.2
		c0,2.4,0,4.4,0,6.4c0,19,0.9,38-0.3,57c-0.8,13.1,2.3,23.1,13,31c2.1,1.5,3.4,5.3,3.4,8.1c0.2,45.1,0.1,90.3,0.2,135.4
		c0,1.7,0.2,3.5,0.3,5.2c38,0,75.5,0,113.7,0c0-2.7,0-5.1,0-7.6c0-76.5,0-152.9,0-229.4c0-6.6,0-6.6-6.5-6.6
		c-39.6,0.1-79.3,0.1-118.9,0.2C1359.4,159.9,1358.1,160,1355.9,160.2z M1369.8,448.5c0.1-1.7,0.2-2.8,0.2-4c0-56,0-112,0.1-168
		c0-4.3-1.7-4.9-5.3-4.9c-43.2,0.1-86.3,0.1-129.5,0c-4.6,0-5.9,1.2-5.9,5.8c0.1,55.2,0.1,110.3,0.1,165.5c0,1.8,0,3.5,0,5.5
		c6.9,0,13.2,0,20.1,0c0-20.1,0-39.8,0-59.5c13.9,0,27.2,0,40.9,0c0,20,0,39.6,0,59.5C1317.1,448.5,1343.2,448.5,1369.8,448.5z
		 M257.3,448.5c26.8,0,53,0,79.8,0c0-2.3,0-4.3,0-6.2c0-45.1,0-90.3,0-135.4c0-49.8-0.1-99.6,0.1-149.5c0-4.6-1.2-5.9-5.8-5.9
		c-22.8,0.2-45.6,0.1-68.5,0.1c-1.8,0-3.5,0-5.6,0C257.3,250.9,257.3,349.5,257.3,448.5z M452,445.5c0-0.4,0-0.7,0-1.1
		c0.7-0.2,1.4-0.4,2.2-0.6c2-0.6,4.1-1.1,6.1-1.6c-1.9-0.6-3.9-1.3-5.8-1.9c-0.2,0-0.4,0.1-0.5,0c-0.9-1.1-2.3-2.1-2.4-3.3
		c-0.1-0.8,1.5-2.1,2.5-2.6c1-0.5,2.4,0.1,3.4-0.2c1-0.3,1.8-1.3,2.8-1.9c-0.9-0.5-1.7-1.4-2.6-1.6c-1.9-0.2-3.8-0.1-6.3-0.1
		c0-2.8,0.2-5,0-7.1c-0.5-3.7,0.9-5.1,4.7-4.9c1.9,0.1,3.9-1.1,5-1.5c2.1,0.6,3.8,1.5,5.4,1.5c12,0.1,24,0.1,36,0
		c1.8,0,3.6-1.1,4.8-1.5c3.4,0.8,6.6,1.6,9.8,2.4c0,3.6,0,7.1,0,10.8c-1.7,0.1-3.1,0-4.3,0.3c-1.3,0.4-2.6,1.2-3.8,1.8
		c1.3,0.6,2.6,1.4,4,1.8c1.4,0.4,2.8,0.3,4.5,0.4c-0.2,2.1-0.3,3.7-0.5,5.7c-2.2,0-4-0.2-5.8,0.1c-0.9,0.1-1.6,1.1-2.4,1.7
		c0.8,0.6,1.5,1.5,2.4,1.7c1.5,0.4,3.2,0.4,4.8,0.6c0,0.4-0.1,0.7-0.1,1.1c-2.4,0.4-4.7,0.8-7.1,1.2c0.1,0.5,0.1,1,0.2,1.6
		c5.5,0,11,0,16.8,0c0.1-1.6,0.2-2.9,0.2-4.2c0-59.5,0-119,0.1-178.4c0-3.4-1.4-5-4-6.6c-27.1-17.2-54.2-34.5-81.3-51.7
		c-1.5-0.9-3-1.7-5-2.7c0,81.8,0,162.8,0,243.6c8.4,0,16.4,0,24.4,0c0-0.5,0.1-1.1,0.1-1.6C457.6,446.2,454.8,445.8,452,445.5z
		 M1777,311.4c-1.2-0.5-2.3-1.1-3.5-1.6c-15.7-6.6-33.4,2.5-36.7,19.1c-0.4,2.2,0.5,5.3,2,7c6,6.7,12,13.5,19,19.1
		c9.2,7.5,13.5,16.2,11.5,28c-0.3,1.8-0.3,3.7,0,5.5c0.2,1.3,0.8,3.1,1.8,3.7c7.8,5.2,16.4,7.3,25.7,5.5c1.1-0.2,2.7-2,2.7-3.1
		c0.2-9.5,0.1-19,0-28.5c0-1.1-0.5-2.3-1.1-3.2c-7.7-12.2-17.4-21.9-32.4-24.4c-0.8-0.1-1.6-0.7-2.4-1c0.2-0.6,0.4-1.1,0.6-1.7
		c6.2,2,12.4,4.1,18.7,6.2c0-8.6-4-15.4-9.4-21.7c1.4,0.3,2.5,0.9,3.3,1.7c5.5,5.4,7.4,12.4,8.5,19.8c0.2,1.3,0.3,2.9,1.1,3.6
		c4.6,4,9.4,7.7,13.6,11.1c0-5.3,0-12.7,0-20c0.5,0,0.9,0,1.4,0c0.3,1.9,0.7,3.8,1.1,6.1c9.3-15.6,13-19.7,19-19.9
		c-16.4,12.4-22,28.5-19,48.9c9.2-12.5,19.6-21.6,34.9-22.3c-2.9,1.6-6.3,2.3-9.5,3.6c-3.1,1.2-5.9,3.1-10,5.2
		c18.9,1.9,21.1,2.6,24.3,7.6c-1.3-0.5-2.2-0.6-3-1.1c-7-4-14.5-4.8-22.2-3.2c-2,0.4-4,1.5-5.6,2.8c-10.2,8.5-11,19.7-8.9,32.2
		c2-0.9,4.1-1.3,5.5-2.5c4-3.4,7.8-3.2,12.8-1.9c17.1,4.5,34.8-4.4,42.3-20.4c7.5-16.1,2.9-35.2-11.9-45.3c-5.7-3.9-12.7-6-19.5-9.1
		c-0.8-16.5-8-26.6-21.8-29.4C1795.6,285,1786.6,291.4,1777,311.4z M843.2,448.6c0-2.1,0-3.9,0-5.7c0-24.7-0.1-49.3,0.1-74
		c0.1-5.1-1.4-6.4-6.4-6.4c-43,0.2-86,0.1-128.9,0.1c-1.8,0-3.6,0.2-5.5,0.3c0,28.7,0,57,0,85.6c33.5,0,66.7,0,100.4,0
		c0-2.3,0-4.3,0-6.2c0-16.5,0.1-33-0.1-49.5c0-3.7,1-5,4.8-4.8c7.8,0.3,15.7,0.2,23.5,0c3.7-0.1,4.9,1,4.9,4.8
		c-0.2,16.7-0.1,33.3-0.1,50c0,1.9,0.2,3.8,0.2,5.8C838.7,448.6,840.6,448.6,843.2,448.6z M1661.5,368.4c-37.1,0-73.5,0-109.9,0
		c0,26.9,0,53.5,0,80.4c36.8,0,73.2,0,109.9,0C1661.5,421.9,1661.5,395.4,1661.5,368.4z M1691.5,448.9c0-2.6,0-4.4,0-6.2
		c0-14,0.3-28-0.1-42c-0.2-5.3,1.6-6.6,6.5-6.2c5.1,0.4,10.3,0.4,15.5,0c4.4-0.3,5.3,1.6,5.3,5.6c-0.2,14.7,0.1,29.3-0.1,44
		c0,3.8,1.2,4.8,4.9,4.8c13-0.2,26-0.1,39-0.1c1.4,0,2.9-0.3,4.4-0.5c0-26.8,0-53.2,0-80c-34.4,0-68.4,0-103,0c0,7.2,0,14,0,20.8
		c0,18.3-0.1,36.6-0.1,54.9c0,2.2-0.6,4.9,3.2,4.8C1674.8,448.9,1682.7,448.9,1691.5,448.9z M1109.6,446.7c0,0.6,0.1,1.3,0.2,1.9
		c6.8,0,13.5-0.2,20.2,0.1c3.8,0.2,5.8-1.4,7.6-4.4c8.1-13,4.8-29.2-8-38.5c-1.5-1.1-3-3.2-3.1-4.9c-0.8-13.1-8-23.3-19.4-27
		c-11.9-3.8-23.7,0.2-31.9,10.6c-1,1.3-3.1,2.3-4.7,2.3c-5.9,0.1-10.6,2.1-14.5,6.5c-1.1,1.3-3.5,2.2-5.3,2.1
		c-11.8-0.6-20.1,8.8-17.6,20.3c0.6,2.6,0.5,4-1.9,5.7c-6.9,4.9-8.7,12.6-5.4,20.4c0.8,2,1.1,4.2,1.6,6.1c10.6,0,21.9,0,33.1,0
		c0-0.4,0-0.8,0-1.2c-2.8-0.3-5.5-0.6-8.3-0.9c0-0.5,0-1,0-1.5c2-0.1,4.1,0,6.1-0.4c0.9-0.2,1.6-1.1,2.4-1.7
		c-0.8-0.6-1.6-1.5-2.6-1.7c-1.9-0.3-3.9-0.1-5.9-0.1c0-2.3,0-4,0-6c2.2,0,4.1,0.2,5.9-0.1c0.9-0.1,1.6-1.1,2.4-1.8
		c-0.8-0.6-1.5-1.7-2.4-1.8c-1.9-0.3-3.9-0.1-5.9-0.1c0-4.3,0-7.9,0-11.4c3.5-0.6,6.5-1.1,10.6-1.8c0.3,0.1,2.1,1.2,3.8,1.2
		c12.2,0.1,24.3,0.1,36.5,0c1.7,0,3.3-1,5.1-1.6c1.2,0.5,2.8,1.8,4.2,1.6c5-0.6,6.1,1.8,5.5,6.1c-0.2,1.8,0,3.6,0,6
		c-2.5,0-4.5-0.2-6.4,0.1c-0.9,0.1-1.6,1.1-2.4,1.8c0.8,0.6,1.5,1.7,2.4,1.8c2,0.3,4.2,0.1,6.6,0.1c-0.2,2.5-0.4,4.1-0.5,6
		c-2.2,0-4-0.2-5.8,0.1c-0.9,0.1-1.8,1-2.6,1.5c0.9,0.7,1.8,1.6,2.8,1.9c1.5,0.4,3.2,0.4,4.8,0.6c0,0.4-0.1,0.8-0.1,1.2
		C1114.4,446,1112,446.4,1109.6,446.7z M195.4,448.6c0-66,0-131.4,0-197.1c-6.4,0-12.5,0-18.9,0c0,65.8,0,131.3,0,197.1
		C182.8,448.6,188.9,448.6,195.4,448.6z M673.2,100.8c-28.2,0-56,0-84,0c0,22.4,0,44.5,0,66.8c28.2,0,56,0,84,0
		C673.2,145.2,673.2,123.2,673.2,100.8z M1484.3,157.5c-23.3-22.8-45.7-44.8-68.4-67.1c-19.6,22.5-38.7,44.4-58.5,67.1
		C1400.1,157.5,1441.6,157.5,1484.3,157.5z M241,448.7c0-24,0-47.7,0-71.9c-12.9,0-25.3,0.2-37.8-0.1c-4.5-0.1-5.6,1.4-5.6,5.6
		c0.2,20.3,0.1,40.6,0.2,60.9c0,1.7,0.2,3.5,0.4,5.4C212.6,448.7,226.6,448.7,241,448.7z M433.2,236.4c-0.8-0.3-1.3-0.5-1.8-0.5
		c-24.3,0-48.6,0-72.9-0.1c-3.2,0-3.9,1.4-3.9,4.3c0.1,15.8,0.1,31.6,0,47.5c0,3.9,1,5.1,5.1,5.1c23.3-0.2,46.6-0.1,69.9-0.1
		c1.1,0,2.2-0.2,3.6-0.3C433.2,273.5,433.2,255.1,433.2,236.4z M240.9,261.5c0-26.7,0-52.6,0-78.6c-6.5,0-12.6,0-19.3,0
		c0,8.4,0,16.5,0,25c-7.4,0-14.2,0-21.3,0c-0.1,2.1-0.3,3.7-0.3,5.3c0,10.8,0.1,21.7,0,32.5c0,2-0.7,4.1-1.5,6
		c-1.9,4.5-0.4,9.8,3.1,9.8C214.4,261.6,227.4,261.5,240.9,261.5z M1432.8,405.9c-20.5,0-40.4,0-60.4,0c0,14.4,0,28.5,0,42.7
		c20.3,0,40.1,0,60.4,0C1432.8,434.3,1432.8,420.2,1432.8,405.9z M173.8,255.5c-0.4-0.1-0.7-0.2-1.1-0.3c-3.1,4.3-6.1,8.7-9.5,12.7
		c-2.8,3.4-3.9,6.9-3.9,11.4c0.1,46.1,0.1,92.3,0.1,138.4c0,11.4,2.8,14.5,14.3,15.9C173.8,374.3,173.8,314.9,173.8,255.5z
		 M354.8,294.4c0,51.9,0,102.9,0,154.2c5.3,0,10.2,0,15.6,0c0-2,0-3.6,0-5.3c0-31.8,0-63.6,0-95.4c0-16.3,0-32.6,0.2-48.9
		c0-3.4-0.8-4.9-4.4-4.6C362.5,294.6,358.9,294.4,354.8,294.4z M1675.4,292c-7,0.4-12.2,3-13.9,10.1c-0.9,3.7-0.2,5.9,4.5,5.8
		c12.8-0.3,25.6,0,38.4-0.2c4.1-0.1,7.3,0.5,10.1,4c2.5,3.2,6.1,3.2,9.5,1.3c3.6-2,4.9-5.3,4.1-9.3c-0.3-1.4-0.9-2.7-1.4-3.9
		c0.6-0.4,0.8-0.7,1.1-0.8c7.9-2.4,11.3-6.7,10.7-13.4c-0.5-6.2-5-9.9-12.7-11c-1.4-0.2-2.5-1.8-3.8-2.4c-2.7-1.2-6.9-3.9-8.1-3
		c-5.4,4.2-11.6,3.4-17.6,4.5c-1.7,0.3-3.6,1.2-4.8,2.4c-2.5,2.4-4.9,2.9-8.4,2.5c-5.1-0.7-9.2,4.2-8.6,9.3
		C1674.6,289.2,1675,290.4,1675.4,292z M495.1,220.4c0-8.4-0.2-15.5,0.1-22.6c0.2-4.1-1.2-6.7-4.5-9.1
		c-13.8-9.8-27.4-19.9-41.1-29.9c-4.3-3.2-8.8-6.2-14-9.9c0,11.5-0.1,21.7,0.2,32c0,1.3,1.9,3,3.3,3.9c14.9,9.6,30,19.2,45,28.7
		C487.3,215.6,490.7,217.6,495.1,220.4z M1575.7,241.2c0-8.4,0-16.4,0-24.5c0.6,0,1.1,0,1.7,0c0,8.1,0,16.3,0,24.4
		c13.8-0.9,23.4-11.6,23-24.8c-0.5-12.8-11.3-23.1-24.2-23c-13.3,0.1-23.8,10.5-24,23.8C1552,230,1561.9,240.7,1575.7,241.2z
		 M1053.8,294.4c13.2,0.1,23.7-11.3,23.4-24.3c-0.4-13.3-12.2-24.3-25.3-23.5c-14.1,0.9-24,12.6-22.8,26.8
		c1.1,11.8,12.1,21.9,23.1,20.7c0-7.9,0-15.9,0-23.8c0.5,0,1.1,0,1.6,0C1053.8,278.2,1053.8,286.3,1053.8,294.4z M435.6,85.2
		c0,10.1-0.1,18.9,0.1,27.6c0,1.3,1.7,2.7,3,3.6c17.1,12.6,34.3,25.1,51.5,37.7c1.3,0.9,2.6,1.7,4.9,3.1c0-8.9,0.2-16.9-0.1-24.8
		c-0.1-2.1-1.4-4.7-3.1-6.1c-5.9-4.8-12.2-9.2-18.4-13.7C461.2,103.8,449,95,435.6,85.2z M435.5,116.9c0,9.1,0.1,16.9-0.1,24.6
		c-0.1,3.2,0.9,5.2,3.5,7.1c17,12.2,33.9,24.6,50.9,37c1.4,1,2.9,1.9,5.3,3.5c0-9,0.2-17-0.1-24.9c-0.1-2.1-1.4-4.8-3.1-6.1
		c-7.7-6-15.8-11.7-23.7-17.5C457.7,133,447.2,125.4,435.5,116.9z M372.5,448.5c20.6,0,40.6,0,60.6,0c0-9.6,0-18.8,0-28.4
		c-19.4,0-38.4,0-57.3,0.1c-1.1,0-3.1,1.7-3.1,2.6C372.4,431.3,372.5,439.8,372.5,448.5z M1147.4,448.6c0-2.2,0-4.2,0-6.1
		c-0.7-43.3-1.3-86.6-2.1-129.9c-0.5-25.5-1.2-50.9-1.9-76.4c-0.1-2.5-0.1-4.9-4-3.4c-0.1,1.2-0.3,2.5-0.3,3.8
		c-1.2,55.1-2.3,110.2-3.5,165.3c-0.1,3.8,0.7,6.9,2.9,10.1c6.9,9.8,7.4,20.4,2,31.1c-0.8,1.7-1.7,3.3-2.7,5.3
		C1141.3,448.6,1144.1,448.6,1147.4,448.6z M833.4,448.6c0-19.7,0-38.8,0-58c-9.6,0-18.8,0-27.9,0c0,19.6,0,38.7,0,58
		C814.9,448.6,824,448.6,833.4,448.6z M1962.6,333.2c-0.8,4.5-6.2,7.3-2.9,12.3c5.1-3.6,6.4-9.1,7.5-14.4
		c5.8-28.7,3.3-56.7-7.6-83.8c-0.4-1.1-1.2-2.1-1.8-3.2c-0.6,0.5-0.9,0.6-1.1,0.9c-0.4,0.9-0.8,1.8-1.2,2.7
		c-8.7,21.8-12,44.3-9.6,67.6c0.8,7.7,2.6,15.4,4.5,22.9c0.7,2.7,3,5,4.6,7.5c0.6-0.2,1.2-0.5,1.7-0.7c-0.3-5.1,0.5-10.5-1.1-15.1
		c-1.6-4.6-5.6-8.5-8.6-12.6c0.5-0.4,1-0.7,1.5-1.1c2.4,3.1,4.8,6.1,7.3,9.4c2.5-7.6-0.7-13.2-4.6-18.7c0.6-0.4,1.2-0.8,1.9-1.1
		c0.6,1.5,1.2,3.1,2.1,5.2c4.8-11.8-4.2-17.8-7.9-25.5c0.4-0.2,0.8-0.4,1.2-0.7c2.4,3,4.7,6,7.1,9c0.4-0.1,0.8-0.2,1.1-0.2
		c0-8.6,0-17.2,0-25.8c0.6,0,1.1,0,1.7,0c0,5.9,0,11.8,0,18.3c1.9-1.1,3-1.6,4.1-2.2c-4,5.7-4.9,11.5-3.1,19.3
		c1.6-2.5,2.8-4.2,3.9-6c0.5,0.3,1.1,0.6,1.6,0.9c-4,7-10.2,13.6-4.9,20.8c-0.6,5.9-1.1,10.7-1.7,15.9
		C1960.2,334.1,1961.2,333.7,1962.6,333.2z M937.5,304.3c-0.7,0.1-1.4,0.3-2,0.4c-8.8,20.6-13.1,42.2-11.5,64.7
		c0.7,9.7,2.8,19.4,4.8,28.9c0.6,2.8,3.1,5.1,4.8,7.7c0.6-0.3,1.1-0.5,1.7-0.8c0-3.5,0.5-7-0.2-10.3c-0.7-3.2-2.4-6.3-4-9.3
		c-1.5-2.8-3.6-5.3-5.4-7.9c0.5-0.4,1.1-0.7,1.6-1.1c2.3,3.1,4.5,6.2,7,9.5c3.1-7.6-1-13.2-3.2-19.3c1.1,1,2.2,2,3.4,3
		c3.9-10.6-5-16.4-8.7-24.1c0.4-0.3,0.8-0.5,1.3-0.8c2.4,3,4.7,6.1,7.1,9.1c0.5-0.2,1-0.4,1.5-0.6c0-8.5,0-17,0-25.5
		c0.5,0,0.9,0,1.4,0c0,5.9,0,11.8,0,17.9c1.8-0.7,3-1.1,4.1-1.5c-4.4,5.6-4.7,11.5-3.5,18.2c1.8-1.7,3.2-3.1,4.7-4.5
		c0.4,0.3,0.8,0.5,1.2,0.8c-5.5,6.7-9.6,13.5-5.2,20.5c-0.6,5.9-1.1,10.6-1.6,15.9c1.9-0.9,2.9-1.3,4.5-2.1c-1,4.6-6.3,7.3-3.3,12.4
		c4.9-2.9,6.1-7.8,7.2-12.6c4.6-19.9,4.7-40,0.4-59.9C943.6,323.5,940.2,313.9,937.5,304.3z M1213.7,311.4c0.4,0.2,0.9,0.5,1.3,0.7
		c-5.2,5-5.7,10.9-4.4,17.1c0.5,0.4,1,0.8,1.5,1.1c1-1.8,1.9-3.6,2.9-5.4c0.3,0.3,0.7,0.7,1,1c-1.9,3.5-4.8,6.8-5.6,10.6
		c-0.7,3.6-1.9,8.1,1,10.4c-0.6,5.5-1.1,10.1-1.7,15.2c1.9-0.6,3-0.9,4.2-1.3c-1.6,3.9-3,7.5-4.4,11c0.6,0.2,1.1,0.5,1.7,0.7
		c4.6-2.5,5.9-7.3,6.9-11.8c6.8-30,4.1-59.2-7.7-87.6c-0.3-0.7-0.9-1.2-1.6-2c-0.7,1.5-1.2,2.5-1.6,3.5
		c-9.9,24.1-12.6,49.2-9.1,74.9c0.8,5.9,2.6,11.7,4.4,17.3c0.7,2.2,2.8,3.9,4.2,5.9c0.5-0.2,0.9-0.5,1.4-0.7c0-3.4,0.5-7-0.2-10.3
		c-0.7-3.2-2.3-6.4-4-9.3c-1.5-2.8-3.6-5.2-5.5-7.9c0.5-0.3,1.1-0.7,1.6-1c2.3,3,4.6,6,7.1,9.2c3-7.6-1-13-3.2-18.9
		c1.2,0.9,2.3,1.8,3.4,2.7c3.8-10.5-5-16.2-8.7-23.7c0.4-0.3,0.7-0.5,1.1-0.8c2.5,3,4.9,5.9,7.4,8.9c0.4-0.1,0.8-0.2,1.3-0.4
		c0-8.5,0-17,0-25.5c0.5,0,1.1,0,1.6,0c0,5.8,0,11.7,0,18.1C1211.8,312.4,1212.8,311.9,1213.7,311.4z M1353.4,160.4
		c-7.8,2.2-15,4-22.1,6.4c-1.2,0.4-2.5,2.9-2.5,4.4c-0.2,13.3-0.2,26.6-0.1,40c0,1.6,0.1,3.7,1,4.7c7.5,7.6,15.2,15.1,23.6,23.3
		C1353.4,212.3,1353.4,186.8,1353.4,160.4z M126.5,310.9c0.4-0.3,0.8-0.7,1.2-1c2.4,3,4.8,6,7.2,9c0.4-0.1,0.9-0.3,1.3-0.4
		c0-8.5,0-17.1,0-25.6c0.5,0,1.1,0,1.6,0c0,5.9,0,11.7,0,18c1.9-0.8,3-1.3,4.1-1.8c-4.4,5.6-4.8,11.6-3.3,18.4
		c1.7-1.8,3-3.3,4.3-4.7c-1,4.1-3.8,7.4-4.6,11.2c-0.8,3.6,0.2,7.7,0.6,13.1c-0.3,3-0.7,7.7-1.1,12.8c2-0.7,2.9-1,3.8-1.3
		c-1.5,3.9-2.8,7.5-4.2,11.1c0.5,0.2,1.1,0.5,1.6,0.7c4.9-3,6.2-8.3,7.3-13.3c6.2-29.3,3.5-57.9-7.9-85.7c-0.3-0.8-1-1.4-1.8-2.6
		c-1,2.2-1.8,3.8-2.4,5.5c-9.3,24-11.9,48.7-8.3,74.1c0.8,5.7,2.7,11.3,4.5,16.8c0.7,2.1,2.7,3.7,4.1,5.5c0.4-0.2,0.9-0.4,1.3-0.6
		c0-3.5,0.5-7-0.1-10.4c-0.6-3.3-2.3-6.4-3.9-9.3c-1.5-2.8-3.6-5.3-5.4-8c0.5-0.3,1-0.6,1.5-1c2.3,3,4.6,6,7,9.1
		c3-7.5-0.7-13.1-4.4-18.6c0.4-0.2,0.8-0.3,1.1-0.5c1.1,1,2.2,2.1,3.3,3.1C139,324.1,130.6,318.3,126.5,310.9z M495.1,125.7
		c0-7.7-0.2-14.1,0.1-20.5c0.1-3.2-1-5.1-3.6-7c-17.2-12.4-34.2-24.9-51.3-37.3c-1.3-0.9-2.7-1.6-4.8-2.9c0,7.4-0.3,13.9,0.2,20.3
		c0.2,2.3,1.5,5.1,3.2,6.5c14.9,11.2,30.1,22.1,45.2,33.1C487.4,120.2,490.7,122.5,495.1,125.7z M1769.4,394c0,18.6,0,36.5,0,54.4
		c10.2,0,20,0,29.7,0c0-16.5,0-32.5,0-48.8C1788.4,401.7,1778.8,399.6,1769.4,394z M357,233.4c26.3,0,51.2,0,76.1,0
		c0-8,0-15.5,0-23.6c-15.6,0-30.9,0-46.2,0c-0.9,0-2,0.5-2.7,1C375.4,218.1,366.7,225.3,357,233.4z M435.5,185.5c0,3,0.3,5,0,6.8
		c-1.1,6.7,1.9,10.3,7.5,13.8c26.3,16.3,52.2,33.1,78.3,49.7c1.3,0.8,2.8,1.5,4.9,2.7c0-3.7-0.3-6.5,0.1-9.2
		c0.8-5.1-1.6-7.6-5.7-10.2c-26.6-16.7-53-33.7-79.5-50.5C439.5,187.7,438,186.9,435.5,185.5z M1369.3,269.4
		c2.2-9.5,1.6-10.3-7.6-10.3c-41.4,0-82.9,0-124.3,0c-2.4,0-4.9,0-7.4,0c0,3.9,0,6.9,0,10.3C1276.6,269.4,1323,269.4,1369.3,269.4z
		 M372.5,294.6c0,6.7,0.2,12.8-0.1,18.9c-0.1,3.5,1.4,4.1,4.4,4.1c17.8-0.1,35.6,0,53.4-0.1c0.9,0,1.9-0.3,2.8-0.4
		c0-7.7,0-15,0-22.6C412.8,294.6,393,294.6,372.5,294.6z M372.5,367.4c20.8,0,40.7,0,60.6,0c0-7.6,0-14.9,0-22.6
		c-19.6,0-38.9,0-58.2,0.1c-0.8,0-2.3,1.5-2.3,2.3C372.4,353.8,372.5,360.4,372.5,367.4z M433.3,319.6c-19.7,0-38.8,0-57.9,0.1
		c-1,0-2.7,1.6-2.7,2.5c-0.2,6.6-0.1,13.2-0.1,20c20.6,0,40.6,0,60.8,0C433.3,334.7,433.3,327.6,433.3,319.6z M433.2,369.8
		c-4.6,0-8.7,0-12.8,0c-14.5,0-29,0-43.4,0c-2.1,0-4.6-0.5-4.5,3c0.1,6.4,0,12.9,0,19.6c20.6,0,40.6,0,60.8,0
		C433.2,385,433.2,377.9,433.2,369.8z M433.2,417.9c0-7.9,0-15.2,0-22.6c-20.3,0-40.3,0-60.7,0c0,6.7-0.2,13.1,0.1,19.4
		c0.1,1.1,2,3.1,3.1,3.1C394.7,418,413.6,417.9,433.2,417.9z M673.1,46.5c-13.8,0-27.2,0-40.7,0c0,17.4,0,34.3,0,51.6
		c13.7,0,27,0,40.7,0C673.1,80.8,673.1,63.9,673.1,46.5z M1608.3,327.6c-13.7,12.6-27,24.8-41.3,38c26.6,0,51.6,0,77.7,0
		C1631.6,351.9,1619.3,339.1,1608.3,327.6z M432.9,207.4c0-49.4,0-98.3,0-147.7c-6.1,5.7-8.9,11.4-8.8,19.6c0.5,40,0.2,80,0.2,120
		c0,2.6,0,5.2,0,8.2C427.6,207.4,430.1,207.4,432.9,207.4z M586.4,104.5c-0.3-0.2-0.7-0.4-1-0.5c-7.6,9-15.1,17.9-22.6,26.9
		c-0.4,0.5-0.7,1.2-0.7,1.8c0,11.6,0,23.2,0,34.9c8.4,0,16.2,0,24.3,0C586.4,146.3,586.4,125.4,586.4,104.5z M1716.4,396.8
		c-6.9,0-13.2,0.1-19.5,0c-3.3-0.1-3.3,2-3.3,4.3c0,9.7,0,19.3,0,29c0,6.1,0,12.2,0,18.5c8,0,15.2,0,22.8,0
		C1716.4,431.2,1716.4,414.3,1716.4,396.8z M1298.3,256.6c0-20.9,0-41.5,0-62.1c-0.3-0.1-0.6-0.2-0.8-0.3
		c-12.1,20.6-24.2,41.3-36.6,62.4C1273.9,256.6,1285.9,256.6,1298.3,256.6z M1338.7,256.6c-12.6-21.4-24.7-42-36.8-62.7
		c-0.3,0.1-0.5,0.2-0.8,0.4c0,20.7,0,41.3,0,62.3C1313.6,256.6,1325.7,256.6,1338.7,256.6z M1630.8,310c0.8,1.4,1,1.8,1.4,2.2
		c17.3,17.3,34.5,34.6,51.8,51.9c0.8,0.8,1.9,1.8,2.8,1.8c6.2,0.2,12.3,0.1,19.1,0.1c-0.7-1.2-0.9-1.7-1.2-2
		c-17.3-17.3-34.5-34.6-51.9-51.8c-1-1-2.5-2-3.8-2C1643.3,309.8,1637.5,310,1630.8,310z M1281,397.7c-6.1,0-12,0.2-18-0.1
		c-3.9-0.2-4.8,1.4-4.7,5c0.2,12.8,0.1,25.6,0.1,38.4c0,2.4,0,4.9,0,7.4c8.1,0,15.4,0,23.1,0c0-16.2,0-32,0-47.8
		C1281.5,399.8,1281.2,399,1281,397.7z M1249.4,187.5c-5.4,0-10.2,0.2-15-0.1c-4.1-0.3-5,1.3-5,5.1c0.2,19.6,0.1,39.3,0.1,58.9
		c0,0.9,0.3,1.8,0.5,2.7c0.5,0.3,0.9,0.7,1.4,1c5.7-6.1,11.4-12.1,16.9-18.2c0.7-0.8,1-2.1,1-3.2
		C1249.4,218.6,1249.4,203.5,1249.4,187.5z M741.5,215.4c11.1-0.8,18.9-9.4,18.5-19.4c-0.4-10.8-9.2-19.2-19.8-19
		c-10.6,0.3-18.9,8.8-19,19.3c0,10.3,7.8,18.7,18.7,19c0-6.5,0-13,0-19.5c0.5,0,1,0.1,1.6,0.1C741.5,202.2,741.5,208.6,741.5,215.4z
		 M1682.2,366c-1-1.4-1.3-2-1.7-2.4c-17.2-17.2-34.3-34.4-51.5-51.5c-1-1-2.5-2-3.8-2c-4.8-0.2-9.5-0.1-14.2-0.1
		c-0.1,0.8-0.2,1-0.2,1.1c17,17.8,33.9,35.7,51,53.4c0.8,0.9,2.3,1.5,3.5,1.5C1670.5,366.1,1675.8,366,1682.2,366z M526,171.9
		c-6.4,6.3-11.9,11.5-17,17.1c-1.5,1.6-2.6,4.3-2.7,6.5c-0.3,9.5-0.2,19-0.1,28.5c0,1.4,0.1,3.5,1,4.1c5.9,4.1,12,7.9,18.8,12.2
		C526,217.2,526,195.4,526,171.9z M681.3,360.4c53.9,0,107.6,0,161.4,0c1.3-4.4,0-5.8-4.4-5.8c-51,0.1-101.9,0.1-152.9,0.1
		c-1.3,0-2.6,0.2-4,0.4C681.3,356.9,681.3,358.5,681.3,360.4z M1745.7,365.6c-1.8-1.9-3.1-3.3-4.4-4.7c-15.3-15.3-31-30.2-45.8-45.9
		c-6.5-6.9-13.4-4.6-20.7-4.3c15.1,15.8,30.8,30.6,45.5,46.4c6.8,7.4,13.9,10.7,23.5,9C1744.1,366.1,1744.4,366,1745.7,365.6z
		 M129.8,434.5c-0.2-4.3-2.6-9-7.2-8.7c-7.9,0.5-15.7,2.9-23.5,4.5c-0.3,0.1-0.5,0.5-0.7,0.6c-2.5,1.6-4.9,3.4-7.5,4.9
		c-3.4,2-6,4.4-5.4,8.6c0.6,4.6,4,4.5,7.5,4.5c14.1-0.1,28.3,0.1,42.4-0.1c2.1,0,5.9-1.6,5.9-2.5c-0.1-2.8-0.7-6.4-2.6-8.2
		C136.7,436.1,133.1,435.7,129.8,434.5z M1609.8,260.2c0.2,0.4,0.4,0.9,0.6,1.3c-5.3,3.2-10.5,6.4-15.8,9.6
		c5.7,8.5,16.3,10.4,24.2,4.9c8.2-5.7,10.2-16.6,4.6-24.7c-5.6-8-16.3-10.1-24.3-4.8c-7.7,5.1-10.2,15.6-5.4,22.6
		c2.6-1.7,5.2-3.6,7.9-5.2C1604.2,262.6,1607.1,261.5,1609.8,260.2z M1071.3,324.4c5.9,8.6,16.1,10.4,24.2,5
		c7.9-5.3,10.1-16.2,5-24.3c-5.1-8-15.9-10.4-24.2-5.5c-7.7,4.5-11,16.6-6.2,22.6c5.5-3,11-6,16.4-9c0.3,0.5,0.6,1,0.8,1.5
		C1082,318,1076.6,321.2,1071.3,324.4z M1765.1,365.9c-1.9-2.1-3-3.4-4.1-4.5c-15-15.1-30.5-29.7-44.8-45.5
		c-6.7-7.4-13.8-6-22.3-5.6c1.5,1.6,2.4,2.8,3.4,3.8c15.2,15.4,30.9,30.3,45.5,46.2C1749.3,367.3,1756.2,366.6,1765.1,365.9z
		 M1725.9,365.7c-1.7-1.8-2.7-3.1-3.8-4.2c-15.6-15.6-31.6-31-46.7-47c-6.3-6.6-13-3.8-19.8-4c0.8,1.7,1.7,2.8,2.8,3.9
		c15.3,15.3,31,30.2,45.6,46C1710.4,367.4,1717.4,366.1,1725.9,365.7z M163.7,434.7c-2.4-3.1-3.7-6.9-6.1-7.8
		c-5.3-1.9-9.8-4-12.8-9.1c-0.7-1.2-3.2-1.8-4.9-2c-4.7-0.7-9.8,3-10.7,7.7c-0.8,3.9,2.5,9.2,6.6,10.5c6.7,2.1,9.1,6.4,7.9,14.5
		c10,0,20,0,30,0C175.2,436.5,173.5,434.4,163.7,434.7z M1364.8,256.9c-18.4-19.5-37.3-39.6-56.3-59.7c-0.4,0.3-0.8,0.7-1.2,1
		c0.2,0.6,0.4,1.1,0.7,1.7c10.6,18.1,21.1,36.2,31.8,54.3c0.7,1.1,2.1,2.6,3.2,2.6C1350.9,257,1358.8,256.9,1364.8,256.9z
		 M1233.9,256.9c5.7,0,12.4-0.2,19.2,0.1c3.6,0.1,5.7-1,7.5-4.2c9.9-17.3,20.1-34.5,30.2-51.7c0.6-1,0.9-2,1.4-3.1
		c-0.5-0.4-1-0.8-1.5-1.1C1271.7,217,1252.7,237,1233.9,256.9z M1274.8,187.8c-7.9,0-15.2,0-22.7,0c0,15,0,29.8,0,44.5
		c0.6,0.5,1.2,0.9,1.8,1.4c6.5-7.1,13-14.2,19.5-21.3c0.6-0.7,1.3-1.7,1.4-2.5C1274.8,202.6,1274.8,195.3,1274.8,187.8z
		 M801.9,352.3c-4.3-11.9-8.3-23.2-12.4-34.3c-1-2.6-14-3.4-15.5-1.2c-0.3,0.4-0.3,1-0.3,1.4c0,11.3,0,22.5,0,34.1
		C783.2,352.3,792.1,352.3,801.9,352.3z M771.3,316.7c-0.7-0.5-0.9-0.6-1-0.7c-13.4-1.5-13.4-1.5-17.9,11.1
		c-2.9,8.2-5.9,16.5-9,25.1c9.7,0,18.7,0,27.9,0C771.3,340.1,771.3,328.3,771.3,316.7z M713,352.6c9.5,0,17.8,0.1,26.1-0.1
		c1.1,0,2.5-1.9,3-3.2c2.8-7.3,5.4-14.7,8-22c1.2-3.5,2.4-7.1,3.9-11.5c-4.2,0-7.5-0.2-10.8,0.1c-1.8,0.2-4.2,0.7-5.2,2
		C729.8,328.9,721.9,340.2,713,352.6z M831.9,352.6c-1.1-1.8-1.5-2.8-2.2-3.7c-6.3-8.8-12.6-17.6-18.9-26.3
		c-5.3-7.3-10.1-8.7-19.3-5.8c4,11.2,8,22.5,12.1,33.6c0.4,1,2.2,2,3.3,2C814.9,352.7,822.9,352.6,831.9,352.6z M422.1,73.7
		c-4.9,3.4-6.2,7.4-6.2,12.5c0.2,38.6,0.1,77.2,0.1,115.8c0,1.8,0.1,3.6,0.2,5.3c2.2,0,3.9,0,5.8,0
		C422.1,162.8,422.1,118.6,422.1,73.7z M684,351.5c0.2,0.4,0.4,0.8,0.6,1.2c7.3,0,14.6,0.2,21.9-0.1c2.1-0.1,4.7-1.5,6-3.1
		c7.3-9.7,14.3-19.6,21.3-29.5c0.7-1,1.1-2.2,1.9-3.7c-7.6-0.7-14.2-1.5-19.5,5.1c-3,3.9-7.2,6.9-10.9,10.3
		C698.2,338.2,691.1,344.8,684,351.5z M1334.3,163.4c4.2-1.2,8.7-2.7,13.4-3.7c4.4-1,7.7-3.1,10.7-6.6
		c13.8-16.2,27.9-32.2,41.9-48.2c3.1-3.6,6.2-7.1,9.3-10.7c-0.3-0.4-0.6-0.9-1-1.3c-3.9,2.3-8.3,4.1-11.5,7.1
		c-10.9,10.2-21.6,20.8-32.1,31.4C1354.6,142,1344.5,152.8,1334.3,163.4z M1283.2,395.6c0.1,2.3,0.3,4.1,0.3,5.9
		c0,14.3,0.1,28.6,0,43c0,3.4,0.8,5.2,4.6,3.8c0-19.1,0-38.2,0-57.6c-11.4,0-22.4,0.1-33.3,0c-3.2,0-3.3,1.9-3.3,4.2
		c0,16.7,0.1,33.3,0,50c0,3.8,1.4,4.7,5,3.2c0-2.1,0-4.1,0-6.1c0-14-0.1-28,0.1-42c0-1.5,1.6-4.1,2.5-4.2
		C1266.9,395.5,1274.9,395.6,1283.2,395.6z M630.1,49.9c-0.4-0.1-0.9-0.2-1.3-0.3c-5.1,6.3-10.3,12.5-15.4,18.8
		c-0.6,0.7-1.1,1.8-1.1,2.7c-0.1,8.9-0.1,17.9-0.1,27.4c5,0,9.4-0.2,13.9,0.1c3.4,0.2,4.2-1.4,4.1-4.5c-0.1-9.5-0.1-18.9-0.1-28.4
		C630.1,60.4,630.1,55.1,630.1,49.9z M1174.1,387.3c9-0.8,14.3-7.4,13.5-15.9c-0.7-7.7-7.8-13.5-15.7-12.9
		c-7.7,0.6-13.9,7.7-13.4,15.3c0.4,7.4,6.5,13.5,14.1,13c0-4.7,0-9.4,0-14.1c0.5,0,1.1,0,1.6,0
		C1174.1,377.6,1174.1,382.4,1174.1,387.3z M1600.7,316.6c14.6,15.3,28.9,29.7,42.6,44.8c4.7,5.2,9.7,5.1,16.4,4
		c-17.9-18.6-35.2-36.7-51.9-54.1C1605.1,313.2,1603.1,314.7,1600.7,316.6z M409.1,207.2c4.4,1.4,4.9-0.7,4.9-3.7
		c0-38.3,0-76.6-0.1-114.9c0-1.3-0.3-2.5-0.5-3.8c-0.6-0.1-1.1-0.2-1.7-0.4c-0.9,2.9-2.5,5.8-2.5,8.8c-0.2,36.3-0.1,72.6-0.1,108.9
		C409.1,203.7,409.1,205.3,409.1,207.2z M809.1,316.2c1.5,2.2,2.5,3.8,3.6,5.4c6.3,8.8,12.9,17.4,18.8,26.4c3,4.6,6.4,5.5,11.1,4.1
		c1.6-10.2,1.8-19.7-8.4-25.9c-2.2-1.4-4.3-3.3-5.8-5.4C823.4,314.1,816.6,315.6,809.1,316.2z M725.8,240.3c-4.7-2.8-9-5.4-13.3-8
		c0.3-0.5,0.5-0.9,0.8-1.4c4.5,2.3,9,4.7,13.5,7c3.1-6.9,0.8-14.4-5.5-18c-6.3-3.6-14.6-1.7-18.7,4.2c-4.3,6.1-3,14.6,2.8,19.3
		C711.5,248.1,718.9,247.3,725.8,240.3z M605.1,414.8c-3.5,3.4-2.9,5-0.5,7.1c5.4,4.7,7.1,10.9,4.7,17.6c-1.1,3.1-3.4,5.9-5.2,8.9
		c14.6,0,29.2,0,43.5,0c-2.4-4.4-4.7-8.5-7.7-13.9c-5.4,0.9-11.6,2-17.9,2.8c-1.4,0.2-3.7-0.8-4.4-1.9
		C613.3,428.9,609.4,422.1,605.1,414.8z M1973.7,411.3c0.7,0.3,1.4,0.6,2,0.9c1.2-2.6,3.1-5.1,3.6-7.9c2-11,1.2-21.9-1.4-32.7
		c-1.3-5.3-3.2-10.4-4.8-15.7c-0.6,0-1.3,0.1-1.9,0.1c-1.8,6.8-4.4,13.6-5.2,20.6c-1,8.8-0.9,17.9-0.7,26.8c0.1,3.3,0.8,7.3,6.1,8.3
		c-0.8-10.1,2.7-20.3-6-28.8c0.5-0.1,1-0.3,1.6-0.4c1.2,1.1,2.5,2.2,4.8,4.3c0-6.4,0-11.5,0-16.6c0.3,0,0.5,0.1,0.8,0.1
		c0.7,3.9,1.3,7.7,2,11.6c0.3-0.1,0.7-0.2,1-0.4c-0.9,3.1-1.8,6.2-2.9,10c2.4-0.8,3.3-1.1,4.2-1.4
		C1971.6,396.9,1973.4,404.2,1973.7,411.3z M1599.1,318.4c-15.3,15.7-30.2,31.1-45.6,46.9c7,1.6,11.7,0.4,16-4.5
		c8.9-9.9,18.3-19.3,27.7-28.7c2.5-2.5,5.7-4.5,8.5-6.7c-2.1-2.4-2.8-3.3-3.6-4.2C1601.4,320.4,1600.5,319.7,1599.1,318.4z
		 M198.3,288.9c-0.2,1.4-0.4,2.5-0.5,3.6c-0.3,6.8-0.3,6.8,6.7,6.8c10.5,0,20.9,0,31.4,0c1.7,0,3.5-0.2,5.1-0.3c0-3.7,0-6.8,0-10.1
		C226.5,288.9,212.5,288.9,198.3,288.9z M198.1,351.8c-0.2,1.9-0.2,3.2-0.4,4.5c-0.7,4.7,1,6.5,5.9,6.1c7.1-0.4,14.3-0.1,21.4-0.1
		c5.3,0,10.5,0,15.8,0c0-3.9,0-7.1,0-10.5C226.5,351.8,212.5,351.8,198.1,351.8z M198.1,314.2c0,3.5,0,6.8,0,9.8
		c14.6,0,28.8,0,42.8,0c0-3.5,0-6.6,0-9.8C226.5,314.2,212.5,314.2,198.1,314.2z M241.2,263.8c-14.6,0-28.6,0-42.6,0
		c-2.4,9.3-1.6,10.4,7.4,10.4c9.6,0,19.2,0,28.9,0c2.1,0,4.2-0.2,6.4-0.3C241.2,270.3,241.2,267.3,241.2,263.8z M1274.6,185.4
		c0.1-2.6,0.6-4.7,0.2-6.5c-0.3-1.3-2-3.1-3.1-3.1c-13-0.2-26-0.1-39-0.2c-3.8,0-3.1,2.6-3.1,4.9c0,2.2-0.8,4.9,3.1,4.9
		C1246.4,185.4,1260.3,185.4,1274.6,185.4z M198,349.2c14.7,0,28.8,0,42.9,0c0-3.5,0-6.5,0-9.9c-14.4,0-28.5,0-42.9,0
		C198,342.8,198,345.9,198,349.2z M198,336.4c14.7,0,28.9,0,43.1,0c0-3.5,0-6.4,0-9.5c-14.5,0-28.6,0-43.1,0
		C198,330.2,198,333.2,198,336.4z M241.1,276.5c-14.5,0-28.6,0-42.9,0c0,3.4,0,6.6,0,9.8c14.5,0,28.6,0,42.9,0
		C241.1,283,241.1,280.1,241.1,276.5z M241.2,364.5c-14.6,0-28.7,0-43,0c0,3.4,0,6.6,0,9.9c14.6,0,28.8,0,43,0
		C241.2,371,241.2,368.1,241.2,364.5z M241.1,301.8c-14.7,0-28.8,0-43,0c0,3.5,0,6.6,0,9.5c14.6,0,28.7,0,43,0
		C241.1,308,241.1,305,241.1,301.8z M1041.7,354.9c3.3-5.3,2-11.3-3.1-14.7c-5.2-3.4-11.9-2.4-15.6,2.5c-3.8,5-2.8,12.2,2.1,16.1
		c4.7,3.7,11,3.1,15.1-1.8c-2.3-2.5-4.7-5.1-7.3-8c1.2-0.2,1.6-0.4,1.8-0.3C1037,350.8,1039.4,352.8,1041.7,354.9z M1029.8,300.5
		c1.1-6.1-2.2-11.3-8-12.8c-5.9-1.5-12.1,2.1-13.9,8.3c-1.6,5.5,1.5,11.5,7.1,13.7c5.8,2.3,11.4-0.2,14.1-6.5
		c-3.5-1.9-7-3.8-10.9-5.9c1-0.5,1.3-0.8,1.6-0.7C1023.1,297.9,1026.4,299.2,1029.8,300.5z M1565.2,286.9c3-6.4,1.3-12.3-4-15.3
		c-5.2-3-12.2-1.3-15.4,3.7c-3.2,4.9-2,11.7,2.5,15.3c4.8,3.8,10.9,3.2,15.2-1.6c-2.4-2.5-4.7-5.1-7.1-7.6c0.3-0.3,0.6-0.7,1-1
		C1559.9,282.4,1562.4,284.5,1565.2,286.9z M1553.2,247.4c0.7-6.7-2.8-11.8-8.5-13c-6.4-1.3-12.2,2.4-13.7,8.7
		c-1.4,5.8,1.9,11.7,7.5,13.5c6,1.9,11.3-0.6,13.7-6.6c-3.4-1.9-6.8-3.8-10.3-5.6c0.2-0.5,0.5-0.9,0.7-1.4
		C1546.1,244.4,1549.5,245.8,1553.2,247.4z M1819.4,428.3c14.9,0,29.3,0,43.7,0c0-2.6,0-4.8,0-7.1c-14.8,0-29.1,0-43.7,0
		C1819.4,423.7,1819.4,425.8,1819.4,428.3z M1107,421.2c-14.8,0-29.1,0-43.6,0c0,2.5,0,4.8,0,7.2c14.7,0,29,0,43.6,0
		C1107,425.9,1107,423.8,1107,421.2z M462.8,428.2c14.8,0,29.2,0,43.9,0c-0.1-2.6-0.2-4.9-0.3-7.1c-14.8,0-29.1,0-43.6,0
		C462.8,423.5,462.8,425.6,462.8,428.2z M896.8,448.4c0-13.4,0.1-26.4-0.1-39.3c0-2-2-3.9-3.1-5.8c-0.6,0-1.2,0-1.8,0
		c-0.9,2.8-2.4,5.6-2.5,8.4c-0.3,9.1-0.1,18.3-0.1,27.5c0,3.1,0,6.2,0,9.4C892,448.4,894,448.4,896.8,448.4z M1184.9,419.3
		c4.9,5,10.7,5.7,15.1,2.1c4.3-3.5,5.2-9.7,2.1-14.3c-3-4.5-9-6-13.6-3.5c-5.1,2.7-6.8,7.7-4.6,13.2c3.3-1.5,6.6-3.1,9.9-4.7
		c0.2,0.4,0.4,0.8,0.6,1.2C1191.3,415.3,1188.3,417.1,1184.9,419.3z M1504.3,414.3c0.3,8.4,7.1,14.4,15.3,14.2
		c7.9-0.2,14.3-6.5,14.2-14.2C1524,414.3,1514.3,414.3,1504.3,414.3z M881.7,413.5c-10.2,0-20,0-29.9,0c0.7,8.2,6.8,14,14.8,14.1
		C874.3,427.7,880.7,422,881.7,413.5z M930.4,121.7c8.1,8.6,31.7,12.4,46.1,7.5c-4-2.8-7.3-6.9-10.8-7.2
		C954.2,121.1,942.7,121.7,930.4,121.7z M1862.5,225c7.7,12.9,15.7,26.2,23.7,39.6c0-6.8,1.1-13.8-0.4-20.2
		c-1.2-4.9-4.9-10-8.9-13.2C1872.7,228,1866.8,226.8,1862.5,225z M335.2,148.8c-6.8-6.7-13.5-12.4-19.2-19c-4.5-5.2-9.4-4.7-15.8-4
		c5.5,6,10.9,10.9,15.1,16.8C320.2,149.4,326.2,150.9,335.2,148.8z M1888.3,265c7.9-13.1,15.8-26,23.4-38.6
		c-4.4,1.6-9.6,3.4-14.9,5.4c-0.7,0.3-1.6,1.1-1.6,1.7c-0.3,4.1-2.3,6.8-6,8.4c-0.6,0.3-0.9,1.7-0.9,2.6
		C1888.3,251.4,1888.3,258.3,1888.3,265z M259.4,148.9c8.5,1.8,14.9,1,19.5-6.3c1.9-3,4.9-5.4,7.3-8.1c2.5-2.7,4.9-5.5,7.4-8.3
		c-0.2-0.4-0.4-0.8-0.7-1.3c-3.6,0.5-8.4-0.4-10.7,1.6C274.3,133.4,267.3,141.1,259.4,148.9z M902.1,100.2c-0.2-5.1-4.4-9-9.5-8.8
		c-5,0.2-8.6,4.1-8.5,9.2c0.1,5.1,4.3,9.1,9.4,8.8C898.2,109.2,902.2,104.9,902.1,100.2z M1435.8,438.5c-1.2,3.5-0.2,4.7,3,4.7
		c14.6-0.1,29.2,0,43.9-0.1c1.2,0,2.3-1.5,3.4-2.3c-1.2-0.7-2.4-2.1-3.6-2.1c-9.6-0.2-19.3-0.1-28.9-0.1
		C1447.6,438.5,1441.6,438.5,1435.8,438.5z M1435.9,418.5c-1.4,3.7-0.1,4.7,3,4.7c14.4,0,28.9,0.1,43.3-0.1c1.3,0,2.6-1.6,3.9-2.4
		c-1.4-0.7-2.7-2.1-4.1-2.1c-9.5-0.2-18.9-0.1-28.4-0.1C1447.6,418.5,1441.6,418.5,1435.9,418.5z M1434.7,434.7
		c0.4,0.6,0.8,1.2,1.3,1.8c15.8,0,31.5,0,47.3-0.1c1,0,1.9-1.6,2.8-2.4c-1.1-0.7-2.1-2.1-3.2-2.1c-14.8-0.1-29.6-0.2-44.4,0
		C1437.2,432,1435.9,433.8,1434.7,434.7z M1435.9,411.8c-1.4,3.6-0.4,4.8,2.8,4.7c14.6-0.1,29.2,0,43.8-0.2c1.2,0,2.3-1.5,3.5-2.3
		c-1.2-0.8-2.4-2.2-3.6-2.2c-11.3-0.2-22.6-0.1-33.9-0.1C1444.3,411.8,1440,411.8,1435.9,411.8z M219.3,184.3
		c-13.8,5.9-15.5,8.7-13.5,21.1c4.5,0,8.9,0,13.5,0C219.3,198.2,219.3,191.5,219.3,184.3z M751.1,266.8c5,3.7,9.4,3.6,12.9,0.1
		c3.3-3.4,3.5-8.7,0.5-12.3c-3-3.6-8.4-4.3-12.2-1.6c-3.8,2.7-4.7,7-2.5,11.2c2.1-1.6,4.1-3.2,6.2-4.8c0.3,0.3,0.6,0.7,0.9,1
		C755.1,262.4,753.3,264.4,751.1,266.8z M760.1,223c3.8,5.4,7.9,6.7,12.3,4.5c4.3-2.2,6.2-7,4.5-11.4c-1.7-4.4-6.2-6.7-10.9-5.6
		c-4.4,1.1-6.7,4.8-6.1,9.6c2.8-1,5.6-2.1,8.4-3.1c0.2,0.4,0.4,0.8,0.6,1.3C765.9,219.8,763.1,221.3,760.1,223z M295.8,127.3
		c-7.1,7.7-13.3,14.5-20.1,21.9c7.5,0,13.7,0,20.1,0C295.8,142.1,295.8,135.4,295.8,127.3z M298.5,149.2c6.8,0,13,0,20.2,0
		c-7-7.6-13.3-14.3-20.2-21.9C298.5,135.5,298.5,142.2,298.5,149.2z M62.5,432.5c-4.5,0.1-8.2,4-8.1,8.4c0.1,4.6,3.8,8,8.5,7.9
		c4.6,0,8.3-3.8,8.1-8.3C70.9,436.1,67,432.4,62.5,432.5z M917.2,448.9c4.8,0.1,8.3-3.2,8.4-7.9c0.1-4.5-3.5-8.3-8-8.5
		c-4.5-0.1-8.3,3.5-8.4,8.1C909.1,445.2,912.6,448.8,917.2,448.9z M1460.8,429.8c7.3,0,14.6,0.1,22-0.1c1.1,0,2.2-1.5,3.3-2.3
		c-1.1-0.7-2.2-1.9-3.3-1.9c-14.6-0.1-29.3-0.1-43.9,0c-1.2,0-2.4,1.4-3.5,2.1c1.2,0.8,2.3,2.1,3.5,2.2
		C1446.1,429.9,1453.4,429.8,1460.8,429.8z M1434.8,408.1c0.4,0.5,0.8,0.9,1.2,1.4c16.6,0,33.1,0,49.7,0c0.3-0.5,0.5-1,0.8-1.4
		c-1.2-0.8-2.4-2.3-3.6-2.4c-14.8-0.2-29.6-0.2-44.4,0C1437.2,405.7,1436,407.2,1434.8,408.1z M1841.3,434.4
		C1841.3,434.4,1841.3,434.4,1841.3,434.4c6.3,0,12.6,0.1,18.9,0c1,0,2.1-1,3.1-1.5c-1-0.7-2-2.1-3.1-2.1c-12.6-0.1-25.2-0.1-37.8,0
		c-1,0-2.1,1.3-3.1,2c1,0.5,2.1,1.5,3.1,1.5C1828.7,434.5,1835,434.4,1841.3,434.4z M1085.1,434.4c6.3,0,12.6,0.1,18.9-0.1
		c1.1,0,2.1-1.3,3.2-2c-1-0.6-2-1.6-3-1.6c-12.6-0.1-25.2-0.1-37.8,0c-1.1,0-2.1,1.3-3.2,2c1.2,0.6,2.3,1.6,3.5,1.6
		C1072.9,434.5,1079,434.4,1085.1,434.4z M484.6,430.5c-6.3,0-12.6-0.1-18.9,0.1c-1,0-2.1,1-3.1,1.5c0.9,0.7,1.8,1.9,2.8,1.9
		c12.8,0.1,25.6,0.1,38.4,0c0.9,0,1.9-1.2,2.8-1.9c-1-0.5-2-1.5-3-1.6C497.2,430.5,490.9,430.5,484.6,430.5z M192.1,217.1
		c-0.6-0.3-1.2-0.6-1.7-0.8c-1.1,2-3,4-3.1,6c-0.4,7.8-0.2,15.7,0,23.5c0,1.1,1.3,2.2,2,3.3c1-1,2.7-2,2.8-3.1
		C192.1,236.4,192.1,226.8,192.1,217.1z M894.3,143.1c5.4-6.2,10.9-12.4,16.3-18.5c-5,0-10.5,0-16.3,0
		C894.3,131.1,894.3,137.3,894.3,143.1z M1460.8,448.8C1460.8,448.8,1460.8,448.8,1460.8,448.8c7.3,0,14.7,0.1,22,0
		c1.1,0,2.1-1,3.2-1.5c-1.1-0.7-2.2-1.9-3.3-1.9c-14.7-0.1-29.3-0.1-44,0c-1.1,0-2.3,1.1-3.4,1.8c1.2,0.6,2.3,1.6,3.5,1.7
		C1446.1,448.9,1453.5,448.8,1460.8,448.8z M1277.3,207.7c4.5-2.3,6.1-5.3,5.8-9.6c-0.3-4-0.2-8-0.1-11.9c0.2-4.1-2.2-6-5.7-7.7
		C1277.3,188.3,1277.3,197.7,1277.3,207.7z M644.1,424.7c-3.8-3.1-7.4-6.1-11.6-9.6c0,6.5,0,12.2,0,17.7
		C640.5,433.9,640.5,433.9,644.1,424.7z M1916.5,448.5c3.6,0.1,6.7-2.8,6.9-6.4c0.2-3.7-2.6-6.9-6.1-7.1c-4-0.2-7.1,2.7-7.2,6.6
		C1910.1,445.2,1913,448.3,1916.5,448.5z M197.7,211c-0.4-0.1-0.8-0.2-1.1-0.4c-0.8,1.2-2.3,2.5-2.3,3.7
		c-0.2,10.8-0.2,21.6-0.1,32.4c0,0.7,1,1.4,1.5,2.1c0.7-0.7,1.9-1.5,2-2.2C197.8,234.7,197.7,222.8,197.7,211z M895.5,400.5
		c0-7.8,0.1-15.6-0.1-23.4c0-1.7-1.2-3.3-1.8-4.9c-0.7,0.1-1.4,0.2-2.1,0.3c-2.4,9.2-0.4,18.6-1.2,28
		C892.1,400.5,893.5,400.5,895.5,400.5z M845.6,336.7c0,6,0,10.7,0,15.5c5.4,0,10.4,0,16.6,0C856.4,346.8,851.4,342.2,845.6,336.7z
		 M1841.6,444C1841.6,444.1,1841.6,444.1,1841.6,444c6.1,0,12.3,0.1,18.4-0.1c1.1,0,2.3-1.2,3.4-1.8c-1.1-0.6-2.2-1.7-3.3-1.7
		c-12.4-0.1-24.9-0.1-37.3,0c-1.1,0-2.3,1.1-3.4,1.7c1.1,0.6,2.2,1.8,3.4,1.8C1829,444.1,1835.3,444,1841.6,444z M1085.2,440.4
		c-6.2,0-12.3-0.1-18.5,0.1c-1.2,0-2.4,1.1-3.5,1.6c1.1,0.6,2.3,1.8,3.4,1.8c12.5,0.1,25,0.1,37.5,0c1.1,0,2.1-1.3,3.2-1.9
		c-1-0.5-2-1.5-3.1-1.5C1097.8,440.3,1091.5,440.4,1085.2,440.4z M1891.7,448.6c-1.5-6.6,2.9-13.8-4.6-18.6
		c-6.9,5.4-2.9,12.3-4,18.6C1886.2,448.6,1888.5,448.6,1891.7,448.6z M484.8,443.8c6.1,0,12.3,0.1,18.4-0.1c1.1,0,2.2-1.2,3.3-1.8
		c-1-0.6-2-1.6-3-1.6c-12.6-0.1-25.2-0.1-37.8,0c-1,0-2.1,1-3.1,1.6c1.1,0.6,2.2,1.8,3.3,1.8C472.2,443.9,478.5,443.8,484.8,443.8z
		 M462.7,446.6c0,0.8,0.1,1.5,0.1,2.3c14.5,0,29.1,0.1,43.6-0.1c0-0.7,0-1.4,0-2.2C491.9,446.6,477.3,446.6,462.7,446.6z
		 M1166.2,404.6c1.2-4.2,0.1-7-3.3-8.6c-3.2-1.5-6.3-0.6-8.3,2.4c-2.1,3-1.7,6.1,0.9,8.6c2.7,2.5,5.8,2.5,9,0.1
		c-1.5-1.9-2.8-3.5-4.1-5c0.3-0.3,0.5-0.6,0.8-0.9C1162.7,402.1,1164.2,403.1,1166.2,404.6z M672.1,432.7
		c-0.1-7.2-5.3-12.2-12.4-12.1C657,429.9,663.8,435.7,672.1,432.7z M595,448.3c7.7-0.6,12.4-5.5,12.4-12.5
		C596.2,434.3,593.5,436.9,595,448.3z M579.6,432.8c10.2,2.7,15.2-4.4,12.3-12.6C584.6,421,580.2,425.4,579.6,432.8z M659.7,448.4
		c7.7-0.7,12.5-5.7,12.3-12.6C663.4,433.3,657.2,438.4,659.7,448.4z M656.9,448.3c1.1-11.2-2.6-14.8-12.6-12.2
		C644.8,443.3,649.5,447.9,656.9,448.3z M592,448.4c2.7-10-3.6-15.2-12.4-12.6C579.9,442.9,584.2,447.4,592,448.4z M1179,247.7
		c0.6-0.5,1.2-1,1.7-1.5c-11-14.3-21.9-28.7-32.9-43c-0.5,0.4-1.1,0.8-1.6,1.2C1157.2,218.8,1168.1,233.3,1179,247.7z M864.1,355
		c-6.5,0-12.5,0-18.6,0c0,2,0,3.6,0,5.3c6.3,0,12.4,0,18.6,0C864.1,358.5,864.1,357.1,864.1,355z M236.2,180.3c0-6.3,0-12.2,0-18.1
		c-0.4-0.4-0.8-0.8-1.2-1.1c-1.5,1.1-4.1,2-4.2,3.2c-0.5,5.2-0.2,10.5-0.2,16C232.7,180.3,234.2,180.3,236.2,180.3z M1884,428.1
		c2.4,0,4.4,0,6.8,0c-1.7-5.6,2.8-12.4-3.7-17.5C1881.6,416.2,1885,422.5,1884,428.1z M1862.9,437.8c0-0.3,0-0.6,0-0.8
		c-14.4,0-28.7,0-43.1,0c0,0.3,0,0.6,0,0.8C1834.2,437.8,1848.6,437.8,1862.9,437.8z M1106.9,448.1c-5-2.9-40.7-2.4-43.8,0
		C1078,448.1,1092.4,448.1,1106.9,448.1z M1819.5,446.7c0,0.5,0,0.9,0,1.4c14.6,0,29.1,0,43.7,0c0-0.5,0-0.9,0-1.4
		C1848.6,446.7,1834,446.7,1819.5,446.7z M1063.6,436.7c0,0.3,0,0.6,0.1,1c14.3,0,28.7,0,43,0c0-0.3,0-0.6,0-1
		C1092.3,436.7,1078,436.7,1063.6,436.7z M463.4,436.6c0,0.3,0,0.6,0,0.9c14.2,0,28.4,0,42.6,0c0-0.3,0-0.6,0-0.9
		C491.8,436.6,477.6,436.6,463.4,436.6z M602.2,421.7c-0.9,0.2-1.7,0.4-2.6,0.6c-0.5,3.2-2.4,7.3-1.1,9.2c1.2,1.9,5.8,1.5,8.9,2.1
		c0.4-0.6,0.8-1.2,1.1-1.9C606.5,428.5,604.3,425.1,602.2,421.7z M1907.5,412.2c-2.3-6.8-7.1-9.9-13.4-11.9
		C1896.5,408.5,1900.7,412.2,1907.5,412.2z M1926.4,412.1c6.2,0.4,10.8-3.6,13.3-11.9C1933.3,402.5,1928.3,405.4,1926.4,412.1z
		 M1907.4,390.7c-2-6.6-6.8-9.6-13-11.7C1895.9,386.3,1900.8,390.7,1907.4,390.7z M1939.5,379.2c-7.6,2.1-11.3,5.4-12.8,11.4
		C1932.7,390.7,1937,387,1939.5,379.2z M1907.5,369.2c-2.5-6.7-7-10-13.5-11.7C1896.3,365.2,1900.8,369.2,1907.5,369.2z
		 M1926.2,369.2c6.8-0.2,11.6-4.6,13-11.7C1933.1,359.4,1928.5,362.6,1926.2,369.2z M1916.9,343c-4.2,7.8-3.9,13.7,0.6,18
		C1921.1,354.9,1920,349.3,1916.9,343z M657.9,420.8c-0.6-0.4-1.1-0.9-1.7-1.3c-2.8,1.4-5.7,2.9-8.5,4.3c0,0.6,0,1.2,0,1.8
		c2.7,1.4,5.4,2.8,8.1,4.2C656.5,426.8,657.2,423.8,657.9,420.8z M1938.4,443.2c-3-2.1-4.9-4.3-6.4-4.1c-1.7,0.3-3,2.8-4.4,4.4
		c1.5,1.4,3,3.8,4.7,4C1933.8,447.6,1935.5,445.3,1938.4,443.2z M868.9,436.1C868.9,436.1,868.9,436.1,868.9,436.1
		c0-1.2,0.3-2.4,0-3.4c-0.4-1.1-1.4-2-2.2-3c-0.8,1-2,1.9-2.2,3c-0.3,2.3-0.2,4.6,0,6.9c0.1,0.8,1.2,1.5,1.9,2.3
		c0.8-0.8,2-1.4,2.4-2.3C869.2,438.5,868.9,437.2,868.9,436.1z M1132.3,191c-7.9-3.9-15.8-7.7-24.5-12
		C1109.5,183.2,1121.3,188.9,1132.3,191z M1955.5,213.4c-0.3-0.7-0.6-1.3-0.9-2c-5.8,0.4-10.7,2.8-14.6,7c0.4,0.7,0.7,1.4,1.1,2.1
		C1945.9,218.1,1950.7,215.7,1955.5,213.4z M1060.4,428.5c1.3-7.7,0.6-8.4-5.9-6.8c0,2.2,0,4.4,0,6.8
		C1056.6,428.5,1058.4,428.5,1060.4,428.5z M1841.8,220.8c0.2-0.6,0.5-1.1,0.7-1.7c-3.9-5.1-10.3-7.7-15.8-5.4
		C1832.4,216.4,1837.1,218.6,1841.8,220.8z M1082.9,168.3c8.5,7,20.5,12.1,23.9,10.3C1098.5,175,1090.7,171.7,1082.9,168.3z
		 M453.9,421c-0.9,7.9-0.1,8.6,6.5,6.5c-0.1-2.1-0.2-4.4-0.3-6.5C457.7,421,456,421,453.9,421z M1865.8,421.6c0,2.3,0,4.4,0,6.7
		c2.3,0,4.3,0,6.3,0C1872.6,420.4,1872.4,420.2,1865.8,421.6z M1817,428.4c0.1-1.6,0.2-2.6,0.2-3.6c0-1.1-0.2-2.2-0.3-3.2
		c-6.8-1.3-7.4-0.6-6,6.8C1812.8,428.4,1814.7,428.4,1817,428.4z M1115.7,428.4c0.8-7.9,0.1-8.6-6-6.7c0,2.2,0,4.4,0,6.7
		C1112,428.4,1113.7,428.4,1115.7,428.4z M1521.3,442.3c0-3.3,0.1-6.5-0.1-9.6c-0.1-0.8-1.3-1.9-2.1-2c-0.7,0-2,1.1-2.1,1.9
		c-0.3,2.3,0,4.6-0.2,7C1516.6,442.6,1518,443.4,1521.3,442.3z M509.3,421c0,2.6,0,4.9,0,7.2c2.2,0,4,0,5.8,0c0-2.5,0-4.8,0-7.2
		C513.1,421,511.3,421,509.3,421z M859.2,448.3c5.2,0,9.8,0,14.9,0C869,442.8,864.7,442.8,859.2,448.3z M702.4,257.9
		c-0.5,0-0.9,0-1.4,0.1c-2.9,5.1-2.7,8.6,2,11.9C702.8,265.8,702.6,261.9,702.4,257.9z M691.7,278.2c0.7-0.8,1.4-1.5,2.1-2.3
		c-3.1-2.6-6.2-5.3-9.4-7.9c-0.6,0.6-1.1,1.3-1.7,1.9C685.7,272.7,688.7,275.4,691.7,278.2z M708.6,293.1c0.4,0.4,0.8,0.8,1.2,1.3
		c5.2-0.8,7.8-3.4,8.8-10C714.7,287.8,711.6,290.4,708.6,293.1z M652.3,433c0.2-0.3,0.4-0.7,0.5-1c-2.2-1.8-4.4-3.6-7.2-5.9
		c-0.7,2.7-1.2,4.6-1.8,6.9C647.2,433,649.7,433,652.3,433z M692.5,294.5c0.4-0.5,0.8-0.9,1.2-1.4c-3.1-2.6-6.2-5.2-9.3-7.8
		c-0.4,0.4-0.8,0.9-1.1,1.3C685.4,290.4,687.4,294.3,692.5,294.5z M708.7,310.2c0.4,0.5,0.9,1.1,1.3,1.6c4.9-0.5,7.1-4,8.9-8
		c-0.4-0.4-0.7-0.9-1.1-1.3C714.7,305.1,711.7,307.6,708.7,310.2z M1142.6,219.4c-0.9,0-1.7,0-2.6,0c-0.2,3.1-0.4,6.2-0.4,9.3
		c0,0.4,1.3,1.1,1.9,1c0.6,0,1.6-0.9,1.6-1.3C1143,225.3,1142.7,222.4,1142.6,219.4z M684.5,302.4c-0.4,0.5-0.8,0.9-1.2,1.4
		c2,3.9,4.1,7.8,9.2,7.9c0.4-0.5,0.8-1,1.2-1.4C690.6,307.7,687.6,305,684.5,302.4z M719.6,269.8c-0.7-0.7-1.3-1.3-2-2
		c-3,2.8-5.9,5.5-8.9,8.3c0.7,0.7,1.3,1.4,2,2.1C713.7,275.4,716.7,272.6,719.6,269.8z M1526,448.6c-6-4.8-9.8-4.6-12.9,0
		C1517.2,448.6,1521,448.6,1526,448.6z M1141.8,200.7c-0.6,0-1.1,0-1.7,0c0.8,5.3-1.4,10.9,1.7,16.1
		C1141.8,211.4,1141.8,206,1141.8,200.7z M228,165.6c-2.4,3.2-2.6,10.9,0,15.3C228,175.4,228,170.6,228,165.6z"/>
	<path class="st1" d="M485.8,533.1c229.1,0,458.2,0,687.2,0c0,0.3,0,0.7,0,1c-229.1,0-458.2,0-687.3,0
		C485.7,533.7,485.7,533.4,485.8,533.1z"/>
	<path class="st1" d="M1860.8,106.5c4.7,1.9,8.4,3.5,12,5c0.5,0.5,0.9,1,1.4,1.5c4.8-5.7,9.5-11.3,14.3-17c0.6,0.5,1.1,1.1,1.7,1.6
		c-5.1,5.3-10.3,10.7-15.2,15.8c1.4,3.4,2.4,6.5,3.9,9.4c0.6,1.1,2.2,2.3,3.5,2.4c4.8,0.3,9.7,0.1,14.5,0.1c1.5,0,3,0.1,4.6,0.2
		c0,0.5,0,1,0,1.5c-7.3,0-14.6,0-21.3,0c-1.9,4.5-3.4,8.1-5.4,13c4.9,4.5,10.4,9.4,15.9,14.4c-0.6,0.6-1.1,1.2-1.7,1.8
		c-5.3-5.1-10.5-10.1-16.3-15.7c-2.9,4.4-9.9,2.4-13.2,8.1c4.1,0.7,7,0.9,9.6,1.8c8.1,2.6,13.1,10.9,12.1,19.1
		c-0.5,3.7-1.9,5.4-6.1,5.3c-20.3-0.2-40.7-0.1-61-0.1c-7.7,0-15.4,0.6-22.9-0.4c-5.9-0.8-11.5-3.8-17.3-5.7
		c-1.5-0.5-3.1-1.3-4.5-1.2c-10.5,0.8-17-2.1-20.7-9.4c-3.7-7.5-2.1-14.7,5.3-22.9c-0.6-1.1-1.4-2.4-2-3.7
		c-4.1-8.4-1.2-18.4,6.6-23.2c7.7-4.8,17.6-3.1,23.4,4c3.7,4.5,8.1,3.8,10.5-1.7c3.8-8.6,12.7-12.9,21.3-10.3
		c8.9,2.6,14.4,10.9,12.8,19.9c-0.5,3,0.1,4.6,2.6,6c1.7,1,3,2.6,4.7,4.3c2.2-0.7,4.7-1.4,6.4-2c1.7-5.2,3.2-9.9,5.2-16.4
		c-1.8-1.6-4.9-3.9-7.6-6.5c-2.7-2.5-5.1-5.3-6.8-8.8c4.8,5.4,9.7,10.9,14.5,16.3c0.6-0.5,1.1-1.1,1.7-1.6c3.8-1.6,7.6-3.1,11.9-4.9
		c0-6.9,0-14.1,0-21.4c0.5,0,1-0.1,1.5-0.1C1860.8,92.5,1860.8,99.8,1860.8,106.5z M1757.2,135.6c-0.3,0.4-0.4,0.5-0.5,0.7
		c-7.6,6.3-9.7,13.2-6.2,20.5c3.3,7,9.7,9.6,19.3,8.1c1.1-0.2,2.7,0.1,3.6,0.8c7.6,6.2,16.6,7.1,25.9,7.1c24.5-0.1,49-0.1,73.4-0.1
		c1.8,0,3.6,0,5.1,0c2.1-5.4,1.2-9.8-1.5-13.9c-4.3-6.7-11-7.8-18.3-6.9c2.4-15.6-10-25.9-24.5-18.8c-3.4-2.8-6.6-5.5-10-8.3
		c0-0.2-0.1-0.8,0-1.2c2.7-9.7-0.9-18-9.2-20.8c-8.9-3.1-16.8,1.2-20.7,11.1c-0.4,1-1.4,2.2-2.4,2.6c-2.5,0.9-5.1,1.3-7.6,1.9
		c-8.2-11.1-16.7-13.7-25-7.6C1750.9,116.4,1750.3,125.5,1757.2,135.6z M1860.4,142.8c9.7-0.4,16.5-7.1,16.6-16.1
		c0.1-8.8-6.8-16.2-15.7-16.9c-8.6-0.6-16.8,6.2-17.4,15c-0.1,1.3,1.1,3.6,2.2,3.9C1853.4,130.7,1858,135.4,1860.4,142.8z"/>
	<path class="st1" d="M1521.7,318.5c-1.1-5.1-1.8-10.5-3.5-15.4c-2.7-7.7-0.9-14.2,3-20.9c5.3,4.7,6.9,14.5,4.4,20.8
		c-1.8,4.7-2.5,9.9-3.7,14.9c0.8,0.3,1.6,0.7,2.4,1c1.7-2.7,3.9-5.3,5.1-8.2c2.8-7.1,11.2-13,18.5-12.5c-1.4,8.6-7.3,15.2-15.2,16.8
		c-6,1.2-8.2,6.2-9.2,11.2c-0.9,4.4-0.2,9.2,0.9,14.3c1.7-2.8,3.8-5.4,5.1-8.4c2.9-6.9,10.4-12.3,18.2-12.5
		c-0.7,7.4-6.5,15.5-12.9,16.4c-7,0.9-9.8,5.6-11.1,11.1c-1.1,4.6-0.2,9.7,0.8,15.1c1.8-3,3.9-5.9,5.3-9.1c2.8-6.5,10.3-11.7,18-12
		c-0.7,7.6-6.8,15.7-13.4,16.5c-7,0.9-9.8,6-10.7,11.4c-1.1,6.9-0.3,14.1-0.3,21.3c3.7-1.9,7.3-3.7,10.8-5.5
		c0.4,0.6,0.8,1.1,1.3,1.7c-9.5,3.1-14.6,9.8-16.2,19.9c-7.4-13.3-7.4-13.3-16.7-20.2c5.4-0.8,8.7,1.7,17.3,12.4
		c0.4-2.9,1-5.8,1.1-8.7c0.2-5.5,0.7-11.1-0.3-16.5c-0.8-4.5-3.2-8.8-5.2-13.1c-0.5-1.1-2.3-2-3.7-2.2c-9.9-1.4-13.3-8.8-16.4-16.9
		c7-0.7,15.5,4.8,18.5,11.4c1.5,3.3,3.6,6.4,6.2,9.4c0.4-6.8,2.2-13.5-1.8-19.7c-2.1-3.2-4.4-5.5-8.8-6.4
		c-8.3-1.7-11.4-8.8-14.1-16.1c7.1-0.9,15.8,4.9,18.7,11.7c1.4,3.2,3.5,6.1,5.2,9.2c0.6-0.2,1.2-0.3,1.8-0.5
		c-0.4-5.3-0.1-10.8-1.4-15.9c-1.3-4.9-4.3-8.7-10.4-9.9c-8.3-1.7-11.3-8.9-14-16.2c7.7-0.4,15.9,5.3,18.8,12.1c1.4,3.2,3.6,6,5.4,9
		C1520.3,319.1,1521,318.8,1521.7,318.5z M1521.7,286.8c-3.9,6.7-3.7,12.5,0.3,17.2C1526,299,1525.9,292.7,1521.7,286.8z
		 M1544.7,343.6c-6.6,2.1-11.2,5.3-13.3,11.6C1537.5,355.8,1542.1,351.9,1544.7,343.6z M1531.4,334.1c7.1-0.7,12.1-5.5,12.7-11.8
		C1538.1,324.3,1533.3,327.2,1531.4,334.1z M1499,300.7c2.8,8.3,7.4,12.2,13.1,11.4C1510.2,306,1507.1,303.3,1499,300.7z
		 M1499.3,343.7c1.7,7.5,6.6,11.8,13.2,11.6C1510.2,348.8,1505.6,345.6,1499.3,343.7z M1544.4,301.1c-7.1,1.6-11,5-12.6,11.1
		C1537.6,312.6,1542.5,308.4,1544.4,301.1z M1499,321.9c2.7,8.5,7.4,12.5,13.3,11.7C1510.3,327.3,1505.6,324.3,1499,321.9z"/>
	<path class="st1" d="M1982,534.3c-132.7,0-265.4,0-398.3,0C1586.3,532.3,1975.5,531.6,1982,534.3z"/>
	<path class="st1" d="M421,534.2c-128.1,0-256.3,0-384.4,0c0-0.3,0-0.7,0-1c128.1,0,256.2,0,384.3,0C421,533.5,421,533.9,421,534.2z
		"/>
	<path class="st1" d="M1309.1,476.1c-93.7,0-187.5,0-281.2,0c0-0.3,0-0.6,0-0.8c93.7,0,187.5,0,281.2,0
		C1309.1,475.5,1309.1,475.8,1309.1,476.1z"/>
	<path class="st1" d="M1981.9,503.3c-93.1,0-186.1,0-279.2,0c0-0.3,0-0.7,0-1c93.1,0,186.1,0,279.2,0
		C1981.9,502.6,1981.9,503,1981.9,503.3z"/>
	<path class="st1" d="M1274.7,533c78,0,156.1,0,234.1,0c0,0.3,0,0.7,0,1c-78,0-156.1,0-234.1,0
		C1274.7,533.7,1274.7,533.4,1274.7,533z"/>
	<path class="st1" d="M376.8,503.4c-68,0-136,0-204.1,0c0-0.3,0-0.7,0-1c68,0,136,0,204,0C376.7,502.7,376.7,503,376.8,503.4z"/>
	<path class="st1" d="M931.7,502.1c67.8,0,135.5,0,203.3,0c0,0.3,0,0.6,0,0.9c-67.8,0-135.5,0-203.3,0
		C931.7,502.7,931.7,502.4,931.7,502.1z"/>
	<path class="st1" d="M1424.7,502.1c66.8,0,133.5,0,200.3,0c0,0.3,0,0.7,0,1c-66.8,0-133.6,0-200.3,0
		C1424.7,502.8,1424.7,502.4,1424.7,502.1z"/>
	<path class="st1" d="M1128.9,114.4c-2.3,3.3-3.9,5.8-5.6,8.2c-3.5,5.2-5.6,5.1-9.2-0.1c-1.3-1.9-2.6-3.9-3.9-5.8
		c-0.3-0.4-0.7-0.6-1.8-1.6c-2,2.8-3.9,5.6-5.9,8.3c-2.9,3.9-4.9,4-7.8,0.2c-2-2.6-3.8-5.4-6.3-9.1c-2.3,3.2-4.2,5.8-6,8.4
		c-3.3,4.7-6.6,4.6-9.5-0.4c-0.9-1.6-1.4-3.4-2.3-4.9c-0.8-1.3-2.1-2.3-3.2-3.5c0.3-0.4,0.6-0.7,0.9-1.1c1.4,1,3,1.8,4,3.1
		c1.1,1.4,1.5,3.3,2.4,4.9c2.1,3.8,3.6,3.9,6.1,0.5c1-1.4,1.7-2.8,2.7-4.2c3.7-5.3,6.1-5.2,9.7,0c1.6,2.4,3.3,4.7,5.4,7.8
		c2.2-3.3,3.8-5.6,5.4-7.9c3.7-5.3,5.9-5.3,9.6,0.2c1.5,2.3,3.1,4.5,5.2,7.6c2.5-3.5,4.3-6.3,6.2-8.9c2.8-3.7,5-3.7,7.9-0.1
		c1,1.3,1.8,2.8,2.8,4.2c0.9,1.3,2,2.6,3.6,4.6c2.2-3.2,4-6,5.9-8.6c3-4,5.3-4,8.2,0c1.8,2.5,3.5,5.2,5.9,8.9
		c2.2-3.2,3.8-5.6,5.5-7.9c3.5-5.1,5.9-5.2,9.4-0.2c2,2.9,4.1,5.8,6.7,9.6c-6.6-1.7-7-8.5-11.8-11.5c-1.9,2.8-3.7,5.6-5.6,8.2
		c-3,4-5.1,4-8.1-0.1c-1.9-2.5-3.5-5.2-5.9-8.6c-1.9,2.6-3.5,4.6-4.9,6.7c-4.3,6.6-6.4,6.7-10.6,0.3
		C1132.4,119.6,1131,117.5,1128.9,114.4z"/>
	<path class="st1" d="M616,476.1c-58.5,0-117.1,0-175.6,0c0-0.3,0-0.5,0-0.8c58.5,0,117.1,0,175.6,0C616,475.5,616,475.8,616,476.1z
		"/>
	<path class="st1" d="M1581.5,157.4c-1.1,2.5-2,5.1-3.3,7.5c-0.8,1.3-2.3,3.2-3.4,3.1c-1.4-0.1-3.1-1.7-4-3c-1.4-2.3-2.2-5-3.9-8.9
		c-1.4,3-2.1,4.8-3.1,6.3c-1.4,2.1-3.1,3.9-4.7,5.9c-1.6-1.9-3.4-3.7-4.8-5.8c-1.1-1.5-1.7-3.4-3.1-6.5c-1.6,3.6-2.3,5.9-3.5,7.9
		c-1.1,1.7-2.8,2.9-4.2,4.4c-1.4-1.5-3.1-2.8-4.1-4.5c-1.2-1.9-1.8-4.1-3.4-7.6c-1.6,3.2-2.3,5.3-3.5,7.1c-1.2,1.8-2.8,3.4-4.2,5
		c-1.6-1.7-3.4-3.3-4.7-5.2c-1.4-2.1-2.3-4.6-2.8-7.7c1.3,1.4,2.7,2.7,3.7,4.3c1.2,1.9,1.9,4.1,3.2,7.1c1.2-1.7,2-2.7,2.6-3.7
		c1.8-2.6,3.6-5.2,5.4-7.8c1.9,2.7,3.8,5.3,5.7,8c0.6,0.9,1.3,1.8,2.5,3.3c1.2-2.5,1.9-4.6,3-6.3c1.2-1.8,2.8-3.3,4.2-5
		c1.6,1.7,3.4,3.3,4.7,5.1c1.1,1.6,1.6,3.5,3,6.8c1.6-3.1,2.4-5.2,3.5-6.9c1.2-1.8,2.8-3.4,4.2-5c1.6,1.7,3.3,3.3,4.7,5.1
		c1.2,1.7,1.8,3.7,3.4,7c1.7-4,2.5-6.6,3.9-8.9c0.8-1.4,2.5-2.9,4-3c1.1-0.1,2.7,1.7,3.4,3c1.3,2.3,2.2,5,3.3,7.5c0.5,0,1,0,1.4,0
		c1.1-2.5,2-5.1,3.4-7.4c0.8-1.3,2.4-3.1,3.4-3c1.4,0.1,3.1,1.6,3.9,3c1.7,2.9,3,6.1,4.7,9.7c-6.1-1.3-4.5-8.2-8.9-11.2
		c-1.2,2.7-2,5.3-3.4,7.7c-0.8,1.4-2.5,3.3-3.8,3.3c-1.3,0-2.9-1.9-3.7-3.3c-1.3-2.2-2.1-4.8-3.1-7.2
		C1582.6,157.4,1582.1,157.4,1581.5,157.4z"/>
	<path class="st1" d="M1599.9,476.1c-52.6,0-105.2,0-157.8,0c0-0.3,0-0.7,0-1c52.6,0,105.2,0,157.8,0
		C1599.9,475.5,1599.9,475.8,1599.9,476.1z"/>
	<path class="st1" d="M843.6,87.4c0-2-0.4-4.2,0.1-6.1c2.2-8.9-1.1-17.5-8.8-22.6c-7.5-4.9-17.9-4.9-23.9,2c-4.6,5.2-9,7.3-15.8,7.9
		c-7.7,0.7-11.8,6.8-13.8,14.4c-6.6-1-12.3,0.5-16.7,5.7c-0.6,0.7-2.1,0.6-3.1,0.7c-2,0.4-4,0.7-5.9,1c0.7,1.8,1.4,3.6,2.2,5.6
		c-3,0.6-4.7-1.4-4.4-3.9c0.3-1.9,2.8-5.3,3.9-5.1c4.8,0.8,7.7-1.9,11-4.3c1.2-0.9,2.8-1.8,4.1-1.6c6,0.5,8.3-3.2,11-7.6
		c3.4-5.5,9.3-8,15.8-7.9c2.9,0.1,4.7-0.6,6.6-3.1c6.4-8.8,17.7-11.6,27.2-7.4c9.8,4.4,15,14.8,12.9,25.6c-0.4,2.1-0.6,4.2-0.8,6.3
		C844.6,87.2,844.1,87.3,843.6,87.4z"/>
	<path class="st1" d="M866.6,503.2c-45.7,0-91.3,0-137,0c0-0.3,0-0.6,0-0.9c45.7,0,91.3,0,137,0
		C866.6,502.6,866.6,502.9,866.6,503.2z"/>
	<path class="st1" d="M1190.7,502.2c44.8,0,89.7,0,134.5,0c0,0.3,0,0.7,0,1c-44.8,0-89.7,0-134.5,0
		C1190.6,502.9,1190.7,502.5,1190.7,502.2z"/>
	<path class="st1" d="M837.1,475c39.7,0,79.4,0,119,0c0,0.3,0,0.7,0,1c-39.7,0-79.4,0-119,0C837.1,475.7,837.1,475.3,837.1,475z"/>
	<path class="st1" d="M625.7,503.3c-39,0-78,0-117,0c0-0.3,0-0.7,0-1c39,0,78,0,117,0C625.7,502.7,625.7,503,625.7,503.3z"/>
	<path class="st1" d="M1343.6,56.5c2.3,1,4.8,1.7,6.9,3c1.8,1.1,3,3.1,4.6,4.5c4,3.8,8.4,3.7,12.4-0.1c1.3-1.3,2.5-2.7,3.8-4
		c4.5-4.2,10.3-4.3,14.8-0.1c1.3,1.2,2.5,2.7,3.8,4c4.1,4,8.7,4,12.7,0c1.4-1.4,2.6-3,4.2-4.3c4.3-3.7,9.8-3.6,14.1,0
		c3.5,3,7,6,11.5,9.7c-3-1-5.4-1.5-7.4-2.7c-1.7-1-2.8-2.8-4.2-4.2c-4.6-4.6-9.3-4.6-13.8,0c-1.9,1.9-3.7,4-5.9,5.3
		c-4.4,2.6-9.4,1-14.1-4c-6.1-6.4-10.2-6.4-16.2,0c-6.6,7.1-12.2,7-19-0.1c-2.3-2.4-5.4-4-8.2-6
		C1343.5,57.2,1343.6,56.9,1343.6,56.5z"/>
	<path class="st1" d="M298,476.1c-37.3,0-74.7,0-112,0c0-0.3,0-0.7,0-1c37.3,0,74.7,0,112,0C298,475.4,298,475.7,298,476.1z"/>
	<path class="st1" d="M1722.4,475c35.2,0,70.5,0,105.7,0c0,0.3,0,0.7,0,1c-35.2,0-70.5,0-105.7,0
		C1722.4,475.7,1722.4,475.4,1722.4,475z"/>
	<path class="st1" d="M403.8,476.1c-33.3,0-66.6,0-99.8,0c0-0.3,0-0.7,0-1c33.3,0,66.5,0,99.8,0
		C403.8,475.4,403.8,475.8,403.8,476.1z"/>
	<path class="st1" d="M226.9,143.4c-2.3-13.1-3.3-14-15.3-14c-5.7-10-11.7-10.8-20.3-2.3c-3.8-4.2-8.1-7.6-14.1-4.7
		c-5.5,2.7-6.6,7.7-5.6,13.5c-3.2-4.1-2.6-9.2,1-13c4.9-5,10.9-4.9,18.8,0.4c8.5-6.2,14-5.6,20.5,2.1c0.8,1,2.7,1.4,4.1,1.5
		c8,0.4,13.6,6.8,12.2,14.3C228.1,141.8,227.5,142.4,226.9,143.4z"/>
	<path class="st1" d="M396.2,137.7c-2.4-13.5-3.7-14.7-15.3-14.3c-6-10.1-11.5-10.8-20.5-2.4c-3.4-4.2-7.5-7.2-13.3-5
		c-6.2,2.4-6.9,7.7-6.2,13.9c-3.4-3.8-2.9-8.9,0.9-13c4.6-5.1,11.3-4.9,18.8,0.3c8.9-6.3,13.1-5.7,20.8,2.4c0.9,0.9,2.9,1,4.4,1.2
		C394.5,121.6,399.6,129.1,396.2,137.7z"/>
	<path class="st1" d="M1540,132.9c30.1,0,60.2,0,90.2,0c0,0.3,0,0.7,0,1c-30.1,0-60.1,0-90.2,0C1540,133.6,1540,133.2,1540,132.9z"
		/>
	<path class="st1" d="M706.7,126.3c29.1,0,58.3,0,87.4,0c0,0.3,0,0.7,0,1c-29.1,0-58.3,0-87.4,0C706.7,127,706.7,126.7,706.7,126.3z
		"/>
	<path class="st1" d="M770.8,476c-29.1,0-58.3,0-87.4,0c0-0.3,0-0.7,0-1c29.1,0,58.3,0,87.4,0C770.8,475.3,770.8,475.7,770.8,476z"
		/>
	<path class="st1" d="M36.7,502.3c25,0,50,0,74.9,0c0,0.3,0,0.7,0,1c-25,0-50,0-75,0C36.7,502.9,36.7,502.6,36.7,502.3z"/>
	<path class="st1" d="M1911.5,475.1c22.8,0,45.6,0,68.4,0c0,0.3,0,0.6,0,0.9c-22.8,0-45.6,0-68.4,0
		C1911.5,475.6,1911.5,475.3,1911.5,475.1z"/>
	<path class="st1" d="M167.8,476.1c-21.1,0-42.2,0-63.2,0c0-0.3,0-0.7,0-1c21.1,0,42.2,0,63.2,0
		C167.8,475.4,167.8,475.8,167.8,476.1z"/>
	<path class="st1" d="M844.7,115c-19.5,0-39,0-58.5,0c0-0.3,0-0.7,0-1c19.5,0,39.1,0,58.6,0C844.7,114.3,844.7,114.6,844.7,115z"/>
	<path class="st1" d="M882.2,384.9c-10.9,7-10.2,5.7-15.8,19.9c-2.1-4.2-3.3-8.5-6-11.8c-2.7-3.3-6.8-5.4-10-7.9
		c4.8-1.1,8.1,1.4,16.1,12.5C869.9,391,874.2,385.4,882.2,384.9z"/>
	<path class="st1" d="M313.5,91.4c12.1,0,24.2,0,36.3,0c0,0.3,0,0.7,0,1c-12.1,0-24.1,0-36.2,0C313.6,92.1,313.5,91.8,313.5,91.4z"
		/>
	<path class="st1" d="M951.5,207.3c0,12.1,0,24.2,0,36.4c-0.4,0-0.8,0-1.2,0c0-12.1,0-24.3,0-36.4
		C950.7,207.3,951.1,207.3,951.5,207.3z"/>
	<path class="st1" d="M265.6,91.5c11.8,0,23.6,0,35.4,0c0,0.4,0,0.7,0,1.1c-11.8,0-23.6,0-35.4,0C265.6,92.3,265.6,91.9,265.6,91.5z
		"/>
	<path class="st1" d="M1166,221c10.7-12.3,13.9-26,7.8-42.7C1183.1,188.1,1178.9,213.9,1166,221z"/>
	<path class="st1" d="M1718.7,221.3c-6.2-7.6-11.3-3.8-17,2c-0.1-8.3-3.7-12-11.9-10.4c5.2-4.2,9.8-2.4,13.3,3.7
		c4.1-0.4,7.8-1.3,11.5-1c1.7,0.1,3.3,2.4,5,3.7C1719.3,219.9,1719,220.6,1718.7,221.3z"/>
	<path class="st1" d="M738.4,14.2c0.3-7.8-3.8-10.8-11.2-10c6-3.2,9-1.9,13.5,5.2c8.5-4.1,12.2-3.6,15.1,2.4c-2.9-1-5.9-3-8.6-2.7
		C744.5,9.4,741.9,12,738.4,14.2z"/>
	<path class="st1" d="M777.6,152.3c7.7-4.5,12.1-3.8,15.1,2.2c-2.9-1-5.9-2.9-8.7-2.6c-2.8,0.3-5.3,2.9-8.6,4.9
		c-0.1-7.1-3.6-10.9-12.1-9.2C769.1,143.2,772.9,144.8,777.6,152.3z"/>
	<path class="st1" d="M1684.9,85.3c-6.4-6.8-11.5-3.7-17.3,2.7c-0.1-8.5-3.6-12.1-11.5-10.4c4.7-4.6,9.4-2.6,13.6,4.6
		C1678,78,1681.8,78.5,1684.9,85.3z"/>
	<path class="st1" d="M717.7,73.6c7.9-4.6,12.7-3.8,15.1,2.3c-8.4-3.4-8.4-3.4-17.3,2.1c0-7.4-3.7-10.9-12.4-9.2
		C709.5,64.6,713.4,66.3,717.7,73.6z"/>
	<path class="st1" d="M1798.3,221.4c6-3.1,9.1-1.7,12.5,4.4c4.1-0.5,7.8-1.4,11.5-1.1c1.8,0.1,3.4,2.4,4.5,4.4
		c-2.9-1-5.9-2.9-8.7-2.6c-2.8,0.3-5.3,2.9-8.6,4.8C1809.3,224.3,1805.9,220.5,1798.3,221.4z"/>
	<path class="st1" d="M1739.4,180.6c8.8-4.3,12.6-3.7,15.3,2.3c-2.9-0.9-5.9-2.9-8.7-2.6c-2.8,0.3-5.3,2.9-8.6,4.9
		c0-7.4-3.7-10.7-11.3-9.8C1731.7,172,1735.5,173.6,1739.4,180.6z"/>
	<path class="st1" d="M525.9,118.8c8.7-4.4,13-3.7,15.9,4.3c-6.9-7.8-12-5.3-16.8,0.5c-1.4-3.1-2.1-6.3-4-8.1
		c-1.8-1.6-5.1-1.7-7.5-2.5C517.3,109.7,522.4,111.8,525.9,118.8z"/>
	<path class="st1" d="M801,84.5c5.6-3.4,9.5-1.7,12.6,4c4.3-0.3,8.3-1,12.1-0.7c1.5,0.1,2.9,2.3,4.1,3.9c-8.5-3-8.5-3-17.5,2.5
		C812.1,87.1,808.7,83.3,801,84.5z"/>
	<path class="st1" d="M677.7,502.2c12,0,24,0,35.9,0c0,0.3,0,0.7,0,1c-12,0-24,0-36,0C677.7,502.9,677.7,502.5,677.7,502.2z"/>
	<path class="st1" d="M951.5,143.3c0,7.6,0,15.2,0,22.9c-0.4,0-0.8,0-1.1,0c0-7.7,0-15.4,0-23C950.8,143.2,951.2,143.3,951.5,143.3z
		"/>
	<path class="st1" d="M928.8,171.6c2.7-9.7,5.4-19.4,8-29c0.7,0.2,1.3,0.4,2,0.5c-2.7,9.7-5.3,19.4-8,29.1
		C930.2,172,929.5,171.8,928.8,171.6z"/>
	<path class="st1" d="M287,79.2c10.5,0,21,0,31.5,0c0,0.3,0,0.6,0,0.9c-10.5,0-21,0-31.5,0C287,79.8,287,79.5,287,79.2z"/>
	<path class="st1" d="M1496.4,394.8c8.8-2.6,20.1,5.8,20.2,15C1512.3,401.5,1506.5,395.3,1496.4,394.8z"/>
	<path class="st1" d="M1690.1,108.6c10,0,19.9,0,29.9,0c0,0.3,0,0.7,0,1c-9.9,0-19.9,0-29.8,0
		C1690.1,109.3,1690.1,108.9,1690.1,108.6z"/>
	<path class="st1" d="M993.1,217.5c2.6,8.6,5.3,17.3,7.9,25.9c-0.6,0.2-1.3,0.4-1.9,0.6c-2.7-8.7-5.3-17.3-8-26
		C991.7,217.9,992.4,217.7,993.1,217.5z"/>
	<path class="st1" d="M1540.4,394.6c-9.8,0.9-15.7,6.9-20.1,16.1C1519.7,401.3,1531.1,392.6,1540.4,394.6z"/>
	<path class="st1" d="M1129.4,214.5c-8.1-0.7-15.2-13.8-12.1-22.3C1118,201.4,1121.5,209.1,1129.4,214.5z"/>
	<path class="st1" d="M985.4,200.1c-2.4-7.7-4.7-15.4-7.1-23.1c0.6-0.2,1.3-0.4,1.9-0.6c2.4,7.7,4.8,15.4,7.3,23.1
		C986.8,199.6,986.1,199.8,985.4,200.1z"/>
	<path class="st1" d="M282.2,80.2c-8.1,0-16.1,0-24.2,0c0-0.3,0-0.6-0.1-0.9c8.1,0,16.1,0,24.2,0C282.1,79.6,282.1,79.9,282.2,80.2z
		"/>
	<path class="st1" d="M1197,110.7c8,0,16,0,24,0c0,0.3,0,0.7,0,1c-8,0-16,0-24,0C1197,111.4,1197,111.1,1197,110.7z"/>
	<path class="st1" d="M919.8,204.1c1.9-6.7,3.7-13.4,5.6-20.1c0.7,0.2,1.3,0.4,2,0.5c-1.9,6.7-3.7,13.4-5.6,20.1
		C921.2,204.5,920.5,204.3,919.8,204.1z"/>
	<path class="st1" d="M1255.1,97.3c7.9,0,15.9,0,23.8,0c0,0.4,0,0.7,0,1.1c-8,0-15.9,0-23.9,0C1255.1,98,1255.1,97.6,1255.1,97.3z"
		/>
	<path class="st1" d="M917.1,221.3c-2,7.5-4.1,15.1-6.1,22.6c-0.6-0.2-1.2-0.3-1.8-0.5c2.1-7.5,4.1-15.1,6.2-22.6
		C915.9,221,916.5,221.1,917.1,221.3z"/>
	<path class="st1" d="M411.8,503.4c-7.7,0-15.4,0-23.2,0c0-0.3,0-0.6,0-0.9c7.7,0,15.4,0,23.2,0
		C411.8,502.7,411.8,503.1,411.8,503.4z"/>
	<path class="st1" d="M224.8,92.7c-5.3,0-10.5,0-15.8,0c0-0.4,0-0.7,0-1.1c5.2,0,10.4,0,15.7,0C224.7,92,224.7,92.4,224.8,92.7z"/>
	<path class="st1" d="M950.3,197.3c0-7.2,0-14.3,0-21.5c0.3,0,0.6,0,1,0c0,7.2,0,14.3,0,21.5C950.9,197.3,950.6,197.3,950.3,197.3z"
		/>
	<path class="st1" d="M708.1,113.7c7.1,0,14.2,0,21.3,0c0,0.4,0,0.7,0,1.1c-7.1,0-14.1,0-21.2,0
		C708.1,114.4,708.1,114.1,708.1,113.7z"/>
	<path class="st1" d="M1566.6,108.6c7.3,0,14.6,0,21.9,0c0,0.3,0,0.7,0,1c-7.3,0-14.6,0-21.8,0
		C1566.7,109.3,1566.7,108.9,1566.6,108.6z"/>
	<path class="st1" d="M398.9,80.3c-6.7,0-13.5,0-20.2,0c0-0.3,0-0.7,0-1c6.7,0,13.5,0,20.2,0C398.9,79.6,398.9,79.9,398.9,80.3z"/>
	<path class="st1" d="M1628.6,109.8c-6,0-12.1,0-18.1,0c0-0.4,0-0.7,0-1.1c6.1,0,12.1,0,18.2,0
		C1628.7,109,1628.6,109.4,1628.6,109.8z"/>
	<path class="st1" d="M247.7,92.6c-4.2,0-8.5,0-12.7,0c0-0.3,0-0.7,0-1c4.2,0,8.5,0,12.7,0C247.6,92,247.6,92.3,247.7,92.6z"/>
	<path class="st1" d="M430.8,502.2c6,0,12,0,18,0c0,0.3,0,0.7,0,1c-6,0-12,0-18,0C430.8,502.9,430.8,502.6,430.8,502.2z"/>
	<path class="st1" d="M1165.1,197.2c-1.4-5.8-2.7-11.1-3.9-16.4C1165.4,183.8,1167.3,191.1,1165.1,197.2z"/>
	<path class="st1" d="M1663.7,108.6c5.6,0,11.3,0,16.9,0c0,0.4,0,0.7,0,1.1c-5.6,0-11.3,0-16.9,0
		C1663.7,109.3,1663.7,109,1663.7,108.6z"/>
	<path class="st1" d="M1132.2,170.1c3.9-0.5,7.9-1,11.8-1.5c0.1,0.6,0.2,1.3,0.3,1.9c-3.9,0.5-7.8,1-11.8,1.5
		C1132.4,171.4,1132.3,170.8,1132.2,170.1z"/>
	<path class="st1" d="M1521.6,132.8c4.7,0,9.3,0,14,0c0,0.3,0,0.7,0,1c-4.7,0-9.3,0-14,0C1521.6,133.5,1521.6,133.1,1521.6,132.8z"
		/>
	<path class="st1" d="M1327.3,97.2c4.5,0,8.9,0,13.4,0c0,0.3,0,0.7,0,1c-4.5,0-8.9,0-13.4,0C1327.3,97.8,1327.3,97.5,1327.3,97.2z"
		/>
	<path class="st1" d="M1269.2,110.7c4.5,0,9.1,0,13.6,0c0,0.4,0,0.7,0,1.1c-4.5,0-9,0-13.5,0
		C1269.2,111.5,1269.2,111.1,1269.2,110.7z"/>
	<path class="st1" d="M1318.1,98.4c-4.5,0-8.9,0-13.4,0c0-0.3,0-0.7,0-1c4.5,0,8.9,0,13.4,0C1318,97.7,1318,98.1,1318.1,98.4z"/>
	<path class="st1" d="M357.9,80.3c-4.5,0-8.9,0-13.4,0c0-0.3,0-0.7,0-1c4.4,0,8.9,0,13.3,0C357.9,79.6,357.9,79.9,357.9,80.3z"/>
	<path class="st1" d="M1246.6,110.6c4.5,0,9,0,13.4,0c0,0.3,0,0.7,0.1,1c-4.5,0-8.9,0-13.4,0
		C1246.7,111.3,1246.6,110.9,1246.6,110.6z"/>
	<path class="st1" d="M653.2,199.6c-35,0-70,0-105,0c0-0.4,0-0.7,0-1.1c35,0,70,0,104.9,0C653.1,198.9,653.1,199.2,653.2,199.6z"/>
	<path class="st1" d="M548.2,284.5c34.9,0,69.9,0,104.8,0c0,0.4,0,0.7,0,1.1c-35,0-69.9,0-104.9,0
		C548.2,285.2,548.2,284.8,548.2,284.5z"/>
	<path class="st1" d="M548,241.5c35,0,70,0,105,0c0,0.4,0,0.7,0,1.1c-35,0-70,0-105,0C548,242.2,548,241.8,548,241.5z"/>
	<path class="st1" d="M548.2,349c34.9,0,69.9,0,104.8,0c0,0.3,0,0.7,0,1c-34.9,0-69.9,0-104.8,0C548.2,349.7,548.2,349.3,548.2,349z
		"/>
	<path class="st1" d="M653,307.1c-35,0-69.9,0-104.9,0c0-0.3,0-0.7,0-1c35,0,69.9,0,104.9,0C653,306.4,653,306.8,653,307.1z"/>
	<path class="st1" d="M548.3,370.6c34.9,0,69.9,0,104.8,0c0,0.4,0,0.7,0,1.1c-34.9,0-69.9,0-104.8,0
		C548.3,371.3,548.3,370.9,548.3,370.6z"/>
	<path class="st1" d="M653.1,221.1c-35,0-69.9,0-104.9,0c0-0.3,0-0.7,0-1c34.9,0,69.9,0,104.8,0C653,220.5,653,220.8,653.1,221.1z"
		/>
	<path class="st1" d="M653.1,264.2c-35,0-69.9,0-104.9,0c0-0.3,0-0.6,0-0.9c34.9,0,69.9,0,104.8,0C653,263.6,653,263.9,653.1,264.2z
		"/>
	<path class="st1" d="M548.3,327.6c34.9,0,69.8,0,104.6,0c0,0.3,0,0.6,0,0.9c-34.9,0-69.8,0-104.6,0
		C548.3,328.2,548.3,327.9,548.3,327.6z"/>
	<path class="st1" d="M589.9,414.8c-13.9,0-27.8,0-41.7,0c0-0.4,0-0.7,0-1.1c13.9,0,27.8,0,41.8,0
		C589.9,414.1,589.9,414.4,589.9,414.8z"/>
	<path class="st1" d="M548.2,392c11.4,0,22.8,0,34.3,0c0,0.3,0,0.6,0,0.9c-11.4,0-22.9,0-34.3,0C548.2,392.6,548.2,392.3,548.2,392z
		"/>
	<path class="st1" d="M1424.7,256.3c0,19.9,0,38.9,0,58.2c-11.6,0-22.8,0-34.3,0c-0.2-1.2-0.6-2.3-0.6-3.5c0-17-0.1-33.9,0.1-50.9
		c0-1.3,1.6-3.7,2.4-3.7C1403,256.2,1413.6,256.3,1424.7,256.3z M1392.3,258.5c0,18.3,0,36,0,53.8c4.8,0,9.2,0,13.6,0
		c0-18.1,0-35.8,0-53.8C1401.3,258.5,1397,258.5,1392.3,258.5z M1408.4,258.6c0,4.7,0,9.2,0,13.6c0,12.9,0,12.9,13,12.1
		c0.3,0,0.5-0.3,1.1-0.6c0-8.2,0-16.6,0-25.1C1417.8,258.6,1413.4,258.6,1408.4,258.6z M1422.5,286.5c-4.1,0-7.6-0.2-11,0.1
		c-1.1,0.1-2.9,1.4-2.9,2.2c-0.2,7.7-0.1,15.5-0.1,23.5c5,0,9.4,0,14.1,0C1422.5,303.9,1422.5,295.5,1422.5,286.5z"/>
	<path class="st1" d="M1390.6,186.5c11.1,0,22.4,0,34.4,0c0,7.4,0,14.5,0,21.6c0,10.7-0.1,21.3,0.1,32c0.1,3.3-0.7,4.8-4.4,4.7
		c-9-0.2-18-0.1-27-0.1c-2.3,0-3.9-0.3-3.9-3.1c0.1-18,0.2-36,0.2-54C1390,187.4,1390.3,187.1,1390.6,186.5z M1392.3,188.5
		c0,18.4,0,36.1,0,53.8c4.8,0,9.2,0,13.7,0c0-18.2,0-36,0-53.8C1401.2,188.5,1396.9,188.5,1392.3,188.5z M1422.7,216.4
		c-4,0-7.6-0.2-11.2,0.1c-1.1,0.1-3,1.4-3,2.2c-0.2,7.9-0.1,15.8-0.1,23.7c5.3,0,9.7,0,14.3,0
		C1422.7,233.6,1422.7,225.2,1422.7,216.4z M1422.6,213.8c0-8.2,0-16.7,0-25.5c-3.9,0-7.4-0.3-10.8,0.2c-1.3,0.2-3.1,2.1-3.3,3.4
		c-0.4,3.6-0.2,7.3-0.1,10.9c0.3,13,0.3,13,13.5,11.5C1421.9,214.3,1422.1,214.1,1422.6,213.8z"/>
	<path class="st1" d="M1424.7,384.5c-11.7,0-22.9,0-34.5,0c0-19.3,0-38.3,0-57.8c11.5,0,22.8,0,34.5,0
		C1424.7,345.8,1424.7,364.8,1424.7,384.5z M1405.9,382.4c0-18.4,0-36.1,0-53.7c-4.9,0-9.3,0-13.5,0c0,18.2,0,35.9,0,53.7
		C1397.1,382.4,1401.4,382.4,1405.9,382.4z M1422.5,328.8c-4.8,0-9.4,0-14.1,0c0,4.9,0,9.4,0,13.9c0,12.5,0,12.5,12.5,11.8
		c0.5,0,0.9-0.3,1.7-0.5C1422.5,345.5,1422.5,337.1,1422.5,328.8z M1408.7,356.8c0,8.9,0,17.1,0,25.6c4.8,0,9.2,0,13.8,0
		c0-8.7,0-17,0-25.6C1417.8,356.8,1413.4,356.8,1408.7,356.8z"/>
	<path class="st1" d="M1441.5,186.5c11.6,0,22.8,0,34.3,0c0.1,1.5,0.3,2.8,0.3,4.1c0,16.3-0.1,32.7,0,49c0,3.7-0.7,5.4-4.9,5.2
		c-9.8-0.3-19.6-0.1-29.8-0.1C1441.5,225.2,1441.5,206.2,1441.5,186.5z M1457.1,242.5c0-18.4,0-36.2,0-53.7c-4.9,0-9.3,0-13.5,0
		c0,18.2,0,35.9,0,53.7C1448.3,242.5,1452.5,242.5,1457.1,242.5z M1460,216.8c0,8.6,0,17,0,25.6c4.7,0,9.1,0,13.8,0
		c0-8.7,0-17,0-25.6C1469.1,216.8,1464.7,216.8,1460,216.8z M1459.7,188.6c0,7.9-0.1,15.4,0.1,22.8c0,1.1,1.7,2.8,2.8,2.9
		c2.8,0.4,5.7,0.4,8.4,0.1c1.1-0.1,2.8-1.5,2.9-2.3c0.2-7.7,0.1-15.5,0.1-23.5C1469.1,188.6,1464.8,188.6,1459.7,188.6z"/>
	<path class="st1" d="M1441.5,326.5c11.5,0,22.8,0,34.4,0c0,19.2,0,38.3,0,57.7c-11.3,0-22.7,0-34.4,0
		C1441.5,365.2,1441.5,346.2,1441.5,326.5z M1443.5,328.6c0,18.3,0,36,0,53.8c4.8,0,9.2,0,13.6,0c0-18.2,0-36,0-53.8
		C1452.4,328.6,1448.1,328.6,1443.5,328.6z M1459.7,328.5c0,8-0.1,15.5,0.1,22.9c0,1,1.4,2.7,2.4,2.9c3.1,0.4,6.3,0.3,9.5,0
		c0.9-0.1,2.3-1.5,2.4-2.4c0.2-7.8,0.1-15.5,0.1-23.5C1469,328.5,1464.7,328.5,1459.7,328.5z M1460,382.7c4,0,7.6,0.1,11.3-0.1
		c1-0.1,2.7-1.3,2.7-2c0.2-7.9,0.1-15.8,0.1-23.8c-5.1,0-9.4,0-14.1,0C1460,365.5,1460,373.8,1460,382.7z"/>
	<path class="st1" d="M1441.5,256.5c11.5,0,22.7,0,34.3,0c0,19.2,0,38.3,0,57.8c-11.3,0-22.6,0-34.3,0
		C1441.5,295.2,1441.5,276.2,1441.5,256.5z M1457.2,312.5c0-18.3,0-36,0-53.9c-4.7,0-9.1,0-13.6,0c0,18.1,0,35.9,0,53.9
		C1448.3,312.5,1452.6,312.5,1457.2,312.5z M1473.7,312.5c0-8.6,0-17.1,0-25.6c-4.8,0-9.2,0-13.6,0c0,8.7,0,17.1,0,25.6
		C1464.6,312.5,1468.7,312.5,1473.7,312.5z M1460,258.8c0,8.4,0,16.7,0,25.3c4.8,0,9.2,0,14.1,0c0-5,0-9.6,0-14.3
		c0-12.4,0-12.4-12.4-11.4C1461.2,258.4,1460.8,258.6,1460,258.8z"/>
	<path class="st1" d="M1292.1,285.7c0,19.6,0,38.3,0,57.8c-3.5,0-6.7,0-10,0c-11.3,0-22.6-0.1-34,0.1c-3.5,0.1-4.5-1.1-4.5-4.6
		c0.2-16.3,0-32.6,0.2-49c0-1.5,1.5-4.2,2.4-4.2C1261.3,285.6,1276.4,285.7,1292.1,285.7z M1290,288.2c-14.9,0-29.2,0-44.1,0
		c0,10.3-0.1,20.3,0.2,30.2c0,1,2.6,2.7,4,2.7c9.3,0.3,18.6,0.1,27.9,0.1c3.9,0,7.9,0,12,0C1290,309.9,1290,299.3,1290,288.2z
		 M1269.4,341.4c6.3,0,12.2,0.1,18.1-0.1c0.9,0,2.4-1.4,2.4-2.2c0.2-5.1,0.1-10.2,0.1-15.3c-7.4,0-14,0-20.7,0
		C1269.4,329.8,1269.4,335.3,1269.4,341.4z M1246.2,323.6c0,6.1,0,11.6,0,17.5c6.9,0,13.4,0,20.4,0c0-5.9,0-11.6,0-17.5
		C1259.8,323.6,1253.3,323.6,1246.2,323.6z"/>
	<path class="st1" d="M1307.2,307.6c0-6.5-0.2-12.7,0.1-18.8c0.1-1.1,2-3,3.1-3c14-0.2,28-0.2,41.9,0c1.2,0,3.2,1.8,3.3,2.9
		c0.3,6.1,0.2,12.3,0.2,18.9C1339.6,307.6,1323.8,307.6,1307.2,307.6z M1330.3,288.2c-7.2,0-13.9,0-20.6,0c0,6,0,11.6,0,17.3
		c7,0,13.7,0,20.6,0C1330.3,299.6,1330.3,294.2,1330.3,288.2z M1332.5,305.5c7.3,0,14,0,20.8,0c0-5.9,0-11.5,0-17.7
		c-6.4,0-12.5-0.1-18.5,0.1c-0.8,0-2.1,1.6-2.2,2.5C1332.4,295.4,1332.5,300.3,1332.5,305.5z"/>
	<path class="st1" d="M1307.6,356.9c16.1,0,31.8,0,47.9,0c0,7.3,0,14.4,0,21.7c-16.1,0-31.8,0-47.9,0
		C1307.6,371.4,1307.6,364.5,1307.6,356.9z M1330.3,359.2c-7.3,0-14,0-20.6,0c0,6.1,0,11.6,0,17.2c7.1,0,13.8,0,20.6,0
		C1330.3,370.5,1330.3,365,1330.3,359.2z M1353.7,376.6c0-5.3,0.2-9.9-0.1-14.5c-0.1-1.1-1.6-3.1-2.5-3.2
		c-5.3-0.3-10.6-0.3-15.9-0.1c-0.9,0-2.4,1.5-2.4,2.3c-0.2,5.1-0.1,10.2-0.1,15.5C1339.8,376.6,1346.4,376.6,1353.7,376.6z"/>
	<path class="st1" d="M1355.4,343.3c-16.1,0-31.7,0-47.7,0c0-7.1,0-14.1,0-21.6c15.7,0,31.5,0,47.7,0
		C1355.4,328.8,1355.4,335.8,1355.4,343.3z M1353.5,323.6c-14.8,0-29.2,0-43.8,0c0,6,0,11.7,0,17.4c14.8,0,29.2,0,43.8,0
		C1353.5,335.2,1353.5,329.7,1353.5,323.6z"/>
	<path class="st1" d="M1292.3,379c-10.3,0-19.9,0-29.5,0c-5.2,0-10.3,0.2-15.4-0.1c-1.3-0.1-3.4-1.7-3.5-2.7
		c-0.3-6.3-0.2-12.5-0.2-19.4c4.1,0,7.7,0,11.3,0c11,0,21.9,0.1,32.9-0.1c3.6-0.1,4.6,1.1,4.5,4.6
		C1292.1,366.8,1292.3,372.4,1292.3,379z M1290.2,376.5c0-5.3,0.1-10.2-0.1-15.2c0-0.9-1.8-2.4-2.7-2.5c-13.6-0.2-27.2-0.1-41.2-0.1
		c0,6.2,0,11.9,0,17.7C1261,376.5,1275.3,376.5,1290.2,376.5z"/>
	<path class="st1" d="M1355.7,414.3c-16.5,0-32.1,0-48.4,0c0-6.8-0.1-13.4,0.1-19.9c0-0.8,2-2.1,3-2.1c14-0.1,27.9-0.1,41.9,0.1
		c1.1,0,3.2,1.5,3.2,2.4C1355.9,401.1,1355.7,407.6,1355.7,414.3z M1309.7,394.5c0,6.2,0,11.8,0,17.6c14.8,0,29.1,0,43.6,0
		c0-6.1,0-11.8,0-17.6C1338.5,394.5,1324.3,394.5,1309.7,394.5z"/>
	<path class="st1" d="M264.7,263.6c10.2,0,19.3,0,29.3,0c0,7.2,0.1,14.2-0.1,21.3c0,0.8-2,2.1-3.1,2.1c-7.6,0.2-15.3,0.3-22.9,0
		c-1.1,0-3-1.7-3-2.7C264.6,277.6,264.7,270.8,264.7,263.6z M280.6,284.6c4,0,7.5,0,11.1,0c0-6.5,0-12.5,0-18.7c-3.9,0-7.4,0-11.1,0
		C280.6,272.3,280.6,278.2,280.6,284.6z M278,284.7c0-6.6,0-12.7,0-18.8c-3.9,0-7.3,0-10.7,0c0,6.5,0,12.6,0,18.8
		C271.1,284.7,274.5,284.7,278,284.7z"/>
	<path class="st1" d="M300.5,183.4c0-8.2,0-15.6,0-23.4c9.5,0,18.7,0,28.9,0c0,7.1,0.1,14.3-0.1,21.5c0,0.6-1.9,1.8-2.9,1.8
		C317.9,183.4,309.5,183.4,300.5,183.4z M302.3,181.2c3.2,0,6,0.2,8.7-0.1c0.9-0.1,2.5-1.4,2.5-2.2c0.2-5.6,0.1-11.2,0.1-17.3
		c-3.2,0-5.9-0.3-8.4,0.1c-1.1,0.2-2.8,1.8-2.8,2.8C302.2,169.9,302.3,175.2,302.3,181.2z M327.1,181c0-6.7,0-12.8,0-19
		c-3.8,0-7.2,0-10.6,0c0,6.5,0,12.7,0,19C320.2,181,323.4,181,327.1,181z"/>
	<path class="st1" d="M265.1,217.9c0-7.9,0-15.3,0-23.5c9,0,17.9-0.1,26.8,0.1c0.8,0,2,2,2.1,3.1c0.2,5.6,0.2,11.3,0,17
		c-0.1,1.1-1.7,3.1-2.6,3.1C282.7,218,274.1,217.9,265.1,217.9z M280.9,196.6c0,6.7,0,12.7,0,18.8c3.8,0,7.2,0,10.8,0
		c0-6.5,0-12.5,0-18.8C287.9,196.6,284.5,196.6,280.9,196.6z M267.3,196.5c0,6.6,0,12.6,0,18.8c3.8,0,7.4,0,10.7,0
		c0-6.5,0-12.6,0-18.8C274.3,196.5,271,196.5,267.3,196.5z"/>
	<path class="st1" d="M264.8,332.6c9.3,0,17.7-0.1,26,0.1c1.1,0,3.1,1.9,3.1,3c0.3,5.5,0.1,11,0.2,16.5c0.1,3-1.3,4.1-4.3,4
		c-7.1-0.1-14.3,0.2-21.4,0c-1.2,0-3.4-1.4-3.4-2.2C264.7,347.1,264.8,340.1,264.8,332.6z M280.3,334.7c0,6.1-0.2,11.3,0.1,16.4
		c0.1,1.2,1.5,3.1,2.5,3.2c2.9,0.3,5.8-0.1,9-0.3c0-5.7,0.2-10.8-0.1-16c-0.1-1.2-1.5-3-2.5-3.2
		C286.6,334.4,283.8,334.7,280.3,334.7z M278,354c0-6.5,0-12.7,0-19c-3.8,0-7.2,0-10.7,0c0,6.5,0,12.7,0,19
		C271.2,354,274.6,354,278,354z"/>
	<path class="st1" d="M300.5,252.1c0-7.8,0-15.2,0-23c9.6,0,19,0,28.6,0c0,7.8,0,15.2,0,23C319.7,252.1,310.3,252.1,300.5,252.1z
		 M313.9,250.2c0-3.5,0-7,0-10.4c0-9.8,0-9.8-9.9-8.7c-0.5,0.1-0.9,0.4-1.4,0.6c0,6.1,0,12.1,0,18.5
		C306.3,250.2,309.7,250.2,313.9,250.2z M327.2,250.2c0-6.7,0-12.7,0-18.9c-3.8,0-7.3,0-10.7,0c0,6.6,0,12.8,0,18.9
		C320.2,250.2,323.5,250.2,327.2,250.2z"/>
	<path class="st1" d="M294,321.4c-10,0-19.3,0-28.9,0c0-7.6,0-15.1,0-23.3c9,0,17.8-0.1,26.7,0.1c0.7,0,2,1.7,2.1,2.7
		C294.1,307.6,294,314.2,294,321.4z M267.2,319.2c8.6,0,16.4,0,24.4,0c0-6.5,0-12.5,0-18.7c-8.3,0-16.2,0-24.4,0
		C267.2,306.9,267.2,312.9,267.2,319.2z"/>
	<path class="st1" d="M300.5,321.6c0-8,0-15.4,0-23.2c9.6,0,19,0,28.8,0c0,7,0.1,13.8-0.1,20.6c0,0.9-2.1,2.4-3.2,2.5
		C317.6,321.7,309.3,321.6,300.5,321.6z M302.7,300.4c0,6.7,0,12.7,0,18.8c4.1,0,7.7,0,11.4,0c0-6.5,0-12.5,0-18.8
		C310.1,300.4,306.5,300.4,302.7,300.4z M327.2,300.5c-3.8,0-7.1,0-10.3,0c0,6.5,0,12.7,0,18.9c3.7,0,7,0,10.3,0
		C327.2,312.9,327.2,306.9,327.2,300.5z"/>
	<path class="st1" d="M329.2,367.6c0,7.8,0,15.2,0,23c-9.6,0-18.8,0-28.5,0c0-7.6,0-15.2,0-23C310.1,367.6,319.3,367.6,329.2,367.6z
		 M302.5,388.3c4.3,0,8,0,11.5,0c0-6.5,0-12.6,0-18.5c-4.1,0-7.8,0-11.5,0C302.5,376.2,302.5,382.1,302.5,388.3z M316.7,369.5
		c0,6.6,0,12.6,0,18.8c3.7,0,7,0,10.3,0c0-6.5,0-12.6,0-18.8C323.5,369.5,320.4,369.5,316.7,369.5z"/>
	<path class="st1" d="M329.2,263.9c0,7.8,0,15.2,0,22.9c-9.7,0-19,0-28.7,0c0-7.7,0-15.1,0-22.9C310,263.9,319.3,263.9,329.2,263.9z
		 M302.6,265.7c0,6.6,0,12.6,0,19c8.3,0,16.4,0,24.4,0c0-6.5,0-12.6,0-19C318.8,265.7,311,265.7,302.6,265.7z"/>
	<path class="st1" d="M265.1,183.3c0-8.2,0-15.8,0-23.5c9.7,0,18.9,0,28.9,0c0,7.2,0.1,14.1-0.1,21c0,0.8-1.9,2.3-2.9,2.3
		C282.6,183.4,274.1,183.3,265.1,183.3z M267.3,180.9c8.5,0,16.3,0,24.7,0c0-5.7,0.1-11-0.1-16.2c0-1-1.6-2.8-2.4-2.8
		c-7.3-0.2-14.5-0.1-22.1-0.1C267.3,168.4,267.3,174.4,267.3,180.9z"/>
	<path class="st1" d="M294.1,252.2c-9.8,0-19.1,0-29.2,0c0-7.2-0.1-14.4,0.1-21.6c0-0.6,1.9-1.7,2.9-1.7c7.6-0.1,15.3-0.2,22.9,0
		c1.1,0,3,1.7,3.1,2.7C294.2,238.4,294.1,245.1,294.1,252.2z M292,250.2c0-5.8,0.1-11.3-0.1-16.7c0-0.9-1.5-2.4-2.3-2.4
		c-7.4-0.2-14.8-0.1-22.2-0.1c0,6.9,0,12.9,0,19.3C275.5,250.2,283.2,250.2,292,250.2z"/>
	<path class="st1" d="M329,355.9c-9.4,0-18.8,0-28.4,0c0-7.9,0-15.2,0-22.9c9.5,0,18.7,0,28.4,0C329,340.6,329,348.1,329,355.9z
		 M302.2,334.9c0,6-0.1,11.6,0.1,17.2c0,0.8,1.6,2.2,2.4,2.3c7.4,0.2,14.9,0.1,22.4,0.1c0-7.1,0-13.3,0-19.5
		C318.7,334.9,310.8,334.9,302.2,334.9z"/>
	<path class="st1" d="M329.1,217.6c-9.5,0-18.7,0-28.4,0c0-7.5,0-15,0-22.9c9.3,0,18.7,0,28.4,0
		C329.1,202.3,329.1,209.8,329.1,217.6z M327.3,196.8c-8.6,0-16.6,0-24.6,0c0,6.5,0,12.5,0,18.6c8.4,0,16.4,0,24.6,0
		C327.3,209,327.3,203.1,327.3,196.8z"/>
	<path class="st1" d="M294.1,367.7c0,7,0.1,13.6-0.1,20.2c0,1-1.9,2.8-2.9,2.8c-8.5,0.2-16.9,0.1-25.8,0.1c0-8,0-15.4,0-23.2
		C274.7,367.7,284,367.7,294.1,367.7z M267.2,369.5c0,6.6,0,12.8,0,19.1c8.4,0,16.3,0,24.4,0c0-6.6,0-12.7,0-19.1
		C283.3,369.5,275.5,369.5,267.2,369.5z"/>
	<path class="st1" d="M474.2,330.3c-8.6,0-16.7,0-25.5,0c0-10.2-0.1-20.1,0.1-30c0-0.9,1.5-2.4,2.3-2.4c7.6-0.2,15.2-0.1,23.1-0.1
		C474.2,308.9,474.2,319.5,474.2,330.3z M472.2,299.9c-2.8,0-4.9-0.2-7,0.1c-1,0.2-2.6,1.4-2.6,2.1c-0.2,8.7-0.1,17.5-0.1,26.2
		c3.7,0,6.6,0,9.7,0C472.2,318.8,472.2,309.7,472.2,299.9z M460.2,299.8c-2.2,0-4.2-0.3-6.1,0.1c-1.1,0.2-3,1.4-3,2.2
		c-0.2,8.7-0.1,17.4-0.1,26.2c3.5,0,6.2,0,9.2,0C460.2,318.9,460.2,309.7,460.2,299.8z"/>
	<path class="st1" d="M487.5,376.8c8.4,0,16.5,0,25,0c0,10.8,0,21.3,0,32.3c-8.3,0-16.4,0-25,0C487.5,398.4,487.5,387.9,487.5,376.8
		z M489.5,407.2c1.6,0.1,2.6,0.1,3.6,0.3c4.8,0.8,6.5-1.1,6.1-5.9c-0.4-4.9-0.1-10-0.1-14.9c0-8.3,0-8.3-8.5-7.8
		c-0.3,0-0.6,0.3-1.2,0.6C489.5,388.4,489.5,397.6,489.5,407.2z M510.4,407.1c0-9.9,0-19.1,0-28.2c-3.2,0-6,0-9,0
		c0,9.6,0,18.8,0,28.2C504.6,407.1,507.3,407.1,510.4,407.1z"/>
	<path class="st1" d="M512.6,258.8c0,10.7,0,21.2,0,32.5c-8,0-15.7,0.1-23.4-0.1c-0.7,0-1.9-1.8-2-2.7c-0.1-9.8-0.1-19.5-0.1-29.7
		C495.8,258.8,504,258.8,512.6,258.8z M489.4,274.2c6.6,0,12.5,0.1,18.5-0.1c1,0,2.7-1.5,2.8-2.4c0.3-3.6,0.1-7.2,0.1-10.8
		c-7.5,0-14.4,0-21.4,0C489.4,265.4,489.4,269.5,489.4,274.2z M489.4,289.3c4.1,0,7.7,0,11.4,0c11.3,0,11.3,0,9.9-11.4
		c0-0.3-0.2-0.6-0.5-1.2c-6.7,0-13.6,0-20.7,0C489.4,280.8,489.4,284.6,489.4,289.3z"/>
	<path class="st1" d="M487.5,337.5c8.5,0,16.6,0,25.1,0c0,10.6,0,21,0,32c-8.1,0-16.5,0-25.1,0C487.5,358.9,487.5,348.5,487.5,337.5
		z M510.6,339.7c-7.2,0-14.1,0-21,0c0,4.4,0,8.5,0,12.7c7.1,0,13.9,0,21,0C510.6,348,510.6,344,510.6,339.7z M489.5,367.6
		c7.2,0,14,0,21,0c0-4.4,0-8.4,0-12.5c-7.3,0-14.1,0-21,0C489.5,359.5,489.5,363.4,489.5,367.6z"/>
	<path class="st1" d="M474.5,258.7c0,10.2,0.1,19.9-0.1,29.7c0,1-1.8,2.8-2.9,2.8c-6.6,0.3-13.3,0.2-19.9,0c-1,0-2.7-1.3-2.7-2
		c-0.2-10.1-0.1-20.2-0.1-30.5C457.5,258.7,465.6,258.7,474.5,258.7z M472,289.3c0-10.1,0-19.3,0-28.4c-7.2,0-13.9,0-21.1,0
		c0,8.7-0.1,17,0.1,25.3c0,1.1,1.8,2.9,2.8,3C459.7,289.4,465.7,289.3,472,289.3z"/>
	<path class="st1" d="M449.2,376.8c8.4,0,16.5,0,24.9,0c0,10.8,0,21.4,0,32.3c-8.2,0-16.3,0-24.9,0
		C449.2,398.5,449.2,387.8,449.2,376.8z M450.9,378.8c0,8.9-0.1,17.3,0.1,25.8c0,0.9,1.6,2.6,2.6,2.6c6.1,0.2,12.2,0.1,18.5,0.1
		c0-9.8,0-19.1,0-28.5C465.1,378.8,458.5,378.8,450.9,378.8z"/>
	<path class="st1" d="M448.8,337.5c8.7,0,16.7,0,25.3,0c0,10.6,0,21.2,0,32.4c-7.7,0-15.4,0.1-23.2-0.1c-0.7,0-2-1.4-2-2.2
		C448.7,357.7,448.8,347.7,448.8,337.5z M472.2,339.6c-7.2,0-13.9,0-20.9,0c0,9.5,0,18.7,0,28c7.2,0,13.9,0,20.9,0
		C472.2,358.2,472.2,349.1,472.2,339.6z"/>
	<path class="st1" d="M513,330.3c-8.7,0-16.8,0-25.8,0c0-5.6,0-11.1,0-16.7c0-4.2,0.1-8.3,0-12.5c-0.1-2.6,1-3.5,3.5-3.5
		c6.3,0.1,12.6-0.1,18.9,0.1c1.2,0,3.2,1.6,3.2,2.5C513.1,310.3,513,320.2,513,330.3z M510.5,328.4c0-9.7,0-18.9,0-28.2
		c-7.3,0-14.1,0-20.8,0c0,9.7,0,18.9,0,28.2C496.8,328.4,503.4,328.4,510.5,328.4z"/>
	<path class="st1" d="M788.2,435.8c-22.1,0-43.7,0-65.7,0c0-12.4,0-24.6,0-37.2c21.8,0,43.5,0,65.7,0
		C788.2,410.9,788.2,423.1,788.2,435.8z M769.1,400.7c-15.3,0-29.9,0-44.6,0c0,11.2,0,21.9,0,32.8c15,0,29.7,0,44.6,0
		C769.1,422.4,769.1,411.7,769.1,400.7z M771.6,400.6c0,5.2,0,10,0,15.1c4.9,0,9.6,0,14.6,0c0-5.1,0-9.9,0-15.1
		C781.4,400.6,776.8,400.6,771.6,400.6z M786.3,418.6c-5,0-9.6,0-14.5,0c0,5.2,0,10,0,14.9c5.1,0,9.8,0,14.5,0
		C786.3,428.3,786.3,423.6,786.3,418.6z"/>
	<path class="st1" d="M1603.1,377.6c-15.1,0-30.2,0-45.3,0c0-0.4,0-0.7,0-1.1c15.1,0,30.1,0,45.2,0
		C1603,376.9,1603.1,377.3,1603.1,377.6z"/>
	<path class="st1" d="M1655,377.5c-15.2,0-30.3,0-45.5,0c0-0.4,0-0.7,0-1.1c15.2,0,30.3,0,45.5,0C1655,376.8,1655,377.2,1655,377.5z
		"/>
	<path class="st1" d="M1655.1,401.7c-15.2,0-30.4,0-45.6,0c0-0.4,0-0.7,0-1.1c15.2,0,30.3,0,45.5,0
		C1655,401,1655.1,401.3,1655.1,401.7z"/>
	<path class="st1" d="M1587.4,437.5c12,0,24,0,36,0c0,0.3,0,0.6,0,1c-12,0-24,0-36,0C1587.4,438.2,1587.4,437.8,1587.4,437.5z"/>
	<path class="st1" d="M1558,400.5c15.1,0,30.1,0,45.2,0c0,0.4,0,0.7,0,1.1c-15.1,0-30.2,0-45.3,0
		C1557.9,401.2,1557.9,400.8,1558,400.5z"/>
	<path class="st1" d="M1609.7,424.5c15.1,0,30.1,0,45.2,0c0,0.4,0,0.7,0,1.1c-15.1,0-30.1,0-45.2,0
		C1609.7,425.2,1609.7,424.9,1609.7,424.5z"/>
	<path class="st1" d="M1603.1,425.7c-15.1,0-30.1,0-45.2,0c0-0.3,0-0.7,0-1c15.1,0,30.1,0,45.2,0
		C1603.1,425,1603.1,425.3,1603.1,425.7z"/>
	<path class="st1" d="M1587.4,413.4c11.9,0,23.9,0,35.8,0c0,0.4,0,0.7,0,1.1c-11.9,0-23.9,0-35.8,0
		C1587.4,414.1,1587.4,413.8,1587.4,413.4z"/>
	<path class="st1" d="M1587.7,389.3c11.8,0,23.5,0,35.3,0c0,0.4,0,0.7,0,1.1c-11.8,0-23.6,0-35.4,0
		C1587.6,390,1587.6,389.6,1587.7,389.3z"/>
	<path class="st1" d="M1557.7,437.4c6.2,0,12.4,0,18.5,0c0,0.3,0,0.6,0,0.9c-6.2,0-12.4,0-18.5,0
		C1557.7,438.1,1557.7,437.7,1557.7,437.4z"/>
	<path class="st1" d="M1654.9,414.5c-8,0-16.1,0-24.1,0c0-0.4,0-0.7,0-1.1c8,0,16,0,24.1,0C1654.8,413.8,1654.9,414.1,1654.9,414.5z
		"/>
	<path class="st1" d="M1630.8,389.3c8,0,16.1,0,24.1,0c0,0.3,0,0.6,0,0.9c-8,0-16.1,0-24.1,0
		C1630.8,389.9,1630.8,389.6,1630.8,389.3z"/>
	<path class="st1" d="M1654.4,438.7c-7.9,0-15.8,0-23.6,0c0-0.4,0-0.7,0-1.1c7.9,0,15.8,0,23.8,0
		C1654.5,438,1654.4,438.3,1654.4,438.7z"/>
	<path class="st1" d="M1576.3,390.4c-6.1,0-12.2,0-18.3,0c0-0.3,0-0.7,0-1c6.1,0,12.2,0,18.2,0
		C1576.2,389.7,1576.3,390.1,1576.3,390.4z"/>
	<path class="st1" d="M1558.1,413.2c6,0,11.9,0,17.9,0c0,0.3,0,0.7,0,1c-6,0-12,0-18,0C1558,413.9,1558,413.6,1558.1,413.2z"/>
	<path class="st1" d="M1736.3,423.6c0-9.7,0-18.7,0-28.8c6.1,0,12.3-0.1,18.4,0.1c0.5,0,1.4,2.1,1.4,3.2c0.1,7.3,0.2,14.6-0.1,22
		c0,1.2-1.7,3.3-2.8,3.3C1747.8,423.8,1742.3,423.6,1736.3,423.6z M1744.1,421.3c0-7.5,0.1-14.8-0.1-22.1c0-0.8-1.9-2.2-2.9-2.2
		c-1,0-2.7,1.5-2.8,2.3c-0.2,7.3-0.1,14.5-0.1,22C1740.3,421.3,1741.9,421.3,1744.1,421.3z M1746.6,406.8c0,5.1,0,9.8,0,14.6
		c2.5,0,4.6,0,7.5,0c0-3,0-5.7,0-8.5C1754,405.7,1754,405.7,1746.6,406.8z M1746.4,404.3c2.6-0.4,5.2-0.2,7-1.3
		c0.8-0.5,0.7-4.8-0.2-5.2c-1.8-1-4.4-0.7-6.9-0.9C1746.4,399.6,1746.4,401.6,1746.4,404.3z"/>
	<path class="st1" d="M605.1,108.7c4.1,0,7.7,0,11.8,0c0,17.6,0,35,0,52.9c-3.7,0-7.6,0-11.8,0C605.1,144,605.1,126.6,605.1,108.7z
		 M615.2,159.6c0-2.1,0-3.9,0-5.6c0-12.3,0-24.6,0-36.9c0-6.9,0-6.9-7.8-5.9c0,16.1,0,32.3,0,48.5
		C610,159.6,612.3,159.6,615.2,159.6z"/>
	<path class="st1" d="M636.9,161.8c-3.8,0-7.5,0-11.7,0c0-17.8,0-35.3,0-53.1c4,0,7.6,0,11.7,0C636.9,126.3,636.9,143.9,636.9,161.8
		z M627.3,110.8c0,16.5,0,32.6,0,48.7c2.7,0,5.1,0,7.5,0c0-16.5,0-32.5,0-48.7C632.3,110.8,630.1,110.8,627.3,110.8z"/>
	<path class="st1" d="M656.9,161.7c-3.8,0-7.5,0-11.6,0c0-17.6,0-35,0-52.8c3.7,0,7.5,0,11.6,0C656.9,126.4,656.9,143.9,656.9,161.7
		z M647.4,110.8c0,16.5,0,32.5,0,48.7c2.7,0,5.1,0,7.5,0c0-16.4,0-32.5,0-48.7C652.3,110.8,650.2,110.8,647.4,110.8z"/>
	<path class="st1" d="M1433.7,129.9c0,10.1-8,18-18,17.9c-9.9-0.1-17.6-7.8-17.8-17.8c-0.1-9.9,8-18,18-18
		C1425.8,112.2,1433.7,120.1,1433.7,129.9z M1400.5,131.5c0.9,8.4,6.2,13.6,13.8,13.6c0-4.5,0-9.1,0-13.6
		C1409.4,131.5,1405,131.5,1400.5,131.5z M1417.3,145.3c8.2-0.7,13.5-6.1,13.6-13.7c-4.5,0-9.1,0-13.6,0
		C1417.3,136.4,1417.3,140.8,1417.3,145.3z M1431.3,128.6c-1.2-8.6-6-13.2-13.9-13.9c0,4.6,0,9.1,0,13.9
		C1422.1,128.6,1426.5,128.6,1431.3,128.6z M1414.5,114.7c-8.4,1-13,5.7-13.9,13.9c4.6,0,9.1,0,13.9,0
		C1414.5,123.9,1414.5,119.4,1414.5,114.7z"/>
	<path class="st1" d="M361.4,243.7c3.5,0,6.8,0,10.6,0c0,5,0,10,0,15c-0.3,0.2-0.6,0.5-0.8,0.5C359.8,260.2,358.7,258.4,361.4,243.7
		z M362.9,245.8c0,3.3-0.4,6.1,0.2,8.8c0.3,1.2,2.6,2.5,4,2.6c1.1,0.1,3-1.7,3.2-2.8c0.5-2.7,0.2-5.5,0.2-8.5
		C367.7,245.8,365.6,245.8,362.9,245.8z"/>
	<path class="st1" d="M409.1,243.8c0,4.5,0.2,8.6-0.1,12.7c-0.1,1-1.7,2.6-2.9,2.8c-2.6,0.4-5.3,0.1-8.3,0.1c0-5.3,0-10.3,0-15.6
		C401.3,243.8,404.7,243.8,409.1,243.8z M399.4,245.8c0,2.9,0.1,5.2,0,7.5c-0.2,2.9,0.8,4.1,3.9,4.2c3.2,0,4-1.4,3.8-4.2
		c-0.1-2.4,0-4.8,0-7.4C404.2,245.8,402.1,245.8,399.4,245.8z"/>
	<path class="st1" d="M415.9,266.2c11.4-1.5,11.4-1.5,11.4,9.3c0,1.8,0,3.6,0,5.7c-4,0-7.5,0-11.4,0
		C415.9,276.2,415.9,271.4,415.9,266.2z M417.6,279.5c3-0.1,5.2-0.2,7.7-0.3c0-2.9-0.1-5.2,0-7.5c0.2-3-0.9-4-3.9-4.1
		c-3.2,0-4,1.4-3.8,4.2C417.7,274.1,417.6,276.4,417.6,279.5z"/>
	<path class="st1" d="M397.7,266.1c11.4-1.2,11.4-1.2,11.4,9.5c0,1.8,0,3.6,0,5.7c-4.1,0-7.6,0-11.4,0
		C397.7,276.1,397.7,271.2,397.7,266.1z M406.4,279.3c1.9-11.3,1-12.7-6.6-10.8c0,3.5,0,7.1,0,10.8
		C402.2,279.3,404.2,279.3,406.4,279.3z"/>
	<path class="st1" d="M427,243.8c0,5.2,0,10.1,0,15.3c-3.7,0-7.1,0-11,0c0-5,0-10,0-15.3C419.6,243.8,423,243.8,427,243.8z
		 M417.6,245.8c0,2.5,0.1,5,0,7.4c-0.1,2.7,0.5,4.3,3.8,4.2c3-0.1,4.1-1.2,3.9-4.1c-0.2-2.4,0-4.8,0-7.5
		C422.5,245.8,420.4,245.8,417.6,245.8z"/>
	<path class="st1" d="M379.6,243.7c3.6,0,6.9,0,11,0c0,4.6,0.2,9-0.1,13.4c-0.1,0.8-1.8,2.1-2.9,2.2c-2.4,0.3-4.9,0.1-7.9,0.1
		C379.6,254.2,379.6,249.2,379.6,243.7z M388.3,246c-2.2,0-4.4,0-6.8,0c0,3.7,0,7.2,0,11c2.4,0,4.4,0,6.8,0
		C388.3,253.3,388.3,249.9,388.3,246z"/>
	<path class="st1" d="M379.6,265.1c4,0.6,9.7,0.3,10.2,1.7c1.3,4,1.5,9.1,0,13.1c-0.6,1.6-6.3,1.3-10.3,2
		C379.6,276.1,379.6,271.2,379.6,265.1z M381.4,279.3c2.5,0,4.5,0,6.5,0c2.1-10.9,1.2-12.4-6.5-10.8
		C381.4,271.8,381.4,275.3,381.4,279.3z"/>
	<path class="st1" d="M360.8,281.4c0-4.8-0.1-9.1,0.1-13.3c0-0.8,1.5-2.2,2.4-2.3c2.8-0.3,5.6-0.1,9.1-0.1c0,4.7,0.2,8.9-0.1,13.1
		c-0.1,0.9-1.7,2.4-2.7,2.5C366.9,281.7,364.3,281.4,360.8,281.4z M370.1,267.3c-2.9,0.6-6.6,0.7-6.8,1.6c-0.8,3.1-0.8,6.6,0,9.6
		c0.3,1,4.1,1,6.8,1.5C370.1,275.5,370.1,272,370.1,267.3z"/>
	<path class="st1" d="M1653.9,246.3c2.1-3.2,4.2-6.3,6.2-9.5c0.4,0.3,0.9,0.7,1.3,1c-2,3.3-2.6,7.6-7.7,8.5
		C1653.8,246.2,1653.9,246.3,1653.9,246.3z"/>
	<path class="st1" d="M666.1,88.5c-0.4,0.4-0.5,0.6-0.7,0.6c-10.2,1.6-10.4,1.4-10.4-8.7c0-8.3,0-16.6,0-25.1c4,0,7.4,0,11.1,0
		C666.1,66.7,666.1,77.7,666.1,88.5z M657.4,87.4c2.8-0.8,6.7,2,6.9-2.8c0.4-8.9,0.1-17.9,0.1-27.1c-2.6,0-4.7,0-7,0
		C657.4,67.4,657.4,77,657.4,87.4z"/>
	<path class="st1" d="M650.1,89.1c-3.6,0-6.8,0-10.6,0c0-11,0-22.1,0-33.6c3.3,0,6.9,0,10.6,0C650.1,66.7,650.1,77.7,650.1,89.1z
		 M641.4,86.9c2.5,0,4.6,0,6.7,0c0-10,0-19.6,0-29.4c-2.3,0-4.4,0-6.7,0C641.4,67.4,641.4,77,641.4,86.9z"/>
	<path class="st1" d="M1618.1,348c0,3.5,0,6.8,0,10.3c-3.5,0-6.8,0-10.4,0c0-3.4,0-6.6,0-10.3C1610.9,348,1614.3,348,1618.1,348z
		 M1609.7,349.8c0,2.3,0,4.3,0,6.5c2.3,0,4.2,0,6.3,0c0-2.3,0-4.3,0-6.5C1613.7,349.8,1611.8,349.8,1609.7,349.8z"/>
	<path class="st1" d="M1593.6,347.7c3.6,0,6.9,0,10.5,0c0,3.5,0,6.7,0,10.4c-3.4,0-6.8,0-10.5,0
		C1593.6,354.7,1593.6,351.5,1593.6,347.7z M1595.6,349.8c0,2.5,0,4.4,0,6.4c2.4,0,4.4,0,6.4,0c0-2.3,0-4.3,0-6.4
		C1599.8,349.8,1597.9,349.8,1595.6,349.8z"/>
	<path class="st1" d="M1776.5,134.7c5-2.8,8.9-1.1,11.9,4.7c4.3-0.3,8.2-1,12-0.7c1.6,0.1,3,2.4,4.1,4.6c-6.3-5.7-11.4-4.1-16.4,2.2
		c-1.4-3.1-2-6.3-3.9-7.9C1782.4,135.7,1779.1,135.5,1776.5,134.7z"/>
</g>
</svg>
