<?xml version="1.0" encoding="utf-8"?>
<!-- Generator: Adobe Illustrator 27.3.1, SVG Export Plug-In . SVG Version: 6.00 Build 0)  -->
<svg version="1.1" id="Capa_1" xmlns="http://www.w3.org/2000/svg" xmlns:xlink="http://www.w3.org/1999/xlink" x="0px" y="0px"
	 viewBox="0 0 2011.2 619.7" style="enable-background:new 0 0 2011.2 619.7;" xml:space="preserve">
<style type="text/css">
	.st0{fill:#FFFFFF;}
</style>
<g>
	<path class="st0" d="M856.8,459.4c-3.8-0.3-1.6-2.4-1-3.7c3.5-7.2,8.7-10.5,20-13c0-3.2,0-6.4,0-9.7c0-4.1-0.5-8.3,2.8-11.7
		c0.9-1,0.8-3.1,0.8-4.8c0-83.2,0-166.3,0-249.5c0-2.4-0.1-4.2-3-5.4c-5.7-2.3-8.1-7.5-6.8-12.9c1.3-5.3,5.4-8.6,10.8-8.7
		c5.5,0,9.9,3.6,11.1,9c1.1,5.2-1.5,10-6.7,12.6c-0.9,0.4-1.8,0.8-2.9,1.2c0,3.1,0,6.3,0,10c8,0,16,1.4,23.4-0.3
		c13.9-3.1,27.9-1.6,41.8-2c9.9-0.3,15.1,3.1,20.8,13.2c-17.9-1.4-36.1,4-51.9-8.3c-1.6-1.3-4.7-1.6-6.8-1
		c-15.1,3.9-26.5,18.2-27.5,33.8c-0.1,1.8-0.1,3.7-0.1,5.5c0,67-0.1,134,0.1,201c0,3.1,1.6,6.2,2.4,9.3c0.4,1.6,0.9,3.2,1,4.8
		c0.1,4.8-0.1,9.7,0.1,14.5c0.6,18.6,1.3,37.1,1.9,56.2c3,0,6.2,0,9.9,0c-2.9-6-4-11.9,2.3-16.3c4-2.8,8.3-2.6,12.1,0.4
		c5.6,4.5,4.7,10.1,1.4,16c3.4,0,6.3,0,9.9,0c0-8.5,0-16.8,0-25.1c0-2.5-0.1-5,0-7.5c0.2-4-0.2-7.2-4.1-10.2c-2.8-2-4.5-6.3-5.4-9.8
		c-7.9-32.5-4.6-64.1,9-94.7c0.3-0.6,0.8-1,1.9-2.3c1.7,3.9,3.4,7.3,4.7,10.8c9.9,26.2,11.9,53.2,6.8,80.6
		c-1.3,6.8-2.8,13.9-9.7,17.8c-0.6,0.4-1.1,1.6-1.1,2.5c-0.1,12.5,0,24.9,0,37.8c2,0.1,3.7,0.3,5.3,0.3c25.3,0,50.7,0,76,0
		c6.5,0,7.5-1.4,5.1-7.3c-3-7.5-1-15.3,5-21c1.2-1.1,2.4-3.2,2.2-4.7c-1.6-12.9,5.5-21.7,18.5-22.5c0.7,0,1.3-0.2,2.1-0.2
		c2.8-12.7-1.1-23.5-9.3-33.4c-4.6,3.1-9.4,5-14.9,2.7c-6.4-2.6-10-9.8-8.1-16.4c2-7.1,8.7-11.2,15.8-9.7
		c7.1,1.5,12.9,8.4,10.6,14.9c-2.2,6.2,0.5,10,3.3,14.4c0.7,1.1,1.4,2.2,3,3.1c0-11.7,1.5-23.6-0.4-35c-2-11.7-10.1-20.7-19.6-28.6
		c-1.3,1.4-2.3,2.6-3.5,3.7c-4.6,4.4-11.9,5-17,1.5c-5.3-3.6-7.4-10.4-5.1-16.3c2.4-6,8.3-9.4,14.8-8.5c6.3,0.9,11.5,6.1,11.4,12.6
		c-0.1,3.8,1.6,5.8,3.9,8.3c5.4,5.8,10.2,12.1,15.7,18.8c0-8.8,0.1-17.5-0.2-26.2c0-0.9-2.5-2.1-4-2.5
		c-12.1-2.7-20.7-12.9-21.1-25.3c-0.4-12.1,8-22.9,20-26c13.9-3.6,28.3,5,31.7,18.8c3.6,14.6-4.9,29.2-19.4,32.1
		c-4,0.8-5.1,2.2-5,6.1c0.2,12.3,0.1,24.7,0.1,37c0,1.1,0.1,2.1,0.2,3.4c4.4-5.8,8.8-11.2,12.7-16.8c0.7-1-0.1-3.4-0.6-5
		c-3.1-10.8,2.7-22,13.2-25.1c10.7-3.2,21.6,2.7,24.9,13.4c2.5,8.1-0.8,17.3-7.8,22c-7.2,4.8-16.7,4.5-23.4-0.7
		c-1.3-1-2.5-2.1-4.3-3.6c-7.3,9.3-15.4,17.7-15,30.6c0.3,9.5,0,19,0.1,28.5c0,1.6,0.2,3.2,0.3,5.6c5.1-4.8,10.4-7,16.7-6.8
		c1,0,2.2-1.2,3-2.2c8.6-10.4,21-14.5,33-10.8c12.4,3.8,20,13.9,21.5,27.8c0.2,2.1,2,4,3.1,6c0.7-0.2,1.4-0.4,2.2-0.7
		c0-7.3-0.1-14.6,0-21.8c1-48.7,2-97.3,3.2-145.9c0.1-4-1.3-4.9-4.8-6.3c-6.2-2.4-11.9-6.2-17.8-9.6c-1.1-0.6-1.7-2.1-2.1-3.8
		c7.1,6.2,14.6,11.3,24.6,12.2c0.5-11,1-21.7,1.4-32.4c-10.6-4.3-20.8-8.5-31.4-12.9c-3.2,7.7-1.3,15.3,0.2,22.8
		c-0.5,0.1-0.9,0.2-1.4,0.3c-0.6-1.7-1.6-3.4-1.8-5.1c-0.3-5.1-0.9-10.3-0.2-15.4c0.5-3.4-0.5-4.6-3.3-5.9
		c-7.6-3.7-15.2-7.6-22.7-11.6c-2.1-1.1-4-2.7-5.6-5c12.5,0.8,23.1,7.5,34.6,11.5c2.3-2.8,4.5-5.5,6.8-8.3c0.4,0.3,0.9,0.7,1.3,1
		c-1.8,2.6-3.5,5.2-5.6,8.4c3.2,1.7,6.1,3.1,9,4.6c1.8-2,3.5-3.8,5.2-5.6c0.4,0.3,0.7,0.5,1.1,0.8c-1.1,1.8-2.2,3.7-3.6,5.8
		c5.7,3.1,11.2,6,17.2,9.2c0.7-3.5,1.3-6.6,1.9-9.8c0.4-0.1,0.9-0.2,1.3-0.2c0.7,1.8,1.5,3.6,2.3,5.7c5.7-7.7,11.4-15.3,17.3-23.2
		c-13.1-8.2-26.1-8-40-0.5c5.3-9.5,25-9.8,41.7-1.5c3.9-4.6,7.7-9.4,11.7-14c3.9-4.4,7.4-9.5,13.5-11.7c-4.9,11.4-12.5,21-20,30.5
		c-7.7,9.6-15.7,19-23.9,28.9c3.9,4.6,8.1,9.5,12.3,14.3c1.4-0.8,2.6-1.4,5.1-2.8c-1.5,2.6-2.2,3.9-3,5.4
		c10.1,13.7,21.2,26.9,29,42.2c-0.5,0.5-1,1-1.5,1.5c-1.9-1.7-4.2-3.2-5.8-5.1c-10.8-13.8-21.4-27.6-32.1-41.4
		c-1-1.2-1.9-2.5-3.8-3.4c0.2,3.1,0.3,6.1,0.5,9.4c1.5,0.2,2.9,0.4,5.3,0.8c-7.6,2.8-4.4,8-4.7,12.5c2.6-0.3,4.9-0.6,7.2-0.8
		c0.1,0.4,0.2,0.8,0.4,1.1c-2.3,0.8-4.6,1.6-7.3,2.6c1.3,71.8,2.7,143.8,4,216.3c7.5,0,14.7,0,21.9,0c3-15.4,0.8-31.6-5.3-39.3
		c-1.3,0.4-2.7,1-4.1,1.3c-4.2,0.9-7.7-0.5-9.8-4.2c-2.1-3.7-1.6-7.5,1.4-10.6c2.9-3,6.5-3.4,10.1-1.7c3.9,1.8,5.9,5.3,4.8,9.4
		c-0.9,3.6,0.1,5.9,3.3,8.9c0-7.4,0.2-13.8-0.2-20.2c-0.1-1.3-2.8-2.7-4.5-3.4c-7.8-3.1-12.2-10.7-10.7-18.8
		c1.5-8,8.4-13.7,16.7-13.7c8,0.1,14.7,5.7,16.2,13.6c1.5,8.1-2.9,15.9-10.6,18.7c-1.4,0.5-2.8,0.9-4.5,1.4c0,12.6,0,25.1,0,37.7
		c3.1-4.3,8.9-6.8,6.5-14c-1.7-5,2.9-11,8.1-12.9c5.1-1.9,11-0.1,14.4,4.2c3.6,4.6,3.7,10.7,0.3,15.3c-3.4,4.6-9.4,6.3-14.7,4.1
		c-2-0.8-3.7-2-5.8-3.2c-7.9,7.3-10.5,16.2-8.6,27.1c10.9,0,22,0,33.7,0c0-5.9,0-11.6,0-17.2c-0.1-17.2,0-34.3-0.3-51.5
		c0-1.9-1.8-3.7-2.8-5.6c-2.4-4.5-6-8.6-7.1-13.4c-7.2-31.9-3.9-62.9,9.6-92.7c0.2-0.4,0.6-0.7,1.4-1.6c0.8,1.2,1.6,2.1,2.1,3.1
		c12.8,28.6,15.4,58.4,9.6,89c-1.2,6.4-2.9,13.2-9.7,16.7c-0.6,0.3-0.9,1.7-0.9,2.6c0,23.3,0,46.6,0,70.4c5.7,0,11.1,0,17.1,0
		c0-91.3,0-182.7,0-274.3c1.8-0.2,3.1-0.4,4.4-0.4c13.7,0,27.3,0,41,0c5.7,0,12.4,6.6,12.4,12.3c0,4.5,0,9,0,14.8
		c5.3-5.1,9.8-9.4,15.4-14.7c8.1,8.9,16,17.7,24,26.5c0.6-0.4,1.1-0.8,1.7-1.2c0.1-1.6,0.3-3.1,0.3-4.7c0-12.2-0.1-24.3,0.1-36.5
		c0-2.2,1.1-4.9,2.6-6.5c21.9-21.7,43.6-43.6,66-64.7c5.2-4.9,12.8-7.4,19.5-10.7c0.8-0.4,2.8,0.7,3.7,1.5
		c22.6,22.2,45.1,44.4,67.5,66.8c1.5,1.5,2.2,4.4,2.2,6.6c0.1,68.2,0.1,136.3,0.1,204.5c0,25,0,50,0,75c0,1.8,0,3.6,0,6.1
		c6.7,0,13.1,0.7,19.2-0.3c3.5-0.5,7.2-3.3,7.3-8.1c0-1.8-0.1-3.7,0.1-5.5c0.2-3.1-0.6-5.1-3.8-6.6c-5.1-2.3-8.1-6.7-9.2-12.3
		c-0.6-3.1,0.4-4.4,3.6-4.2c2.3,0.1,4.6,0,7.5,0c-2.7-5.7-7.8-6.3-13.2-7.5c5.1-1.9,9.9-0.3,13.8,4c4.5,4.9,5.5,4.9,10.1,0.2
		c3.6-3.6,7.6-6.1,13.7-5.3c-4.8,2.5-9,4.6-13.1,6.7c0.2,0.5,0.4,1.1,0.6,1.6c3.7,0.2,7.5,0.4,11.2,0.6c1.2,6.7-2.1,12.7-8.8,16.4
		c-4.2,2.3-5.2,12.7-1.9,16.2c3.1,3.4,6.6,4.4,11,4c4.1-0.3,8.3-0.1,13.2-0.1c0-2.2,0-4,0-5.8c0-24.2-0.1-48.3,0.1-72.5
		c0-2.3,1.2-5.2,2.8-6.9c6.6-7.3,13.7-14.1,20.4-21.3c1.5-1.6,2.5-4.3,2.6-6.5c0.3-6.6-0.2-13.3,0.2-20c0.5-9.8-4.7-16.9-8.8-22.9
		c-5.8,0.6-10.5,2.1-14.9,1.4c-7-1.1-11.1-8.8-9.6-15.7c1.5-7,8.3-11.8,15.2-10.8c7.1,1.1,13.6,7.9,11.5,14.3
		c-2.8,8.3,2.3,12.9,5.5,18.9c5.2-15.9-3.5-38-19.4-48.9c-0.8,0.9-1.7,1.8-2.6,2.7c-4.8,5-11.7,5.9-17.3,2.3
		c-5.6-3.5-7.9-10.4-5.5-16.6c2.3-6.1,8.7-9.6,15.3-8.4c6.5,1.2,11.3,6.7,11,13.5c-0.2,3.1,1.2,4.6,3.1,6.7c4.6,5,8.7,10.4,13,15.7
		c1,1.2,1.7,2.6,3.5,3.6c0-8.6,0.1-17.2-0.2-25.7c0-1-2.6-2.4-4.1-2.8c-10.6-2.8-17.8-9.3-20.2-20c-2.4-10.4,0.7-19.5,9.1-26.4
		c8.3-6.8,20.1-7.7,29.5-2.3c9.5,5.4,14.5,16,12.8,27.2c-1.5,10.1-9.6,19-20.1,21.1c-4,0.8-5,2.2-4.9,6.1c0.3,13.3,0.1,26.6,0.1,41
		c1.2-1.4,1.9-2.2,2.4-3c3.2-4.4,6.6-8.8,9.6-13.3c0.8-1.3,1.4-3.3,1-4.7c-3.4-11,0.3-20.8,9.8-25.5c8.9-4.3,19.8-1.4,25.2,6.8
		c5.4,8.2,4,19.4-3.3,25.9c-7.9,7-18.8,6.6-27.6-1.1c-0.5-0.4-1-0.9-1.9-1.6c-7.8,9.4-15.9,18.4-15.2,31.9
		c0.5,10.1,0.1,20.3,0.1,31.6c1.9-1.6,3.1-2.6,4.1-3.6c7.2-7.4,14.5-14.7,21.6-22.3c2.5-2.7,5.1-3.6,8.7-3.6c11,0.2,22,0.1,33,0.1
		c1.6,0,3.3-0.1,5.5-0.2c0-10.1,0-19.9-0.1-29.6c0-0.8-0.6-2-1.3-2.4c-5.8-3.3-7.7-9.1-8.9-15c-6.5-31.1-3.7-61.3,9.2-90.4
		c0.4-1,1.2-1.9,2.1-3.5c1,1.7,1.9,2.8,2.5,4.1c12.2,28.2,15.1,57.5,9.4,87.6c-1.3,6.7-2.9,13.5-9.6,17.3c-0.6,0.4-1.1,1.7-1.1,2.5
		c-0.1,9.6,0,19.3,0,29.3c2.4,0,4.5,0,6.8,0c-0.5-9.5,3.7-15.5,13.1-17.5c-0.2-5.6,0.9-11.8,6.7-12.5c6.8-0.8,12.2-4.7,18.4-6.1
		c5-1.1,10.2-0.9,14.9-4c1.9-1.2,6.4-0.6,8.3,0.9c3.3,2.7,6.7,4.2,10.8,5.3c5.9,1.6,9,6.2,9.5,12.2c0.5,5.8-2,10.3-7,13.4
		c-1.1,0.7-2.3,1.2-3.4,1.7c0.4,10.5-0.8,12.2-9.6,15.9c4.3,4.3,8.6,8.8,13,13.2c6-22.4,25-28.8,42.2-22c2.4-7.4,6.2-13.9,13-18.2
		c18.8-11.7,42.8,0.3,44.4,22.4c0.3,3.7,1.4,4.9,5,5.8c21.7,5.2,34.5,27,28.7,48.5c-5.6,20.9-27.5,33.4-48.5,27.2
		c-4.3-1.3-6.7,1.2-10.1,2.2c-6.2,1.9-7.2,5.7-7,11.5c0.4,11.6,0.1,23.3,0.1,35c0,2,0,3.9,0,5.9c5.5,0,10.4,0,15.2,0
		c0.1-0.5,0.1-0.9,0.2-1.4c-2.9-0.5-5.8-1-8.7-1.5c0-0.4,0-0.9,0.1-1.3c2.1-0.1,4.1,0,6.1-0.4c0.9-0.1,1.6-1.1,2.4-1.7
		c-0.8-0.6-1.6-1.6-2.5-1.7c-1.8-0.3-3.6-0.1-6.1-0.1c-0.1-1.9-0.2-3.6-0.4-6c2.6,0,4.7,0.1,6.8-0.1c0.8-0.1,1.4-1,2.2-1.5
		c-0.7-0.7-1.4-1.8-2.2-1.9c-1.9-0.3-3.9-0.1-6.3-0.1c0-4,0-7.6,0-11.2c3.3-0.7,6.6-1.4,10.3-2.3c0.8,0.3,2.5,1.4,4.1,1.4
		c12.3,0.1,24.7,0.1,37,0c1.5,0,3-1,4-1.4c3.3,0.7,6.4,1.4,10,2.2c0,3.2,0,6.8,0,10.8c-1.5,0.1-3.2,0-4.7,0.4
		c-1.3,0.3-2.4,1.1-3.6,1.6c1.3,0.7,2.5,1.6,3.8,2c1.4,0.4,2.9,0.3,4.6,0.4c0,1.9,0,3.4,0,5.7c-2.3,0-4.4-0.1-6.5,0.1
		c-0.7,0.1-1.3,1.1-1.9,1.7c0.6,0.6,1.2,1.5,2,1.7c1.8,0.3,3.7,0.3,5.6,0.4c0,0.4,0,0.8,0,1.3c-2.5,0.4-5,0.9-7.5,1.3
		c0,0.5,0.1,0.9,0.1,1.4c4.9,0,9.8,0,16.1,0c0-10-0.2-20.1,0.1-30.2c0.1-2.7,1.8-5.3,2.7-8c0.6-1.7,1.5-3.3,1.5-5
		c0.1-42.3,0.1-84.7,0-127c0-1.2,0.1-2.4-0.3-3.5c-6.2-18.5-14.4-35.9-28.9-49.5c-3-2.8-6.7-4.7-10.7-7.5c-1.5,6.4-5.6,5.3-9,3.8
		c-3.8-1.6-7.3-3.9-10.6-6.3c-0.9-0.6-1.3-2.8-0.9-3.9c0.2-0.7,2.3-1.5,3.4-1.3c2.8,0.5,5.5,1.3,8.1,2.3c13.2,5.4,26.4,11,39.7,16.3
		c1.6,0.6,4.1,0.2,5.6-0.6c3.5-1.9,6.5-1.6,9.8,0.3c1.5,0.9,4,1.3,5.6,0.7c16.3-5.8,32.5-11.8,48.8-17.8c0.5-0.2,0.9-0.5,1.4-0.6
		c3.1-0.7,6.9-3.2,8.8,0.6c0.6,1.2-3.2,5.1-5.6,7c-2,1.6-4.7,2.5-7.3,3.1c-3.3,0.8-7,1.5-7-3.7c-13.1,2.2-23.3,8.8-29.7,19.7
		c-6.7,11.4-12.3,23.5-18.2,35.4c-0.9,1.8-0.9,4.2-0.9,6.3c0,41.7-0.1,83.3,0.1,125c0,2.4,1.7,4.7,2.5,7.1c0.7,2,1.7,3.9,1.8,5.9
		c0.2,10.3,0.1,20.6,0.1,31.4c6.4,0,11.7,0,17.1,0c-3.2-8.6-3-9.3,4.5-15.3c0.6-0.5,1.1-1.2,1.3-2c1.6-6.4-4.3-15.2-10.9-16.5
		c-6.4-1.3-11.9-7.6-14.1-16.5c6.7-0.5,15,4.6,17.9,11.1c0.7,1.5,1,3.2,1.9,4.6c1.2,1.8,2.8,3.3,4.2,4.9c3.3-7.2,0.8-19.3-5.1-24
		c-1.1-0.8-2.7-1.1-4.1-1.4c-7.3-1.5-13.8-9.1-14.4-17.6c7.6,1.9,14.2,4.7,17.8,12.2c1.5,3.2,3.5,6.2,5.5,9.8
		c3.6-8,1.3-19.3-4.5-24.4c-0.7-0.6-1.6-1.4-2.5-1.4c-10.4-0.8-13.6-8.7-17.1-16.7c7.4-0.7,15.8,4.9,18.9,11.8
		c1.4,3.2,3.5,6.1,5.9,8.9c0.6-5.4,1.5-10.4-1.3-15.5c-4-7.3-1.5-14.4,2.6-21.2c5.3,4.8,6.8,14.9,4.3,21.2
		c-1.9,4.7-2.4,9.9-3.5,14.8c0.8,0.3,1.5,0.6,2.3,0.8c1.8-3,3.8-5.9,5.3-9c3.6-7.7,10.1-10.9,18-12.7c-0.4,7.8-6.7,16.3-13.3,17.2
		c-6.8,0.9-9.5,5.6-10.7,10.9c-1.1,4.6-0.2,9.7,0.8,15.1c1.7-2.9,3.8-5.6,5-8.6c2.8-6.7,10.8-12.3,18.3-12.3
		c-1,7.8-7,15.1-13.6,16.7c-6.3,1.4-10.5,6.1-11.1,12.8c-0.3,4.1-0.1,8.3,1.1,13.1c1.7-2.7,3.9-5.3,5.1-8.3
		c2.9-7.2,11-12.9,18.5-12.6c-1.8,9.3-7.2,15-15.8,16.8c-5.3,1-11.5,12.8-8.7,17.1c1.9,2.8,5.2,4.7,8.2,7.3c2.4-2.1,5.8-3.8,9.5-0.9
		c3.7,2.8,2.6,6.4,1,10.7c3.5,0,6.6,0,9.7,0c3,0,6,0,9.7,0c0-2,0-3.6,0-5.1c0-30.2,0-60.3,0-90.5c0-2.7-0.5-4.6-2.9-6.7
		c-2.8-2.5-5-6.3-6.1-10c-5.7-19.2-6-38.9-2.4-58.4c2.1-11.7,6.5-23,9.9-34.4c0.4-1.5,1.4-2.8,2.6-5.1c1.2,2.3,2.1,3.6,2.7,5.1
		c12.2,28.4,14.9,57.8,8.9,88.1c-1.2,6.2-3,12.3-9,16.1c-1,0.6-1.5,2.5-1.5,3.9c-0.1,31.7,0,63.3,0,95c0,0.5,0.2,0.9,0.5,1.8
		c3.8,0,7.7,0,12.2,0c0-10.8,0-21.4-0.1-32c0-0.8-1.2-1.6-1.8-2.5c-2-2.9-5.2-5.6-5.8-8.7c-3.2-18.2-0.1-35.8,7.5-52.6
		c0.2-0.4,0.6-0.7,1.2-1.3c0.5,0.5,1.1,0.8,1.4,1.3c7.5,16.5,10.3,33.7,7.8,51.6c-0.6,4.2-1.9,8.1-6.5,9.9c-0.7,0.3-1.5,1.4-1.5,2.2
		c-0.1,10.6-0.1,21.3-0.1,32c3.2,0.3,5.8,0.6,8.5,0.9c0,0.4-0.1,0.8-0.1,1.3c-648.4,0-1296.8,0-1945.2,0c0-0.5,0-0.9,0-1.4
		c6,0,11.9,0,18.1,0c-3.5-9.1-2.9-13.5,1.9-16.8c4-2.8,9.3-2.5,12.9,0.8c4.1,3.6,4.5,8.3,0.9,15.5c1.9,0.1,3.6,0.2,5.7,0.3
		c0-32.1,0-63.8,0-95.8c-5.3,4.9-10.3,10.1-16,14.4c-5.6,4.3-12,7.1-19.4,4.8c13.1-0.2,21.2-8.6,29.9-16.8
		c7.2-6.8,5.9-14.8,5.7-23.4c-5.2,4.6-9.8,9.3-14.9,13.2c-5.1,3.9-10.9,6.5-17.8,4.1c10.2-0.2,17.3-6.1,24.5-12.3
		c8.2-7,9.8-15.7,7.9-25.9c-4.3,3.9-8.5,8-13.1,11.6c-4.7,3.6-10.1,6.1-16.5,3.7c9.6-0.4,16.2-6,23.1-11.9
		c7.9-6.8,7.5-15.2,6.6-24.8c-7.9,7.3-14.4,16.4-26.7,13.9c8.7-0.6,14.8-5.7,21.1-11.2c7.6-6.6,5.9-14.8,5.9-23.6
		c-4,3.4-7.4,6.8-11.2,9.5c-3.8,2.7-8.1,4.7-12.8,2.8c19.9-5,27.1-16.5,23.6-33c-3.2,2.7-6.1,5.6-9.4,7.9c-3.3,2.3-7,4.3-11.6,1.8
		c7.7-0.5,12.8-5.1,17.9-10.1c6.3-6.1,2.3-13.5,4.1-21.4c-3.8,3.1-6.5,5.6-9.4,7.5c-2.9,2-6.2,3.4-10.7,1.2
		c14.1-3.3,22.3-9.3,19.4-28.9c-4.9,2.9-8.6,8.7-15.8,6.1c7.8-0.8,12.3-6.3,16.3-11.2c5.8,4.1,11.3,8.1,17,12.1c-5.9,1-9.8-3.3-14-7
		c-3.5,13.4-0.8,24.2,17.4,28.7c-4.6,2.5-7.2,1.4-17.5-7.4c-4,13.1,0.5,25.8,20.4,30.2c-4.5,2.7-4.9,2.6-20.7-9.2
		c-3,13-0.5,25.8,23.6,32.2c-5.6,2.8-9.6,0.8-23.3-11.2c-4.2,11.3,0,27.9,25.9,34c-5.9,2.7-7.3,2-26.3-13.3
		c-4.1,17.7,7.2,31.5,29.3,35.8c-3.8,2.5-9.5,1.7-16-3.2c-4.7-3.5-8.9-7.7-13.3-11.6c-3.8,18.7,8.5,33.1,32.2,37.7
		c-4,2.7-10.6,1.6-17.9-4c-5.1-3.8-9.6-8.5-14.4-12.8c-3.9,19.1,9,33.7,35,39.7c-4.4,2.7-11.6,1.4-19.3-4.6
		c-5.6-4.3-10.5-9.4-16-14.5c0,31.9,0,63.6,0,95.6c1.9,0,3.5,0,5.1,0c-1.4-9.6,0-12,9-15.7c1.1-0.5,2-1.6,3-2.4
		c1.4-1.1,2.7-3.2,4.2-3.3c8.7-0.6,16.7-6.6,24.8-3.6c3.5-3.4,6.6-6.3,9.6-9.5c0.8-0.8,1.1-2.3,1.1-3.6c0.1-11.3,0.1-22.7,0.1-34
		c0-1.3-0.5-3.3-1.5-3.9c-5.5-3.2-7.3-8.7-8.5-14.1c-6.8-31.2-3.8-61.6,8.8-90.9c0.5-1.1,1.4-2.1,2.7-4.2c2.3,5.6,4.4,10.2,6,15
		c8.9,26,10.6,52.5,4.8,79.3c-1.2,5.8-2.9,11.7-8.8,15.1c-0.8,0.4-1.3,1.9-1.3,2.9c-0.1,12.3-0.1,24.6-0.1,37.3
		c5.7,1,10.1,3.3,12.7,8.7c0.6,1.3,4,1.3,6.8,2.1c0-2.7,0-4.7,0-6.7c0-46.3,0-92.7-0.1-139c0-4.1,1-7.4,3.5-10.5
		c3.5-4.3,6.8-8.7,9.7-13.3c2.5-3.9,5.4-6.1,10.1-5.3c1.2,0.2,2.6-0.2,4.4-0.5c0-8.4,0.2-16.5-0.1-24.6c-0.1-3.5,0.8-6.1,3.4-8.3
		c2.4-2.1,4.4-4.6,6.8-6.6c2-1.7,4.5-2.9,7.8-5.1c0-2.1,0.2-5.6-0.1-9c-0.3-3.1,1-4.9,3.6-6.3c5.5-3,10.9-6.2,17.3-9.9
		c0-2,0-5.3,0-8.6c0.1-7.2,3.7-10.6,10.6-10.6c3,0,4.2,0.9,4.1,4c-0.2,4-0.1,8-0.1,12c0,2.9-0.6,6.3,4.6,5c0,89.6,0,178.5,0,268
		c4,0,7.5,0,11.9,0c0-2.2,0-4.3,0-6.4c0-95.7,0-191.3-0.1-287c0-3.7,1-6.2,3.6-8.7c7.1-6.8,13.9-13.9,21-20.7
		c1.4-1.3,3.6-2.4,5.5-2.4c7.8-0.3,15.7-0.3,23.5,0c1.9,0.1,4.3,0.9,5.7,2.2c7.7,7.4,15.2,14.9,22.6,22.6c1.2,1.3,2.1,3.4,2.1,5.2
		c0.1,53.3,0,106.7-0.1,160c0,44,0.1,88,0.1,132c0,1,0.1,1.9,0.3,3.2c4.3,0,8.4,0,13.1,0c0-2,0-3.8,0-5.6c0-50.8,0-101.7,0-152.5
		c0-17.5-0.1-35,0.1-52.5c0-2,1.2-4.5,2.7-5.8c8.8-7.7,17.8-15.1,26.9-22.4c1.5-1.2,3.8-1.9,5.8-2c6.1-0.3,12.2-0.1,19-0.1
		c0-2.7,0-4.8,0-6.9c0-36-0.1-72,0.1-108c0-2.9,1.2-6.2,3-8.5c6.8-9,14-17.8,21.1-26.6c0.9-1.1,1.9-2.2,3.2-3.6
		c6.8,4.9,13.4,9.7,19.9,14.5c13.1,9.5,26,19.2,39.2,28.5c2.9,2,3.7,4.2,3.7,7.4c-0.1,37.3,0,74.7-0.2,112c0,5.1,1.7,7.7,7.1,8.9
		c0-9.9,0.2-19.5-0.1-29c-0.2-4.3,1.3-7.2,4.3-10c5.4-5,10.3-10.5,15.7-15.4c1.8-1.6,4.5-2.7,6.9-2.8c9.4-0.3,18.9-0.1,29-0.1
		c0-11,0.2-21.3-0.1-31.6c-0.1-3.9,1-6.9,3.6-9.9c7.2-8.1,14.1-16.4,20.9-24.8c2-2.4,4.1-3.5,7.2-3.3c4.5,0.3,9-0.2,13.5,0.1
		c4.1,0.3,5.1-1.4,5-5.2c-0.2-6.7-0.3-13.3,0-20c0.1-2.5,1.1-5.2,2.5-7.2c5.1-6.8,10.5-13.3,16-19.8c1-1.1,2.6-2.4,3.9-2.4
		c13.7-0.1,27.3,0,41,0.1c0.5,0,0.9,0.3,1.8,0.7c0,134.3,0,268.8,0,403.7c8.3,0,16.2,0,24.4,0c0-28.2,0-56.5,0-85.5
		c-6.6,0-13.4,0-20.2,0c-1-6-1-10.6,4.1-14.3c4.3-3.1,7.9-7.2,11.8-10.8c6.1-5.5,6.6-15.5,0.7-21.5c-1.1-1.2-3.1-1.8-4.7-2.2
		c-5.8-1.6-10.4-7.3-11.1-14c10.5,0.3,14.2,8.7,18.8,16.1c1.4-6.2,1.7-11.8-2.6-16.6c-1-1.2-2.5-2.4-4-2.6
		c-7.8-1.4-10.5-7.2-13.1-14.1c11.3,0.1,14.7,8.8,19.3,16.5c3.7-9.6,0.1-17.6-8.4-20.1c-5.1-1.5-9.5-7.4-10.1-13.7
		c10.8,0,13.9,9.1,18.6,16.3c0.6-0.3,1.2-0.6,1.8-0.8c-0.7-3.5-1-7.2-2.3-10.4c-2.5-6.4-1.4-11.9,2.2-17.5
		c4.6,3.7,5.9,11.6,3.8,16.9c-1.4,3.5-2,7.3-2,11.5c5.7-6.7,8.9-16,19.7-16c-0.7,6.7-5.3,12.4-10.6,13.8c-5.2,1.4-8.5,5.1-9.1,10.3
		c-0.2,1.8-0.1,3.7-0.1,5.5c0,1.1,0.1,2.2,0.3,5.1c5.6-8.1,8.7-17.3,19.2-17.5c0.5,5.3-4.5,12.2-9.8,13.7c-6.3,1.8-9.3,5.5-9.6,12
		c-0.1,2.4,0,4.9,0,7.3c0.4,0.1,0.8,0.3,1.2,0.4c2.3-3.6,4.1-7.8,7.1-10.7c2.9-2.8,7.1-4.3,11.2-6.7c0,6.9-4.1,12.8-9.2,14.8
		c-8.9,3.4-10.9,6.6-10,17.6c3.9-3.6,7.8-6.5,10.8-10c5.1-5.9,11-8.7,18.8-7.4c2.1,0.4,4.3,0.1,7.3,0.1c0-2.1,0-3.8,0-5.6
		c0-12.7-0.5-25.4,0.2-38c0.6-11.5-4.9-19.6-12.1-27.7c-1.3,1-2.4,2-3.5,2.8c-6.6,4.7-15.5,4.1-21.2-1.4c-5.6-5.4-6.5-14.1-2.3-20.6
		c4.2-6.6,12.5-9.2,19.8-6.4c7.3,2.8,11.9,10.9,9.7,18.7c-1.2,4.1,0.1,6.4,2.4,9.2c2.2,2.6,4.1,5.7,6.6,9.3c0-12.4,0-24,0-35.9
		c-1.2-0.3-2.7-0.6-4.1-1c-10.7-3-17.1-12.9-15.6-24.2c1.3-10.1,10.3-18,20.7-18.3c10.7-0.3,20,7.4,21.9,18.1
		c1.8,10.2-4.2,21-14.6,23.7c-5.6,1.4-6.1,4.2-5.8,8.7c0.3,4.6,0.1,9.2,0.1,14.1c5.2-5.8,10.2-11.2,15-16.7c0.6-0.7,0.4-2.2,0.5-3.3
		c0.3-6,3.8-10.2,9.4-11.2c5.1-0.9,10.1,1.8,12.2,6.7c2.1,4.8,0.6,10.4-3.4,13.5c-4.4,3.3-10.3,3-14.7-0.8c-0.9-0.8-1.6-1.7-2.8-2.9
		c-8.9,8.7-17,17.4-16.2,31.1c0.4,6.3,0.1,12.5,0.1,19.3c5.1-4.6,5.8-6.7,4.8-12.5c-0.9-5.2,1.7-10.2,6.4-12.4
		c4.3-2,10.1-0.8,13.3,2.9c3.4,3.9,3.7,9.7,0.7,13.9c-2.9,4.2-8.4,5.9-13.3,4.1c-1.2-0.5-2.4-1.1-4.7-2.3c-2.4,4.9-6.2,9.5-6.7,14.5
		c-1.1,9.8-0.3,19.9-0.3,30.4c5.1,0,9.7,0,14.3,0c21.2,0,42.3-0.1,63.5,0.1c2.5,0,5.4,1.3,7.4,3c5.3,4.3,10.1,9.1,15.9,14.4
		c0-18.8,0-36.6,0-54.7c-5.3,4.8-10.4,9.9-16,14.4c-5.6,4.5-11.9,7.4-19.9,5.4c5.9-1.9,12-2.6,16.3-5.7c7-5.1,13.8-11.2,18.7-18.3
		c2.7-3.9,1.1-10.7,0.9-16.4c-8.5,8.1-16,17.1-28.4,18.4c-1.4,0.1-3-0.4-5.3-0.8c5.6-1.7,10.9-1.9,14.4-4.5
		c6.7-5,13.5-10.6,18.2-17.3c2.7-4,1.5-10.7,1.4-16.6c-8.9,7.8-16.4,17.6-29.9,15.4c9.4-0.7,16-6.2,22.9-12.1
		c7.8-6.8,7.9-15,6.7-24.4c-4.2,3.7-8,7.6-12.4,10.6c-4.2,3-9,5.5-14.7,2.7c9-0.2,15.1-5.5,21.4-11c7.5-6.6,6.2-14.7,5.9-23.5
		c-4,3.5-7.4,6.7-11.2,9.5c-3.8,2.8-8.2,4.5-13,2.8c20.8-5.7,27.1-16.9,23.8-33.1c-6.2,5.1-11.4,12.5-21.1,10
		c10.6-1.1,16.6-8.5,22.6-16.4c6,7.6,11.8,15.4,23.6,15.7c-6.3,2.9-7.6,2.3-21.7-9.1c-3.8,15,2.6,27.2,23.3,32.4
		c-5.5,2.6-6.5,2.1-23.5-11.4c-3.2,18,7.1,31.2,26.2,33.8c-2.9,2.6-8.1,2-14.3-2.5c-4.2-3.1-7.9-6.8-11.9-10.3
		c-3.3,18.5,6,30,29.3,36c-6.5,3.8-13.8,0-29-15.2c-7.2,15,12.2,37.5,31.8,37.7c-3.6,2.7-9.6,1.8-17.7-3.9
		c-5.2-3.7-9.7-8.4-14.4-12.6c-4.7,18.1,12.4,37.3,34.9,38.9c-3.2,3.4-11.5,2.1-19.3-4c-5.6-4.3-10.6-9.5-16.1-14.6
		c-0.1,1.1-0.3,2.3-0.3,3.5c0,16.7-0.1,33.3,0.2,50c0,2,1.2,4.5,2.6,5.9c4.1,4.3,8.4,8.7,13.2,12.2c5,3.7,6.1,8.2,4.7,14.6
		c-6.6,0-13.3,0-20.3,0c0,10.1,0,19.6,0,29.4c9.9,1.3,16.4,6.7,19.4,16.2c-4.9-6.5-9.5-13.5-19.4-13.7c0,18,0,35.8,0,53.4
		c7,2.6,12.3,0.1,16-5.3c1.4-2.1,0.6-5.7,1-8.7c0.4-3.4-0.8-5.2-4.1-6.9c-6.1-3.1-9.1-8.5-9-16c3.7-0.2,7.3-0.4,10.8-0.6
		c0.2-0.5,0.4-1,0.6-1.6c-4-2.1-8.1-4.2-12.1-6.4c0-0.3,0-0.5,0-0.8c2.4,0.5,5,0.5,7.1,1.6c2.6,1.4,4.7,3.6,6.9,5.6
		c2.5,2.2,4.9,3.6,6.9-0.5c4.3-3.4,8.3-7.6,14.8-6.2c-4.5,2.3-8.5,4.5-12.5,6.6c0.2,0.5,0.4,1,0.7,1.5c1.1,0.1,2.3,0.2,3.4,0.4
		c2.7,0.4,5.4,0.8,8.1,1.2c-0.9,3.3-1.5,6.7-3,9.8c-0.8,1.8-2.7,3.8-4.5,4.4c-5.6,1.8-5.7,5.8-5.5,10.6c0.3,9.6,6.5,14,16.6,10.7
		c0-17.4,0-35.1,0-52.8C867,445.3,860.1,450.4,856.8,459.4z M1152.9,217.6c-1.1,0.1-2.6-0.1-3.1,0.5c-5.3,6.8-10.5,13.7-15.7,20.6
		c0.4,0.3,0.8,0.6,1.3,1c5.8-7.4,11.6-14.8,17.4-22.2c5.6-7,11.2-14.1,16.7-21.1c-0.4-0.3-0.8-0.6-1.2-0.9
		c-4.7,5.6-9.4,11-13.9,16.7C1153.4,213.6,1153.4,215.7,1152.9,217.6z M1641.4,297.2l-0.1-0.1c0.2,0.8,0.6,1.6,0.5,2.3
		c-0.8,4.4-1.8,8.8-3,14.3c2.5-1.1,3.5-1.6,5-2.3c-1.7,4.3-3.2,7.9-4.6,11.6c0.5,0.2,1.1,0.5,1.6,0.7c4.6-2.5,6-7.3,7-11.8
		c6.6-29.8,4.2-58.8-7.5-87.1c-0.3-0.8-1-1.4-1.8-2.5c-0.6,1.2-1,1.9-1.3,2.7c-10.7,25.9-13.3,52.7-8.7,80.3
		c0.8,4.7,2.5,9.3,4.2,13.8c0.7,1.9,2.5,3.4,3.8,5c0.5-0.2,1.1-0.5,1.6-0.7c-0.4-5,0.1-10.4-1.5-15c-1.6-4.6-5.4-8.5-8.3-12.7
		c0.5-0.3,1-0.6,1.5-1c2.3,3.1,4.6,6.1,7.1,9.4c3.1-7.6-1.1-13.2-3.3-19.3c1.1,1,2.2,2,3.3,3c4.4-10.5-5.3-16.2-8.5-23.9
		c0.4-0.2,0.8-0.4,1.2-0.7c2.4,3.1,4.8,6.1,7.2,9.2c0.5-0.2,0.9-0.4,1.4-0.6c0-8.6,0-17.1,0-25.7c0.5,0,1,0,1.4,0c0,6,0,12,0,18.4
		c1.7-1,2.7-1.6,3.7-2.1c-3.7,5.7-4.8,11.6-2.7,19.5c1.8-2.6,2.9-4.3,4.2-6.1c0.6,1.1,0.8,1.3,0.8,1.4c-1.5,2.4-3,4.7-4.5,7.1
		C1639.1,287.6,1639.2,294.9,1641.4,297.2z M660.6,476c0-85.1,0-169.7,0-254.5c-48.3,0-96.4,0-144.5,0c0,92.9,0,185.4,0,277.9
		c18.5,0,36.5,0,54.7,0c-0.3-0.7-0.3-1-0.5-1.3c-6.1-6.8-7.6-13.8-4.3-20.5c3.4-6.7,9.6-9.5,18.9-8.8c1,0.1,2.6-0.2,2.9-0.9
		c3.8-7.6,7.4-15.3,11.4-23.7c-3.5,0.6-6,1-8.4,1.4c-2.2,0.3-4.4,0.6-6.6,0.9c0-0.4,0-0.9,0-1.3c10.8-3.6,21.5-4.6,32.2,0.8
		c-3.7-0.1-7.3-0.6-10.9-1.5c-2.7-0.7-4.3,0-5.4,2.7c-2,4.8-4.4,9.3-6.5,14c-0.5,1-0.7,2.8-0.1,3.6c3.8,5.3,7.5,10.6,11.9,15.4
		c1.9,2.1,5.3,2.9,8.3,3.7c0.9,0.2,3.4-1.6,3.5-2.6c0.3-5.6,0.2-11.2,0.2-16.8c-2.2-0.5-3.9-1-5.5-1.4c0-0.3,0.1-0.6,0.1-0.9
		c4.3,0,8.6,0,14,0c-1.7,1.3-2.5,2-3.6,2.8c3.7,3,7.1,5.8,10.5,8.6C644.5,466.2,649.4,466.6,660.6,476z M1343.4,211.1
		c0,2.4,0,4.4,0,6.4c0,19,0.9,38-0.3,57c-0.8,13.1,2.3,23.1,13,31c2.1,1.5,3.4,5.3,3.4,8.1c0.2,45.1,0.1,90.3,0.2,135.4
		c0,1.7,0.2,3.5,0.3,5.2c38,0,75.5,0,113.7,0c0-2.7,0-5.1,0-7.6c0-76.5,0-152.9,0-229.4c0-6.6,0-6.6-6.5-6.6
		c-39.6,0.1-79.3,0.1-118.9,0.2C1346.9,210.8,1345.6,211,1343.4,211.1z M1357.3,499.5c0.1-1.7,0.2-2.8,0.2-4c0-56,0-112,0.1-168
		c0-4.3-1.7-4.9-5.3-4.9c-43.2,0.1-86.3,0.1-129.5,0c-4.6,0-5.9,1.2-5.9,5.8c0.1,55.2,0.1,110.3,0.1,165.5c0,1.8,0,3.5,0,5.5
		c6.9,0,13.2,0,20.1,0c0-20.1,0-39.8,0-59.5c13.9,0,27.2,0,40.9,0c0,20,0,39.6,0,59.5C1304.7,499.5,1330.7,499.5,1357.3,499.5z
		 M244.8,499.5c26.8,0,53,0,79.8,0c0-2.3,0-4.3,0-6.2c0-45.1,0-90.3,0-135.4c0-49.8-0.1-99.6,0.1-149.5c0-4.6-1.2-5.9-5.8-5.9
		c-22.8,0.2-45.6,0.1-68.5,0.1c-1.8,0-3.5,0-5.6,0C244.8,301.8,244.8,400.4,244.8,499.5z M439.5,496.4c0-0.4,0-0.7,0-1.1
		c0.7-0.2,1.4-0.4,2.2-0.6c2-0.6,4.1-1.1,6.1-1.6c-1.9-0.6-3.9-1.3-5.8-1.9c-0.2,0-0.4,0.1-0.5,0c-0.9-1.1-2.3-2.1-2.4-3.3
		c-0.1-0.8,1.5-2.1,2.5-2.6c1-0.5,2.4,0.1,3.4-0.2c1-0.3,1.8-1.3,2.8-1.9c-0.9-0.5-1.7-1.4-2.6-1.6c-1.9-0.2-3.8-0.1-6.3-0.1
		c0-2.8,0.2-5,0-7.1c-0.5-3.7,0.9-5.1,4.7-4.9c1.9,0.1,3.9-1.1,5-1.5c2.1,0.6,3.8,1.5,5.4,1.5c12,0.1,24,0.1,36,0
		c1.8,0,3.6-1.1,4.8-1.5c3.4,0.8,6.6,1.6,9.8,2.4c0,3.6,0,7.1,0,10.8c-1.7,0.1-3.1,0-4.3,0.3c-1.3,0.4-2.6,1.2-3.8,1.8
		c1.3,0.6,2.6,1.4,4,1.8c1.4,0.4,2.8,0.3,4.5,0.4c-0.2,2.1-0.3,3.7-0.5,5.7c-2.2,0-4-0.2-5.8,0.1c-0.9,0.1-1.6,1.1-2.4,1.7
		c0.8,0.6,1.5,1.5,2.4,1.7c1.5,0.4,3.2,0.4,4.8,0.6c0,0.4-0.1,0.7-0.1,1.1c-2.4,0.4-4.7,0.8-7.1,1.2c0.1,0.5,0.1,1,0.2,1.6
		c5.5,0,11,0,16.8,0c0.1-1.6,0.2-2.9,0.2-4.2c0-59.5,0-119,0.1-178.4c0-3.4-1.4-5-4-6.6c-27.1-17.2-54.2-34.5-81.3-51.7
		c-1.5-0.9-3-1.7-5-2.7c0,81.8,0,162.8,0,243.6c8.4,0,16.4,0,24.4,0c0-0.5,0.1-1.1,0.1-1.6C445.1,497.1,442.3,496.8,439.5,496.4z
		 M1764.5,362.3c-1.2-0.5-2.3-1.1-3.5-1.6c-15.7-6.6-33.4,2.5-36.7,19.1c-0.4,2.2,0.5,5.3,2,7c6,6.7,12,13.5,19,19.1
		c9.2,7.5,13.5,16.2,11.5,28c-0.3,1.8-0.3,3.7,0,5.5c0.2,1.3,0.8,3.1,1.8,3.7c7.8,5.2,16.4,7.3,25.7,5.5c1.1-0.2,2.7-2,2.7-3.1
		c0.2-9.5,0.1-19,0-28.5c0-1.1-0.5-2.3-1.1-3.2c-7.7-12.2-17.4-21.9-32.4-24.4c-0.8-0.1-1.6-0.7-2.4-1c0.2-0.6,0.4-1.1,0.6-1.7
		c6.2,2,12.4,4.1,18.7,6.2c0-8.6-4-15.4-9.4-21.7c1.4,0.3,2.5,0.9,3.3,1.7c5.5,5.4,7.4,12.4,8.5,19.8c0.2,1.3,0.3,2.9,1.1,3.6
		c4.6,4,9.4,7.7,13.6,11.1c0-5.3,0-12.7,0-20c0.5,0,0.9,0,1.4,0c0.3,1.9,0.7,3.8,1.1,6.1c9.3-15.6,13-19.7,19-19.9
		c-16.4,12.4-22,28.5-19,48.9c9.2-12.5,19.6-21.6,34.9-22.3c-2.9,1.6-6.3,2.3-9.5,3.6c-3.1,1.2-5.9,3.1-10,5.2
		c18.9,1.9,21.1,2.6,24.3,7.6c-1.3-0.5-2.2-0.6-3-1.1c-7-4-14.5-4.8-22.2-3.2c-2,0.4-4,1.5-5.6,2.8c-10.2,8.5-11,19.7-8.9,32.2
		c2-0.9,4.1-1.3,5.5-2.5c4-3.4,7.8-3.2,12.8-1.9c17.1,4.5,34.8-4.4,42.3-20.4c7.5-16.1,2.9-35.2-11.9-45.3c-5.7-3.9-12.7-6-19.5-9.1
		c-0.8-16.5-8-26.6-21.8-29.4C1783.1,336,1774.1,342.4,1764.5,362.3z M830.7,499.5c0-2.1,0-3.9,0-5.7c0-24.7-0.1-49.3,0.1-74
		c0.1-5.1-1.4-6.4-6.4-6.4c-43,0.2-86,0.1-128.9,0.1c-1.8,0-3.6,0.2-5.5,0.3c0,28.7,0,57,0,85.6c33.5,0,66.7,0,100.4,0
		c0-2.3,0-4.3,0-6.2c0-16.5,0.1-33-0.1-49.5c0-3.7,1-5,4.8-4.8c7.8,0.3,15.7,0.2,23.5,0c3.7-0.1,4.9,1,4.9,4.8
		c-0.2,16.7-0.1,33.3-0.1,50c0,1.9,0.2,3.8,0.2,5.8C826.2,499.5,828.1,499.5,830.7,499.5z M1649,419.3c-37.1,0-73.5,0-109.9,0
		c0,26.9,0,53.5,0,80.4c36.8,0,73.2,0,109.9,0C1649,472.9,1649,446.3,1649,419.3z M1679,499.9c0-2.6,0-4.4,0-6.2c0-14,0.3-28-0.1-42
		c-0.2-5.3,1.6-6.6,6.5-6.2c5.1,0.4,10.3,0.4,15.5,0c4.4-0.3,5.3,1.6,5.3,5.6c-0.2,14.7,0.1,29.3-0.1,44c0,3.8,1.2,4.8,4.9,4.8
		c13-0.2,26-0.1,39-0.1c1.4,0,2.9-0.3,4.4-0.5c0-26.8,0-53.2,0-80c-34.4,0-68.4,0-103,0c0,7.2,0,14,0,20.8c0,18.3-0.1,36.6-0.1,54.9
		c0,2.2-0.6,4.9,3.2,4.8C1662.3,499.8,1670.2,499.9,1679,499.9z M1097.1,497.6c0,0.6,0.1,1.3,0.2,1.9c6.8,0,13.5-0.2,20.2,0.1
		c3.8,0.2,5.8-1.4,7.6-4.4c8.1-13,4.8-29.2-8-38.5c-1.5-1.1-3-3.2-3.1-4.9c-0.8-13.1-8-23.3-19.4-27c-11.9-3.8-23.7,0.2-31.9,10.6
		c-1,1.3-3.1,2.3-4.7,2.3c-5.9,0.1-10.6,2.1-14.5,6.5c-1.1,1.3-3.5,2.2-5.3,2.1c-11.8-0.6-20.1,8.8-17.6,20.3c0.6,2.6,0.5,4-1.9,5.7
		c-6.9,4.9-8.7,12.6-5.4,20.4c0.8,2,1.1,4.2,1.6,6.1c10.6,0,21.9,0,33.1,0c0-0.4,0-0.8,0-1.2c-2.8-0.3-5.5-0.6-8.3-0.9
		c0-0.5,0-1,0-1.5c2-0.1,4.1,0,6.1-0.4c0.9-0.2,1.6-1.1,2.4-1.7c-0.8-0.6-1.6-1.5-2.6-1.7c-1.9-0.3-3.9-0.1-5.9-0.1c0-2.3,0-4,0-6
		c2.2,0,4.1,0.2,5.9-0.1c0.9-0.1,1.6-1.1,2.4-1.8c-0.8-0.6-1.5-1.7-2.4-1.8c-1.9-0.3-3.9-0.1-5.9-0.1c0-4.3,0-7.9,0-11.4
		c3.5-0.6,6.5-1.1,10.6-1.8c0.3,0.1,2.1,1.2,3.8,1.2c12.2,0.1,24.3,0.1,36.5,0c1.7,0,3.3-1,5.1-1.6c1.2,0.5,2.8,1.8,4.2,1.6
		c5-0.6,6.1,1.8,5.5,6.1c-0.2,1.8,0,3.6,0,6c-2.5,0-4.5-0.2-6.4,0.1c-0.9,0.1-1.6,1.1-2.4,1.8c0.8,0.6,1.5,1.7,2.4,1.8
		c2,0.3,4.2,0.1,6.6,0.1c-0.2,2.5-0.4,4.1-0.5,6c-2.2,0-4-0.2-5.8,0.1c-0.9,0.1-1.8,1-2.6,1.5c0.9,0.7,1.8,1.6,2.8,1.9
		c1.5,0.4,3.2,0.4,4.8,0.6c0,0.4-0.1,0.8-0.1,1.2C1102,497,1099.5,497.3,1097.1,497.6z M182.9,499.5c0-66,0-131.4,0-197.1
		c-6.4,0-12.5,0-18.9,0c0,65.8,0,131.3,0,197.1C170.3,499.5,176.4,499.5,182.9,499.5z M660.7,151.7c-28.2,0-56,0-84,0
		c0,22.4,0,44.5,0,66.8c28.2,0,56,0,84,0C660.7,196.1,660.7,174.2,660.7,151.7z M1471.8,208.4c-23.3-22.8-45.7-44.8-68.4-67.1
		c-19.6,22.5-38.7,44.4-58.5,67.1C1387.6,208.4,1429.1,208.4,1471.8,208.4z M228.5,499.6c0-24,0-47.7,0-71.9
		c-12.9,0-25.3,0.2-37.8-0.1c-4.5-0.1-5.6,1.4-5.6,5.6c0.2,20.3,0.1,40.6,0.2,60.9c0,1.7,0.2,3.5,0.4,5.4
		C200.1,499.6,214.1,499.6,228.5,499.6z M420.7,287.4c-0.8-0.3-1.3-0.5-1.8-0.5c-24.3,0-48.6,0-72.9-0.1c-3.2,0-3.9,1.4-3.9,4.3
		c0.1,15.8,0.1,31.6,0,47.5c0,3.9,1,5.1,5.1,5.1c23.3-0.2,46.6-0.1,69.9-0.1c1.1,0,2.2-0.2,3.6-0.3
		C420.7,324.5,420.7,306.1,420.7,287.4z M228.4,312.5c0-26.7,0-52.6,0-78.6c-6.5,0-12.6,0-19.3,0c0,8.4,0,16.5,0,25
		c-7.4,0-14.2,0-21.3,0c-0.1,2.1-0.3,3.7-0.3,5.3c0,10.8,0.1,21.7,0,32.5c0,2-0.7,4.1-1.5,6c-1.9,4.5-0.4,9.8,3.1,9.8
		C201.9,312.5,214.9,312.5,228.4,312.5z M1420.3,456.8c-20.5,0-40.4,0-60.4,0c0,14.4,0,28.5,0,42.7c20.3,0,40.1,0,60.4,0
		C1420.3,485.2,1420.3,471.2,1420.3,456.8z M161.3,306.5c-0.4-0.1-0.7-0.2-1.1-0.3c-3.1,4.3-6.1,8.7-9.5,12.7
		c-2.8,3.4-3.9,6.9-3.9,11.4c0.1,46.1,0.1,92.3,0.1,138.4c0,11.4,2.8,14.5,14.3,15.9C161.3,425.2,161.3,365.8,161.3,306.5z
		 M342.3,345.3c0,51.9,0,102.9,0,154.2c5.3,0,10.2,0,15.6,0c0-2,0-3.6,0-5.3c0-31.8,0-63.6,0-95.4c0-16.3,0-32.6,0.2-48.9
		c0-3.4-0.8-4.9-4.4-4.6C350,345.5,346.4,345.3,342.3,345.3z M1662.9,342.9c-7,0.4-12.2,3-13.9,10.1c-0.9,3.7-0.2,5.9,4.5,5.8
		c12.8-0.3,25.6,0,38.4-0.2c4.1-0.1,7.3,0.5,10.1,4c2.5,3.2,6.1,3.2,9.5,1.3c3.6-2,4.9-5.3,4.1-9.3c-0.3-1.4-0.9-2.7-1.4-3.9
		c0.6-0.4,0.8-0.7,1.1-0.8c7.9-2.4,11.3-6.7,10.7-13.4c-0.5-6.2-5-9.9-12.7-11c-1.4-0.2-2.5-1.8-3.8-2.4c-2.7-1.2-6.9-3.9-8.1-3
		c-5.4,4.2-11.6,3.4-17.6,4.5c-1.7,0.3-3.6,1.2-4.8,2.4c-2.5,2.4-4.9,2.9-8.4,2.5c-5.1-0.7-9.2,4.2-8.6,9.3
		C1662.1,340.1,1662.5,341.3,1662.9,342.9z M482.6,271.3c0-8.4-0.2-15.5,0.1-22.6c0.2-4.1-1.2-6.7-4.5-9.1
		c-13.8-9.8-27.4-19.9-41.1-29.9c-4.3-3.2-8.8-6.2-14-9.9c0,11.5-0.1,21.7,0.2,32c0,1.3,1.9,3,3.3,3.9c14.9,9.6,30,19.2,45,28.7
		C474.8,266.5,478.2,268.6,482.6,271.3z M1563.2,292.2c0-8.4,0-16.4,0-24.5c0.6,0,1.1,0,1.7,0c0,8.1,0,16.3,0,24.4
		c13.8-0.9,23.4-11.6,23-24.8c-0.5-12.8-11.3-23.1-24.2-23c-13.3,0.1-23.8,10.5-24,23.8C1539.5,281,1549.5,291.7,1563.2,292.2z
		 M1041.4,345.3c13.2,0.1,23.7-11.3,23.4-24.3c-0.4-13.3-12.2-24.3-25.3-23.5c-14.1,0.9-24,12.6-22.8,26.8
		c1.1,11.8,12.1,21.9,23.1,20.7c0-7.9,0-15.9,0-23.8c0.5,0,1.1,0,1.6,0C1041.4,329.2,1041.4,337.3,1041.4,345.3z M423.1,136.1
		c0,10.1-0.1,18.9,0.1,27.6c0,1.3,1.7,2.7,3,3.6c17.1,12.6,34.3,25.1,51.5,37.7c1.3,0.9,2.6,1.7,4.9,3.1c0-8.9,0.2-16.9-0.1-24.8
		c-0.1-2.1-1.4-4.7-3.1-6.1c-5.9-4.8-12.2-9.2-18.4-13.7C448.7,154.8,436.5,145.9,423.1,136.1z M423,167.8c0,9.1,0.1,16.9-0.1,24.6
		c-0.1,3.2,0.9,5.2,3.5,7.1c17,12.2,33.9,24.6,50.9,37c1.4,1,2.9,1.9,5.3,3.5c0-9,0.2-17-0.1-24.9c-0.1-2.1-1.4-4.8-3.1-6.1
		c-7.7-6-15.8-11.7-23.7-17.5C445.2,184,434.7,176.4,423,167.8z M360,499.4c20.6,0,40.6,0,60.6,0c0-9.6,0-18.8,0-28.4
		c-19.4,0-38.4,0-57.3,0.1c-1.1,0-3.1,1.7-3.1,2.6C359.9,482.2,360,490.7,360,499.4z M1134.9,499.5c0-2.2,0-4.2,0-6.1
		c-0.7-43.3-1.3-86.6-2.1-129.9c-0.5-25.5-1.2-50.9-1.9-76.4c-0.1-2.5-0.1-4.9-4-3.4c-0.1,1.2-0.3,2.5-0.3,3.8
		c-1.2,55.1-2.3,110.2-3.5,165.3c-0.1,3.8,0.7,6.9,2.9,10.1c6.9,9.8,7.4,20.4,2,31.1c-0.8,1.7-1.7,3.3-2.7,5.3
		C1128.8,499.5,1131.6,499.5,1134.9,499.5z M820.9,499.5c0-19.7,0-38.8,0-58c-9.6,0-18.8,0-27.9,0c0,19.6,0,38.7,0,58
		C802.4,499.5,811.5,499.5,820.9,499.5z M1950.1,384.1c-0.8,4.5-6.2,7.3-2.9,12.3c5.1-3.6,6.4-9.1,7.5-14.4
		c5.8-28.7,3.3-56.7-7.6-83.8c-0.4-1.1-1.2-2.1-1.8-3.2c-0.6,0.5-0.9,0.6-1.1,0.9c-0.4,0.9-0.8,1.8-1.2,2.7
		c-8.7,21.8-12,44.3-9.6,67.6c0.8,7.7,2.6,15.4,4.5,22.9c0.7,2.7,3,5,4.6,7.5c0.6-0.2,1.2-0.5,1.7-0.7c-0.3-5.1,0.5-10.5-1.1-15.1
		c-1.6-4.6-5.6-8.5-8.6-12.6c0.5-0.4,1-0.7,1.5-1.1c2.4,3.1,4.8,6.1,7.3,9.4c2.5-7.6-0.7-13.2-4.6-18.7c0.6-0.4,1.2-0.8,1.9-1.1
		c0.6,1.5,1.2,3.1,2.1,5.2c4.8-11.8-4.2-17.8-7.9-25.5c0.4-0.2,0.8-0.4,1.2-0.7c2.4,3,4.7,6,7.1,9c0.4-0.1,0.8-0.2,1.1-0.2
		c0-8.6,0-17.2,0-25.8c0.6,0,1.1,0,1.7,0c0,5.9,0,11.8,0,18.3c1.9-1.1,3-1.6,4.1-2.2c-4,5.7-4.9,11.5-3.1,19.3
		c1.6-2.5,2.8-4.2,3.9-6c0.5,0.3,1.1,0.6,1.6,0.9c-4,7-10.2,13.6-4.9,20.8c-0.6,5.9-1.1,10.7-1.7,15.9
		C1947.7,385,1948.7,384.7,1950.1,384.1z M925,355.2c-0.7,0.1-1.4,0.3-2,0.4c-8.8,20.6-13.1,42.2-11.5,64.7
		c0.7,9.7,2.8,19.4,4.8,28.9c0.6,2.8,3.1,5.1,4.8,7.7c0.6-0.3,1.1-0.5,1.7-0.8c0-3.5,0.5-7-0.2-10.3c-0.7-3.2-2.4-6.3-4-9.3
		c-1.5-2.8-3.6-5.3-5.4-7.9c0.5-0.4,1.1-0.7,1.6-1.1c2.3,3.1,4.5,6.2,7,9.5c3.1-7.6-1-13.2-3.2-19.3c1.1,1,2.2,2,3.4,3
		c3.9-10.6-5-16.4-8.7-24.1c0.4-0.3,0.8-0.5,1.3-0.8c2.4,3,4.7,6.1,7.1,9.1c0.5-0.2,1-0.4,1.5-0.6c0-8.5,0-17,0-25.5
		c0.5,0,0.9,0,1.4,0c0,5.9,0,11.8,0,17.9c1.8-0.7,3-1.1,4.1-1.5c-4.4,5.6-4.7,11.5-3.5,18.2c1.8-1.7,3.2-3.1,4.7-4.5
		c0.4,0.3,0.8,0.5,1.2,0.8c-5.5,6.7-9.6,13.5-5.2,20.5c-0.6,5.9-1.1,10.6-1.6,15.9c1.9-0.9,2.9-1.3,4.5-2.1c-1,4.6-6.3,7.3-3.3,12.4
		c4.9-2.9,6.1-7.8,7.2-12.6c4.6-19.9,4.7-40,0.4-59.9C931.1,374.4,927.7,364.9,925,355.2z M1201.2,362.3c0.4,0.2,0.9,0.5,1.3,0.7
		c-5.2,5-5.7,10.9-4.4,17.1c0.5,0.4,1,0.8,1.5,1.1c1-1.8,1.9-3.6,2.9-5.4c0.3,0.3,0.7,0.7,1,1c-1.9,3.5-4.8,6.8-5.6,10.6
		c-0.7,3.6-1.9,8.1,1,10.4c-0.6,5.5-1.1,10.1-1.7,15.2c1.9-0.6,3-0.9,4.2-1.3c-1.6,3.9-3,7.5-4.4,11c0.6,0.2,1.1,0.5,1.7,0.7
		c4.6-2.5,5.9-7.3,6.9-11.8c6.8-30,4.1-59.2-7.7-87.6c-0.3-0.7-0.9-1.2-1.6-2c-0.7,1.5-1.2,2.5-1.6,3.5
		c-9.9,24.1-12.6,49.2-9.1,74.9c0.8,5.9,2.6,11.7,4.4,17.3c0.7,2.2,2.8,3.9,4.2,5.9c0.5-0.2,0.9-0.5,1.4-0.7c0-3.4,0.5-7-0.2-10.3
		c-0.7-3.2-2.3-6.4-4-9.3c-1.5-2.8-3.6-5.2-5.5-7.9c0.5-0.3,1.1-0.7,1.6-1c2.3,3,4.6,6,7.1,9.2c3-7.6-1-13-3.2-18.9
		c1.2,0.9,2.3,1.8,3.4,2.7c3.8-10.5-5-16.2-8.7-23.7c0.4-0.3,0.7-0.5,1.1-0.8c2.5,3,4.9,5.9,7.4,8.9c0.4-0.1,0.8-0.2,1.3-0.4
		c0-8.5,0-17,0-25.5c0.5,0,1.1,0,1.6,0c0,5.8,0,11.7,0,18.1C1199.3,363.4,1200.3,362.8,1201.2,362.3z M1340.9,211.3
		c-7.8,2.2-15,4-22.1,6.4c-1.2,0.4-2.5,2.9-2.5,4.4c-0.2,13.3-0.2,26.6-0.1,40c0,1.6,0.1,3.7,1,4.7c7.5,7.6,15.2,15.1,23.6,23.3
		C1340.9,263.3,1340.9,237.7,1340.9,211.3z M114,361.8c0.4-0.3,0.8-0.7,1.2-1c2.4,3,4.8,6,7.2,9c0.4-0.1,0.9-0.3,1.3-0.4
		c0-8.5,0-17.1,0-25.6c0.5,0,1.1,0,1.6,0c0,5.9,0,11.7,0,18c1.9-0.8,3-1.3,4.1-1.8c-4.4,5.6-4.8,11.6-3.3,18.4
		c1.7-1.8,3-3.3,4.3-4.7c-1,4.1-3.8,7.4-4.6,11.2c-0.8,3.6,0.2,7.7,0.6,13.1c-0.3,3-0.7,7.7-1.1,12.8c2-0.7,2.9-1,3.8-1.3
		c-1.5,3.9-2.8,7.5-4.2,11.1c0.5,0.2,1.1,0.5,1.6,0.7c4.9-3,6.2-8.3,7.3-13.3c6.2-29.3,3.5-57.9-7.9-85.7c-0.3-0.8-1-1.4-1.8-2.6
		c-1,2.2-1.8,3.8-2.4,5.5c-9.3,24-11.9,48.7-8.3,74.1c0.8,5.7,2.7,11.3,4.5,16.8c0.7,2.1,2.7,3.7,4.1,5.5c0.4-0.2,0.9-0.4,1.3-0.6
		c0-3.5,0.5-7-0.1-10.4c-0.6-3.3-2.3-6.4-3.9-9.3c-1.5-2.8-3.6-5.3-5.4-8c0.5-0.3,1-0.6,1.5-1c2.3,3,4.6,6,7,9.1
		c3-7.5-0.7-13.1-4.4-18.6c0.4-0.2,0.8-0.3,1.1-0.5c1.1,1,2.2,2.1,3.3,3.1C126.5,375,118.1,369.2,114,361.8z M482.6,176.6
		c0-7.7-0.2-14.1,0.1-20.5c0.1-3.2-1-5.1-3.6-7c-17.2-12.4-34.2-24.9-51.3-37.3c-1.3-0.9-2.7-1.6-4.8-2.9c0,7.4-0.3,13.9,0.2,20.3
		c0.2,2.3,1.5,5.1,3.2,6.5c14.9,11.2,30.1,22.1,45.2,33.1C474.9,171.1,478.2,173.5,482.6,176.6z M1756.9,445c0,18.6,0,36.5,0,54.4
		c10.2,0,20,0,29.7,0c0-16.5,0-32.5,0-48.8C1775.9,452.6,1766.3,450.6,1756.9,445z M344.5,284.3c26.3,0,51.2,0,76.1,0
		c0-8,0-15.5,0-23.6c-15.6,0-30.9,0-46.2,0c-0.9,0-2,0.5-2.7,1C362.9,269,354.2,276.2,344.5,284.3z M423,236.5c0,3,0.3,5,0,6.8
		c-1.1,6.7,1.9,10.3,7.5,13.8c26.3,16.3,52.2,33.1,78.3,49.7c1.3,0.8,2.8,1.5,4.9,2.7c0-3.7-0.3-6.5,0.1-9.2
		c0.8-5.1-1.6-7.6-5.7-10.2c-26.6-16.7-53-33.7-79.5-50.5C427,238.6,425.5,237.8,423,236.5z M1356.8,320.3
		c2.2-9.5,1.6-10.3-7.6-10.3c-41.4,0-82.9,0-124.3,0c-2.4,0-4.9,0-7.4,0c0,3.9,0,6.9,0,10.3C1264.1,320.3,1310.5,320.3,1356.8,320.3
		z M360,345.6c0,6.7,0.2,12.8-0.1,18.9c-0.1,3.5,1.4,4.1,4.4,4.1c17.8-0.1,35.6,0,53.4-0.1c0.9,0,1.9-0.3,2.8-0.4c0-7.7,0-15,0-22.6
		C400.3,345.6,380.5,345.6,360,345.6z M360,418.3c20.8,0,40.7,0,60.6,0c0-7.6,0-14.9,0-22.6c-19.6,0-38.9,0-58.2,0.1
		c-0.8,0-2.3,1.5-2.3,2.3C359.9,404.8,360,411.4,360,418.3z M420.8,370.6c-19.7,0-38.8,0-57.9,0.1c-1,0-2.7,1.6-2.7,2.5
		c-0.2,6.6-0.1,13.2-0.1,20c20.6,0,40.6,0,60.8,0C420.8,385.7,420.8,378.5,420.8,370.6z M420.7,420.7c-4.6,0-8.7,0-12.8,0
		c-14.5,0-29,0-43.4,0c-2.1,0-4.6-0.5-4.5,3c0.1,6.4,0,12.9,0,19.6c20.6,0,40.6,0,60.8,0C420.7,435.9,420.7,428.8,420.7,420.7z
		 M420.7,468.9c0-7.9,0-15.2,0-22.6c-20.3,0-40.3,0-60.7,0c0,6.7-0.2,13.1,0.1,19.4c0.1,1.1,2,3.1,3.1,3.1
		C382.2,468.9,401.2,468.9,420.7,468.9z M660.6,97.4c-13.8,0-27.2,0-40.7,0c0,17.4,0,34.3,0,51.6c13.7,0,27,0,40.7,0
		C660.6,131.7,660.6,114.8,660.6,97.4z M1595.8,378.5c-13.7,12.6-27,24.8-41.3,38c26.6,0,51.6,0,77.7,0
		C1619.1,402.8,1606.8,390,1595.8,378.5z M420.4,258.3c0-49.4,0-98.3,0-147.7c-6.1,5.7-8.9,11.4-8.8,19.6c0.5,40,0.2,80,0.2,120
		c0,2.6,0,5.2,0,8.2C415.1,258.3,417.6,258.3,420.4,258.3z M573.9,155.4c-0.3-0.2-0.7-0.4-1-0.5c-7.6,9-15.1,17.9-22.6,26.9
		c-0.4,0.5-0.7,1.2-0.7,1.8c0,11.6,0,23.2,0,34.9c8.4,0,16.2,0,24.3,0C573.9,197.2,573.9,176.3,573.9,155.4z M1703.9,447.7
		c-6.9,0-13.2,0.1-19.5,0c-3.3-0.1-3.3,2-3.3,4.3c0,9.7,0,19.3,0,29c0,6.1,0,12.2,0,18.5c8,0,15.2,0,22.8,0
		C1703.9,482.2,1703.9,465.2,1703.9,447.7z M1285.8,307.6c0-20.9,0-41.5,0-62.1c-0.3-0.1-0.6-0.2-0.8-0.3
		c-12.1,20.6-24.2,41.3-36.6,62.4C1261.4,307.6,1273.4,307.6,1285.8,307.6z M1326.2,307.6c-12.6-21.4-24.7-42-36.8-62.7
		c-0.3,0.1-0.5,0.2-0.8,0.4c0,20.7,0,41.3,0,62.3C1301.1,307.6,1313.2,307.6,1326.2,307.6z M1618.3,360.9c0.8,1.4,1,1.8,1.4,2.2
		c17.3,17.3,34.5,34.6,51.8,51.9c0.8,0.8,1.9,1.8,2.8,1.8c6.2,0.2,12.3,0.1,19.1,0.1c-0.7-1.2-0.9-1.7-1.2-2
		c-17.3-17.3-34.5-34.6-51.9-51.8c-1-1-2.5-2-3.8-2C1630.8,360.8,1625,360.9,1618.3,360.9z M1268.5,448.6c-6.1,0-12,0.2-18-0.1
		c-3.9-0.2-4.8,1.4-4.7,5c0.2,12.8,0.1,25.6,0.1,38.4c0,2.4,0,4.9,0,7.4c8.1,0,15.4,0,23.1,0c0-16.2,0-32,0-47.8
		C1269,450.7,1268.7,450,1268.5,448.6z M1236.9,238.5c-5.4,0-10.2,0.2-15-0.1c-4.1-0.3-5,1.3-5,5.1c0.2,19.6,0.1,39.3,0.1,58.9
		c0,0.9,0.3,1.8,0.5,2.7c0.5,0.3,0.9,0.7,1.4,1c5.7-6.1,11.4-12.1,16.9-18.2c0.7-0.8,1-2.1,1-3.2
		C1236.9,269.5,1236.9,254.4,1236.9,238.5z M729,266.3c11.1-0.8,18.9-9.4,18.5-19.4c-0.4-10.8-9.2-19.2-19.8-19
		c-10.6,0.3-18.9,8.8-19,19.3c0,10.3,7.8,18.7,18.7,19c0-6.5,0-13,0-19.5c0.5,0,1,0.1,1.6,0.1C729,253.2,729,259.6,729,266.3z
		 M1669.7,417c-1-1.4-1.3-2-1.7-2.4c-17.2-17.2-34.3-34.4-51.5-51.5c-1-1-2.5-2-3.8-2c-4.8-0.2-9.5-0.1-14.2-0.1
		c-0.1,0.8-0.2,1-0.2,1.1c17,17.8,33.9,35.7,51,53.4c0.8,0.9,2.3,1.5,3.5,1.5C1658,417,1663.3,417,1669.7,417z M513.5,222.9
		c-6.4,6.3-11.9,11.5-17,17.1c-1.5,1.6-2.6,4.3-2.7,6.5c-0.3,9.5-0.2,19-0.1,28.5c0,1.4,0.1,3.5,1,4.1c5.9,4.1,12,7.9,18.8,12.2
		C513.5,268.1,513.5,246.4,513.5,222.9z M668.8,411.3c53.9,0,107.6,0,161.4,0c1.3-4.4,0-5.8-4.4-5.8c-51,0.1-101.9,0.1-152.9,0.1
		c-1.3,0-2.6,0.2-4,0.4C668.8,407.8,668.8,409.4,668.8,411.3z M1733.2,416.6c-1.8-1.9-3.1-3.3-4.4-4.7c-15.3-15.3-31-30.2-45.8-45.9
		c-6.5-6.9-13.4-4.6-20.7-4.3c15.1,15.8,30.8,30.6,45.5,46.4c6.8,7.4,13.9,10.7,23.5,9C1731.6,417,1731.9,416.9,1733.2,416.6z
		 M117.3,485.4c-0.2-4.3-2.6-9-7.2-8.7c-7.9,0.5-15.7,2.9-23.5,4.5c-0.3,0.1-0.5,0.5-0.7,0.6c-2.5,1.6-4.9,3.4-7.5,4.9
		c-3.4,2-6,4.4-5.4,8.6c0.6,4.6,4,4.5,7.5,4.5c14.1-0.1,28.3,0.1,42.4-0.1c2.1,0,5.9-1.6,5.9-2.5c-0.1-2.8-0.7-6.4-2.6-8.2
		C124.2,487.1,120.6,486.7,117.3,485.4z M1597.3,311.2c0.2,0.4,0.4,0.9,0.6,1.3c-5.3,3.2-10.5,6.4-15.8,9.6
		c5.7,8.5,16.3,10.4,24.2,4.9c8.2-5.7,10.2-16.6,4.6-24.7c-5.6-8-16.3-10.1-24.3-4.8c-7.7,5.1-10.2,15.6-5.4,22.6
		c2.6-1.7,5.2-3.6,7.9-5.2C1591.7,313.5,1594.6,312.4,1597.3,311.2z M1058.8,375.4c5.9,8.6,16.1,10.4,24.2,5
		c7.9-5.3,10.1-16.2,5-24.3c-5.1-8-15.9-10.4-24.2-5.5c-7.7,4.5-11,16.6-6.2,22.6c5.5-3,11-6,16.4-9c0.3,0.5,0.6,1,0.8,1.5
		C1069.5,368.9,1064.1,372.1,1058.8,375.4z M1752.6,416.9c-1.9-2.1-3-3.4-4.1-4.5c-15-15.1-30.5-29.7-44.8-45.5
		c-6.7-7.4-13.8-6-22.3-5.6c1.5,1.6,2.4,2.8,3.4,3.8c15.2,15.4,30.9,30.3,45.5,46.2C1736.8,418.3,1743.7,417.6,1752.6,416.9z
		 M1713.4,416.7c-1.7-1.8-2.7-3.1-3.8-4.2c-15.6-15.6-31.6-31-46.7-47c-6.3-6.6-13-3.8-19.8-4c0.8,1.7,1.7,2.8,2.8,3.9
		c15.3,15.3,31,30.2,45.6,46C1697.9,418.4,1704.9,417.1,1713.4,416.7z M151.2,485.7c-2.4-3.1-3.7-6.9-6.1-7.8
		c-5.3-1.9-9.8-4-12.8-9.1c-0.7-1.2-3.2-1.8-4.9-2c-4.7-0.7-9.8,3-10.7,7.7c-0.8,3.9,2.5,9.2,6.6,10.5c6.7,2.1,9.1,6.4,7.9,14.5
		c10,0,20,0,30,0C162.7,487.5,161,485.4,151.2,485.7z M1352.3,307.8c-18.4-19.5-37.3-39.6-56.3-59.7c-0.4,0.3-0.8,0.7-1.2,1
		c0.2,0.6,0.4,1.1,0.7,1.7c10.6,18.1,21.1,36.2,31.8,54.3c0.7,1.1,2.1,2.6,3.2,2.6C1338.4,307.9,1346.3,307.8,1352.3,307.8z
		 M1221.4,307.8c5.7,0,12.4-0.2,19.2,0.1c3.6,0.1,5.7-1,7.5-4.2c9.9-17.3,20.1-34.5,30.2-51.7c0.6-1,0.9-2,1.4-3.1
		c-0.5-0.4-1-0.8-1.5-1.1C1259.2,267.9,1240.2,287.9,1221.4,307.8z M1262.3,238.7c-7.9,0-15.2,0-22.7,0c0,15,0,29.8,0,44.5
		c0.6,0.5,1.2,0.9,1.8,1.4c6.5-7.1,13-14.2,19.5-21.3c0.6-0.7,1.3-1.7,1.4-2.5C1262.3,253.5,1262.3,246.2,1262.3,238.7z
		 M789.4,403.3c-4.3-11.9-8.3-23.2-12.4-34.3c-1-2.6-14-3.4-15.5-1.2c-0.3,0.4-0.3,1-0.3,1.4c0,11.3,0,22.5,0,34.1
		C770.7,403.3,779.6,403.3,789.4,403.3z M758.8,367.6c-0.7-0.5-0.9-0.6-1-0.7c-13.4-1.5-13.4-1.5-17.9,11.1
		c-2.9,8.2-5.9,16.5-9,25.1c9.7,0,18.7,0,27.9,0C758.8,391,758.8,379.3,758.8,367.6z M700.5,403.5c9.5,0,17.8,0.1,26.1-0.1
		c1.1,0,2.5-1.9,3-3.2c2.8-7.3,5.4-14.7,8-22c1.2-3.5,2.4-7.1,3.9-11.5c-4.2,0-7.5-0.2-10.8,0.1c-1.8,0.2-4.2,0.7-5.2,2
		C717.3,379.9,709.4,391.2,700.5,403.5z M819.4,403.5c-1.1-1.8-1.5-2.8-2.2-3.7c-6.3-8.8-12.6-17.6-18.9-26.3
		c-5.3-7.3-10.1-8.7-19.3-5.8c4,11.2,8,22.5,12.1,33.6c0.4,1,2.2,2,3.3,2C802.4,403.6,810.4,403.5,819.4,403.5z M409.6,124.7
		c-4.9,3.4-6.2,7.4-6.2,12.5c0.2,38.6,0.1,77.2,0.1,115.8c0,1.8,0.1,3.6,0.2,5.3c2.2,0,3.9,0,5.8,0
		C409.6,213.7,409.6,169.5,409.6,124.7z M671.5,402.4c0.2,0.4,0.4,0.8,0.6,1.2c7.3,0,14.6,0.2,21.9-0.1c2.1-0.1,4.7-1.5,6-3.1
		c7.3-9.7,14.3-19.6,21.3-29.5c0.7-1,1.1-2.2,1.9-3.7c-7.6-0.7-14.2-1.5-19.5,5.1c-3,3.9-7.2,6.9-10.9,10.3
		C685.7,389.1,678.6,395.8,671.5,402.4z M1321.8,214.4c4.2-1.2,8.7-2.7,13.4-3.7c4.4-1,7.7-3.1,10.7-6.6
		c13.8-16.2,27.9-32.2,41.9-48.2c3.1-3.6,6.2-7.1,9.3-10.7c-0.3-0.4-0.6-0.9-1-1.3c-3.9,2.3-8.3,4.1-11.5,7.1
		c-10.9,10.2-21.6,20.8-32.1,31.4C1342.1,192.9,1332,203.7,1321.8,214.4z M1270.7,446.6c0.1,2.3,0.3,4.1,0.3,5.9
		c0,14.3,0.1,28.6,0,43c0,3.4,0.8,5.2,4.6,3.8c0-19.1,0-38.2,0-57.6c-11.4,0-22.4,0.1-33.3,0c-3.2,0-3.3,1.9-3.3,4.2
		c0,16.7,0.1,33.3,0,50c0,3.8,1.4,4.7,5,3.2c0-2.1,0-4.1,0-6.1c0-14-0.1-28,0.1-42c0-1.5,1.6-4.1,2.5-4.2
		C1254.4,446.4,1262.4,446.6,1270.7,446.6z M617.6,100.8c-0.4-0.1-0.9-0.2-1.3-0.3c-5.1,6.3-10.3,12.5-15.4,18.8
		c-0.6,0.7-1.1,1.8-1.1,2.7c-0.1,8.9-0.1,17.9-0.1,27.4c5,0,9.4-0.2,13.9,0.1c3.4,0.2,4.2-1.4,4.1-4.5c-0.1-9.5-0.1-18.9-0.1-28.4
		C617.6,111.3,617.6,106.1,617.6,100.8z M1161.6,438.2c9-0.8,14.3-7.4,13.5-15.9c-0.7-7.7-7.8-13.5-15.7-12.9
		c-7.7,0.6-13.9,7.7-13.4,15.3c0.4,7.4,6.5,13.5,14.1,13c0-4.7,0-9.4,0-14.1c0.5,0,1.1,0,1.6,0
		C1161.6,428.5,1161.6,433.4,1161.6,438.2z M1588.2,367.5c14.6,15.3,28.9,29.7,42.6,44.8c4.7,5.2,9.7,5.1,16.4,4
		c-17.9-18.6-35.2-36.7-51.9-54.1C1592.6,364.1,1590.6,365.6,1588.2,367.5z M396.6,258.1c4.4,1.4,4.9-0.7,4.9-3.7
		c0-38.3,0-76.6-0.1-114.9c0-1.3-0.3-2.5-0.5-3.8c-0.6-0.1-1.1-0.2-1.7-0.4c-0.9,2.9-2.5,5.8-2.5,8.8c-0.2,36.3-0.1,72.6-0.1,108.9
		C396.6,254.6,396.6,256.3,396.6,258.1z M796.6,367.1c1.5,2.2,2.5,3.8,3.6,5.4c6.3,8.8,12.9,17.4,18.8,26.4c3,4.6,6.4,5.5,11.1,4.1
		c1.6-10.2,1.8-19.7-8.4-25.9c-2.2-1.4-4.3-3.3-5.8-5.4C810.9,365.1,804.1,366.6,796.6,367.1z M713.3,291.2c-4.7-2.8-9-5.4-13.3-8
		c0.3-0.5,0.5-0.9,0.8-1.4c4.5,2.3,9,4.7,13.5,7c3.1-6.9,0.8-14.4-5.5-18c-6.3-3.6-14.6-1.7-18.7,4.2c-4.3,6.1-3,14.6,2.8,19.3
		C699,299,706.4,298.2,713.3,291.2z M592.6,465.8c-3.5,3.4-2.9,5-0.5,7.1c5.4,4.7,7.1,10.9,4.7,17.6c-1.1,3.1-3.4,5.9-5.2,8.9
		c14.6,0,29.2,0,43.5,0c-2.4-4.4-4.7-8.5-7.7-13.9c-5.4,0.9-11.6,2-17.9,2.8c-1.4,0.2-3.7-0.8-4.4-1.9
		C600.8,479.8,596.9,473,592.6,465.8z M1961.2,462.3c0.7,0.3,1.4,0.6,2,0.9c1.2-2.6,3.1-5.1,3.6-7.9c2-11,1.2-21.9-1.4-32.7
		c-1.3-5.3-3.2-10.4-4.8-15.7c-0.6,0-1.3,0.1-1.9,0.1c-1.8,6.8-4.4,13.6-5.2,20.6c-1,8.8-0.9,17.9-0.7,26.8c0.1,3.3,0.8,7.3,6.1,8.3
		c-0.8-10.1,2.7-20.3-6-28.8c0.5-0.1,1-0.3,1.6-0.4c1.2,1.1,2.5,2.2,4.8,4.3c0-6.4,0-11.5,0-16.6c0.3,0,0.5,0.1,0.8,0.1
		c0.7,3.9,1.3,7.7,2,11.6c0.3-0.1,0.7-0.2,1-0.4c-0.9,3.1-1.8,6.2-2.9,10c2.4-0.8,3.3-1.1,4.2-1.4
		C1959.1,447.9,1960.9,455.2,1961.2,462.3z M1586.7,369.4c-15.3,15.7-30.2,31.1-45.6,46.9c7,1.6,11.7,0.4,16-4.5
		c8.9-9.9,18.3-19.3,27.7-28.7c2.5-2.5,5.7-4.5,8.5-6.7c-2.1-2.4-2.8-3.3-3.6-4.2C1588.9,371.4,1588,370.6,1586.7,369.4z
		 M185.8,339.8c-0.2,1.4-0.4,2.5-0.5,3.6c-0.3,6.8-0.3,6.8,6.7,6.8c10.5,0,20.9,0,31.4,0c1.7,0,3.5-0.2,5.1-0.3c0-3.7,0-6.8,0-10.1
		C214,339.8,200,339.8,185.8,339.8z M185.6,402.7c-0.2,1.9-0.2,3.2-0.4,4.5c-0.7,4.7,1,6.5,5.9,6.1c7.1-0.4,14.3-0.1,21.4-0.1
		c5.3,0,10.5,0,15.8,0c0-3.9,0-7.1,0-10.5C214,402.7,200,402.7,185.6,402.7z M185.6,365.1c0,3.5,0,6.8,0,9.8c14.6,0,28.8,0,42.8,0
		c0-3.5,0-6.6,0-9.8C214,365.1,200,365.1,185.6,365.1z M228.7,314.7c-14.6,0-28.6,0-42.6,0c-2.4,9.3-1.6,10.4,7.4,10.4
		c9.6,0,19.2,0,28.9,0c2.1,0,4.2-0.2,6.4-0.3C228.7,321.2,228.7,318.3,228.7,314.7z M1262.1,236.4c0.1-2.6,0.6-4.7,0.2-6.5
		c-0.3-1.3-2-3.1-3.1-3.1c-13-0.2-26-0.1-39-0.2c-3.8,0-3.1,2.6-3.1,4.9c0,2.2-0.8,4.9,3.1,4.9
		C1233.9,236.3,1247.8,236.4,1262.1,236.4z M185.5,400.2c14.7,0,28.8,0,42.9,0c0-3.5,0-6.5,0-9.9c-14.4,0-28.5,0-42.9,0
		C185.5,393.7,185.5,396.8,185.5,400.2z M185.5,387.4c14.7,0,28.9,0,43.1,0c0-3.5,0-6.4,0-9.5c-14.5,0-28.6,0-43.1,0
		C185.5,381.2,185.5,384.1,185.5,387.4z M228.6,327.4c-14.5,0-28.6,0-42.9,0c0,3.4,0,6.6,0,9.8c14.5,0,28.6,0,42.9,0
		C228.6,333.9,228.6,331,228.6,327.4z M228.7,415.5c-14.6,0-28.7,0-43,0c0,3.4,0,6.6,0,9.9c14.6,0,28.8,0,43,0
		C228.7,422,228.7,419,228.7,415.5z M228.6,352.8c-14.7,0-28.8,0-43,0c0,3.5,0,6.6,0,9.5c14.6,0,28.7,0,43,0
		C228.6,358.9,228.6,356,228.6,352.8z M1029.2,405.8c3.3-5.3,2-11.3-3.1-14.7c-5.2-3.4-11.9-2.4-15.6,2.5c-3.8,5-2.8,12.2,2.1,16.1
		c4.7,3.7,11,3.1,15.1-1.8c-2.3-2.5-4.7-5.1-7.3-8c1.2-0.2,1.6-0.4,1.8-0.3C1024.5,401.7,1026.9,403.8,1029.2,405.8z M1017.3,351.5
		c1.1-6.1-2.2-11.3-8-12.8c-5.9-1.5-12.1,2.1-13.9,8.3c-1.6,5.5,1.5,11.5,7.1,13.7c5.8,2.3,11.4-0.2,14.1-6.5
		c-3.5-1.9-7-3.8-10.9-5.9c1-0.5,1.3-0.8,1.6-0.7C1010.6,348.8,1013.9,350.2,1017.3,351.5z M1552.7,337.8c3-6.4,1.3-12.3-4-15.3
		c-5.2-3-12.2-1.3-15.4,3.7c-3.2,4.9-2,11.7,2.5,15.3c4.8,3.8,10.9,3.2,15.2-1.6c-2.4-2.5-4.7-5.1-7.1-7.6c0.3-0.3,0.6-0.7,1-1
		C1547.4,333.3,1549.9,335.5,1552.7,337.8z M1540.7,298.4c0.7-6.7-2.8-11.8-8.5-13c-6.4-1.3-12.2,2.4-13.7,8.7
		c-1.4,5.8,1.9,11.7,7.5,13.5c6,1.9,11.3-0.6,13.7-6.6c-3.4-1.9-6.8-3.8-10.3-5.6c0.2-0.5,0.5-0.9,0.7-1.4
		C1533.6,295.3,1537,296.8,1540.7,298.4z M1806.9,479.3c14.9,0,29.3,0,43.7,0c0-2.6,0-4.8,0-7.1c-14.8,0-29.1,0-43.7,0
		C1806.9,474.6,1806.9,476.7,1806.9,479.3z M1094.6,472.1c-14.8,0-29.1,0-43.6,0c0,2.5,0,4.8,0,7.2c14.7,0,29,0,43.6,0
		C1094.6,476.9,1094.6,474.8,1094.6,472.1z M450.3,479.1c14.8,0,29.2,0,43.9,0c-0.1-2.6-0.2-4.9-0.3-7.1c-14.8,0-29.1,0-43.6,0
		C450.3,474.4,450.3,476.5,450.3,479.1z M884.3,499.4c0-13.4,0.1-26.4-0.1-39.3c0-2-2-3.9-3.1-5.8c-0.6,0-1.2,0-1.8,0
		c-0.9,2.8-2.4,5.6-2.5,8.4c-0.3,9.1-0.1,18.3-0.1,27.5c0,3.1,0,6.2,0,9.4C879.5,499.4,881.5,499.4,884.3,499.4z M1172.4,470.2
		c4.9,5,10.7,5.7,15.1,2.1c4.3-3.5,5.2-9.7,2.1-14.3c-3-4.5-9-6-13.6-3.5c-5.1,2.7-6.8,7.7-4.6,13.2c3.3-1.5,6.6-3.1,9.9-4.7
		c0.2,0.4,0.4,0.8,0.6,1.2C1178.8,466.2,1175.8,468.1,1172.4,470.2z M1491.8,465.3c0.3,8.4,7.1,14.4,15.3,14.2
		c7.9-0.2,14.3-6.5,14.2-14.2C1511.5,465.3,1501.8,465.3,1491.8,465.3z M869.2,464.4c-10.2,0-20,0-29.9,0c0.7,8.2,6.8,14,14.8,14.1
		C861.8,478.6,868.2,473,869.2,464.4z M917.9,172.6c8.1,8.6,31.7,12.4,46.1,7.5c-4-2.8-7.3-6.9-10.8-7.2
		C941.8,172.1,930.2,172.6,917.9,172.6z M1850,276c7.7,12.9,15.7,26.2,23.7,39.6c0-6.8,1.1-13.8-0.4-20.2c-1.2-4.9-4.9-10-8.9-13.2
		C1860.2,278.9,1854.3,277.7,1850,276z M322.7,199.7c-6.8-6.7-13.5-12.4-19.2-19c-4.5-5.2-9.4-4.7-15.8-4c5.5,6,10.9,10.9,15.1,16.8
		C307.7,200.3,313.7,201.9,322.7,199.7z M1875.8,315.9c7.9-13.1,15.8-26,23.4-38.6c-4.4,1.6-9.6,3.4-14.9,5.4
		c-0.7,0.3-1.6,1.1-1.6,1.7c-0.3,4.1-2.3,6.8-6,8.4c-0.6,0.3-0.9,1.7-0.9,2.6C1875.8,302.3,1875.8,309.2,1875.8,315.9z M246.9,199.9
		c8.5,1.8,14.9,1,19.5-6.3c1.9-3,4.9-5.4,7.3-8.1c2.5-2.7,4.9-5.5,7.4-8.3c-0.2-0.4-0.4-0.8-0.7-1.3c-3.6,0.5-8.4-0.4-10.7,1.6
		C261.8,184.3,254.8,192,246.9,199.9z M889.6,151.1c-0.2-5.1-4.4-9-9.5-8.8c-5,0.2-8.6,4.1-8.5,9.2c0.1,5.1,4.3,9.1,9.4,8.8
		C885.7,160.1,889.7,155.8,889.6,151.1z M1423.3,489.5c-1.2,3.5-0.2,4.7,3,4.7c14.6-0.1,29.2,0,43.9-0.1c1.2,0,2.3-1.5,3.4-2.3
		c-1.2-0.7-2.4-2.1-3.6-2.1c-9.6-0.2-19.3-0.1-28.9-0.1C1435.1,489.5,1429.1,489.5,1423.3,489.5z M1423.4,469.4
		c-1.4,3.7-0.1,4.7,3,4.7c14.4,0,28.9,0.1,43.3-0.1c1.3,0,2.6-1.6,3.9-2.4c-1.4-0.7-2.7-2.1-4.1-2.1c-9.5-0.2-18.9-0.1-28.4-0.1
		C1435.1,469.4,1429.1,469.4,1423.4,469.4z M1422.2,485.7c0.4,0.6,0.8,1.2,1.3,1.8c15.8,0,31.5,0,47.3-0.1c1,0,1.9-1.6,2.8-2.4
		c-1.1-0.7-2.1-2.1-3.2-2.1c-14.8-0.1-29.6-0.2-44.4,0C1424.7,482.9,1423.4,484.7,1422.2,485.7z M1423.4,462.8
		c-1.4,3.6-0.4,4.8,2.8,4.7c14.6-0.1,29.2,0,43.8-0.2c1.2,0,2.3-1.5,3.5-2.3c-1.2-0.8-2.4-2.2-3.6-2.2c-11.3-0.2-22.6-0.1-33.9-0.1
		C1431.8,462.8,1427.5,462.8,1423.4,462.8z M206.8,235.2c-13.8,5.9-15.5,8.7-13.5,21.1c4.5,0,8.9,0,13.5,0
		C206.8,249.2,206.8,242.4,206.8,235.2z M738.6,317.7c5,3.7,9.4,3.6,12.9,0.1c3.3-3.4,3.5-8.7,0.5-12.3c-3-3.6-8.4-4.3-12.2-1.6
		c-3.8,2.7-4.7,7-2.5,11.2c2.1-1.6,4.1-3.2,6.2-4.8c0.3,0.3,0.6,0.7,0.9,1C742.6,313.4,740.8,315.4,738.6,317.7z M747.6,274
		c3.8,5.4,7.9,6.7,12.3,4.5c4.3-2.2,6.2-7,4.5-11.4c-1.7-4.4-6.2-6.7-10.9-5.6c-4.4,1.1-6.7,4.8-6.1,9.6c2.8-1,5.6-2.1,8.4-3.1
		c0.2,0.4,0.4,0.8,0.6,1.3C753.4,270.7,750.6,272.3,747.6,274z M283.3,178.3c-7.1,7.7-13.3,14.5-20.1,21.9c7.5,0,13.7,0,20.1,0
		C283.3,193,283.3,186.3,283.3,178.3z M286,200.1c6.8,0,13,0,20.2,0c-7-7.6-13.3-14.3-20.2-21.9C286,186.4,286,193.2,286,200.1z
		 M50,483.4c-4.5,0.1-8.2,4-8.1,8.4c0.1,4.6,3.8,8,8.5,7.9c4.6,0,8.3-3.8,8.1-8.3C58.4,487,54.5,483.3,50,483.4z M904.7,499.8
		c4.8,0.1,8.3-3.2,8.4-7.9c0.1-4.5-3.5-8.3-8-8.5c-4.5-0.1-8.3,3.5-8.4,8.1C896.6,496.1,900.1,499.7,904.7,499.8z M1448.3,480.7
		c7.3,0,14.6,0.1,22-0.1c1.1,0,2.2-1.5,3.3-2.3c-1.1-0.7-2.2-1.9-3.3-1.9c-14.6-0.1-29.3-0.1-43.9,0c-1.2,0-2.4,1.4-3.5,2.1
		c1.2,0.8,2.3,2.1,3.5,2.2C1433.6,480.8,1440.9,480.7,1448.3,480.7z M1422.3,459c0.4,0.5,0.8,0.9,1.2,1.4c16.6,0,33.1,0,49.7,0
		c0.3-0.5,0.5-1,0.8-1.4c-1.2-0.8-2.4-2.3-3.6-2.4c-14.8-0.2-29.6-0.2-44.4,0C1424.7,456.6,1423.5,458.2,1422.3,459z M1828.8,485.4
		C1828.8,485.4,1828.8,485.4,1828.8,485.4c6.3,0,12.6,0.1,18.9,0c1,0,2.1-1,3.1-1.5c-1-0.7-2-2.1-3.1-2.1c-12.6-0.1-25.2-0.1-37.8,0
		c-1,0-2.1,1.3-3.1,2c1,0.5,2.1,1.5,3.1,1.5C1816.2,485.4,1822.5,485.4,1828.8,485.4z M1072.6,485.4c6.3,0,12.6,0.1,18.9-0.1
		c1.1,0,2.1-1.3,3.2-2c-1-0.6-2-1.6-3-1.6c-12.6-0.1-25.2-0.1-37.8,0c-1.1,0-2.1,1.3-3.2,2c1.2,0.6,2.3,1.6,3.5,1.6
		C1060.4,485.4,1066.5,485.4,1072.6,485.4z M472.1,481.5c-6.3,0-12.6-0.1-18.9,0.1c-1,0-2.1,1-3.1,1.5c0.9,0.7,1.8,1.9,2.8,1.9
		c12.8,0.1,25.6,0.1,38.4,0c0.9,0,1.9-1.2,2.8-1.9c-1-0.5-2-1.5-3-1.6C484.7,481.4,478.4,481.5,472.1,481.5z M179.6,268.1
		c-0.6-0.3-1.2-0.6-1.7-0.8c-1.1,2-3,4-3.1,6c-0.4,7.8-0.2,15.7,0,23.5c0,1.1,1.3,2.2,2,3.3c1-1,2.7-2,2.8-3.1
		C179.6,287.3,179.6,277.7,179.6,268.1z M881.8,194c5.4-6.2,10.9-12.4,16.3-18.5c-5,0-10.5,0-16.3,0
		C881.8,182.1,881.8,188.3,881.8,194z M1448.3,499.8C1448.3,499.8,1448.3,499.8,1448.3,499.8c7.3,0,14.7,0.1,22,0
		c1.1,0,2.1-1,3.2-1.5c-1.1-0.7-2.2-1.9-3.3-1.9c-14.7-0.1-29.3-0.1-44,0c-1.1,0-2.3,1.1-3.4,1.8c1.2,0.6,2.3,1.6,3.5,1.7
		C1433.6,499.8,1441,499.8,1448.3,499.8z M1264.8,258.6c4.5-2.3,6.1-5.3,5.8-9.6c-0.3-4-0.2-8-0.1-11.9c0.2-4.1-2.2-6-5.7-7.7
		C1264.8,239.3,1264.8,248.7,1264.8,258.6z M631.6,475.6c-3.8-3.1-7.4-6.1-11.6-9.6c0,6.5,0,12.2,0,17.7
		C628,484.8,628,484.8,631.6,475.6z M1904,499.4c3.6,0.1,6.7-2.8,6.9-6.4c0.2-3.7-2.6-6.9-6.1-7.1c-4-0.2-7.1,2.7-7.2,6.6
		C1897.6,496.1,1900.5,499.3,1904,499.4z M185.2,261.9c-0.4-0.1-0.8-0.2-1.1-0.4c-0.8,1.2-2.3,2.5-2.3,3.7
		c-0.2,10.8-0.2,21.6-0.1,32.4c0,0.7,1,1.4,1.5,2.1c0.7-0.7,1.9-1.5,2-2.2C185.3,285.7,185.2,273.8,185.2,261.9z M883,451.5
		c0-7.8,0.1-15.6-0.1-23.4c0-1.7-1.2-3.3-1.8-4.9c-0.7,0.1-1.4,0.2-2.1,0.3c-2.4,9.2-0.4,18.6-1.2,28
		C879.6,451.5,881,451.5,883,451.5z M833.1,387.7c0,6,0,10.7,0,15.5c5.4,0,10.4,0,16.6,0C843.9,397.8,838.9,393.1,833.1,387.7z
		 M1829.1,495C1829.1,495,1829.1,495,1829.1,495c6.1,0,12.3,0.1,18.4-0.1c1.1,0,2.3-1.2,3.4-1.8c-1.1-0.6-2.2-1.7-3.3-1.7
		c-12.4-0.1-24.9-0.1-37.3,0c-1.1,0-2.3,1.1-3.4,1.7c1.1,0.6,2.2,1.8,3.4,1.8C1816.5,495.1,1822.8,495,1829.1,495z M1072.7,491.3
		c-6.2,0-12.3-0.1-18.5,0.1c-1.2,0-2.4,1.1-3.5,1.6c1.1,0.6,2.3,1.8,3.4,1.8c12.5,0.1,25,0.1,37.5,0c1.1,0,2.1-1.3,3.2-1.9
		c-1-0.5-2-1.5-3.1-1.5C1085.3,491.2,1079,491.3,1072.7,491.3z M1879.2,499.6c-1.5-6.6,2.9-13.8-4.6-18.6c-6.9,5.4-2.9,12.3-4,18.6
		C1873.7,499.6,1876,499.6,1879.2,499.6z M472.3,494.7c6.1,0,12.3,0.1,18.4-0.1c1.1,0,2.2-1.2,3.3-1.8c-1-0.6-2-1.6-3-1.6
		c-12.6-0.1-25.2-0.1-37.8,0c-1,0-2.1,1-3.1,1.6c1.1,0.6,2.2,1.8,3.3,1.8C459.7,494.8,466,494.7,472.3,494.7z M450.2,497.6
		c0,0.8,0.1,1.5,0.1,2.3c14.5,0,29.1,0.1,43.6-0.1c0-0.7,0-1.4,0-2.2C479.4,497.6,464.8,497.6,450.2,497.6z M1153.7,455.5
		c1.2-4.2,0.1-7-3.3-8.6c-3.2-1.5-6.3-0.6-8.3,2.4c-2.1,3-1.7,6.1,0.9,8.6c2.7,2.5,5.8,2.5,9,0.1c-1.5-1.9-2.8-3.5-4.1-5
		c0.3-0.3,0.5-0.6,0.8-0.9C1150.2,453,1151.7,454.1,1153.7,455.5z M659.6,483.6c-0.1-7.2-5.3-12.2-12.4-12.1
		C644.5,480.8,651.3,486.6,659.6,483.6z M582.5,499.3c7.7-0.6,12.4-5.5,12.4-12.5C583.7,485.2,581,487.9,582.5,499.3z M567.1,483.8
		c10.2,2.7,15.2-4.4,12.3-12.6C572.1,471.9,567.7,476.3,567.1,483.8z M647.2,499.4c7.7-0.7,12.5-5.7,12.3-12.6
		C650.9,484.3,644.7,489.4,647.2,499.4z M644.4,499.3c1.1-11.2-2.6-14.8-12.6-12.2C632.3,494.2,637,498.8,644.4,499.3z M579.5,499.4
		c2.7-10-3.6-15.2-12.4-12.6C567.4,493.9,571.7,498.3,579.5,499.4z M1166.5,298.7c0.6-0.5,1.2-1,1.7-1.5c-11-14.3-21.9-28.7-32.9-43
		c-0.5,0.4-1.1,0.8-1.6,1.2C1144.7,269.8,1155.6,284.2,1166.5,298.7z M851.6,406c-6.5,0-12.5,0-18.6,0c0,2,0,3.6,0,5.3
		c6.3,0,12.4,0,18.6,0C851.6,409.5,851.6,408,851.6,406z M223.7,231.2c0-6.3,0-12.2,0-18.1c-0.4-0.4-0.8-0.8-1.2-1.1
		c-1.5,1.1-4.1,2-4.2,3.2c-0.5,5.2-0.2,10.5-0.2,16C220.2,231.2,221.7,231.2,223.7,231.2z M1871.5,479c2.4,0,4.4,0,6.8,0
		c-1.7-5.6,2.8-12.4-3.7-17.5C1869.1,467.1,1872.5,473.5,1871.5,479z M1850.4,488.8c0-0.3,0-0.6,0-0.8c-14.4,0-28.7,0-43.1,0
		c0,0.3,0,0.6,0,0.8C1821.7,488.8,1836.1,488.8,1850.4,488.8z M1094.4,499.1c-5-2.9-40.7-2.4-43.8,0
		C1065.5,499.1,1079.9,499.1,1094.4,499.1z M1807,497.7c0,0.5,0,0.9,0,1.4c14.6,0,29.1,0,43.7,0c0-0.5,0-0.9,0-1.4
		C1836.1,497.7,1821.6,497.7,1807,497.7z M1051.1,487.7c0,0.3,0,0.6,0.1,1c14.3,0,28.7,0,43,0c0-0.3,0-0.6,0-1
		C1079.8,487.7,1065.5,487.7,1051.1,487.7z M450.9,487.5c0,0.3,0,0.6,0,0.9c14.2,0,28.4,0,42.6,0c0-0.3,0-0.6,0-0.9
		C479.3,487.5,465.1,487.5,450.9,487.5z M589.7,472.7c-0.9,0.2-1.7,0.4-2.6,0.6c-0.5,3.2-2.4,7.3-1.1,9.2c1.2,1.9,5.8,1.5,8.9,2.1
		c0.4-0.6,0.8-1.2,1.1-1.9C594,479.4,591.8,476,589.7,472.7z M1895,463.2c-2.3-6.8-7.1-9.9-13.4-11.9
		C1884,459.4,1888.2,463.2,1895,463.2z M1913.9,463c6.2,0.4,10.8-3.6,13.3-11.9C1920.8,453.5,1915.8,456.3,1913.9,463z
		 M1894.9,441.6c-2-6.6-6.8-9.6-13-11.7C1883.4,437.3,1888.3,441.7,1894.9,441.6z M1927,430.1c-7.6,2.1-11.3,5.4-12.8,11.4
		C1920.2,441.7,1924.5,438,1927,430.1z M1895,420.1c-2.5-6.7-7-10-13.5-11.7C1883.9,416.1,1888.3,420.1,1895,420.1z M1913.8,420.2
		c6.8-0.2,11.6-4.6,13-11.7C1920.6,410.4,1916,413.5,1913.8,420.2z M1904.4,393.9c-4.2,7.8-3.9,13.7,0.6,18
		C1908.6,405.9,1907.5,400.3,1904.4,393.9z M645.4,471.8c-0.6-0.4-1.1-0.9-1.7-1.3c-2.8,1.4-5.7,2.9-8.5,4.3c0,0.6,0,1.2,0,1.8
		c2.7,1.4,5.4,2.8,8.1,4.2C644,477.7,644.7,474.7,645.4,471.8z M1925.9,494.2c-3-2.1-4.9-4.3-6.4-4.1c-1.7,0.3-3,2.8-4.4,4.4
		c1.5,1.4,3,3.8,4.7,4C1921.3,498.5,1923,496.3,1925.9,494.2z M856.4,487C856.4,487,856.5,487,856.4,487c0-1.2,0.3-2.4,0-3.4
		c-0.4-1.1-1.4-2-2.2-3c-0.8,1-2,1.9-2.2,3c-0.3,2.3-0.2,4.6,0,6.9c0.1,0.8,1.2,1.5,1.9,2.3c0.8-0.8,2-1.4,2.4-2.3
		C856.7,489.4,856.4,488.2,856.4,487z M1119.8,242c-7.9-3.9-15.8-7.7-24.5-12C1097,234.2,1108.8,239.9,1119.8,242z M1943,264.3
		c-0.3-0.7-0.6-1.3-0.9-2c-5.8,0.4-10.7,2.8-14.6,7c0.4,0.7,0.7,1.4,1.1,2.1C1933.4,269.1,1938.2,266.7,1943,264.3z M1047.9,479.4
		c1.3-7.7,0.6-8.4-5.9-6.8c0,2.2,0,4.4,0,6.8C1044.1,479.4,1045.9,479.4,1047.9,479.4z M1829.3,271.8c0.2-0.6,0.5-1.1,0.7-1.7
		c-3.9-5.1-10.3-7.7-15.8-5.4C1819.9,267.4,1824.6,269.6,1829.3,271.8z M1070.4,219.3c8.5,7,20.5,12.1,23.9,10.3
		C1086,225.9,1078.2,222.6,1070.4,219.3z M441.4,471.9c-0.9,7.9-0.1,8.6,6.5,6.5c-0.1-2.1-0.2-4.4-0.3-6.5
		C445.2,471.9,443.5,471.9,441.4,471.9z M1853.3,472.5c0,2.3,0,4.4,0,6.7c2.3,0,4.3,0,6.3,0C1860.2,471.4,1859.9,471.1,1853.3,472.5
		z M1804.5,479.3c0.1-1.6,0.2-2.6,0.2-3.6c0-1.1-0.2-2.2-0.3-3.2c-6.8-1.3-7.4-0.6-6,6.8C1800.3,479.3,1802.2,479.3,1804.5,479.3z
		 M1103.2,479.3c0.8-7.9,0.1-8.6-6-6.7c0,2.2,0,4.4,0,6.7C1099.5,479.3,1101.2,479.3,1103.2,479.3z M1508.8,493.2
		c0-3.3,0.1-6.5-0.1-9.6c-0.1-0.8-1.3-1.9-2.1-2c-0.7,0-2,1.1-2.1,1.9c-0.3,2.3,0,4.6-0.2,7C1504.1,493.6,1505.5,494.3,1508.8,493.2
		z M496.8,472c0,2.6,0,4.9,0,7.2c2.2,0,4,0,5.8,0c0-2.5,0-4.8,0-7.2C500.6,472,498.8,472,496.8,472z M846.7,499.3
		c5.2,0,9.8,0,14.9,0C856.5,493.7,852.2,493.7,846.7,499.3z M689.9,308.8c-0.5,0-0.9,0-1.4,0.1c-2.9,5.1-2.7,8.6,2,11.9
		C690.3,316.8,690.1,312.8,689.9,308.8z M679.2,329.2c0.7-0.8,1.4-1.5,2.1-2.3c-3.1-2.6-6.2-5.3-9.4-7.9c-0.6,0.6-1.1,1.3-1.7,1.9
		C673.2,323.6,676.2,326.4,679.2,329.2z M696.1,344c0.4,0.4,0.8,0.8,1.2,1.3c5.2-0.8,7.8-3.4,8.8-10
		C702.2,338.7,699.1,341.4,696.1,344z M639.8,483.9c0.2-0.3,0.4-0.7,0.5-1c-2.2-1.8-4.4-3.6-7.2-5.9c-0.7,2.7-1.2,4.6-1.8,6.9
		C634.7,483.9,637.2,483.9,639.8,483.9z M680,345.5c0.4-0.5,0.8-0.9,1.2-1.4c-3.1-2.6-6.2-5.2-9.3-7.8c-0.4,0.4-0.8,0.9-1.1,1.3
		C672.9,341.3,674.9,345.3,680,345.5z M696.2,361.1c0.4,0.5,0.9,1.1,1.3,1.6c4.9-0.5,7.1-4,8.9-8c-0.4-0.4-0.7-0.9-1.1-1.3
		C702.2,356,699.2,358.6,696.2,361.1z M1130.1,270.3c-0.9,0-1.7,0-2.6,0c-0.2,3.1-0.4,6.2-0.4,9.3c0,0.4,1.3,1.1,1.9,1
		c0.6,0,1.6-0.9,1.6-1.3C1130.5,276.3,1130.2,273.3,1130.1,270.3z M672,353.3c-0.4,0.5-0.8,0.9-1.2,1.4c2,3.9,4.1,7.8,9.2,7.9
		c0.4-0.5,0.8-1,1.2-1.4C678.1,358.6,675.1,356,672,353.3z M707.1,320.7c-0.7-0.7-1.3-1.3-2-2c-3,2.8-5.9,5.5-8.9,8.3
		c0.7,0.7,1.3,1.4,2,2.1C701.2,326.3,704.2,323.5,707.1,320.7z M1513.5,499.5c-6-4.8-9.8-4.6-12.9,0
		C1504.7,499.5,1508.5,499.5,1513.5,499.5z M1129.3,251.6c-0.6,0-1.1,0-1.7,0c0.8,5.3-1.4,10.9,1.7,16.1
		C1129.3,262.4,1129.3,257,1129.3,251.6z M215.5,216.6c-2.4,3.2-2.6,10.9,0,15.3C215.5,226.3,215.5,221.5,215.5,216.6z"/>
	<path class="st0" d="M473.3,584c229.1,0,458.2,0,687.2,0c0,0.3,0,0.7,0,1c-229.1,0-458.2,0-687.3,0
		C473.2,584.7,473.3,584.3,473.3,584z"/>
	<path class="st0" d="M1848.3,157.5c4.7,1.9,8.4,3.5,12,5c0.5,0.5,0.9,1,1.4,1.5c4.8-5.7,9.5-11.3,14.3-17c0.6,0.5,1.1,1.1,1.7,1.6
		c-5.1,5.3-10.3,10.7-15.2,15.8c1.4,3.4,2.4,6.5,3.9,9.4c0.6,1.1,2.2,2.3,3.5,2.4c4.8,0.3,9.7,0.1,14.5,0.1c1.5,0,3,0.1,4.6,0.2
		c0,0.5,0,1,0,1.5c-7.3,0-14.6,0-21.3,0c-1.9,4.5-3.4,8.1-5.4,13c4.9,4.5,10.4,9.4,15.9,14.4c-0.6,0.6-1.1,1.2-1.7,1.8
		c-5.3-5.1-10.5-10.1-16.3-15.7c-2.9,4.4-9.9,2.4-13.2,8.1c4.1,0.7,7,0.9,9.6,1.8c8.1,2.6,13.1,10.9,12.1,19.1
		c-0.5,3.7-1.9,5.4-6.1,5.3c-20.3-0.2-40.7-0.1-61-0.1c-7.7,0-15.4,0.6-22.9-0.4c-5.9-0.8-11.5-3.8-17.3-5.7
		c-1.5-0.5-3.1-1.3-4.5-1.2c-10.5,0.8-17-2.1-20.7-9.4c-3.7-7.5-2.1-14.7,5.3-22.9c-0.6-1.1-1.4-2.4-2-3.7
		c-4.1-8.4-1.2-18.4,6.6-23.2c7.7-4.8,17.6-3.1,23.4,4c3.7,4.5,8.1,3.8,10.5-1.7c3.8-8.6,12.7-12.9,21.3-10.3
		c8.9,2.6,14.4,10.9,12.8,19.9c-0.5,3,0.1,4.6,2.6,6c1.7,1,3,2.6,4.7,4.3c2.2-0.7,4.7-1.4,6.4-2c1.7-5.2,3.2-9.9,5.2-16.4
		c-1.8-1.6-4.9-3.9-7.6-6.5c-2.7-2.5-5.1-5.3-6.8-8.8c4.8,5.4,9.7,10.9,14.5,16.3c0.6-0.5,1.1-1.1,1.7-1.6c3.8-1.6,7.6-3.1,11.9-4.9
		c0-6.9,0-14.1,0-21.4c0.5,0,1-0.1,1.5-0.1C1848.3,143.5,1848.3,150.8,1848.3,157.5z M1744.7,186.5c-0.3,0.4-0.4,0.5-0.5,0.7
		c-7.6,6.3-9.7,13.2-6.2,20.5c3.3,7,9.7,9.6,19.3,8.1c1.1-0.2,2.7,0.1,3.6,0.8c7.6,6.2,16.6,7.1,25.9,7.1c24.5-0.1,49-0.1,73.4-0.1
		c1.8,0,3.6,0,5.1,0c2.1-5.4,1.2-9.8-1.5-13.9c-4.3-6.7-11-7.8-18.3-6.9c2.4-15.6-10-25.9-24.5-18.8c-3.4-2.8-6.6-5.5-10-8.3
		c0-0.2-0.1-0.8,0-1.2c2.7-9.7-0.9-18-9.2-20.8c-8.9-3.1-16.8,1.2-20.7,11.1c-0.4,1-1.4,2.2-2.4,2.6c-2.5,0.9-5.1,1.3-7.6,1.9
		c-8.2-11.1-16.7-13.7-25-7.6C1738.4,167.4,1737.8,176.4,1744.7,186.5z M1847.9,193.7c9.7-0.4,16.5-7.1,16.6-16.1
		c0.1-8.8-6.8-16.2-15.7-16.9c-8.6-0.6-16.8,6.2-17.4,15c-0.1,1.3,1.1,3.6,2.2,3.9C1840.9,181.6,1845.5,186.3,1847.9,193.7z"/>
	<path class="st0" d="M1509.2,369.5c-1.1-5.1-1.8-10.5-3.5-15.4c-2.7-7.7-0.9-14.2,3-20.9c5.3,4.7,6.9,14.5,4.4,20.8
		c-1.8,4.7-2.5,9.9-3.7,14.9c0.8,0.3,1.6,0.7,2.4,1c1.7-2.7,3.9-5.3,5.1-8.2c2.8-7.1,11.2-13,18.5-12.5c-1.4,8.6-7.3,15.2-15.2,16.8
		c-6,1.2-8.2,6.2-9.2,11.2c-0.9,4.4-0.2,9.2,0.9,14.3c1.7-2.8,3.8-5.4,5.1-8.4c2.9-6.9,10.4-12.3,18.2-12.5
		c-0.7,7.4-6.5,15.5-12.9,16.4c-7,0.9-9.8,5.6-11.1,11.1c-1.1,4.6-0.2,9.7,0.8,15.1c1.8-3,3.9-5.9,5.3-9.1c2.8-6.5,10.3-11.7,18-12
		c-0.7,7.6-6.8,15.7-13.4,16.5c-7,0.9-9.8,6-10.7,11.4c-1.1,6.9-0.3,14.1-0.3,21.3c3.7-1.9,7.3-3.7,10.8-5.5
		c0.4,0.6,0.8,1.1,1.3,1.7c-9.5,3.1-14.6,9.8-16.2,19.9c-7.4-13.3-7.4-13.3-16.7-20.2c5.4-0.8,8.7,1.7,17.3,12.4
		c0.4-2.9,1-5.8,1.1-8.7c0.2-5.5,0.7-11.1-0.3-16.5c-0.8-4.5-3.2-8.8-5.2-13.1c-0.5-1.1-2.3-2-3.7-2.2c-9.9-1.4-13.3-8.8-16.4-16.9
		c7-0.7,15.5,4.8,18.5,11.4c1.5,3.3,3.6,6.4,6.2,9.4c0.4-6.8,2.2-13.5-1.8-19.7c-2.1-3.2-4.4-5.5-8.8-6.4
		c-8.3-1.7-11.4-8.8-14.1-16.1c7.1-0.9,15.8,4.9,18.7,11.7c1.4,3.2,3.5,6.1,5.2,9.2c0.6-0.2,1.2-0.3,1.8-0.5
		c-0.4-5.3-0.1-10.8-1.4-15.9c-1.3-4.9-4.3-8.7-10.4-9.9c-8.3-1.7-11.3-8.9-14-16.2c7.7-0.4,15.9,5.3,18.8,12.1c1.4,3.2,3.6,6,5.4,9
		C1507.8,370,1508.5,369.8,1509.2,369.5z M1509.2,337.7c-3.9,6.7-3.7,12.5,0.3,17.2C1513.5,349.9,1513.4,343.6,1509.2,337.7z
		 M1532.2,394.5c-6.6,2.1-11.2,5.3-13.3,11.6C1525,406.8,1529.6,402.8,1532.2,394.5z M1518.9,385.1c7.1-0.7,12.1-5.5,12.7-11.8
		C1525.6,375.2,1520.8,378.2,1518.9,385.1z M1486.5,351.7c2.8,8.3,7.4,12.2,13.1,11.4C1497.7,357,1494.6,354.2,1486.5,351.7z
		 M1486.8,394.6c1.7,7.5,6.6,11.8,13.2,11.6C1497.7,399.7,1493.1,396.5,1486.8,394.6z M1531.9,352c-7.1,1.6-11,5-12.6,11.1
		C1525.1,363.6,1530,359.3,1531.9,352z M1486.5,372.9c2.7,8.5,7.4,12.5,13.3,11.7C1497.8,378.3,1493.1,375.3,1486.5,372.9z"/>
	<path class="st0" d="M1969.5,585.3c-132.7,0-265.4,0-398.3,0C1573.8,583.3,1963,582.6,1969.5,585.3z"/>
	<path class="st0" d="M408.5,585.2c-128.1,0-256.3,0-384.4,0c0-0.3,0-0.7,0-1c128.1,0,256.2,0,384.3,0
		C408.5,584.5,408.5,584.8,408.5,585.2z"/>
	<path class="st0" d="M1296.6,527c-93.7,0-187.5,0-281.2,0c0-0.3,0-0.6,0-0.8c93.7,0,187.5,0,281.2,0
		C1296.6,526.5,1296.6,526.7,1296.6,527z"/>
	<path class="st0" d="M1969.4,554.3c-93.1,0-186.1,0-279.2,0c0-0.3,0-0.7,0-1c93.1,0,186.1,0,279.2,0
		C1969.4,553.6,1969.4,553.9,1969.4,554.3z"/>
	<path class="st0" d="M1262.2,584c78,0,156.1,0,234.1,0c0,0.3,0,0.7,0,1c-78,0-156.1,0-234.1,0
		C1262.2,584.7,1262.2,584.3,1262.2,584z"/>
	<path class="st0" d="M364.3,554.3c-68,0-136,0-204.1,0c0-0.3,0-0.7,0-1c68,0,136,0,204,0C364.2,553.6,364.3,554,364.3,554.3z"/>
	<path class="st0" d="M919.2,553c67.8,0,135.5,0,203.3,0c0,0.3,0,0.6,0,0.9c-67.8,0-135.5,0-203.3,0
		C919.2,553.7,919.2,553.4,919.2,553z"/>
	<path class="st0" d="M1412.2,553c66.8,0,133.5,0,200.3,0c0,0.3,0,0.7,0,1c-66.8,0-133.6,0-200.3,0
		C1412.2,553.7,1412.2,553.4,1412.2,553z"/>
	<path class="st0" d="M1116.4,165.3c-2.3,3.3-3.9,5.8-5.6,8.2c-3.5,5.2-5.6,5.1-9.2-0.1c-1.3-1.9-2.6-3.9-3.9-5.8
		c-0.3-0.4-0.7-0.6-1.8-1.6c-2,2.8-3.9,5.6-5.9,8.3c-2.9,3.9-4.9,4-7.8,0.2c-2-2.6-3.8-5.4-6.3-9.1c-2.3,3.2-4.2,5.8-6,8.4
		c-3.3,4.7-6.6,4.6-9.5-0.4c-0.9-1.6-1.4-3.4-2.3-4.9c-0.8-1.3-2.1-2.3-3.2-3.5c0.3-0.4,0.6-0.7,0.9-1.1c1.4,1,3,1.8,4,3.1
		c1.1,1.4,1.5,3.3,2.4,4.9c2.1,3.8,3.6,3.9,6.1,0.5c1-1.4,1.7-2.8,2.7-4.2c3.7-5.3,6.1-5.2,9.7,0c1.6,2.4,3.3,4.7,5.4,7.8
		c2.2-3.3,3.8-5.6,5.4-7.9c3.7-5.3,5.9-5.3,9.6,0.2c1.5,2.3,3.1,4.5,5.2,7.6c2.5-3.5,4.3-6.3,6.2-8.9c2.8-3.7,5-3.7,7.9-0.1
		c1,1.3,1.8,2.8,2.8,4.2c0.9,1.3,2,2.6,3.6,4.6c2.2-3.2,4-6,5.9-8.6c3-4,5.3-4,8.2,0c1.8,2.5,3.5,5.2,5.9,8.9
		c2.2-3.2,3.8-5.6,5.5-7.9c3.5-5.1,5.9-5.2,9.4-0.2c2,2.9,4.1,5.8,6.7,9.6c-6.6-1.7-7-8.5-11.8-11.5c-1.9,2.8-3.7,5.6-5.6,8.2
		c-3,4-5.1,4-8.1-0.1c-1.9-2.5-3.5-5.2-5.9-8.6c-1.9,2.6-3.5,4.6-4.9,6.7c-4.3,6.6-6.4,6.7-10.6,0.3
		C1119.9,170.5,1118.5,168.5,1116.4,165.3z"/>
	<path class="st0" d="M603.5,527c-58.5,0-117.1,0-175.6,0c0-0.3,0-0.5,0-0.8c58.5,0,117.1,0,175.6,0
		C603.5,526.5,603.5,526.7,603.5,527z"/>
	<path class="st0" d="M1569,208.3c-1.1,2.5-2,5.1-3.3,7.5c-0.8,1.3-2.3,3.2-3.4,3.1c-1.4-0.1-3.1-1.7-4-3c-1.4-2.3-2.2-5-3.9-8.9
		c-1.4,3-2.1,4.8-3.1,6.3c-1.4,2.1-3.1,3.9-4.7,5.9c-1.6-1.9-3.4-3.7-4.8-5.8c-1.1-1.5-1.7-3.4-3.1-6.5c-1.6,3.6-2.3,5.9-3.5,7.9
		c-1.1,1.7-2.8,2.9-4.2,4.4c-1.4-1.5-3.1-2.8-4.1-4.5c-1.2-1.9-1.8-4.1-3.4-7.6c-1.6,3.2-2.3,5.3-3.5,7.1c-1.2,1.8-2.8,3.4-4.2,5
		c-1.6-1.7-3.4-3.3-4.7-5.2c-1.4-2.1-2.3-4.6-2.8-7.7c1.3,1.4,2.7,2.7,3.7,4.3c1.2,1.9,1.9,4.1,3.2,7.1c1.2-1.7,2-2.7,2.6-3.7
		c1.8-2.6,3.6-5.2,5.4-7.8c1.9,2.7,3.8,5.3,5.7,8c0.6,0.9,1.3,1.8,2.5,3.3c1.2-2.5,1.9-4.6,3-6.3c1.2-1.8,2.8-3.3,4.2-5
		c1.6,1.7,3.4,3.3,4.7,5.1c1.1,1.6,1.6,3.5,3,6.8c1.6-3.1,2.4-5.2,3.5-6.9c1.2-1.8,2.8-3.4,4.2-5c1.6,1.7,3.3,3.3,4.7,5.1
		c1.2,1.7,1.8,3.7,3.4,7c1.7-4,2.5-6.6,3.9-8.9c0.8-1.4,2.5-2.9,4-3c1.1-0.1,2.7,1.7,3.4,3c1.3,2.3,2.2,5,3.3,7.5c0.5,0,1,0,1.4,0
		c1.1-2.5,2-5.1,3.4-7.4c0.8-1.3,2.4-3.1,3.4-3c1.4,0.1,3.1,1.6,3.9,3c1.7,2.9,3,6.1,4.7,9.7c-6.1-1.3-4.5-8.2-8.9-11.2
		c-1.2,2.7-2,5.3-3.4,7.7c-0.8,1.4-2.5,3.3-3.8,3.3c-1.3,0-2.9-1.9-3.7-3.3c-1.3-2.2-2.1-4.8-3.1-7.2
		C1570.1,208.4,1569.6,208.3,1569,208.3z"/>
	<path class="st0" d="M1587.4,527.1c-52.6,0-105.2,0-157.8,0c0-0.3,0-0.7,0-1c52.6,0,105.2,0,157.8,0
		C1587.4,526.4,1587.4,526.7,1587.4,527.1z"/>
	<path class="st0" d="M831.1,138.3c0-2-0.4-4.2,0.1-6.1c2.2-8.9-1.1-17.5-8.8-22.6c-7.5-4.9-17.9-4.9-23.9,2
		c-4.6,5.2-9,7.3-15.8,7.9c-7.7,0.7-11.8,6.8-13.8,14.4c-6.6-1-12.3,0.5-16.7,5.7c-0.6,0.7-2.1,0.6-3.1,0.7c-2,0.4-4,0.7-5.9,1
		c0.7,1.8,1.4,3.6,2.2,5.6c-3,0.6-4.7-1.4-4.4-3.9c0.3-1.9,2.8-5.3,3.9-5.1c4.8,0.8,7.7-1.9,11-4.3c1.2-0.9,2.8-1.8,4.1-1.6
		c6,0.5,8.3-3.2,11-7.6c3.4-5.5,9.3-8,15.8-7.9c2.9,0.1,4.7-0.6,6.6-3.1c6.4-8.8,17.7-11.6,27.2-7.4c9.8,4.4,15,14.8,12.9,25.6
		c-0.4,2.1-0.6,4.2-0.8,6.3C832.1,138.1,831.6,138.2,831.1,138.3z"/>
	<path class="st0" d="M854.1,554.2c-45.7,0-91.3,0-137,0c0-0.3,0-0.6,0-0.9c45.7,0,91.3,0,137,0
		C854.1,553.5,854.1,553.9,854.1,554.2z"/>
	<path class="st0" d="M1178.2,553.1c44.8,0,89.7,0,134.5,0c0,0.3,0,0.7,0,1c-44.8,0-89.7,0-134.5,0
		C1178.1,553.8,1178.2,553.5,1178.2,553.1z"/>
	<path class="st0" d="M824.6,525.9c39.7,0,79.4,0,119,0c0,0.3,0,0.7,0,1c-39.7,0-79.4,0-119,0C824.6,526.6,824.6,526.3,824.6,525.9z
		"/>
	<path class="st0" d="M613.2,554.3c-39,0-78,0-117,0c0-0.3,0-0.7,0-1c39,0,78,0,117,0C613.2,553.6,613.2,553.9,613.2,554.3z"/>
	<path class="st0" d="M1331.1,107.4c2.3,1,4.8,1.7,6.9,3c1.8,1.1,3,3.1,4.6,4.5c4,3.8,8.4,3.7,12.4-0.1c1.3-1.3,2.5-2.7,3.8-4
		c4.5-4.2,10.3-4.3,14.8-0.1c1.3,1.2,2.5,2.7,3.8,4c4.1,4,8.7,4,12.7,0c1.4-1.4,2.6-3,4.2-4.3c4.3-3.7,9.8-3.6,14.1,0
		c3.5,3,7,6,11.5,9.7c-3-1-5.4-1.5-7.4-2.7c-1.7-1-2.8-2.8-4.2-4.2c-4.6-4.6-9.3-4.6-13.8,0c-1.9,1.9-3.7,4-5.9,5.3
		c-4.4,2.6-9.4,1-14.1-4c-6.1-6.4-10.2-6.4-16.2,0c-6.6,7.1-12.2,7-19-0.1c-2.3-2.4-5.4-4-8.2-6
		C1331,108.2,1331.1,107.8,1331.1,107.4z"/>
	<path class="st0" d="M285.5,527c-37.3,0-74.7,0-112,0c0-0.3,0-0.7,0-1c37.3,0,74.7,0,112,0C285.5,526.3,285.5,526.7,285.5,527z"/>
	<path class="st0" d="M1709.9,526c35.2,0,70.5,0,105.7,0c0,0.3,0,0.7,0,1c-35.2,0-70.5,0-105.7,0
		C1709.9,526.6,1709.9,526.3,1709.9,526z"/>
	<path class="st0" d="M391.3,527c-33.3,0-66.6,0-99.8,0c0-0.3,0-0.7,0-1c33.3,0,66.5,0,99.8,0C391.3,526.4,391.3,526.7,391.3,527z"
		/>
	<path class="st0" d="M214.4,194.3c-2.3-13.1-3.3-14-15.3-14c-5.7-10-11.7-10.8-20.3-2.3c-3.8-4.2-8.1-7.6-14.1-4.7
		c-5.5,2.7-6.6,7.7-5.6,13.5c-3.2-4.1-2.6-9.2,1-13c4.9-5,10.9-4.9,18.8,0.4c8.5-6.2,14-5.6,20.5,2.1c0.8,1,2.7,1.4,4.1,1.5
		c8,0.4,13.6,6.8,12.2,14.3C215.6,192.8,215,193.3,214.4,194.3z"/>
	<path class="st0" d="M383.7,188.7c-2.4-13.5-3.7-14.7-15.3-14.3c-6-10.1-11.5-10.8-20.5-2.4c-3.4-4.2-7.5-7.2-13.3-5
		c-6.2,2.4-6.9,7.7-6.2,13.9c-3.4-3.8-2.9-8.9,0.9-13c4.6-5.1,11.3-4.9,18.8,0.3c8.9-6.3,13.1-5.7,20.8,2.4c0.9,0.9,2.9,1,4.4,1.2
		C382,172.5,387.1,180.1,383.7,188.7z"/>
	<path class="st0" d="M1527.5,183.8c30.1,0,60.2,0,90.2,0c0,0.3,0,0.7,0,1c-30.1,0-60.1,0-90.2,0
		C1527.5,184.5,1527.5,184.2,1527.5,183.8z"/>
	<path class="st0" d="M694.2,177.3c29.1,0,58.3,0,87.4,0c0,0.3,0,0.7,0,1c-29.1,0-58.3,0-87.4,0
		C694.2,177.9,694.2,177.6,694.2,177.3z"/>
	<path class="st0" d="M758.3,526.9c-29.1,0-58.3,0-87.4,0c0-0.3,0-0.7,0-1c29.1,0,58.3,0,87.4,0
		C758.3,526.3,758.3,526.6,758.3,526.9z"/>
	<path class="st0" d="M24.2,553.2c25,0,50,0,74.9,0c0,0.3,0,0.7,0,1c-25,0-50,0-75,0C24.2,553.9,24.2,553.5,24.2,553.2z"/>
	<path class="st0" d="M1899,526c22.8,0,45.6,0,68.4,0c0,0.3,0,0.6,0,0.9c-22.8,0-45.6,0-68.4,0C1899,526.6,1899,526.3,1899,526z"/>
	<path class="st0" d="M155.3,527.1c-21.1,0-42.2,0-63.2,0c0-0.3,0-0.7,0-1c21.1,0,42.2,0,63.2,0
		C155.3,526.4,155.3,526.7,155.3,527.1z"/>
	<path class="st0" d="M832.2,165.9c-19.5,0-39,0-58.5,0c0-0.3,0-0.7,0-1c19.5,0,39.1,0,58.6,0C832.3,165.2,832.2,165.6,832.2,165.9z
		"/>
	<path class="st0" d="M869.7,435.9c-10.9,7-10.2,5.7-15.8,19.9c-2.1-4.2-3.3-8.5-6-11.8c-2.7-3.3-6.8-5.4-10-7.9
		c4.8-1.1,8.1,1.4,16.1,12.5C857.4,442,861.7,436.3,869.7,435.9z"/>
	<path class="st0" d="M301,142.4c12.1,0,24.2,0,36.3,0c0,0.3,0,0.7,0,1c-12.1,0-24.1,0-36.2,0C301.1,143.1,301,142.7,301,142.4z"/>
	<path class="st0" d="M939,258.3c0,12.1,0,24.2,0,36.4c-0.4,0-0.8,0-1.2,0c0-12.1,0-24.3,0-36.4C938.2,258.2,938.6,258.2,939,258.3z
		"/>
	<path class="st0" d="M253.1,142.5c11.8,0,23.6,0,35.4,0c0,0.4,0,0.7,0,1.1c-11.8,0-23.6,0-35.4,0
		C253.1,143.2,253.1,142.8,253.1,142.5z"/>
	<path class="st0" d="M1153.5,272c10.7-12.3,13.9-26,7.8-42.7C1170.6,239,1166.4,264.8,1153.5,272z"/>
	<path class="st0" d="M1706.2,272.2c-6.2-7.6-11.3-3.8-17,2c-0.1-8.3-3.7-12-11.9-10.4c5.2-4.2,9.8-2.4,13.3,3.7
		c4.1-0.4,7.8-1.3,11.5-1c1.7,0.1,3.3,2.4,5,3.7C1706.8,270.9,1706.5,271.5,1706.2,272.2z"/>
	<path class="st0" d="M725.9,65.1c0.3-7.8-3.8-10.8-11.2-10c6-3.2,9-1.9,13.5,5.2c8.5-4.1,12.2-3.6,15.1,2.4c-2.9-1-5.9-3-8.6-2.7
		C732,60.4,729.4,63,725.9,65.1z"/>
	<path class="st0" d="M765.1,203.2c7.7-4.5,12.1-3.8,15.1,2.2c-2.9-1-5.9-2.9-8.7-2.6c-2.8,0.3-5.3,2.9-8.6,4.9
		c-0.1-7.1-3.6-10.9-12.1-9.2C756.6,194.2,760.4,195.8,765.1,203.2z"/>
	<path class="st0" d="M1672.5,136.2c-6.4-6.8-11.5-3.7-17.3,2.7c-0.1-8.5-3.6-12.1-11.5-10.4c4.7-4.6,9.4-2.6,13.6,4.6
		C1665.5,128.9,1669.3,129.5,1672.5,136.2z"/>
	<path class="st0" d="M705.2,124.6c7.9-4.6,12.7-3.8,15.1,2.3c-8.4-3.4-8.4-3.4-17.3,2.1c0-7.4-3.7-10.9-12.4-9.2
		C697,115.6,700.9,117.2,705.2,124.6z"/>
	<path class="st0" d="M1785.8,272.3c6-3.1,9.1-1.7,12.5,4.4c4.1-0.5,7.8-1.4,11.5-1.1c1.8,0.1,3.4,2.4,4.5,4.4
		c-2.9-1-5.9-2.9-8.7-2.6c-2.8,0.3-5.3,2.9-8.6,4.8C1796.8,275.3,1793.4,271.5,1785.8,272.3z"/>
	<path class="st0" d="M1726.9,231.5c8.8-4.3,12.6-3.7,15.3,2.3c-2.9-0.9-5.9-2.9-8.7-2.6c-2.8,0.3-5.3,2.9-8.6,4.9
		c0-7.4-3.7-10.7-11.3-9.8C1719.2,223,1723,224.6,1726.9,231.5z"/>
	<path class="st0" d="M513.4,169.8c8.7-4.4,13-3.7,15.9,4.3c-6.9-7.8-12-5.3-16.8,0.5c-1.4-3.1-2.1-6.3-4-8.1
		c-1.8-1.6-5.1-1.7-7.5-2.5C504.8,160.6,509.9,162.8,513.4,169.8z"/>
	<path class="st0" d="M788.5,135.4c5.6-3.4,9.5-1.7,12.6,4c4.3-0.3,8.3-1,12.1-0.7c1.5,0.1,2.9,2.3,4.1,3.9c-8.5-3-8.5-3-17.5,2.5
		C799.6,138,796.2,134.3,788.5,135.4z"/>
	<path class="st0" d="M665.2,553.1c12,0,24,0,35.9,0c0,0.3,0,0.7,0,1c-12,0-24,0-36,0C665.2,553.8,665.2,553.5,665.2,553.1z"/>
	<path class="st0" d="M939,194.3c0,7.6,0,15.2,0,22.9c-0.4,0-0.8,0-1.1,0c0-7.7,0-15.4,0-23C938.3,194.2,938.7,194.2,939,194.3z"/>
	<path class="st0" d="M916.3,222.5c2.7-9.7,5.4-19.4,8-29c0.7,0.2,1.3,0.4,2,0.5c-2.7,9.7-5.3,19.4-8,29.1
		C917.7,222.9,917,222.7,916.3,222.5z"/>
	<path class="st0" d="M274.5,130.1c10.5,0,21,0,31.5,0c0,0.3,0,0.6,0,0.9c-10.5,0-21,0-31.5,0C274.5,130.7,274.5,130.4,274.5,130.1z
		"/>
	<path class="st0" d="M1483.9,445.7c8.8-2.6,20.1,5.8,20.2,15C1499.8,452.5,1494,446.3,1483.9,445.7z"/>
	<path class="st0" d="M1677.6,159.5c10,0,19.9,0,29.9,0c0,0.3,0,0.7,0,1c-9.9,0-19.9,0-29.8,0
		C1677.6,160.2,1677.6,159.9,1677.6,159.5z"/>
	<path class="st0" d="M980.6,268.5c2.6,8.6,5.3,17.3,7.9,25.9c-0.6,0.2-1.3,0.4-1.9,0.6c-2.7-8.7-5.3-17.3-8-26
		C979.2,268.8,979.9,268.6,980.6,268.5z"/>
	<path class="st0" d="M1527.9,445.6c-9.8,0.9-15.7,6.9-20.1,16.1C1507.2,452.2,1518.6,443.5,1527.9,445.6z"/>
	<path class="st0" d="M1116.9,265.4c-8.1-0.7-15.2-13.8-12.1-22.3C1105.5,252.4,1109,260.1,1116.9,265.4z"/>
	<path class="st0" d="M972.9,251c-2.4-7.7-4.7-15.4-7.1-23.1c0.6-0.2,1.3-0.4,1.9-0.6c2.4,7.7,4.8,15.4,7.3,23.1
		C974.3,250.6,973.6,250.8,972.9,251z"/>
	<path class="st0" d="M269.7,131.2c-8.1,0-16.1,0-24.2,0c0-0.3,0-0.6-0.1-0.9c8.1,0,16.1,0,24.2,0
		C269.6,130.6,269.6,130.9,269.7,131.2z"/>
	<path class="st0" d="M1184.5,161.7c8,0,16,0,24,0c0,0.3,0,0.7,0,1c-8,0-16,0-24,0C1184.5,162.3,1184.5,162,1184.5,161.7z"/>
	<path class="st0" d="M907.3,255c1.9-6.7,3.7-13.4,5.6-20.1c0.7,0.2,1.3,0.4,2,0.5c-1.9,6.7-3.7,13.4-5.6,20.1
		C908.7,255.4,908,255.2,907.3,255z"/>
	<path class="st0" d="M1242.6,148.2c7.9,0,15.9,0,23.8,0c0,0.4,0,0.7,0,1.1c-8,0-15.9,0-23.9,0
		C1242.6,148.9,1242.6,148.5,1242.6,148.2z"/>
	<path class="st0" d="M904.6,272.2c-2,7.5-4.1,15.1-6.1,22.6c-0.6-0.2-1.2-0.3-1.8-0.5c2.1-7.5,4.1-15.1,6.2-22.6
		C903.4,271.9,904,272.1,904.6,272.2z"/>
	<path class="st0" d="M399.3,554.3c-7.7,0-15.4,0-23.2,0c0-0.3,0-0.6,0-0.9c7.7,0,15.4,0,23.2,0C399.3,553.7,399.3,554,399.3,554.3z
		"/>
	<path class="st0" d="M212.3,143.7c-5.3,0-10.5,0-15.8,0c0-0.4,0-0.7,0-1.1c5.2,0,10.4,0,15.7,0C212.2,143,212.2,143.3,212.3,143.7z
		"/>
	<path class="st0" d="M937.8,248.2c0-7.2,0-14.3,0-21.5c0.3,0,0.6,0,1,0c0,7.2,0,14.3,0,21.5C938.4,248.2,938.1,248.2,937.8,248.2z"
		/>
	<path class="st0" d="M695.6,164.7c7.1,0,14.2,0,21.3,0c0,0.4,0,0.7,0,1.1c-7.1,0-14.1,0-21.2,0C695.6,165.4,695.6,165,695.6,164.7z
		"/>
	<path class="st0" d="M1554.1,159.5c7.3,0,14.6,0,21.9,0c0,0.3,0,0.7,0,1c-7.3,0-14.6,0-21.8,0
		C1554.2,160.2,1554.2,159.9,1554.1,159.5z"/>
	<path class="st0" d="M386.4,131.2c-6.7,0-13.5,0-20.2,0c0-0.3,0-0.7,0-1c6.7,0,13.5,0,20.2,0C386.4,130.5,386.4,130.9,386.4,131.2z
		"/>
	<path class="st0" d="M1616.1,160.7c-6,0-12.1,0-18.1,0c0-0.4,0-0.7,0-1.1c6.1,0,12.1,0,18.2,0
		C1616.2,160,1616.1,160.3,1616.1,160.7z"/>
	<path class="st0" d="M235.2,143.6c-4.2,0-8.5,0-12.7,0c0-0.3,0-0.7,0-1c4.2,0,8.5,0,12.7,0C235.1,142.9,235.2,143.2,235.2,143.6z"
		/>
	<path class="st0" d="M418.3,553.2c6,0,12,0,18,0c0,0.3,0,0.7,0,1c-6,0-12,0-18,0C418.3,553.9,418.3,553.5,418.3,553.2z"/>
	<path class="st0" d="M1152.6,248.2c-1.4-5.8-2.7-11.1-3.9-16.4C1152.9,234.7,1154.8,242,1152.6,248.2z"/>
	<path class="st0" d="M1651.2,159.6c5.6,0,11.3,0,16.9,0c0,0.4,0,0.7,0,1.1c-5.6,0-11.3,0-16.9,0
		C1651.2,160.3,1651.2,159.9,1651.2,159.6z"/>
	<path class="st0" d="M1119.7,221.1c3.9-0.5,7.9-1,11.8-1.5c0.1,0.6,0.2,1.3,0.3,1.9c-3.9,0.5-7.8,1-11.8,1.5
		C1119.9,222.4,1119.8,221.7,1119.7,221.1z"/>
	<path class="st0" d="M1509.1,183.7c4.7,0,9.3,0,14,0c0,0.3,0,0.7,0,1c-4.7,0-9.3,0-14,0C1509.1,184.4,1509.1,184.1,1509.1,183.7z"
		/>
	<path class="st0" d="M1314.8,148.1c4.5,0,8.9,0,13.4,0c0,0.3,0,0.7,0,1c-4.5,0-8.9,0-13.4,0
		C1314.8,148.8,1314.8,148.4,1314.8,148.1z"/>
	<path class="st0" d="M1256.7,161.7c4.5,0,9.1,0,13.6,0c0,0.4,0,0.7,0,1.1c-4.5,0-9,0-13.5,0C1256.7,162.4,1256.7,162,1256.7,161.7z
		"/>
	<path class="st0" d="M1305.6,149.4c-4.5,0-8.9,0-13.4,0c0-0.3,0-0.7,0-1c4.5,0,8.9,0,13.4,0C1305.5,148.7,1305.5,149,1305.6,149.4z
		"/>
	<path class="st0" d="M345.4,131.2c-4.5,0-8.9,0-13.4,0c0-0.3,0-0.7,0-1c4.4,0,8.9,0,13.3,0C345.4,130.5,345.4,130.8,345.4,131.2z"
		/>
	<path class="st0" d="M1234.1,161.6c4.5,0,9,0,13.4,0c0,0.3,0,0.7,0.1,1c-4.5,0-8.9,0-13.4,0
		C1234.2,162.2,1234.1,161.9,1234.1,161.6z"/>
	<path class="st0" d="M640.7,250.5c-35,0-70,0-105,0c0-0.4,0-0.7,0-1.1c35,0,70,0,104.9,0C640.6,249.8,640.7,250.2,640.7,250.5z"/>
	<path class="st0" d="M535.7,335.4c34.9,0,69.9,0,104.8,0c0,0.4,0,0.7,0,1.1c-35,0-69.9,0-104.9,0
		C535.7,336.1,535.7,335.8,535.7,335.4z"/>
	<path class="st0" d="M535.5,292.4c35,0,70,0,105,0c0,0.4,0,0.7,0,1.1c-35,0-70,0-105,0C535.5,293.1,535.5,292.8,535.5,292.4z"/>
	<path class="st0" d="M535.7,399.9c34.9,0,69.9,0,104.8,0c0,0.3,0,0.7,0,1c-34.9,0-69.9,0-104.8,0
		C535.7,400.6,535.7,400.3,535.7,399.9z"/>
	<path class="st0" d="M640.6,358.1c-35,0-69.9,0-104.9,0c0-0.3,0-0.7,0-1c35,0,69.9,0,104.9,0C640.5,357.4,640.5,357.7,640.6,358.1z
		"/>
	<path class="st0" d="M535.8,421.5c34.9,0,69.9,0,104.8,0c0,0.4,0,0.7,0,1.1c-34.9,0-69.9,0-104.8,0
		C535.8,422.2,535.8,421.9,535.8,421.5z"/>
	<path class="st0" d="M640.6,272.1c-35,0-69.9,0-104.9,0c0-0.3,0-0.7,0-1c34.9,0,69.9,0,104.8,0
		C640.5,271.4,640.5,271.7,640.6,272.1z"/>
	<path class="st0" d="M640.6,315.1c-35,0-69.9,0-104.9,0c0-0.3,0-0.6,0-0.9c34.9,0,69.9,0,104.8,0
		C640.5,314.5,640.5,314.8,640.6,315.1z"/>
	<path class="st0" d="M535.8,378.6c34.9,0,69.8,0,104.6,0c0,0.3,0,0.6,0,0.9c-34.9,0-69.8,0-104.6,0
		C535.8,379.2,535.8,378.9,535.8,378.6z"/>
	<path class="st0" d="M577.4,465.7c-13.9,0-27.8,0-41.7,0c0-0.4,0-0.7,0-1.1c13.9,0,27.8,0,41.8,0
		C577.4,465,577.4,465.4,577.4,465.7z"/>
	<path class="st0" d="M535.7,443c11.4,0,22.8,0,34.3,0c0,0.3,0,0.6,0,0.9c-11.4,0-22.9,0-34.3,0C535.7,443.6,535.7,443.3,535.7,443z
		"/>
	<path class="st0" d="M1412.2,307.2c0,19.9,0,38.9,0,58.2c-11.6,0-22.8,0-34.3,0c-0.2-1.2-0.6-2.3-0.6-3.5c0-17-0.1-33.9,0.1-50.9
		c0-1.3,1.6-3.7,2.4-3.7C1390.5,307.1,1401.1,307.2,1412.2,307.2z M1379.8,309.5c0,18.3,0,36,0,53.8c4.8,0,9.2,0,13.6,0
		c0-18.1,0-35.8,0-53.8C1388.8,309.5,1384.5,309.5,1379.8,309.5z M1395.9,309.6c0,4.7,0,9.2,0,13.6c0,12.9,0,12.9,13,12.1
		c0.3,0,0.5-0.3,1.1-0.6c0-8.2,0-16.6,0-25.1C1405.3,309.6,1400.9,309.6,1395.9,309.6z M1410,337.5c-4.1,0-7.6-0.2-11,0.1
		c-1.1,0.1-2.9,1.4-2.9,2.2c-0.2,7.7-0.1,15.5-0.1,23.5c5,0,9.4,0,14.1,0C1410,354.8,1410,346.4,1410,337.5z"/>
	<path class="st0" d="M1378.1,237.5c11.1,0,22.4,0,34.4,0c0,7.4,0,14.5,0,21.6c0,10.7-0.1,21.3,0.1,32c0.1,3.3-0.7,4.8-4.4,4.7
		c-9-0.2-18-0.1-27-0.1c-2.3,0-3.9-0.3-3.9-3.1c0.1-18,0.2-36,0.2-54C1377.5,238.3,1377.8,238,1378.1,237.5z M1379.8,239.4
		c0,18.4,0,36.1,0,53.8c4.8,0,9.2,0,13.7,0c0-18.2,0-36,0-53.8C1388.7,239.4,1384.4,239.4,1379.8,239.4z M1410.2,267.3
		c-4,0-7.6-0.2-11.2,0.1c-1.1,0.1-3,1.4-3,2.2c-0.2,7.9-0.1,15.8-0.1,23.7c5.3,0,9.7,0,14.3,0
		C1410.2,284.5,1410.2,276.2,1410.2,267.3z M1410.1,264.7c0-8.2,0-16.7,0-25.5c-3.9,0-7.4-0.3-10.8,0.2c-1.3,0.2-3.1,2.1-3.3,3.4
		c-0.4,3.6-0.2,7.3-0.1,10.9c0.3,13,0.3,13,13.5,11.5C1409.4,265.2,1409.6,265,1410.1,264.7z"/>
	<path class="st0" d="M1412.2,435.4c-11.7,0-22.9,0-34.5,0c0-19.3,0-38.3,0-57.8c11.5,0,22.8,0,34.5,0
		C1412.2,396.8,1412.2,415.8,1412.2,435.4z M1393.4,433.4c0-18.4,0-36.1,0-53.7c-4.9,0-9.3,0-13.5,0c0,18.2,0,35.9,0,53.7
		C1384.6,433.4,1388.9,433.4,1393.4,433.4z M1410,379.7c-4.8,0-9.4,0-14.1,0c0,4.9,0,9.4,0,13.9c0,12.5,0,12.5,12.5,11.8
		c0.5,0,0.9-0.3,1.7-0.5C1410,396.5,1410,388.1,1410,379.7z M1396.2,407.7c0,8.9,0,17.1,0,25.6c4.8,0,9.2,0,13.8,0
		c0-8.7,0-17,0-25.6C1405.3,407.7,1400.9,407.7,1396.2,407.7z"/>
	<path class="st0" d="M1429,237.4c11.6,0,22.8,0,34.3,0c0.1,1.5,0.3,2.8,0.3,4.1c0,16.3-0.1,32.7,0,49c0,3.7-0.7,5.4-4.9,5.2
		c-9.8-0.3-19.6-0.1-29.8-0.1C1429,276.2,1429,257.1,1429,237.4z M1444.6,293.4c0-18.4,0-36.2,0-53.7c-4.9,0-9.3,0-13.5,0
		c0,18.2,0,35.9,0,53.7C1435.8,293.4,1440,293.4,1444.6,293.4z M1447.5,267.7c0,8.6,0,17,0,25.6c4.7,0,9.1,0,13.8,0
		c0-8.7,0-17,0-25.6C1456.6,267.7,1452.2,267.7,1447.5,267.7z M1447.2,239.5c0,7.9-0.1,15.4,0.1,22.8c0,1.1,1.7,2.8,2.8,2.9
		c2.8,0.4,5.7,0.4,8.4,0.1c1.1-0.1,2.8-1.5,2.9-2.3c0.2-7.7,0.1-15.5,0.1-23.5C1456.6,239.5,1452.3,239.5,1447.2,239.5z"/>
	<path class="st0" d="M1429,377.5c11.5,0,22.8,0,34.4,0c0,19.2,0,38.3,0,57.7c-11.3,0-22.7,0-34.4,0
		C1429,416.2,1429,397.2,1429,377.5z M1431,379.5c0,18.3,0,36,0,53.8c4.8,0,9.2,0,13.6,0c0-18.2,0-36,0-53.8
		C1439.9,379.5,1435.6,379.5,1431,379.5z M1447.2,379.5c0,8-0.1,15.5,0.1,22.9c0,1,1.4,2.7,2.4,2.9c3.1,0.4,6.3,0.3,9.5,0
		c0.9-0.1,2.3-1.5,2.4-2.4c0.2-7.8,0.1-15.5,0.1-23.5C1456.5,379.5,1452.2,379.5,1447.2,379.5z M1447.5,433.6c4,0,7.6,0.1,11.3-0.1
		c1-0.1,2.7-1.3,2.7-2c0.2-7.9,0.1-15.8,0.1-23.8c-5.1,0-9.4,0-14.1,0C1447.5,416.4,1447.5,424.8,1447.5,433.6z"/>
	<path class="st0" d="M1429,307.5c11.5,0,22.7,0,34.3,0c0,19.2,0,38.3,0,57.8c-11.3,0-22.6,0-34.3,0
		C1429,346.2,1429,327.1,1429,307.5z M1444.7,363.4c0-18.3,0-36,0-53.9c-4.7,0-9.1,0-13.6,0c0,18.1,0,35.9,0,53.9
		C1435.8,363.4,1440.1,363.4,1444.7,363.4z M1461.2,363.4c0-8.6,0-17.1,0-25.6c-4.8,0-9.2,0-13.6,0c0,8.7,0,17.1,0,25.6
		C1452.1,363.4,1456.2,363.4,1461.2,363.4z M1447.5,309.8c0,8.4,0,16.7,0,25.3c4.8,0,9.2,0,14.1,0c0-5,0-9.6,0-14.3
		c0-12.4,0-12.4-12.4-11.4C1448.7,309.4,1448.3,309.6,1447.5,309.8z"/>
	<path class="st0" d="M1279.6,336.6c0,19.6,0,38.3,0,57.8c-3.5,0-6.7,0-10,0c-11.3,0-22.6-0.1-34,0.1c-3.5,0.1-4.5-1.1-4.5-4.6
		c0.2-16.3,0-32.6,0.2-49c0-1.5,1.5-4.2,2.4-4.2C1248.8,336.6,1263.9,336.6,1279.6,336.6z M1277.5,339.1c-14.9,0-29.2,0-44.1,0
		c0,10.3-0.1,20.3,0.2,30.2c0,1,2.6,2.7,4,2.7c9.3,0.3,18.6,0.1,27.9,0.1c3.9,0,7.9,0,12,0C1277.5,360.8,1277.5,350.2,1277.5,339.1z
		 M1256.9,392.4c6.3,0,12.2,0.1,18.1-0.1c0.9,0,2.4-1.4,2.4-2.2c0.2-5.1,0.1-10.2,0.1-15.3c-7.4,0-14,0-20.7,0
		C1256.9,380.7,1256.9,386.3,1256.9,392.4z M1233.7,374.5c0,6.1,0,11.6,0,17.5c6.9,0,13.4,0,20.4,0c0-5.9,0-11.6,0-17.5
		C1247.3,374.5,1240.8,374.5,1233.7,374.5z"/>
	<path class="st0" d="M1294.8,358.6c0-6.5-0.2-12.7,0.1-18.8c0.1-1.1,2-3,3.1-3c14-0.2,28-0.2,41.9,0c1.2,0,3.2,1.8,3.3,2.9
		c0.3,6.1,0.2,12.3,0.2,18.9C1327.1,358.6,1311.3,358.6,1294.8,358.6z M1317.8,339.2c-7.2,0-13.9,0-20.6,0c0,6,0,11.6,0,17.3
		c7,0,13.7,0,20.6,0C1317.8,350.6,1317.8,345.1,1317.8,339.2z M1320,356.5c7.3,0,14,0,20.8,0c0-5.9,0-11.5,0-17.7
		c-6.4,0-12.5-0.1-18.5,0.1c-0.8,0-2.1,1.6-2.2,2.5C1319.9,346.3,1320,351.2,1320,356.5z"/>
	<path class="st0" d="M1295.1,407.9c16.1,0,31.8,0,47.9,0c0,7.3,0,14.4,0,21.7c-16.1,0-31.8,0-47.9,0
		C1295.1,422.3,1295.1,415.4,1295.1,407.9z M1317.8,410.1c-7.3,0-14,0-20.6,0c0,6.1,0,11.6,0,17.2c7.1,0,13.8,0,20.6,0
		C1317.8,421.4,1317.8,415.9,1317.8,410.1z M1341.2,427.5c0-5.3,0.2-9.9-0.1-14.5c-0.1-1.1-1.6-3.1-2.5-3.2
		c-5.3-0.3-10.6-0.3-15.9-0.1c-0.9,0-2.4,1.5-2.4,2.3c-0.2,5.1-0.1,10.2-0.1,15.5C1327.3,427.5,1333.9,427.5,1341.2,427.5z"/>
	<path class="st0" d="M1342.9,394.3c-16.1,0-31.7,0-47.7,0c0-7.1,0-14.1,0-21.6c15.7,0,31.5,0,47.7,0
		C1342.9,379.7,1342.9,386.7,1342.9,394.3z M1341,374.6c-14.8,0-29.2,0-43.8,0c0,6,0,11.7,0,17.4c14.8,0,29.2,0,43.8,0
		C1341,386.1,1341,380.6,1341,374.6z"/>
	<path class="st0" d="M1279.8,429.9c-10.3,0-19.9,0-29.5,0c-5.2,0-10.3,0.2-15.4-0.1c-1.3-0.1-3.4-1.7-3.5-2.7
		c-0.3-6.3-0.2-12.5-0.2-19.4c4.1,0,7.7,0,11.3,0c11,0,21.9,0.1,32.9-0.1c3.6-0.1,4.6,1.1,4.5,4.6
		C1279.6,417.7,1279.8,423.3,1279.8,429.9z M1277.7,427.4c0-5.3,0.1-10.2-0.1-15.2c0-0.9-1.8-2.4-2.7-2.5
		c-13.6-0.2-27.2-0.1-41.2-0.1c0,6.2,0,11.9,0,17.7C1248.5,427.4,1262.8,427.4,1277.7,427.4z"/>
	<path class="st0" d="M1343.2,465.2c-16.5,0-32.1,0-48.4,0c0-6.8-0.1-13.4,0.1-19.9c0-0.8,2-2.1,3-2.1c14-0.1,27.9-0.1,41.9,0.1
		c1.1,0,3.2,1.5,3.2,2.4C1343.4,452.1,1343.2,458.5,1343.2,465.2z M1297.2,445.5c0,6.2,0,11.8,0,17.6c14.8,0,29.1,0,43.6,0
		c0-6.1,0-11.8,0-17.6C1326,445.5,1311.8,445.5,1297.2,445.5z"/>
	<path class="st0" d="M252.2,314.6c10.2,0,19.3,0,29.3,0c0,7.2,0.1,14.2-0.1,21.3c0,0.8-2,2.1-3.1,2.1c-7.6,0.2-15.3,0.3-22.9,0
		c-1.1,0-3-1.7-3-2.7C252.1,328.5,252.2,321.8,252.2,314.6z M268.1,335.6c4,0,7.5,0,11.1,0c0-6.5,0-12.5,0-18.7c-3.9,0-7.4,0-11.1,0
		C268.1,323.2,268.1,329.1,268.1,335.6z M265.5,335.7c0-6.6,0-12.7,0-18.8c-3.9,0-7.3,0-10.7,0c0,6.5,0,12.6,0,18.8
		C258.6,335.7,262,335.7,265.5,335.7z"/>
	<path class="st0" d="M288,234.3c0-8.2,0-15.6,0-23.4c9.5,0,18.7,0,28.9,0c0,7.1,0.1,14.3-0.1,21.5c0,0.6-1.9,1.8-2.9,1.8
		C305.4,234.4,297,234.3,288,234.3z M289.8,232.2c3.2,0,6,0.2,8.7-0.1c0.9-0.1,2.5-1.4,2.5-2.2c0.2-5.6,0.1-11.2,0.1-17.3
		c-3.2,0-5.9-0.3-8.4,0.1c-1.1,0.2-2.8,1.8-2.8,2.8C289.7,220.8,289.8,226.1,289.8,232.2z M314.6,232c0-6.7,0-12.8,0-19
		c-3.8,0-7.2,0-10.6,0c0,6.5,0,12.7,0,19C307.7,232,311,232,314.6,232z"/>
	<path class="st0" d="M252.6,268.8c0-7.9,0-15.3,0-23.5c9,0,17.9-0.1,26.8,0.1c0.8,0,2,2,2.1,3.1c0.2,5.6,0.2,11.3,0,17
		c-0.1,1.1-1.7,3.1-2.6,3.1C270.2,268.9,261.6,268.8,252.6,268.8z M268.4,247.6c0,6.7,0,12.7,0,18.8c3.8,0,7.2,0,10.8,0
		c0-6.5,0-12.5,0-18.8C275.4,247.6,272,247.6,268.4,247.6z M254.8,247.5c0,6.6,0,12.6,0,18.8c3.8,0,7.4,0,10.7,0
		c0-6.5,0-12.6,0-18.8C261.8,247.5,258.5,247.5,254.8,247.5z"/>
	<path class="st0" d="M252.3,383.6c9.3,0,17.7-0.1,26,0.1c1.1,0,3.1,1.9,3.1,3c0.3,5.5,0.1,11,0.2,16.5c0.1,3-1.3,4.1-4.3,4
		c-7.1-0.1-14.3,0.2-21.4,0c-1.2,0-3.4-1.4-3.4-2.2C252.2,398,252.3,391.1,252.3,383.6z M267.8,385.6c0,6.1-0.2,11.3,0.1,16.4
		c0.1,1.2,1.5,3.1,2.5,3.2c2.9,0.3,5.8-0.1,9-0.3c0-5.7,0.2-10.8-0.1-16c-0.1-1.2-1.5-3-2.5-3.2
		C274.1,385.3,271.3,385.6,267.8,385.6z M265.5,404.9c0-6.5,0-12.7,0-19c-3.8,0-7.2,0-10.7,0c0,6.5,0,12.7,0,19
		C258.7,404.9,262.1,404.9,265.5,404.9z"/>
	<path class="st0" d="M288,303.1c0-7.8,0-15.2,0-23c9.6,0,19,0,28.6,0c0,7.8,0,15.2,0,23C307.2,303.1,297.8,303.1,288,303.1z
		 M301.4,301.1c0-3.5,0-7,0-10.4c0-9.8,0-9.8-9.9-8.7c-0.5,0.1-0.9,0.4-1.4,0.6c0,6.1,0,12.1,0,18.5
		C293.8,301.1,297.2,301.1,301.4,301.1z M314.7,301.2c0-6.7,0-12.7,0-18.9c-3.8,0-7.3,0-10.7,0c0,6.6,0,12.8,0,18.9
		C307.7,301.2,311,301.2,314.7,301.2z"/>
	<path class="st0" d="M281.6,372.4c-10,0-19.3,0-28.9,0c0-7.6,0-15.1,0-23.3c9,0,17.8-0.1,26.7,0.1c0.7,0,2,1.7,2.1,2.7
		C281.6,358.5,281.6,365.1,281.6,372.4z M254.7,370.2c8.6,0,16.4,0,24.4,0c0-6.5,0-12.5,0-18.7c-8.3,0-16.2,0-24.4,0
		C254.7,357.8,254.7,363.9,254.7,370.2z"/>
	<path class="st0" d="M288,372.5c0-8,0-15.4,0-23.2c9.6,0,19,0,28.8,0c0,7,0.1,13.8-0.1,20.6c0,0.9-2.1,2.4-3.2,2.5
		C305.1,372.6,296.8,372.5,288,372.5z M290.2,351.4c0,6.7,0,12.7,0,18.8c4.1,0,7.7,0,11.4,0c0-6.5,0-12.5,0-18.8
		C297.6,351.4,294,351.4,290.2,351.4z M314.7,351.4c-3.8,0-7.1,0-10.3,0c0,6.5,0,12.7,0,18.9c3.7,0,7,0,10.3,0
		C314.7,363.9,314.7,357.8,314.7,351.4z"/>
	<path class="st0" d="M316.7,418.5c0,7.8,0,15.2,0,23c-9.6,0-18.8,0-28.5,0c0-7.6,0-15.2,0-23C297.6,418.5,306.8,418.5,316.7,418.5z
		 M290,439.3c4.3,0,8,0,11.5,0c0-6.5,0-12.6,0-18.5c-4.1,0-7.8,0-11.5,0C290,427.1,290,433,290,439.3z M304.2,420.5
		c0,6.6,0,12.6,0,18.8c3.7,0,7,0,10.3,0c0-6.5,0-12.6,0-18.8C311,420.5,307.9,420.5,304.2,420.5z"/>
	<path class="st0" d="M316.7,314.8c0,7.8,0,15.2,0,22.9c-9.7,0-19,0-28.7,0c0-7.7,0-15.1,0-22.9
		C297.5,314.8,306.8,314.8,316.7,314.8z M290.1,316.6c0,6.6,0,12.6,0,19c8.3,0,16.4,0,24.4,0c0-6.5,0-12.6,0-19
		C306.3,316.6,298.5,316.6,290.1,316.6z"/>
	<path class="st0" d="M252.6,234.3c0-8.2,0-15.8,0-23.5c9.7,0,18.9,0,28.9,0c0,7.2,0.1,14.1-0.1,21c0,0.8-1.9,2.3-2.9,2.3
		C270.1,234.4,261.6,234.3,252.6,234.3z M254.8,231.8c8.5,0,16.3,0,24.7,0c0-5.7,0.1-11-0.1-16.2c0-1-1.6-2.8-2.4-2.8
		c-7.3-0.2-14.5-0.1-22.1-0.1C254.8,219.3,254.8,225.4,254.8,231.8z"/>
	<path class="st0" d="M281.6,303.1c-9.8,0-19.1,0-29.2,0c0-7.2-0.1-14.4,0.1-21.6c0-0.6,1.9-1.7,2.9-1.7c7.6-0.1,15.3-0.2,22.9,0
		c1.1,0,3,1.7,3.1,2.7C281.7,289.3,281.6,296.1,281.6,303.1z M279.5,301.2c0-5.8,0.1-11.3-0.1-16.7c0-0.9-1.5-2.4-2.3-2.4
		c-7.4-0.2-14.8-0.1-22.2-0.1c0,6.9,0,12.9,0,19.3C263,301.2,270.7,301.2,279.5,301.2z"/>
	<path class="st0" d="M316.5,406.8c-9.4,0-18.8,0-28.4,0c0-7.9,0-15.2,0-22.9c9.5,0,18.7,0,28.4,0
		C316.5,391.6,316.5,399.1,316.5,406.8z M289.7,385.8c0,6-0.1,11.6,0.1,17.2c0,0.8,1.6,2.2,2.4,2.3c7.4,0.2,14.9,0.1,22.4,0.1
		c0-7.1,0-13.3,0-19.5C306.2,385.8,298.3,385.8,289.7,385.8z"/>
	<path class="st0" d="M316.6,268.5c-9.5,0-18.7,0-28.4,0c0-7.5,0-15,0-22.9c9.3,0,18.7,0,28.4,0
		C316.6,253.2,316.6,260.7,316.6,268.5z M314.8,247.7c-8.6,0-16.6,0-24.6,0c0,6.5,0,12.5,0,18.6c8.4,0,16.4,0,24.6,0
		C314.8,259.9,314.8,254,314.8,247.7z"/>
	<path class="st0" d="M281.6,418.6c0,7,0.1,13.6-0.1,20.2c0,1-1.9,2.8-2.9,2.8c-8.5,0.2-16.9,0.1-25.8,0.1c0-8,0-15.4,0-23.2
		C262.3,418.6,271.5,418.6,281.6,418.6z M254.7,420.4c0,6.6,0,12.8,0,19.1c8.4,0,16.3,0,24.4,0c0-6.6,0-12.7,0-19.1
		C270.8,420.4,263,420.4,254.7,420.4z"/>
	<path class="st0" d="M461.7,381.3c-8.6,0-16.7,0-25.5,0c0-10.2-0.1-20.1,0.1-30c0-0.9,1.5-2.4,2.3-2.4c7.6-0.2,15.2-0.1,23.1-0.1
		C461.7,359.9,461.7,370.4,461.7,381.3z M459.7,350.8c-2.8,0-4.9-0.2-7,0.1c-1,0.2-2.6,1.4-2.6,2.1c-0.2,8.7-0.1,17.5-0.1,26.2
		c3.7,0,6.6,0,9.7,0C459.7,369.7,459.7,360.6,459.7,350.8z M447.7,350.8c-2.2,0-4.2-0.3-6.1,0.1c-1.1,0.2-3,1.4-3,2.2
		c-0.2,8.7-0.1,17.4-0.1,26.2c3.5,0,6.2,0,9.2,0C447.7,369.8,447.7,360.6,447.7,350.8z"/>
	<path class="st0" d="M475,427.7c8.4,0,16.5,0,25,0c0,10.8,0,21.3,0,32.3c-8.3,0-16.4,0-25,0C475,449.4,475,438.8,475,427.7z
		 M477,458.1c1.6,0.1,2.6,0.1,3.6,0.3c4.8,0.8,6.5-1.1,6.1-5.9c-0.4-4.9-0.1-10-0.1-14.9c0-8.3,0-8.3-8.5-7.8
		c-0.3,0-0.6,0.3-1.2,0.6C477,439.3,477,448.5,477,458.1z M497.9,458.1c0-9.9,0-19.1,0-28.2c-3.2,0-6,0-9,0c0,9.6,0,18.8,0,28.2
		C492.1,458.1,494.8,458.1,497.9,458.1z"/>
	<path class="st0" d="M500.1,309.8c0,10.7,0,21.2,0,32.5c-8,0-15.7,0.1-23.4-0.1c-0.7,0-1.9-1.8-2-2.7c-0.1-9.8-0.1-19.5-0.1-29.7
		C483.3,309.8,491.5,309.8,500.1,309.8z M476.9,325.2c6.6,0,12.5,0.1,18.5-0.1c1,0,2.7-1.5,2.8-2.4c0.3-3.6,0.1-7.2,0.1-10.8
		c-7.5,0-14.4,0-21.4,0C476.9,316.3,476.9,320.4,476.9,325.2z M476.9,340.2c4.1,0,7.7,0,11.4,0c11.3,0,11.3,0,9.9-11.4
		c0-0.3-0.2-0.6-0.5-1.2c-6.7,0-13.6,0-20.7,0C476.9,331.8,476.9,335.5,476.9,340.2z"/>
	<path class="st0" d="M475,388.4c8.5,0,16.6,0,25.1,0c0,10.6,0,21,0,32c-8.1,0-16.5,0-25.1,0C475,409.9,475,399.5,475,388.4z
		 M498.1,390.6c-7.2,0-14.1,0-21,0c0,4.4,0,8.5,0,12.7c7.1,0,13.9,0,21,0C498.1,399,498.1,394.9,498.1,390.6z M477,418.6
		c7.2,0,14,0,21,0c0-4.4,0-8.4,0-12.5c-7.3,0-14.1,0-21,0C477,410.4,477,414.3,477,418.6z"/>
	<path class="st0" d="M462,309.7c0,10.2,0.1,19.9-0.1,29.7c0,1-1.8,2.8-2.9,2.8c-6.6,0.3-13.3,0.2-19.9,0c-1,0-2.7-1.3-2.7-2
		c-0.2-10.1-0.1-20.2-0.1-30.5C445,309.7,453.1,309.7,462,309.7z M459.5,340.2c0-10.1,0-19.3,0-28.4c-7.2,0-13.9,0-21.1,0
		c0,8.7-0.1,17,0.1,25.3c0,1.1,1.8,2.9,2.8,3C447.2,340.4,453.2,340.2,459.5,340.2z"/>
	<path class="st0" d="M436.7,427.8c8.4,0,16.5,0,24.9,0c0,10.8,0,21.4,0,32.3c-8.2,0-16.3,0-24.9,0
		C436.7,449.4,436.7,438.8,436.7,427.8z M438.4,429.8c0,8.9-0.1,17.3,0.1,25.8c0,0.9,1.6,2.6,2.6,2.6c6.1,0.2,12.2,0.1,18.5,0.1
		c0-9.8,0-19.1,0-28.5C452.6,429.8,446,429.8,438.4,429.8z"/>
	<path class="st0" d="M436.3,388.5c8.7,0,16.7,0,25.3,0c0,10.6,0,21.2,0,32.4c-7.7,0-15.4,0.1-23.2-0.1c-0.7,0-2-1.4-2-2.2
		C436.2,408.6,436.3,398.7,436.3,388.5z M459.7,390.5c-7.2,0-13.9,0-20.9,0c0,9.5,0,18.7,0,28c7.2,0,13.9,0,20.9,0
		C459.7,409.2,459.7,400.1,459.7,390.5z"/>
	<path class="st0" d="M500.5,381.3c-8.7,0-16.8,0-25.8,0c0-5.6,0-11.1,0-16.7c0-4.2,0.1-8.3,0-12.5c-0.1-2.6,1-3.5,3.5-3.5
		c6.3,0.1,12.6-0.1,18.9,0.1c1.2,0,3.2,1.6,3.2,2.5C500.6,361.2,500.5,371.1,500.5,381.3z M498,379.4c0-9.7,0-18.9,0-28.2
		c-7.3,0-14.1,0-20.8,0c0,9.7,0,18.9,0,28.2C484.3,379.4,490.9,379.4,498,379.4z"/>
	<path class="st0" d="M775.7,486.8c-22.1,0-43.7,0-65.7,0c0-12.4,0-24.6,0-37.2c21.8,0,43.5,0,65.7,0
		C775.7,461.8,775.7,474,775.7,486.8z M756.6,451.7c-15.3,0-29.9,0-44.6,0c0,11.2,0,21.9,0,32.8c15,0,29.7,0,44.6,0
		C756.6,473.4,756.6,462.7,756.6,451.7z M759.1,451.5c0,5.2,0,10,0,15.1c4.9,0,9.6,0,14.6,0c0-5.1,0-9.9,0-15.1
		C768.9,451.5,764.3,451.5,759.1,451.5z M773.8,469.5c-5,0-9.6,0-14.5,0c0,5.2,0,10,0,14.9c5.1,0,9.8,0,14.5,0
		C773.8,479.3,773.8,474.5,773.8,469.5z"/>
	<path class="st0" d="M1590.6,428.6c-15.1,0-30.2,0-45.3,0c0-0.4,0-0.7,0-1.1c15.1,0,30.1,0,45.2,0
		C1590.5,427.8,1590.6,428.2,1590.6,428.6z"/>
	<path class="st0" d="M1642.5,428.5c-15.2,0-30.3,0-45.5,0c0-0.4,0-0.7,0-1.1c15.2,0,30.3,0,45.5,0
		C1642.5,427.8,1642.5,428.1,1642.5,428.5z"/>
	<path class="st0" d="M1642.6,452.6c-15.2,0-30.4,0-45.6,0c0-0.4,0-0.7,0-1.1c15.2,0,30.3,0,45.5,0
		C1642.5,451.9,1642.6,452.3,1642.6,452.6z"/>
	<path class="st0" d="M1574.9,488.5c12,0,24,0,36,0c0,0.3,0,0.6,0,1c-12,0-24,0-36,0C1574.9,489.1,1574.9,488.8,1574.9,488.5z"/>
	<path class="st0" d="M1545.5,451.4c15.1,0,30.1,0,45.2,0c0,0.4,0,0.7,0,1.1c-15.1,0-30.2,0-45.3,0
		C1545.4,452.1,1545.4,451.8,1545.5,451.4z"/>
	<path class="st0" d="M1597.2,475.4c15.1,0,30.1,0,45.2,0c0,0.4,0,0.7,0,1.1c-15.1,0-30.1,0-45.2,0
		C1597.2,476.2,1597.2,475.8,1597.2,475.4z"/>
	<path class="st0" d="M1590.6,476.6c-15.1,0-30.1,0-45.2,0c0-0.3,0-0.7,0-1c15.1,0,30.1,0,45.2,0
		C1590.6,475.9,1590.6,476.3,1590.6,476.6z"/>
	<path class="st0" d="M1574.9,464.3c11.9,0,23.9,0,35.8,0c0,0.4,0,0.7,0,1.1c-11.9,0-23.9,0-35.8,0
		C1574.9,465.1,1574.9,464.7,1574.9,464.3z"/>
	<path class="st0" d="M1575.2,440.2c11.8,0,23.5,0,35.3,0c0,0.4,0,0.7,0,1.1c-11.8,0-23.6,0-35.4,0
		C1575.1,440.9,1575.1,440.5,1575.2,440.2z"/>
	<path class="st0" d="M1545.2,488.4c6.2,0,12.4,0,18.5,0c0,0.3,0,0.6,0,0.9c-6.2,0-12.4,0-18.5,0
		C1545.2,489,1545.2,488.7,1545.2,488.4z"/>
	<path class="st0" d="M1642.4,465.4c-8,0-16.1,0-24.1,0c0-0.4,0-0.7,0-1.1c8,0,16,0,24.1,0C1642.4,464.7,1642.4,465.1,1642.4,465.4z
		"/>
	<path class="st0" d="M1618.3,440.3c8,0,16.1,0,24.1,0c0,0.3,0,0.6,0,0.9c-8,0-16.1,0-24.1,0
		C1618.3,440.9,1618.3,440.6,1618.3,440.3z"/>
	<path class="st0" d="M1641.9,489.6c-7.9,0-15.8,0-23.6,0c0-0.4,0-0.7,0-1.1c7.9,0,15.8,0,23.8,0
		C1642,488.9,1641.9,489.2,1641.9,489.6z"/>
	<path class="st0" d="M1563.8,441.4c-6.1,0-12.2,0-18.3,0c0-0.3,0-0.7,0-1c6.1,0,12.2,0,18.2,0
		C1563.7,440.7,1563.8,441,1563.8,441.4z"/>
	<path class="st0" d="M1545.6,464.2c6,0,11.9,0,17.9,0c0,0.3,0,0.7,0,1c-6,0-12,0-18,0C1545.5,464.8,1545.5,464.5,1545.6,464.2z"/>
	<path class="st0" d="M1723.8,474.6c0-9.7,0-18.7,0-28.8c6.1,0,12.3-0.1,18.4,0.1c0.5,0,1.4,2.1,1.4,3.2c0.1,7.3,0.2,14.6-0.1,22
		c0,1.2-1.7,3.3-2.8,3.3C1735.3,474.7,1729.8,474.6,1723.8,474.6z M1731.6,472.2c0-7.5,0.1-14.8-0.1-22.1c0-0.8-1.9-2.2-2.9-2.2
		c-1,0-2.7,1.5-2.8,2.3c-0.2,7.3-0.1,14.5-0.1,22C1727.8,472.2,1729.4,472.2,1731.6,472.2z M1734.1,457.7c0,5.1,0,9.8,0,14.6
		c2.5,0,4.6,0,7.5,0c0-3,0-5.7,0-8.5C1741.6,456.6,1741.6,456.6,1734.1,457.7z M1733.9,455.3c2.6-0.4,5.2-0.2,7-1.3
		c0.8-0.5,0.7-4.8-0.2-5.2c-1.8-1-4.4-0.7-6.9-0.9C1733.9,450.6,1733.9,452.5,1733.9,455.3z"/>
	<path class="st0" d="M592.6,159.6c4.1,0,7.7,0,11.8,0c0,17.6,0,35,0,52.9c-3.7,0-7.6,0-11.8,0C592.6,195,592.6,177.6,592.6,159.6z
		 M602.7,210.5c0-2.1,0-3.9,0-5.6c0-12.3,0-24.6,0-36.9c0-6.9,0-6.9-7.8-5.9c0,16.1,0,32.3,0,48.5
		C597.5,210.5,599.8,210.5,602.7,210.5z"/>
	<path class="st0" d="M624.4,212.7c-3.8,0-7.5,0-11.7,0c0-17.8,0-35.3,0-53.1c4,0,7.6,0,11.7,0C624.4,177.3,624.4,194.8,624.4,212.7
		z M614.8,161.7c0,16.5,0,32.6,0,48.7c2.7,0,5.1,0,7.5,0c0-16.5,0-32.5,0-48.7C619.8,161.7,617.6,161.7,614.8,161.7z"/>
	<path class="st0" d="M644.4,212.7c-3.8,0-7.5,0-11.6,0c0-17.6,0-35,0-52.8c3.7,0,7.5,0,11.6,0C644.4,177.3,644.4,194.8,644.4,212.7
		z M634.9,161.7c0,16.5,0,32.5,0,48.7c2.7,0,5.1,0,7.5,0c0-16.4,0-32.5,0-48.7C639.8,161.7,637.7,161.7,634.9,161.7z"/>
	<path class="st0" d="M1421.2,180.8c0,10.1-8,18-18,17.9c-9.9-0.1-17.6-7.8-17.8-17.8c-0.1-9.9,8-18,18-18
		C1413.3,163.1,1421.2,171,1421.2,180.8z M1388,182.4c0.9,8.4,6.2,13.6,13.8,13.6c0-4.5,0-9.1,0-13.6
		C1396.9,182.4,1392.5,182.4,1388,182.4z M1404.8,196.2c8.2-0.7,13.5-6.1,13.6-13.7c-4.5,0-9.1,0-13.6,0
		C1404.8,187.4,1404.8,191.8,1404.8,196.2z M1418.8,179.6c-1.2-8.6-6-13.2-13.9-13.9c0,4.6,0,9.1,0,13.9
		C1409.6,179.6,1414,179.6,1418.8,179.6z M1402,165.6c-8.4,1-13,5.7-13.9,13.9c4.6,0,9.1,0,13.9,0C1402,174.8,1402,170.4,1402,165.6
		z"/>
	<path class="st0" d="M348.9,294.6c3.5,0,6.8,0,10.6,0c0,5,0,10,0,15c-0.3,0.2-0.6,0.5-0.8,0.5C347.3,311.1,346.2,309.4,348.9,294.6
		z M350.4,296.8c0,3.3-0.4,6.1,0.2,8.8c0.3,1.2,2.6,2.5,4,2.6c1.1,0.1,3-1.7,3.2-2.8c0.5-2.7,0.2-5.5,0.2-8.5
		C355.2,296.8,353.1,296.8,350.4,296.8z"/>
	<path class="st0" d="M396.6,294.7c0,4.5,0.2,8.6-0.1,12.7c-0.1,1-1.7,2.6-2.9,2.8c-2.6,0.4-5.3,0.1-8.3,0.1c0-5.3,0-10.3,0-15.6
		C388.8,294.7,392.2,294.7,396.6,294.7z M386.9,296.8c0,2.9,0.1,5.2,0,7.5c-0.2,2.9,0.8,4.1,3.9,4.2c3.2,0,4-1.4,3.8-4.2
		c-0.1-2.4,0-4.8,0-7.4C391.7,296.8,389.6,296.8,386.9,296.8z"/>
	<path class="st0" d="M403.4,317.1c11.4-1.5,11.4-1.5,11.4,9.3c0,1.8,0,3.6,0,5.7c-4,0-7.5,0-11.4,0
		C403.4,327.1,403.4,322.3,403.4,317.1z M405.1,330.5c3-0.1,5.2-0.2,7.7-0.3c0-2.9-0.1-5.2,0-7.5c0.2-3-0.9-4-3.9-4.1
		c-3.2,0-4,1.4-3.8,4.2C405.2,325.1,405.1,327.4,405.1,330.5z"/>
	<path class="st0" d="M385.2,317c11.4-1.2,11.4-1.2,11.4,9.5c0,1.8,0,3.6,0,5.7c-4.1,0-7.6,0-11.4,0
		C385.2,327.1,385.2,322.2,385.2,317z M393.9,330.3c1.9-11.3,1-12.7-6.6-10.8c0,3.5,0,7.1,0,10.8
		C389.7,330.3,391.7,330.3,393.9,330.3z"/>
	<path class="st0" d="M414.5,294.7c0,5.2,0,10.1,0,15.3c-3.7,0-7.1,0-11,0c0-5,0-10,0-15.3C407.1,294.7,410.5,294.7,414.5,294.7z
		 M405.1,296.8c0,2.5,0.1,5,0,7.4c-0.1,2.7,0.5,4.3,3.8,4.2c3-0.1,4.1-1.2,3.9-4.1c-0.2-2.4,0-4.8,0-7.5
		C410,296.8,407.9,296.8,405.1,296.8z"/>
	<path class="st0" d="M367.1,294.7c3.6,0,6.9,0,11,0c0,4.6,0.2,9-0.1,13.4c-0.1,0.8-1.8,2.1-2.9,2.2c-2.4,0.3-4.9,0.1-7.9,0.1
		C367.1,305.1,367.1,300.1,367.1,294.7z M375.8,297c-2.2,0-4.4,0-6.8,0c0,3.7,0,7.2,0,11c2.4,0,4.4,0,6.8,0
		C375.8,304.2,375.8,300.8,375.8,297z"/>
	<path class="st0" d="M367.1,316.1c4,0.6,9.7,0.3,10.2,1.7c1.3,4,1.5,9.1,0,13.1c-0.6,1.6-6.3,1.3-10.3,2
		C367.1,327,367.1,322.2,367.1,316.1z M368.9,330.2c2.5,0,4.5,0,6.5,0c2.1-10.9,1.2-12.4-6.5-10.8
		C368.9,322.8,368.9,326.2,368.9,330.2z"/>
	<path class="st0" d="M348.3,332.4c0-4.8-0.1-9.1,0.1-13.3c0-0.8,1.5-2.2,2.4-2.3c2.8-0.3,5.6-0.1,9.1-0.1c0,4.7,0.2,8.9-0.1,13.1
		c-0.1,0.9-1.7,2.4-2.7,2.5C354.4,332.6,351.8,332.4,348.3,332.4z M357.6,318.2c-2.9,0.6-6.6,0.7-6.8,1.6c-0.8,3.1-0.8,6.6,0,9.6
		c0.3,1,4.1,1,6.8,1.5C357.6,326.4,357.6,322.9,357.6,318.2z"/>
	<path class="st0" d="M1641.4,297.2c2.1-3.2,4.2-6.3,6.2-9.5c0.4,0.3,0.9,0.7,1.3,1c-2,3.3-2.6,7.6-7.7,8.5
		C1641.3,297.2,1641.4,297.2,1641.4,297.2z"/>
	<path class="st0" d="M653.6,139.5c-0.4,0.4-0.5,0.6-0.7,0.6c-10.2,1.6-10.4,1.4-10.4-8.7c0-8.3,0-16.6,0-25.1c4,0,7.4,0,11.1,0
		C653.6,117.6,653.6,128.7,653.6,139.5z M644.9,138.4c2.8-0.8,6.7,2,6.9-2.8c0.4-8.9,0.1-17.9,0.1-27.1c-2.6,0-4.7,0-7,0
		C644.9,118.3,644.9,127.9,644.9,138.4z"/>
	<path class="st0" d="M637.6,140.1c-3.6,0-6.8,0-10.6,0c0-11,0-22.1,0-33.6c3.3,0,6.9,0,10.6,0C637.6,117.6,637.6,128.7,637.6,140.1
		z M628.9,137.9c2.5,0,4.6,0,6.7,0c0-10,0-19.6,0-29.4c-2.3,0-4.4,0-6.7,0C628.9,118.3,628.9,127.9,628.9,137.9z"/>
	<path class="st0" d="M1605.6,398.9c0,3.5,0,6.8,0,10.3c-3.5,0-6.8,0-10.4,0c0-3.4,0-6.6,0-10.3
		C1598.4,398.9,1601.8,398.9,1605.6,398.9z M1597.2,400.8c0,2.3,0,4.3,0,6.5c2.3,0,4.2,0,6.3,0c0-2.3,0-4.3,0-6.5
		C1601.2,400.8,1599.3,400.8,1597.2,400.8z"/>
	<path class="st0" d="M1581.1,398.7c3.6,0,6.9,0,10.5,0c0,3.5,0,6.7,0,10.4c-3.4,0-6.8,0-10.5,0
		C1581.1,405.7,1581.1,402.4,1581.1,398.7z M1583.1,400.7c0,2.5,0,4.4,0,6.4c2.4,0,4.4,0,6.4,0c0-2.3,0-4.3,0-6.4
		C1587.3,400.7,1585.4,400.7,1583.1,400.7z"/>
	<path class="st0" d="M1764,185.6c5-2.8,8.9-1.1,11.9,4.7c4.3-0.3,8.2-1,12-0.7c1.6,0.1,3,2.4,4.1,4.6c-6.3-5.7-11.4-4.1-16.4,2.2
		c-1.4-3.1-2-6.3-3.9-7.9C1769.9,186.7,1766.6,186.5,1764,185.6z"/>
</g>
</svg>
