<?xml version="1.0" encoding="utf-8"?>
<!-- Generator: Adobe Illustrator 27.3.1, SVG Export Plug-In . SVG Version: 6.00 Build 0)  -->
<svg version="1.1" id="Capa_1" xmlns="http://www.w3.org/2000/svg" xmlns:xlink="http://www.w3.org/1999/xlink" x="0px" y="0px"
	 viewBox="0 0 1429.9 515.6" style="enable-background:new 0 0 1429.9 515.6;" xml:space="preserve">
<style type="text/css">
	.st0{opacity:0.45;}
	.st1{fill:#FFFFFF;}
</style>
<g class="st0">
	<path class="st1" d="M606.8,406.5c-2.8-0.2-1.2-1.8-0.7-2.7c2.6-5.2,6.3-7.6,14.5-9.4c0-2.3,0-4.7,0-7.1c0-3-0.4-6,2-8.5
		c0.7-0.7,0.6-2.3,0.6-3.5c0-60.3,0-120.6,0-180.8c0-1.7-0.1-3-2.2-3.9c-4.1-1.7-5.9-5.4-5-9.3c0.9-3.8,3.9-6.3,7.8-6.3
		c4,0,7.2,2.6,8,6.5c0.8,3.7-1.1,7.2-4.9,9.1c-0.6,0.3-1.3,0.6-2.1,0.9c0,2.3,0,4.5,0,7.3c5.8,0,11.6,1,17-0.2
		c10.1-2.2,20.2-1.2,30.3-1.5c7.2-0.2,11,2.2,15.1,9.5c-13-1-26.2,2.9-37.6-6c-1.2-0.9-3.4-1.1-4.9-0.7
		c-10.9,2.9-19.2,13.2-19.9,24.5c-0.1,1.3-0.1,2.7-0.1,4c0,48.6,0,97.1,0.1,145.7c0,2.2,1.2,4.5,1.7,6.7c0.3,1.1,0.7,2.3,0.7,3.5
		c0.1,3.5-0.1,7,0.1,10.5c0.4,13.5,0.9,26.9,1.4,40.7c2.2,0,4.5,0,7.2,0c-2.1-4.3-2.9-8.6,1.6-11.8c2.9-2,6-1.9,8.7,0.3
		c4.1,3.3,3.4,7.3,1,11.6c2.5,0,4.6,0,7.2,0c0-6.2,0-12.2,0-18.2c0-1.8-0.1-3.6,0-5.4c0.1-2.9-0.1-5.3-3-7.4c-2-1.5-3.3-4.5-3.9-7.1
		c-5.7-23.6-3.4-46.5,6.5-68.6c0.2-0.4,0.6-0.7,1.4-1.6c1.3,2.9,2.5,5.3,3.4,7.8c7.2,19,8.6,38.5,5,58.4c-0.9,4.9-2,10-7,12.9
		c-0.5,0.3-0.8,1.2-0.8,1.8c-0.1,9,0,18.1,0,27.4c1.5,0.1,2.6,0.2,3.8,0.2c18.4,0,36.7,0,55.1,0c4.7,0,5.4-1,3.7-5.3
		c-2.1-5.5-0.7-11.1,3.6-15.2c0.9-0.8,1.7-2.3,1.6-3.4c-1.1-9.3,4-15.7,13.4-16.3c0.5,0,0.9-0.1,1.5-0.2c2.1-9.2-0.8-17-6.8-24.2
		c-3.3,2.2-6.8,3.6-10.8,2c-4.6-1.9-7.2-7.1-5.9-11.9c1.5-5.1,6.3-8.1,11.4-7.1c5.2,1.1,9.4,6.1,7.7,10.8c-1.6,4.5,0.4,7.2,2.4,10.4
		c0.5,0.8,1,1.6,2.2,2.3c0-8.5,1.1-17.1-0.3-25.3c-1.4-8.5-7.3-15-14.2-20.7c-0.9,1-1.7,1.9-2.5,2.7c-3.3,3.2-8.6,3.6-12.4,1.1
		c-3.8-2.6-5.4-7.6-3.7-11.8c1.7-4.4,6-6.8,10.7-6.2c4.6,0.6,8.3,4.4,8.3,9.1c0,2.8,1.1,4.2,2.9,6c3.9,4.2,7.4,8.8,11.3,13.6
		c0-6.4,0.1-12.7-0.1-19c0-0.6-1.8-1.5-2.9-1.8c-8.8-2-15-9.4-15.3-18.3c-0.3-8.8,5.8-16.6,14.5-18.8c10.1-2.6,20.5,3.6,23,13.6
		c2.6,10.6-3.6,21.1-14.1,23.3c-2.9,0.6-3.7,1.6-3.6,4.4c0.2,8.9,0.1,17.9,0.1,26.8c0,0.8,0.1,1.6,0.2,2.5c3.2-4.2,6.4-8.1,9.2-12.2
		c0.5-0.8-0.1-2.4-0.4-3.6c-2.3-7.8,2-15.9,9.5-18.2c7.8-2.3,15.6,2,18,9.7c1.8,5.8-0.6,12.5-5.7,16c-5.2,3.5-12.1,3.3-16.9-0.5
		c-0.9-0.7-1.8-1.5-3.1-2.6c-5.3,6.7-11.2,12.8-10.9,22.2c0.2,6.9,0,13.8,0.1,20.7c0,1.1,0.1,2.3,0.2,4c3.7-3.5,7.5-5.1,12.1-5
		c0.7,0,1.6-0.9,2.1-1.6c6.2-7.6,15.2-10.5,23.9-7.8c9,2.8,14.5,10,15.6,20.2c0.2,1.5,1.5,2.9,2.3,4.4c0.5-0.2,1-0.3,1.6-0.5
		c0-5.3-0.1-10.6,0-15.8c0.7-35.3,1.4-70.5,2.3-105.8c0.1-2.9-0.9-3.6-3.5-4.6c-4.5-1.8-8.7-4.5-12.9-7c-0.8-0.5-1.3-1.5-1.5-2.8
		c5.1,4.5,10.5,8.2,17.8,8.8c0.3-8,0.7-15.7,1-23.5c-7.7-3.1-15.1-6.2-22.8-9.3c-2.3,5.6-1,11.1,0.2,16.5c-0.3,0.1-0.7,0.1-1,0.2
		c-0.4-1.2-1.2-2.4-1.3-3.7c-0.2-3.7-0.6-7.5-0.1-11.1c0.3-2.5-0.3-3.3-2.4-4.3c-5.5-2.7-11-5.5-16.4-8.4c-1.5-0.8-2.9-2-4-3.6
		c9.1,0.6,16.7,5.4,25.1,8.4c1.7-2,3.3-4,4.9-6c0.3,0.2,0.6,0.5,0.9,0.7c-1.3,1.9-2.6,3.8-4.1,6.1c2.3,1.2,4.4,2.3,6.5,3.4
		c1.3-1.4,2.6-2.7,3.8-4.1c0.3,0.2,0.5,0.4,0.8,0.6c-0.8,1.3-1.6,2.7-2.6,4.2c4.1,2.2,8.1,4.3,12.4,6.7c0.5-2.6,0.9-4.8,1.4-7.1
		c0.3-0.1,0.6-0.1,0.9-0.2c0.5,1.3,1.1,2.6,1.7,4.1c4.2-5.6,8.2-11.1,12.5-16.9c-9.5-6-19-5.8-29-0.4c3.8-6.9,18.1-7.1,30.2-1.1
		c2.8-3.3,5.6-6.8,8.5-10.1c2.9-3.2,5.3-6.9,9.8-8.5c-3.5,8.3-9,15.2-14.5,22.1c-5.5,7-11.4,13.7-17.4,20.9
		c2.9,3.3,5.9,6.9,8.9,10.4c1-0.5,1.9-1,3.7-2c-1.1,1.9-1.6,2.8-2.2,3.9c7.3,10,15.4,19.5,21,30.6c-0.4,0.4-0.7,0.7-1.1,1.1
		c-1.4-1.2-3-2.3-4.2-3.7c-7.8-10-15.5-20-23.3-30c-0.7-0.9-1.4-1.8-2.7-2.5c0.1,2.2,0.2,4.4,0.4,6.8c1.1,0.2,2.1,0.3,3.8,0.6
		c-5.5,2.1-3.2,5.8-3.4,9.1c1.9-0.2,3.5-0.4,5.2-0.6c0.1,0.3,0.2,0.5,0.3,0.8c-1.6,0.6-3.3,1.2-5.3,1.9c1,52,1.9,104.2,2.9,156.8
		c5.4,0,10.7,0,15.9,0c2.1-11.2,0.6-22.9-3.8-28.5c-0.9,0.3-1.9,0.7-3,1c-3.1,0.7-5.6-0.3-7.1-3c-1.5-2.7-1.2-5.4,1-7.7
		c2.1-2.2,4.7-2.5,7.3-1.2c2.8,1.3,4.3,3.8,3.5,6.8c-0.7,2.6,0.1,4.3,2.4,6.4c0-5.3,0.2-10-0.2-14.6c-0.1-0.9-2-2-3.3-2.5
		c-5.6-2.2-8.9-7.7-7.8-13.6c1.1-5.8,6.1-10,12.1-9.9c5.8,0.1,10.7,4.1,11.7,9.9c1.1,5.9-2.1,11.5-7.7,13.6c-1,0.4-2,0.6-3.3,1
		c0,9.1,0,18.2,0,27.3c2.2-3.1,6.5-4.9,4.7-10.1c-1.2-3.7,2.1-8,5.8-9.3c3.7-1.3,8-0.1,10.4,3c2.6,3.4,2.7,7.7,0.2,11.1
		c-2.5,3.3-6.8,4.6-10.7,3c-1.4-0.6-2.7-1.5-4.2-2.3c-5.7,5.3-7.6,11.7-6.2,19.6c7.9,0,15.9,0,24.5,0c0-4.3,0-8.4,0-12.5
		c0-12.4,0-24.9-0.2-37.3c0-1.4-1.3-2.7-2-4c-1.7-3.2-4.3-6.3-5.1-9.7c-5.2-23.1-2.8-45.6,6.9-67.2c0.1-0.3,0.5-0.5,1-1.1
		c0.6,0.8,1.2,1.5,1.5,2.3c9.3,20.7,11.2,42.3,7,64.5c-0.9,4.7-2.1,9.5-7,12.1c-0.4,0.2-0.7,1.2-0.7,1.9c0,16.9,0,33.8,0,51
		c4.1,0,8,0,12.4,0c0-66.2,0-132.4,0-198.8c1.3-0.1,2.3-0.3,3.2-0.3c9.9,0,19.8,0,29.7,0c4.2,0,9,4.8,9,8.9c0,3.2,0,6.5,0,10.7
		c3.9-3.7,7.1-6.8,11.2-10.7c5.9,6.5,11.6,12.8,17.4,19.2c0.4-0.3,0.8-0.6,1.2-0.8c0.1-1.1,0.2-2.3,0.2-3.4c0-8.8-0.1-17.6,0.1-26.5
		c0-1.6,0.8-3.6,1.9-4.7c15.8-15.8,31.6-31.6,47.9-46.9c3.8-3.6,9.3-5.4,14.1-7.8c0.6-0.3,2,0.5,2.7,1.1
		c16.4,16.1,32.7,32.2,48.9,48.4c1.1,1.1,1.6,3.2,1.6,4.8c0.1,49.4,0.1,98.8,0.1,148.2c0,18.1,0,36.2,0,54.4c0,1.3,0,2.6,0,4.4
		c4.9,0,9.5,0.5,13.9-0.2c2.6-0.4,5.2-2.4,5.3-5.8c0-1.3-0.1-2.7,0-4c0.2-2.2-0.4-3.7-2.7-4.8c-3.7-1.7-5.8-4.9-6.7-8.9
		c-0.5-2.3,0.3-3.2,2.6-3c1.7,0.1,3.3,0,5.4,0c-2-4.1-5.7-4.6-9.6-5.5c3.7-1.4,7.1-0.2,10,2.9c3.3,3.5,4,3.5,7.3,0.2
		c2.6-2.6,5.5-4.4,9.9-3.8c-3.5,1.8-6.5,3.3-9.5,4.9c0.1,0.4,0.3,0.8,0.4,1.2c2.7,0.1,5.4,0.3,8.1,0.4c0.9,4.9-1.5,9.2-6.4,11.9
		c-3.1,1.7-3.7,9.2-1.4,11.8c2.3,2.5,4.8,3.2,8,2.9c3-0.2,6,0,9.5,0c0-1.6,0-2.9,0-4.2c0-17.5-0.1-35,0.1-52.5c0-1.7,0.9-3.7,2-5
		c4.8-5.3,10-10.2,14.8-15.4c1.1-1.2,1.8-3.1,1.9-4.7c0.2-4.8-0.1-9.7,0.1-14.5c0.4-7.1-3.4-12.3-6.4-16.6c-4.2,0.5-7.6,1.6-10.8,1
		c-5-0.8-8-6.4-6.9-11.4c1.1-5.1,6-8.6,11-7.8c5.2,0.8,9.9,5.7,8.3,10.4c-2,6,1.7,9.3,4,13.7c3.8-11.5-2.6-27.5-14.1-35.4
		c-0.6,0.6-1.2,1.3-1.9,2c-3.5,3.6-8.5,4.2-12.6,1.7c-4.1-2.5-5.7-7.5-4-12c1.7-4.4,6.3-7,11.1-6.1c4.7,0.9,8.2,4.9,8,9.8
		c-0.1,2.3,0.9,3.4,2.2,4.9c3.3,3.6,6.3,7.6,9.4,11.4c0.7,0.9,1.2,1.9,2.5,2.6c0-6.2,0.1-12.4-0.1-18.6c0-0.7-1.9-1.7-3-2
		c-7.7-2-12.9-6.8-14.6-14.5c-1.7-7.5,0.5-14.1,6.6-19.1c6-4.9,14.6-5.6,21.4-1.7c6.9,3.9,10.5,11.6,9.3,19.7
		c-1.1,7.3-6.9,13.8-14.5,15.3c-2.9,0.6-3.6,1.6-3.6,4.4c0.2,9.7,0.1,19.3,0.1,29.7c0.9-1,1.3-1.6,1.8-2.2c2.4-3.2,4.8-6.4,7-9.7
		c0.6-0.9,1-2.4,0.7-3.4c-2.4-8,0.2-15.1,7.1-18.4c6.4-3.1,14.3-1,18.3,4.9c3.9,6,2.9,14-2.4,18.8c-5.7,5.1-13.6,4.8-20-0.8
		c-0.4-0.3-0.7-0.6-1.4-1.2c-5.7,6.8-11.5,13.3-11,23.1c0.3,7.3,0.1,14.7,0.1,22.9c1.4-1.2,2.2-1.9,3-2.6
		c5.2-5.4,10.5-10.6,15.6-16.1c1.8-2,3.7-2.6,6.3-2.6c8,0.2,15.9,0.1,23.9,0.1c1.2,0,2.4-0.1,4-0.2c0-7.3,0-14.4,0-21.5
		c0-0.6-0.5-1.4-1-1.7c-4.2-2.4-5.6-6.6-6.5-10.9c-4.7-22.5-2.7-44.4,6.7-65.5c0.3-0.7,0.8-1.4,1.5-2.5c0.8,1.2,1.4,2.1,1.8,3
		c8.8,20.4,10.9,41.7,6.8,63.5c-0.9,4.8-2.1,9.8-7,12.5c-0.5,0.3-0.8,1.2-0.8,1.8c-0.1,7,0,14,0,21.2c1.8,0,3.2,0,4.9,0
		c-0.4-6.9,2.7-11.2,9.5-12.7c-0.1-4,0.7-8.5,4.8-9c4.9-0.6,8.8-3.4,13.4-4.4c3.6-0.8,7.4-0.6,10.8-2.9c1.3-0.9,4.6-0.4,6,0.7
		c2.4,1.9,4.9,3,7.8,3.8c4.3,1.2,6.5,4.5,6.9,8.9c0.3,4.2-1.5,7.5-5.1,9.7c-0.8,0.5-1.7,0.9-2.4,1.3c0.3,7.6-0.5,8.9-6.9,11.5
		c3.1,3.2,6.2,6.4,9.4,9.6c4.4-16.2,18.1-20.8,30.6-15.9c1.7-5.4,4.5-10.1,9.4-13.2c13.6-8.5,31,0.2,32.2,16.2
		c0.2,2.6,1,3.6,3.6,4.2c15.8,3.8,25,19.6,20.8,35.2c-4.1,15.1-20,24.2-35.1,19.7c-3.1-0.9-4.9,0.9-7.3,1.6
		c-4.5,1.3-5.2,4.1-5.1,8.3c0.3,8.4,0.1,16.9,0.1,25.4c0,1.4,0,2.8,0,4.3c4,0,7.5,0,11,0c0.1-0.3,0.1-0.7,0.1-1
		c-2.1-0.4-4.2-0.7-6.3-1.1c0-0.3,0-0.6,0-0.9c1.5-0.1,3,0,4.5-0.3c0.6-0.1,1.2-0.8,1.8-1.2c-0.6-0.4-1.1-1.1-1.8-1.2
		c-1.3-0.2-2.6-0.1-4.4-0.1c-0.1-1.4-0.2-2.6-0.3-4.4c1.9,0,3.4,0.1,4.9-0.1c0.6-0.1,1-0.7,1.6-1.1c-0.5-0.5-1-1.3-1.6-1.4
		c-1.4-0.2-2.9-0.1-4.5-0.1c0-2.9,0-5.5,0-8.1c2.4-0.5,4.8-1,7.5-1.6c0.6,0.2,1.8,1,3,1c8.9,0.1,17.9,0.1,26.8,0
		c1.1,0,2.2-0.8,2.9-1c2.4,0.5,4.6,1,7.2,1.6c0,2.3,0,4.9,0,7.8c-1.1,0.1-2.3,0-3.4,0.3c-0.9,0.2-1.8,0.8-2.6,1.2
		c0.9,0.5,1.8,1.2,2.8,1.4c1,0.3,2.1,0.2,3.3,0.3c0,1.3,0,2.5,0,4.1c-1.7,0-3.2-0.1-4.7,0.1c-0.5,0.1-0.9,0.8-1.4,1.2
		c0.5,0.4,0.9,1.1,1.4,1.2c1.3,0.2,2.7,0.2,4,0.3c0,0.3,0,0.6,0,0.9c-1.8,0.3-3.6,0.6-5.5,1c0,0.3,0.1,0.7,0.1,1c3.6,0,7.1,0,11.7,0
		c0-7.3-0.1-14.6,0.1-21.9c0.1-2,1.3-3.9,1.9-5.8c0.4-1.2,1.1-2.4,1.1-3.6c0.1-30.7,0-61.4,0-92.1c0-0.8,0.1-1.7-0.2-2.5
		c-4.5-13.4-10.5-26-20.9-35.9c-2.1-2-4.9-3.4-7.8-5.5c-1.1,4.6-4,3.9-6.6,2.8c-2.7-1.2-5.3-2.8-7.7-4.6c-0.6-0.4-0.9-2-0.7-2.8
		c0.2-0.5,1.7-1.1,2.4-0.9c2,0.4,4,0.9,5.9,1.7c9.6,3.9,19.1,8,28.8,11.8c1.1,0.5,3,0.2,4.1-0.5c2.5-1.4,4.7-1.2,7.1,0.2
		c1.1,0.6,2.9,0.9,4.1,0.5c11.8-4.2,23.6-8.6,35.3-12.9c0.3-0.1,0.7-0.3,1-0.4c2.2-0.5,5-2.3,6.4,0.4c0.4,0.9-2.3,3.7-4,5.1
		c-1.4,1.2-3.4,1.8-5.3,2.3c-2.4,0.6-5.1,1.1-5-2.7c-9.5,1.6-16.9,6.4-21.5,14.3c-4.9,8.3-8.9,17-13.2,25.7c-0.7,1.3-0.7,3-0.7,4.6
		c0,30.2-0.1,60.4,0.1,90.6c0,1.7,1.2,3.4,1.8,5.1c0.5,1.4,1.3,2.9,1.3,4.3c0.1,7.5,0.1,14.9,0.1,22.7c4.6,0,8.5,0,12.4,0
		c-2.3-6.3-2.1-6.7,3.3-11.1c0.4-0.3,0.8-0.9,0.9-1.4c1.1-4.6-3.1-11-7.9-12c-4.7-0.9-8.6-5.5-10.2-12c4.8-0.4,10.9,3.3,13,8
		c0.5,1.1,0.7,2.3,1.3,3.3c0.9,1.3,2,2.4,3.1,3.6c2.4-5.2,0.6-14-3.7-17.4c-0.8-0.6-1.9-0.8-3-1c-5.3-1.1-10-6.6-10.5-12.7
		c5.5,1.4,10.3,3.4,12.9,8.9c1.1,2.3,2.5,4.5,4,7.1c2.6-5.8,0.9-14-3.3-17.7c-0.5-0.5-1.2-1-1.8-1c-7.6-0.6-9.9-6.3-12.4-12.1
		c5.4-0.5,11.5,3.6,13.7,8.6c1,2.3,2.6,4.4,4.3,6.4c0.5-3.9,1.1-7.5-0.9-11.3c-2.9-5.3-1.1-10.5,1.9-15.4c3.9,3.5,4.9,10.8,3.1,15.4
		c-1.4,3.4-1.7,7.1-2.5,10.7c0.6,0.2,1.1,0.4,1.7,0.6c1.3-2.2,2.7-4.3,3.8-6.5c2.6-5.5,7.3-7.9,13.1-9.2c-0.3,5.7-4.8,11.8-9.6,12.5
		c-4.9,0.6-6.9,4.1-7.8,7.9c-0.8,3.4-0.2,7,0.6,10.9c1.2-2.1,2.7-4,3.6-6.3c2-4.9,7.8-8.9,13.3-8.9c-0.7,5.7-5,11-9.8,12.1
		c-4.5,1-7.6,4.4-8,9.3c-0.2,3,0,6,0.8,9.5c1.3-2,2.8-3.9,3.7-6c2.1-5.2,8-9.3,13.4-9.1c-1.3,6.7-5.2,10.9-11.5,12.1
		c-3.8,0.8-8.4,9.3-6.3,12.4c1.4,2.1,3.8,3.4,6,5.3c1.7-1.5,4.2-2.8,6.9-0.7c2.6,2,1.9,4.7,0.7,7.8c2.5,0,4.8,0,7,0
		c2.2,0,4.3,0,7.1,0c0-1.4,0-2.6,0-3.7c0-21.9,0-43.7,0-65.6c0-2-0.4-3.3-2.1-4.9c-2-1.8-3.7-4.6-4.4-7.2
		c-4.1-13.9-4.3-28.2-1.7-42.3c1.5-8.5,4.7-16.7,7.2-25c0.3-1.1,1-2.1,1.9-3.7c0.9,1.7,1.5,2.6,1.9,3.7c8.8,20.6,10.8,41.9,6.5,63.8
		c-0.9,4.5-2.2,8.9-6.5,11.7c-0.7,0.4-1.1,1.8-1.1,2.8c0,23,0,45.9,0,68.9c0,0.3,0.2,0.7,0.3,1.3c2.8,0,5.6,0,8.9,0
		c0-7.8,0-15.5-0.1-23.2c0-0.6-0.9-1.2-1.3-1.8c-1.5-2.1-3.8-4-4.2-6.3c-2.3-13.2-0.1-25.9,5.4-38.1c0.1-0.3,0.5-0.5,0.8-1
		c0.4,0.3,0.8,0.6,1,0.9c5.4,11.9,7.5,24.4,5.7,37.4c-0.4,3.1-1.3,5.9-4.7,7.2c-0.5,0.2-1.1,1-1.1,1.6c-0.1,7.7,0,15.4,0,23.2
		c2.3,0.2,4.2,0.4,6.1,0.6c0,0.3,0,0.6-0.1,0.9c-470,0-939.9,0-1409.9,0c0-0.3,0-0.7,0-1c4.3,0,8.6,0,13.2,0
		c-2.5-6.6-2.1-9.8,1.3-12.2c2.9-2,6.7-1.8,9.4,0.6c3,2.6,3.2,6,0.6,11.2c1.4,0.1,2.6,0.1,4.1,0.2c0-23.2,0-46.3,0-69.4
		c-3.9,3.5-7.5,7.3-11.6,10.4c-4.1,3.1-8.7,5.2-14.1,3.4c9.5-0.2,15.4-6.2,21.7-12.2c5.2-5,4.3-10.8,4.1-17
		c-3.7,3.3-7.1,6.7-10.8,9.6c-3.7,2.8-7.9,4.7-12.9,3c7.4-0.2,12.5-4.4,17.8-8.9c5.9-5.1,7.1-11.4,5.7-18.7
		c-3.1,2.8-6.1,5.8-9.5,8.4c-3.4,2.6-7.3,4.4-11.9,2.7c7-0.3,11.8-4.3,16.7-8.6c5.7-4.9,5.4-11,4.8-18c-5.7,5.3-10.4,11.9-19.4,10.1
		c6.3-0.5,10.7-4.2,15.3-8.1c5.5-4.8,4.3-10.7,4.3-17.1c-2.9,2.5-5.3,4.9-8.1,6.9c-2.8,1.9-5.8,3.4-9.3,2
		c14.4-3.6,19.6-11.9,17.1-23.9c-2.3,2-4.4,4-6.8,5.7c-2.4,1.7-5.1,3.1-8.4,1.3c5.6-0.4,9.3-3.7,13-7.3c4.6-4.4,1.7-9.8,3-15.5
		c-2.8,2.2-4.7,4-6.8,5.4c-2.1,1.4-4.5,2.5-7.8,0.9c10.2-2.4,16.1-6.7,14-20.9c-3.6,2.1-6.2,6.3-11.4,4.4c5.7-0.6,8.9-4.6,11.8-8.1
		c4.2,3,8.2,5.9,12.3,8.8c-4.2,0.7-7.1-2.4-10.2-5.1c-2.5,9.7-0.6,17.5,12.6,20.8c-3.4,1.8-5.2,1-12.7-5.4
		c-2.9,9.5,0.3,18.7,14.8,21.9c-3.3,2-3.6,1.9-15-6.7c-2.2,9.4-0.4,18.7,17.1,23.4c-4,2-7,0.6-16.9-8.1c-3,8.2,0,20.2,18.8,24.6
		c-4.3,2-5.3,1.5-19.1-9.6c-3,12.8,5.2,22.9,21.2,26c-2.8,1.8-6.9,1.2-11.6-2.3c-3.4-2.5-6.5-5.6-9.7-8.4
		c-2.8,13.6,6.2,24,23.4,27.3c-2.9,2-7.7,1.1-13-2.9c-3.7-2.8-6.9-6.1-10.4-9.3c-2.8,13.8,6.6,24.4,25.4,28.7c-3.2,2-8.4,1-14-3.3
		c-4-3.1-7.6-6.8-11.6-10.5c0,23.1,0,46.1,0,69.3c1.4,0,2.5,0,3.7,0c-1-7,0-8.7,6.5-11.3c0.8-0.3,1.4-1.1,2.2-1.7
		c1-0.8,2-2.3,3.1-2.4c6.3-0.4,12.1-4.8,18-2.6c2.5-2.5,4.8-4.6,6.9-6.9c0.6-0.6,0.8-1.7,0.8-2.6c0.1-8.2,0.1-16.4,0-24.6
		c0-1-0.4-2.4-1.1-2.8c-4-2.3-5.3-6.3-6.2-10.2c-4.9-22.6-2.8-44.6,6.4-65.9c0.4-0.8,1-1.5,2-3.1c1.6,4.1,3.2,7.4,4.4,10.9
		c6.5,18.8,7.6,38,3.5,57.5c-0.9,4.2-2.1,8.5-6.4,10.9c-0.6,0.3-1,1.4-1,2.1c-0.1,8.9,0,17.9,0,27c4.1,0.7,7.3,2.4,9.2,6.3
		c0.5,1,2.9,1,4.9,1.5c0-2,0-3.4,0-4.8c0-33.6,0-67.2-0.1-100.8c0-3,0.7-5.3,2.6-7.6c2.5-3.1,4.9-6.3,7-9.6c1.8-2.9,3.9-4.4,7.3-3.8
		c0.9,0.1,1.9-0.2,3.2-0.3c0-6.1,0.1-12-0.1-17.8c-0.1-2.5,0.6-4.4,2.5-6c1.7-1.5,3.2-3.3,4.9-4.8c1.5-1.2,3.2-2.1,5.7-3.7
		c0-1.5,0.2-4,0-6.5c-0.2-2.3,0.7-3.5,2.6-4.6c4-2.2,7.9-4.5,12.6-7.2c0-1.5,0-3.9,0-6.2c0-5.2,2.7-7.7,7.7-7.7c2.2,0,3.1,0.7,3,2.9
		c-0.1,2.9-0.1,5.8,0,8.7c0,2.1-0.4,4.6,3.4,3.6c0,64.9,0,129.4,0,194.2c2.9,0,5.5,0,8.6,0c0-1.6,0-3.1,0-4.6
		c0-69.3,0-138.7-0.1-208c0-2.7,0.7-4.5,2.6-6.3c5.2-4.9,10.1-10.1,15.2-15c1-1,2.6-1.7,4-1.8c5.7-0.2,11.4-0.2,17,0
		c1.4,0,3.1,0.7,4.1,1.6c5.6,5.3,11,10.8,16.4,16.4c0.9,0.9,1.5,2.5,1.5,3.8c0,38.7,0,77.3,0,116c0,31.9,0.1,63.8,0.1,95.7
		c0,0.7,0.1,1.4,0.2,2.3c3.1,0,6.1,0,9.5,0c0-1.5,0-2.8,0-4.1c0-36.8,0-73.7,0-110.5c0-12.7-0.1-25.4,0.1-38c0-1.4,0.9-3.3,2-4.2
		c6.4-5.5,12.9-10.9,19.5-16.2c1.1-0.9,2.8-1.4,4.2-1.4c4.4-0.2,8.9-0.1,13.8-0.1c0-1.9,0-3.5,0-5c0-26.1-0.1-52.2,0.1-78.3
		c0-2.1,0.9-4.5,2.2-6.2c4.9-6.6,10.2-12.9,15.3-19.3c0.7-0.8,1.4-1.6,2.3-2.6c4.9,3.6,9.7,7,14.4,10.5c9.5,6.9,18.9,13.9,28.4,20.7
		c2.1,1.5,2.7,3,2.6,5.4c-0.1,27.1,0,54.1-0.1,81.2c0,3.7,1.2,5.6,5.2,6.5c0-7.1,0.2-14.1-0.1-21c-0.1-3.1,0.9-5.2,3.1-7.2
		c3.9-3.6,7.4-7.6,11.4-11.1c1.3-1.1,3.3-2,5-2c6.8-0.2,13.7-0.1,21-0.1c0-8,0.1-15.4-0.1-22.9c-0.1-2.9,0.7-5,2.6-7.2
		c5.2-5.9,10.2-11.9,15.2-18c1.4-1.8,2.9-2.5,5.2-2.4c3.2,0.2,6.5-0.2,9.8,0.1c3,0.2,3.7-1,3.6-3.7c-0.2-4.8-0.2-9.7,0-14.5
		c0.1-1.8,0.8-3.8,1.8-5.2c3.7-4.9,7.6-9.7,11.6-14.4c0.7-0.8,1.9-1.8,2.9-1.8c9.9-0.1,19.8,0,29.7,0.1c0.3,0,0.7,0.2,1.3,0.5
		c0,97.4,0,194.8,0,292.6c6,0,11.7,0,17.7,0c0-20.5,0-40.9,0-62c-4.8,0-9.7,0-14.7,0c-0.8-4.3-0.7-7.7,2.9-10.4
		c3.1-2.3,5.7-5.2,8.6-7.8c4.4-4,4.8-11.2,0.5-15.6c-0.8-0.9-2.2-1.3-3.4-1.6c-4.2-1.2-7.6-5.3-8-10.1c7.6,0.2,10.3,6.3,13.7,11.7
		c1-4.5,1.2-8.6-1.9-12c-0.8-0.8-1.8-1.7-2.9-1.9c-5.7-1-7.6-5.2-9.5-10.2c8.2,0,10.6,6.4,14,12c2.7-6.9,0.1-12.8-6.1-14.6
		c-3.7-1.1-6.9-5.3-7.3-9.9c7.8,0,10.1,6.6,13.4,11.8c0.4-0.2,0.9-0.4,1.3-0.6c-0.5-2.5-0.7-5.2-1.7-7.6c-1.8-4.6-1-8.6,1.6-12.7
		c3.3,2.7,4.3,8.4,2.8,12.2c-1,2.5-1.4,5.3-1.5,8.4c4.2-4.8,6.5-11.6,14.3-11.6c-0.5,4.8-3.8,9-7.7,10c-3.8,1-6.2,3.7-6.6,7.5
		c-0.1,1.3-0.1,2.7-0.1,4c0,0.8,0.1,1.6,0.2,3.7c4.1-5.9,6.3-12.5,13.9-12.7c0.4,3.9-3.2,8.9-7.1,10c-4.6,1.3-6.8,4-7,8.7
		c-0.1,1.8,0,3.5,0,5.3c0.3,0.1,0.6,0.2,0.9,0.3c1.7-2.6,2.9-5.7,5.1-7.8c2.1-2,5.1-3.1,8.1-4.9c0,5-2.9,9.3-6.7,10.7
		c-6.5,2.4-7.9,4.8-7.2,12.7c2.9-2.6,5.6-4.7,7.8-7.3c3.7-4.3,8-6.3,13.6-5.4c1.5,0.3,3.1,0,5.3,0c0-1.5,0-2.8,0-4
		c0-9.2-0.4-18.4,0.1-27.5c0.5-8.3-3.6-14.2-8.8-20.1c-0.9,0.7-1.7,1.4-2.6,2c-4.8,3.4-11.3,2.9-15.3-1c-4-3.9-4.7-10.2-1.7-15
		c3.1-4.8,9-6.7,14.3-4.6c5.3,2.1,8.6,7.9,7,13.6c-0.9,3,0,4.7,1.8,6.7c1.6,1.9,3,4.1,4.8,6.7c0-9,0-17.4,0-26
		c-0.9-0.2-1.9-0.4-3-0.7c-7.7-2.2-12.4-9.4-11.3-17.5c1-7.3,7.4-13,15-13.2c7.7-0.2,14.5,5.4,15.9,13.1c1.3,7.4-3.1,15.3-10.6,17.2
		c-4.1,1-4.4,3.1-4.2,6.3c0.2,3.3,0,6.7,0,10.2c3.8-4.2,7.4-8.1,10.9-12.1c0.4-0.5,0.3-1.6,0.3-2.4c0.2-4.4,2.8-7.4,6.8-8.1
		c3.7-0.6,7.3,1.3,8.8,4.8c1.5,3.5,0.5,7.5-2.5,9.8c-3.2,2.4-7.5,2.2-10.6-0.6c-0.6-0.6-1.2-1.2-2-2.1c-6.5,6.3-12.3,12.6-11.7,22.6
		c0.3,4.5,0,9.1,0,14c3.7-3.4,4.2-4.8,3.5-9c-0.6-3.8,1.2-7.4,4.6-9c3.1-1.5,7.3-0.6,9.6,2.1c2.5,2.8,2.7,7,0.5,10.1
		c-2.1,3-6.1,4.3-9.6,3c-0.9-0.3-1.7-0.8-3.4-1.6c-1.7,3.5-4.5,6.9-4.9,10.5c-0.8,7.1-0.2,14.4-0.2,22c3.7,0,7,0,10.4,0
		c15.3,0,30.7-0.1,46,0.1c1.8,0,3.9,1,5.3,2.1c3.8,3.1,7.3,6.6,11.5,10.5c0-13.6,0-26.5,0-39.7c-3.9,3.5-7.5,7.2-11.6,10.4
		c-4.1,3.2-8.7,5.4-14.4,3.9c4.2-1.4,8.7-1.9,11.8-4.2c5.1-3.7,10-8.1,13.5-13.3c1.9-2.8,0.8-7.8,0.7-11.9
		c-6.2,5.9-11.6,12.4-20.6,13.3c-1,0.1-2.1-0.3-3.9-0.6c4.1-1.2,7.9-1.4,10.4-3.3c4.9-3.6,9.8-7.7,13.2-12.6c2-2.9,1.1-7.8,1-12
		c-6.4,5.7-11.9,12.7-21.6,11.2c6.8-0.5,11.6-4.5,16.6-8.8c5.7-4.9,5.7-10.9,4.9-17.7c-3.1,2.7-5.8,5.5-9,7.7
		c-3.1,2.2-6.5,4-10.6,1.9c6.6-0.1,10.9-4,15.5-8c5.5-4.8,4.5-10.6,4.3-17.1c-2.9,2.5-5.4,4.9-8.1,6.9c-2.8,2-5.9,3.2-9.4,2
		c15.1-4.1,19.7-12.2,17.2-24c-4.5,3.7-8.2,9-15.3,7.3c7.7-0.8,12-6.1,16.4-11.9c4.4,5.5,8.6,11.2,17.1,11.4
		c-4.6,2.1-5.5,1.7-15.8-6.6c-2.8,10.9,1.9,19.7,16.9,23.5c-4,1.9-4.7,1.5-17-8.3c-2.3,13,5.1,22.6,19,24.5
		c-2.1,1.9-5.8,1.5-10.4-1.8c-3.1-2.2-5.8-5-8.6-7.5c-2.4,13.4,4.4,21.8,21.2,26.1c-4.7,2.7-10,0-21-11
		c-5.2,10.9,8.8,27.2,23.1,27.3c-2.6,2-7,1.3-12.8-2.8c-3.8-2.7-7-6.1-10.4-9.1c-3.4,13.1,9,27,25.3,28.2c-2.3,2.5-8.3,1.5-14-2.9
		c-4.1-3.1-7.6-6.9-11.6-10.6c-0.1,0.8-0.2,1.7-0.2,2.5c0,12.1,0,24.2,0.1,36.2c0,1.5,0.9,3.2,1.9,4.3c3,3.1,6.1,6.3,9.5,8.9
		c3.6,2.7,4.4,6,3.4,10.5c-4.8,0-9.7,0-14.7,0c0,7.4,0,14.2,0,21.3c7.2,0.9,11.9,4.8,14,11.8c-3.6-4.7-6.9-9.8-14-9.9
		c0,13.1,0,25.9,0,38.7c5.1,1.9,8.9,0.1,11.6-3.8c1.1-1.5,0.4-4.2,0.7-6.3c0.3-2.5-0.6-3.8-2.9-5c-4.4-2.2-6.6-6.1-6.6-11.6
		c2.7-0.2,5.3-0.3,7.8-0.5c0.1-0.4,0.3-0.7,0.4-1.1c-2.9-1.5-5.9-3.1-8.8-4.6c0-0.2,0-0.4,0-0.5c1.7,0.4,3.6,0.3,5.1,1.1
		c1.9,1,3.4,2.6,5,4c1.8,1.6,3.5,2.6,5-0.3c3.1-2.5,6-5.5,10.8-4.5c-3.2,1.7-6.1,3.2-9,4.8c0.2,0.4,0.3,0.7,0.5,1.1
		c0.8,0.1,1.6,0.2,2.4,0.3c2,0.3,3.9,0.6,5.9,0.8c-0.7,2.4-1.1,4.9-2.1,7.1c-0.6,1.3-2,2.8-3.3,3.2c-4.1,1.3-4.1,4.2-4,7.6
		c0.2,6.9,4.7,10.2,12,7.8c0-12.6,0-25.4,0-38.3C614.2,396.2,609.2,399.9,606.8,406.5z M821.4,231.2c-0.8,0.1-1.9-0.1-2.2,0.3
		c-3.9,4.9-7.6,10-11.3,15c0.3,0.2,0.6,0.5,0.9,0.7C812.9,241.8,817.1,236.5,821.4,231.2c4-5.2,8-10.3,12-15.3
		c-0.3-0.2-0.6-0.4-0.9-0.7c-3.4,4-6.8,8-10.1,12.1C821.7,228.3,821.7,229.9,821.4,231.2z M1175.5,288.9l-0.1-0.1
		c0.1,0.5,0.4,1.1,0.3,1.6c-0.6,3.2-1.3,6.4-2.2,10.4c1.8-0.8,2.6-1.2,3.6-1.6c-1.2,3.1-2.3,5.8-3.4,8.4c0.4,0.2,0.8,0.3,1.2,0.5
		c3.4-1.8,4.3-5.3,5.1-8.6c4.8-21.6,3-42.6-5.4-63.1c-0.2-0.6-0.7-1-1.3-1.8c-0.4,0.9-0.7,1.4-1,1.9c-7.7,18.8-9.6,38.2-6.3,58.2
		c0.6,3.4,1.8,6.7,3,10c0.5,1.4,1.8,2.4,2.8,3.7c0.4-0.2,0.8-0.4,1.2-0.5c-0.3-3.6,0.1-7.5-1.1-10.9c-1.2-3.3-3.9-6.1-6-9.2
		c0.4-0.2,0.7-0.5,1.1-0.7c1.7,2.2,3.3,4.4,5.1,6.8c2.2-5.5-0.8-9.6-2.4-14c0.8,0.7,1.6,1.5,2.4,2.2c3.2-7.6-3.8-11.7-6.1-17.4
		c0.3-0.2,0.6-0.3,0.9-0.5c1.7,2.2,3.5,4.5,5.2,6.7c0.3-0.1,0.7-0.3,1-0.4c0-6.2,0-12.4,0-18.6c0.3,0,0.7,0,1,0c0,4.3,0,8.7,0,13.3
		c1.2-0.7,2-1.1,2.7-1.6c-2.7,4.2-3.5,8.4-2,14.1c1.3-1.9,2.1-3.1,3-4.4c0.5,0.8,0.6,1,0.6,1c-1.1,1.7-2.2,3.4-3.2,5.1
		C1173.8,282,1173.9,287.2,1175.5,288.9z M464.6,418.5c0-61.7,0-123,0-184.4c-35,0-69.8,0-104.7,0c0,67.3,0,134.4,0,201.5
		c13.4,0,26.5,0,39.7,0c-0.2-0.5-0.2-0.8-0.4-0.9c-4.4-4.9-5.5-10-3.1-14.8c2.4-4.8,7-6.9,13.7-6.4c0.7,0.1,1.9-0.2,2.1-0.6
		c2.8-5.5,5.4-11.1,8.3-17.2c-2.6,0.4-4.3,0.8-6.1,1c-1.6,0.2-3.2,0.4-4.8,0.6c0-0.3,0-0.6,0-1c7.8-2.6,15.6-3.3,23.3,0.6
		c-2.7,0-5.3-0.5-7.9-1.1c-2-0.5-3.1,0-3.9,2c-1.4,3.4-3.2,6.7-4.7,10.2c-0.3,0.8-0.5,2-0.1,2.6c2.8,3.8,5.5,7.7,8.7,11.1
		c1.4,1.5,3.9,2.1,6,2.7c0.7,0.2,2.5-1.1,2.5-1.8c0.2-4.1,0.1-8.1,0.1-12.2c-1.6-0.4-2.8-0.7-4-1c0-0.2,0-0.4,0.1-0.7
		c3.1,0,6.3,0,10.1,0c-1.2,1-1.8,1.4-2.6,2.1c2.7,2.2,5.2,4.2,7.6,6.2C452.9,411.4,456.5,411.7,464.6,418.5z M959.5,226.5
		c0,1.8,0,3.2,0,4.6c0,13.8,0.6,27.6-0.2,41.3c-0.6,9.5,1.6,16.8,9.4,22.5c1.5,1.1,2.5,3.9,2.5,5.9c0.2,32.7,0.1,65.4,0.1,98.2
		c0,1.3,0.1,2.5,0.2,3.8c27.6,0,54.7,0,82.4,0c0-2,0-3.7,0-5.5c0-55.4,0-110.8,0-166.3c0-4.8,0-4.8-4.7-4.8
		c-28.7,0-57.5,0.1-86.2,0.2C962,226.3,961.1,226.4,959.5,226.5z M969.5,435.5c0.1-1.2,0.2-2.1,0.2-2.9c0-40.6,0-81.2,0.1-121.8
		c0-3.1-1.2-3.5-3.9-3.5c-31.3,0.1-62.6,0.1-93.9,0c-3.3,0-4.3,0.9-4.3,4.2c0.1,40,0.1,80,0.1,120c0,1.3,0,2.6,0,4c5,0,9.5,0,14.5,0
		c0-14.5,0-28.8,0-43.1c10.1,0,19.7,0,29.7,0c0,14.5,0,28.7,0,43.1C931.4,435.5,950.3,435.5,969.5,435.5z M163.2,435.5
		c19.4,0,38.4,0,57.9,0c0-1.7,0-3.1,0-4.5c0-32.7,0-65.5,0-98.2c0-36.1,0-72.2,0.1-108.3c0-3.3-0.9-4.3-4.2-4.3
		c-16.5,0.2-33.1,0.1-49.6,0.1c-1.3,0-2.6,0-4.1,0C163.2,292.3,163.2,363.7,163.2,435.5z M304.3,433.3c0-0.3,0-0.5,0-0.8
		c0.5-0.1,1.1-0.3,1.6-0.4c1.5-0.4,2.9-0.8,4.4-1.2c-1.4-0.5-2.8-0.9-4.2-1.4c-0.1,0-0.3,0-0.4,0c-0.6-0.8-1.6-1.5-1.8-2.4
		c-0.1-0.6,1.1-1.5,1.8-1.9c0.7-0.3,1.7,0.1,2.5-0.2c0.7-0.2,1.3-0.9,2-1.4c-0.6-0.4-1.2-1-1.9-1.1c-1.4-0.2-2.8-0.1-4.6-0.1
		c0-2,0.2-3.6,0-5.1c-0.3-2.7,0.6-3.7,3.4-3.6c1.4,0.1,2.8-0.8,3.6-1.1c1.6,0.5,2.7,1.1,3.9,1.1c8.7,0.1,17.4,0.1,26.1,0
		c1.3,0,2.6-0.8,3.5-1.1c2.5,0.6,4.8,1.1,7.1,1.7c0,2.6,0,5.2,0,7.9c-1.2,0.1-2.2,0-3.1,0.2c-1,0.3-1.8,0.9-2.8,1.3
		c1,0.4,1.9,1,2.9,1.3c1,0.3,2,0.2,3.3,0.3c-0.1,1.5-0.2,2.7-0.3,4.1c-1.6,0-2.9-0.1-4.2,0.1c-0.6,0.1-1.2,0.8-1.8,1.2
		c0.6,0.4,1.1,1.1,1.8,1.2c1.1,0.3,2.3,0.3,3.5,0.4c0,0.3-0.1,0.5-0.1,0.8c-1.7,0.3-3.4,0.6-5.1,0.9c0,0.4,0.1,0.8,0.1,1.1
		c4,0,8,0,12.2,0c0.1-1.1,0.2-2.1,0.2-3c0-43.1,0-86.2,0-129.3c0-2.5-1-3.6-2.9-4.8c-19.7-12.5-39.3-25-58.9-37.5
		c-1.1-0.7-2.2-1.2-3.7-2c0,59.3,0,118,0,176.6c6.1,0,11.9,0,17.7,0c0-0.4,0-0.8,0.1-1.2C308.4,433.8,306.3,433.5,304.3,433.3z
		 M1264.7,336.1c-0.8-0.4-1.7-0.8-2.5-1.1c-11.4-4.8-24.2,1.8-26.6,13.9c-0.3,1.6,0.3,3.9,1.4,5.1c4.4,4.8,8.7,9.8,13.8,13.9
		c6.6,5.4,9.8,11.7,8.3,20.3c-0.2,1.3-0.2,2.7,0,4c0.2,1,0.6,2.2,1.3,2.7c5.6,3.8,11.9,5.3,18.6,4c0.8-0.2,2-1.4,2-2.2
		c0.1-6.9,0.1-13.8,0-20.6c0-0.8-0.4-1.7-0.8-2.3c-5.6-8.8-12.6-15.9-23.5-17.7c-0.6-0.1-1.2-0.5-1.7-0.7c0.1-0.4,0.3-0.8,0.4-1.2
		c4.5,1.5,9,2.9,13.6,4.5c0-6.2-2.9-11.1-6.8-15.7c1,0.2,1.8,0.7,2.4,1.3c4,3.9,5.4,9,6.1,14.3c0.1,0.9,0.2,2.1,0.8,2.6
		c3.3,2.9,6.8,5.6,9.9,8c0-3.8,0-9.2,0-14.5c0.3,0,0.7,0,1,0c0.2,1.4,0.5,2.7,0.8,4.5c6.7-11.3,9.4-14.3,13.8-14.4
		c-11.9,9-16,20.7-13.7,35.4c6.7-9.1,14.2-15.6,25.3-16.1c-2.1,1.2-4.6,1.7-6.9,2.6c-2.2,0.9-4.3,2.2-7.2,3.8
		c13.7,1.4,15.3,1.9,17.6,5.5c-1-0.3-1.6-0.5-2.2-0.8c-5.1-2.9-10.5-3.5-16.1-2.3c-1.4,0.3-2.9,1.1-4.1,2.1
		c-7.4,6.1-8,14.2-6.5,23.4c1.5-0.6,3-1,4-1.8c2.9-2.5,5.7-2.3,9.3-1.4c12.4,3.3,25.2-3.2,30.6-14.8c5.4-11.7,2.1-25.5-8.6-32.8
		c-4.1-2.8-9.2-4.4-14.1-6.6c-0.6-12-5.8-19.3-15.8-21.3C1278.2,317,1271.7,321.6,1264.7,336.1z M587.8,435.5c0-1.5,0-2.8,0-4.1
		c0-17.9-0.1-35.7,0.1-53.6c0-3.7-1-4.6-4.7-4.6c-31.2,0.2-62.3,0.1-93.5,0.1c-1.3,0-2.6,0.1-4,0.2c0,20.8,0,41.3,0,62
		c24.3,0,48.3,0,72.8,0c0-1.7,0-3.1,0-4.5c0-12,0.1-23.9,0-35.9c0-2.7,0.7-3.6,3.5-3.5c5.7,0.2,11.4,0.2,17,0
		c2.7-0.1,3.5,0.8,3.5,3.5c-0.1,12.1-0.1,24.1-0.1,36.2c0,1.4,0.1,2.8,0.2,4.2C584.6,435.5,586,435.5,587.8,435.5z M1181,377.4
		c-26.9,0-53.3,0-79.6,0c0,19.5,0,38.7,0,58.2c26.6,0,53,0,79.6,0C1181,416.2,1181,397,1181,377.4z M1202.7,435.8c0-1.9,0-3.2,0-4.5
		c0-10.1,0.2-20.3-0.1-30.4c-0.1-3.9,1.2-4.8,4.7-4.5c3.7,0.3,7.5,0.3,11.2,0c3.2-0.2,3.8,1.2,3.8,4c-0.1,10.6,0.1,21.2-0.1,31.9
		c0,2.8,0.9,3.5,3.5,3.4c9.4-0.1,18.8,0,28.2-0.1c1,0,2.1-0.2,3.2-0.3c0-19.4,0-38.6,0-58c-24.9,0-49.6,0-74.7,0
		c0,5.2,0,10.2,0,15.1c0,13.3-0.1,26.5-0.1,39.8c0,1.6-0.5,3.5,2.3,3.5C1190.6,435.7,1196.4,435.8,1202.7,435.8z M780.9,434.2
		c0,0.5,0.1,0.9,0.1,1.4c4.9,0,9.8-0.2,14.7,0.1c2.7,0.1,4.2-1,5.5-3.2c5.9-9.4,3.4-21.2-5.8-27.9c-1.1-0.8-2.1-2.3-2.2-3.6
		c-0.6-9.5-5.8-16.9-14.1-19.6c-8.6-2.8-17.2,0.1-23.1,7.7c-0.7,0.9-2.2,1.7-3.4,1.7c-4.2,0.1-7.7,1.5-10.5,4.7
		c-0.8,0.9-2.6,1.6-3.8,1.5c-8.6-0.4-14.6,6.4-12.7,14.7c0.4,1.9,0.4,2.9-1.4,4.2c-5,3.6-6.3,9.1-3.9,14.8c0.6,1.4,0.8,3,1.1,4.4
		c7.7,0,15.9,0,24,0c0-0.3,0-0.6,0-0.9c-2-0.2-4-0.5-6-0.7c0-0.4,0-0.7,0-1.1c1.5-0.1,3,0,4.4-0.3c0.6-0.1,1.2-0.8,1.8-1.3
		c-0.6-0.4-1.2-1.1-1.8-1.2c-1.4-0.2-2.8-0.1-4.2-0.1c0-1.7,0-2.9,0-4.4c1.6,0,3,0.1,4.3-0.1c0.6-0.1,1.2-0.8,1.8-1.3
		c-0.6-0.4-1.1-1.2-1.7-1.3c-1.4-0.2-2.8-0.1-4.3-0.1c0-3.1,0-5.8,0-8.2c2.5-0.4,4.7-0.8,7.7-1.3c0.3,0.1,1.5,0.9,2.7,0.9
		c8.8,0.1,17.6,0.1,26.4,0c1.2,0,2.4-0.8,3.7-1.2c0.9,0.4,2,1.3,3,1.2c3.6-0.4,4.4,1.3,4,4.4c-0.2,1.3,0,2.6,0,4.3
		c-1.8,0-3.2-0.1-4.6,0.1c-0.6,0.1-1.2,0.8-1.7,1.3c0.6,0.4,1.1,1.2,1.7,1.3c1.5,0.2,3,0.1,4.8,0.1c-0.2,1.8-0.3,3-0.4,4.3
		c-1.6,0-2.9-0.1-4.2,0.1c-0.7,0.1-1.3,0.7-1.9,1.1c0.7,0.5,1.3,1.2,2,1.4c1.1,0.3,2.3,0.3,3.5,0.4c0,0.3,0,0.6-0.1,0.9
		C784.5,433.7,782.7,433.9,780.9,434.2z M118.3,435.6c0-47.9,0-95.3,0-142.9c-4.6,0-9,0-13.7,0c0,47.7,0,95.2,0,142.9
		C109.2,435.6,113.6,435.6,118.3,435.6z M464.6,183.4c-20.5,0-40.6,0-60.9,0c0,16.2,0,32.2,0,48.4c20.4,0,40.6,0,60.9,0
		C464.6,215.6,464.6,199.7,464.6,183.4z M1052.5,224.6c-16.9-16.5-33.1-32.5-49.6-48.6c-14.2,16.3-28,32.1-42.4,48.6
		C991.5,224.6,1021.6,224.6,1052.5,224.6z M151.3,435.6c0-17.4,0-34.6,0-52.1c-9.3,0-18.4,0.2-27.4-0.1c-3.3-0.1-4.1,1-4,4.1
		c0.2,14.7,0.1,29.4,0.1,44.2c0,1.3,0.2,2.5,0.3,3.9C130.8,435.6,140.9,435.6,151.3,435.6z M290.6,281.8c-0.6-0.2-1-0.4-1.3-0.4
		c-17.6,0-35.2,0-52.9-0.1c-2.3,0-2.8,1-2.8,3.1c0.1,11.5,0.1,22.9,0,34.4c0,2.8,0.7,3.7,3.7,3.7c16.9-0.1,33.8-0.1,50.7-0.1
		c0.8,0,1.6-0.1,2.6-0.2C290.6,308.7,290.6,295.3,290.6,281.8z M151.3,300c0-19.3,0-38.2,0-56.9c-4.7,0-9.1,0-14,0
		c0,6.1,0,12,0,18.1c-5.4,0-10.3,0-15.5,0c-0.1,1.5-0.3,2.7-0.3,3.8c0,7.8,0.1,15.7,0,23.5c0,1.5-0.5,3-1.1,4.3
		c-1.4,3.3-0.3,7.1,2.3,7.1C132.1,300,141.5,300,151.3,300z M1015.2,404.6c-14.8,0-29.3,0-43.8,0c0,10.5,0,20.6,0,31
		c14.7,0,29.1,0,43.8,0C1015.2,425.2,1015.2,415,1015.2,404.6z M102.7,295.6c-0.3-0.1-0.5-0.2-0.8-0.2c-2.3,3.1-4.4,6.3-6.9,9.2
		c-2,2.5-2.8,5-2.8,8.2c0.1,33.4,0.1,66.9,0.1,100.3c0,8.3,2,10.5,10.4,11.5C102.7,381.7,102.7,338.6,102.7,295.6z M233.9,323.8
		c0,37.6,0,74.6,0,111.8c3.9,0,7.4,0,11.3,0c0-1.5,0-2.6,0-3.8c0-23,0-46.1,0-69.1c0-11.8,0-23.6,0.1-35.5c0-2.5-0.6-3.6-3.2-3.4
		C239.5,323.9,236.8,323.8,233.9,323.8z M1191,322c-5.1,0.3-8.8,2.2-10.1,7.3c-0.6,2.7-0.2,4.3,3.3,4.2c9.3-0.2,18.6,0,27.9-0.1
		c2.9,0,5.3,0.4,7.3,2.9c1.8,2.3,4.4,2.3,6.9,1c2.6-1.4,3.6-3.8,3-6.8c-0.2-1-0.7-2-1-2.8c0.4-0.3,0.6-0.5,0.8-0.6
		c5.7-1.8,8.2-4.9,7.8-9.7c-0.4-4.5-3.6-7.2-9.2-8c-1-0.1-1.8-1.3-2.8-1.7c-2-0.9-5-2.9-5.9-2.2c-3.9,3-8.4,2.5-12.7,3.3
		c-1.2,0.2-2.6,0.9-3.5,1.8c-1.8,1.8-3.6,2.1-6.1,1.8c-3.7-0.5-6.7,3-6.3,6.7C1190.5,320,1190.8,320.9,1191,322z M335.5,270.1
		c0-6.1-0.2-11.2,0.1-16.4c0.1-3-0.8-4.9-3.3-6.6c-10-7.1-19.9-14.5-29.8-21.7c-3.1-2.3-6.3-4.5-10.2-7.2c0,8.3-0.1,15.8,0.1,23.2
		c0,1,1.4,2.2,2.4,2.8c10.8,7,21.7,13.9,32.6,20.8C329.9,266.6,332.3,268.1,335.5,270.1z M1118.8,285.2c0-6.1,0-11.9,0-17.7
		c0.4,0,0.8,0,1.2,0c0,5.9,0,11.8,0,17.7c10-0.6,17-8.4,16.7-18c-0.3-9.3-8.2-16.8-17.5-16.7c-9.6,0.1-17.2,7.6-17.4,17.2
		C1101.6,277.1,1108.8,284.9,1118.8,285.2z M740.5,323.8c9.5,0.1,17.2-8.2,16.9-17.6c-0.3-9.7-8.8-17.6-18.3-17
		c-10.2,0.6-17.4,9.1-16.5,19.4c0.8,8.5,8.7,15.9,16.8,15c0-5.7,0-11.5,0-17.3c0.4,0,0.8,0,1.1,0
		C740.5,312.1,740.5,317.9,740.5,323.8z M292.4,172.2c0,7.3-0.1,13.7,0.1,20c0,0.9,1.2,2,2.1,2.6c12.4,9.1,24.9,18.2,37.4,27.3
		c0.9,0.7,1.9,1.2,3.5,2.2c0-6.5,0.2-12.2-0.1-18c-0.1-1.5-1-3.4-2.2-4.4c-4.3-3.5-8.9-6.6-13.4-9.9
		C311,185.6,302.1,179.2,292.4,172.2z M292.3,195.1c0,6.6,0.1,12.2,0,17.9c-0.1,2.3,0.7,3.8,2.5,5.1c12.3,8.9,24.6,17.8,36.9,26.8
		c1,0.7,2.1,1.4,3.8,2.5c0-6.5,0.2-12.3-0.1-18c-0.1-1.5-1-3.5-2.2-4.4c-5.6-4.4-11.4-8.5-17.2-12.7
		C308.4,206.8,300.8,201.3,292.3,195.1z M246.7,435.5c14.9,0,29.4,0,43.9,0c0-7,0-13.7,0-20.6c-14.1,0-27.8,0-41.5,0.1
		c-0.8,0-2.2,1.2-2.2,1.9C246.6,423,246.7,429.1,246.7,435.5z M808.3,435.5c0-1.6,0-3,0-4.5c-0.5-31.4-0.9-62.8-1.5-94.1
		c-0.3-18.5-0.9-36.9-1.3-55.4c0-1.8,0-3.6-2.9-2.4c-0.1,0.9-0.2,1.8-0.2,2.8c-0.8,39.9-1.6,79.9-2.5,119.8c-0.1,2.8,0.5,5,2.1,7.3
		c5,7.1,5.4,14.8,1.5,22.6c-0.6,1.2-1.2,2.4-1.9,3.9C803.9,435.5,805.9,435.5,808.3,435.5z M580.7,435.5c0-14.3,0-28.1,0-42
		c-6.9,0-13.6,0-20.3,0c0,14.2,0,28.1,0,42C567.4,435.5,573.9,435.5,580.7,435.5z M1399.2,351.9c-0.5,3.2-4.5,5.3-2.1,8.9
		c3.7-2.6,4.7-6.6,5.4-10.4c4.2-20.8,2.4-41.1-5.5-60.8c-0.3-0.8-0.9-1.5-1.3-2.3c-0.4,0.4-0.7,0.5-0.8,0.7c-0.3,0.6-0.6,1.3-0.9,2
		c-6.3,15.8-8.7,32.1-7,49c0.6,5.6,1.9,11.1,3.3,16.6c0.5,2,2.2,3.6,3.3,5.4c0.4-0.2,0.8-0.4,1.3-0.5c-0.2-3.7,0.4-7.6-0.8-10.9
		c-1.2-3.4-4.1-6.1-6.2-9.2c0.4-0.3,0.7-0.5,1.1-0.8c1.7,2.2,3.5,4.4,5.3,6.8c1.8-5.5-0.5-9.6-3.3-13.6c0.5-0.3,0.9-0.6,1.4-0.8
		c0.4,1.1,0.9,2.2,1.5,3.8c3.5-8.6-3.1-12.9-5.7-18.5c0.3-0.2,0.6-0.3,0.9-0.5c1.7,2.2,3.4,4.4,5.1,6.5c0.3-0.1,0.6-0.1,0.8-0.2
		c0-6.2,0-12.4,0-18.7c0.4,0,0.8,0,1.2,0c0,4.3,0,8.6,0,13.3c1.4-0.8,2.2-1.2,3-1.6c-2.9,4.1-3.5,8.4-2.3,14c1.2-1.8,2-3.1,2.8-4.3
		c0.4,0.2,0.8,0.4,1.2,0.6c-2.9,5.1-7.4,9.9-3.6,15.1c-0.5,4.3-0.8,7.7-1.2,11.5C1397.5,352.6,1398.2,352.3,1399.2,351.9z
		 M656.2,331c-0.5,0.1-1,0.2-1.5,0.3c-6.4,15-9.5,30.6-8.3,46.9c0.5,7,2,14,3.4,21c0.4,2,2.3,3.7,3.5,5.6c0.4-0.2,0.8-0.4,1.2-0.6
		c0-2.5,0.4-5.1-0.1-7.5c-0.5-2.3-1.7-4.6-2.9-6.7c-1.1-2-2.6-3.8-3.9-5.7c0.4-0.3,0.8-0.5,1.2-0.8c1.6,2.2,3.3,4.5,5.1,6.9
		c2.3-5.5-0.7-9.6-2.3-14c0.8,0.7,1.6,1.4,2.5,2.2c2.8-7.7-3.6-11.9-6.3-17.4c0.3-0.2,0.6-0.4,0.9-0.6c1.7,2.2,3.4,4.4,5.1,6.6
		c0.4-0.1,0.7-0.3,1.1-0.4c0-6.2,0-12.3,0-18.5c0.3,0,0.7,0,1,0c0,4.3,0,8.5,0,13c1.3-0.5,2.1-0.8,3-1.1c-3.2,4.1-3.4,8.4-2.5,13.2
		c1.3-1.2,2.4-2.2,3.4-3.2c0.3,0.2,0.6,0.4,0.9,0.6c-4,4.8-7,9.8-3.8,14.9c-0.4,4.3-0.8,7.7-1.2,11.5c1.4-0.6,2.1-1,3.3-1.5
		c-0.7,3.3-4.6,5.3-2.4,9c3.5-2.1,4.4-5.7,5.2-9.1c3.3-14.4,3.4-29,0.3-43.4C660.6,344.8,658.2,337.9,656.2,331z M856.4,336.1
		c0.3,0.2,0.6,0.3,0.9,0.5c-3.8,3.6-4.2,7.9-3.2,12.4c0.4,0.3,0.7,0.5,1.1,0.8c0.7-1.3,1.4-2.6,2.1-3.9c0.3,0.2,0.5,0.5,0.8,0.7
		c-1.4,2.5-3.5,5-4,7.7c-0.5,2.6-1.4,5.9,0.7,7.5c-0.4,4-0.8,7.3-1.2,11c1.4-0.4,2.2-0.7,3-0.9c-1.1,2.8-2.2,5.4-3.2,8
		c0.4,0.2,0.8,0.4,1.2,0.5c3.4-1.8,4.3-5.3,5-8.5c4.9-21.7,2.9-42.9-5.6-63.5c-0.2-0.5-0.7-0.8-1.2-1.5c-0.5,1.1-0.9,1.8-1.2,2.6
		c-7.2,17.5-9.1,35.7-6.6,54.3c0.6,4.3,1.9,8.5,3.2,12.6c0.5,1.6,2,2.8,3.1,4.3c0.3-0.2,0.7-0.4,1-0.5c0-2.5,0.4-5.1-0.1-7.5
		c-0.5-2.3-1.7-4.6-2.9-6.7c-1.1-2-2.6-3.8-4-5.7c0.4-0.2,0.8-0.5,1.1-0.7c1.7,2.2,3.3,4.3,5.2,6.7c2.1-5.5-0.7-9.4-2.4-13.7
		c0.8,0.7,1.7,1.3,2.5,1.9c2.8-7.6-3.6-11.7-6.3-17.2c0.3-0.2,0.5-0.4,0.8-0.6c1.8,2.2,3.6,4.3,5.3,6.5c0.3-0.1,0.6-0.2,0.9-0.3
		c0-6.2,0-12.3,0-18.5c0.4,0,0.8,0,1.2,0c0,4.2,0,8.4,0,13.1C855,336.9,855.7,336.5,856.4,336.1z M957.7,226.6
		c-5.6,1.6-10.9,2.9-16,4.6c-0.9,0.3-1.8,2.1-1.8,3.2c-0.1,9.7-0.1,19.3-0.1,29c0,1.2,0.1,2.7,0.8,3.4c5.4,5.5,11,10.9,17.1,16.9
		C957.7,264.3,957.7,245.8,957.7,226.6z M68.4,335.7c0.3-0.2,0.6-0.5,0.9-0.7c1.7,2.2,3.5,4.3,5.2,6.5c0.3-0.1,0.6-0.2,0.9-0.3
		c0-6.2,0-12.4,0-18.6c0.4,0,0.8,0,1.2,0c0,4.3,0,8.5,0,13c1.3-0.6,2.2-0.9,3-1.3c-3.2,4.1-3.5,8.4-2.4,13.3
		c1.2-1.3,2.2-2.4,3.1-3.4c-0.7,3-2.7,5.4-3.4,8.1c-0.6,2.6,0.2,5.6,0.4,9.5c-0.2,2.2-0.5,5.6-0.8,9.3c1.4-0.5,2.1-0.7,2.8-0.9
		c-1.1,2.8-2.1,5.4-3.1,8c0.4,0.2,0.8,0.3,1.2,0.5c3.5-2.2,4.5-6,5.3-9.7c4.5-21.3,2.5-42-5.7-62.1c-0.2-0.6-0.7-1-1.3-1.9
		c-0.7,1.6-1.3,2.8-1.8,4c-6.8,17.4-8.6,35.3-6,53.7c0.6,4.1,1.9,8.2,3.3,12.2c0.5,1.5,2,2.7,3,4c0.3-0.1,0.6-0.3,1-0.4
		c0-2.5,0.4-5.1-0.1-7.5c-0.5-2.4-1.6-4.6-2.8-6.8c-1.1-2-2.6-3.9-3.9-5.8c0.4-0.2,0.7-0.5,1.1-0.7c1.7,2.2,3.3,4.3,5.1,6.6
		c2.2-5.4-0.5-9.5-3.2-13.5c0.3-0.1,0.6-0.2,0.8-0.4c0.8,0.8,1.6,1.5,2.4,2.3C77.5,345.3,71.3,341.1,68.4,335.7z M335.5,201.5
		c0-5.6-0.1-10.2,0.1-14.9c0.1-2.3-0.7-3.7-2.6-5.1c-12.4-9-24.8-18-37.2-27.1c-0.9-0.7-1.9-1.2-3.5-2.1c0,5.4-0.2,10,0.1,14.7
		c0.1,1.6,1.1,3.7,2.3,4.7c10.8,8.1,21.8,16,32.7,24C329.9,197.5,332.3,199.2,335.5,201.5z M1259.2,396c0,13.5,0,26.4,0,39.4
		c7.4,0,14.5,0,21.5,0c0-12,0-23.6,0-35.4C1272.9,401.6,1266,400.1,1259.2,396z M235.4,279.6c19.1,0,37.1,0,55.1,0
		c0-5.8,0-11.2,0-17.1c-11.3,0-22.4,0-33.5,0c-0.7,0-1.4,0.3-2,0.8C248.8,268.5,242.5,273.7,235.4,279.6z M292.3,244.9
		c0,2.2,0.2,3.6,0,5c-0.8,4.8,1.4,7.5,5.4,10c19,11.8,37.8,24,56.7,36c1,0.6,2,1.1,3.6,1.9c0-2.7-0.3-4.7,0.1-6.7
		c0.6-3.7-1.2-5.5-4.1-7.4c-19.3-12.1-38.4-24.4-57.6-36.6C295.3,246.4,294.1,245.9,292.3,244.9z M969.1,305.7
		c1.6-6.9,1.2-7.5-5.5-7.5c-30,0-60.1,0-90.1,0c-1.8,0-3.5,0-5.4,0c0,2.8,0,5,0,7.4C902,305.7,935.6,305.7,969.1,305.7z M246.6,324
		c0,4.8,0.1,9.3,0,13.7c-0.1,2.5,1,3,3.2,3c12.9-0.1,25.8,0,38.7-0.1c0.7,0,1.4-0.2,2-0.3c0-5.6,0-10.9,0-16.3
		C275.9,324,261.5,324,246.6,324z M246.7,376.7c15.1,0,29.5,0,43.9,0c0-5.5,0-10.8,0-16.4c-14.2,0-28.2,0-42.2,0.1
		c-0.6,0-1.7,1.1-1.7,1.7C246.6,366.9,246.7,371.7,246.7,376.7z M290.7,342.1c-14.3,0-28.1,0-42,0.1c-0.7,0-2,1.1-2,1.8
		c-0.2,4.8-0.1,9.6-0.1,14.5c14.9,0,29.5,0,44.1,0C290.7,353,290.7,347.8,290.7,342.1z M290.7,378.4c-3.3,0-6.3,0-9.3,0
		c-10.5,0-21,0-31.5,0c-1.5,0-3.3-0.3-3.3,2.2c0,4.7,0,9.3,0,14.2c14.9,0,29.4,0,44.1,0C290.7,389.4,290.7,384.3,290.7,378.4z
		 M290.6,413.3c0-5.8,0-11,0-16.4c-14.7,0-29.2,0-44,0c0,4.9-0.1,9.5,0.1,14c0,0.8,1.5,2.2,2.3,2.2
		C262.8,413.4,276.5,413.3,290.6,413.3z M464.6,144.1c-10,0-19.7,0-29.5,0c0,12.6,0,24.9,0,37.4c9.9,0,19.6,0,29.5,0
		C464.6,169,464.6,156.7,464.6,144.1z M1142.4,347.8c-9.9,9.2-19.6,18-29.9,27.5c19.3,0,37.4,0,56.3,0
		C1159.3,365.5,1150.4,356.2,1142.4,347.8z M290.5,260.7c0-35.8,0-71.2,0-107.1c-4.4,4.1-6.5,8.3-6.4,14.2c0.4,29,0.2,58,0.2,86.9
		c0,1.9,0,3.8,0,5.9C286.6,260.7,288.5,260.7,290.5,260.7z M401.7,186.1c-0.2-0.1-0.5-0.3-0.7-0.4c-5.5,6.5-11,13-16.4,19.5
		c-0.3,0.3-0.5,0.9-0.5,1.3c0,8.4,0,16.8,0,25.3c6.1,0,11.8,0,17.6,0C401.7,216.4,401.7,201.3,401.7,186.1z M1220.7,398
		c-5,0-9.6,0.1-14.1,0c-2.4,0-2.4,1.5-2.4,3.1c0,7,0,14,0,21c0,4.4,0,8.9,0,13.4c5.8,0,11,0,16.5,0
		C1220.7,423,1220.7,410.7,1220.7,398z M917.7,296.4c0-15.2,0-30.1,0-45c-0.2-0.1-0.4-0.1-0.6-0.2c-8.8,15-17.5,29.9-26.5,45.2
		C900,296.4,908.8,296.4,917.7,296.4z M947,296.4c-9.1-15.5-17.9-30.5-26.6-45.4c-0.2,0.1-0.4,0.2-0.6,0.3c0,15,0,30,0,45.2
		C928.8,296.4,937.6,296.4,947,296.4z M1158.7,335.1c0.6,1,0.7,1.3,1,1.6c12.5,12.6,25,25.1,37.6,37.6c0.6,0.6,1.4,1.3,2.1,1.3
		c4.5,0.1,8.9,0.1,13.8,0.1c-0.5-0.9-0.6-1.2-0.9-1.5c-12.5-12.5-25-25.1-37.6-37.6c-0.7-0.7-1.8-1.4-2.7-1.5
		C1167.8,335,1163.6,335.1,1158.7,335.1z M905.2,398.7c-4.4,0-8.7,0.2-13-0.1c-2.8-0.1-3.4,1-3.4,3.6c0.1,9.3,0,18.6,0,27.9
		c0,1.8,0,3.5,0,5.4c5.9,0,11.2,0,16.7,0c0-11.8,0-23.2,0-34.7C905.5,400.2,905.3,399.6,905.2,398.7z M882.3,246.3
		c-3.9,0-7.4,0.2-10.8-0.1c-2.9-0.2-3.6,0.9-3.6,3.7c0.1,14.2,0,28.5,0.1,42.7c0,0.6,0.2,1.3,0.3,1.9c0.3,0.2,0.7,0.5,1,0.7
		c4.1-4.4,8.2-8.8,12.3-13.2c0.5-0.5,0.7-1.5,0.7-2.3C882.3,268.8,882.3,257.9,882.3,246.3z M514.1,266.5
		c8.1-0.6,13.7-6.8,13.4-14.1c-0.3-7.9-6.7-13.9-14.4-13.7c-7.7,0.2-13.7,6.4-13.7,14c0,7.5,5.7,13.6,13.6,13.8c0-4.7,0-9.4,0-14.2
		c0.4,0,0.8,0,1.1,0.1C514.1,257,514.1,261.6,514.1,266.5z M1196,375.7c-0.7-1-0.9-1.4-1.3-1.7c-12.4-12.5-24.9-24.9-37.4-37.4
		c-0.7-0.7-1.8-1.4-2.7-1.5c-3.4-0.2-6.9-0.1-10.3-0.1c-0.1,0.6-0.2,0.7-0.1,0.8c12.3,12.9,24.6,25.8,36.9,38.7
		c0.6,0.6,1.7,1.1,2.5,1.1C1187.5,375.8,1191.4,375.7,1196,375.7z M357.9,235c-4.6,4.6-8.6,8.3-12.3,12.4c-1.1,1.2-1.9,3.1-1.9,4.7
		c-0.2,6.9-0.1,13.7-0.1,20.6c0,1,0.1,2.5,0.7,3c4.3,3,8.7,5.7,13.6,8.8C357.9,267.8,357.9,252,357.9,235z M470.5,371.6
		c39.1,0,78,0,117,0c1-3.2,0-4.2-3.2-4.2c-36.9,0.1-73.9,0-110.8,0c-0.9,0-1.9,0.2-2.9,0.3C470.5,369.1,470.5,370.2,470.5,371.6z
		 M1242,375.4c-1.3-1.4-2.2-2.4-3.2-3.4c-11.1-11.1-22.4-21.9-33.2-33.3c-4.7-5-9.7-3.4-15-3.1c10.9,11.4,22.3,22.2,33,33.7
		c4.9,5.3,10,7.7,17,6.5C1240.8,375.7,1241,375.7,1242,375.4z M70.8,425.3c-0.1-3.1-1.9-6.5-5.2-6.3c-5.7,0.3-11.4,2.1-17,3.3
		c-0.2,0-0.3,0.3-0.5,0.5c-1.8,1.2-3.6,2.5-5.4,3.5c-2.5,1.4-4.3,3.2-3.9,6.3c0.4,3.3,2.9,3.2,5.4,3.2c10.2-0.1,20.5,0.1,30.7-0.1
		c1.5,0,4.3-1.2,4.3-1.8c0-2-0.5-4.6-1.9-6C75.8,426.5,73.2,426.2,70.8,425.3z M1143.5,299c0.1,0.3,0.3,0.6,0.4,1
		c-3.8,2.3-7.6,4.6-11.5,7c4.1,6.1,11.8,7.5,17.5,3.6c5.9-4.1,7.4-12,3.3-17.9c-4-5.8-11.8-7.3-17.6-3.4c-5.6,3.7-7.4,11.3-3.9,16.4
		c1.9-1.3,3.7-2.6,5.7-3.8C1139.5,300.7,1141.5,299.9,1143.5,299z M753.2,345.6c4.3,6.2,11.7,7.5,17.6,3.6
		c5.7-3.8,7.3-11.7,3.6-17.6c-3.7-5.8-11.6-7.5-17.5-4c-5.6,3.3-8,12.1-4.5,16.4c4-2.2,7.9-4.3,11.9-6.5c0.2,0.4,0.4,0.7,0.6,1.1
		C760.9,340.9,757.1,343.2,753.2,345.6z M1256.1,375.6c-1.4-1.5-2.2-2.4-3-3.3c-10.9-10.9-22.1-21.5-32.5-33
		c-4.8-5.3-10-4.4-16.1-4.1c1.1,1.2,1.7,2,2.5,2.8c11,11.1,22.4,22,33,33.5C1244.6,376.6,1249.6,376.1,1256.1,375.6z M1227.6,375.5
		c-1.2-1.3-2-2.2-2.8-3c-11.3-11.3-22.9-22.5-33.9-34.1c-4.5-4.8-9.4-2.8-14.4-2.9c0.6,1.2,1.3,2,2,2.8
		c11.1,11.1,22.4,21.9,33.1,33.4C1216.4,376.7,1221.5,375.8,1227.6,375.5z M95.3,425.5c-1.7-2.3-2.7-5-4.4-5.6
		c-3.8-1.4-7.1-2.9-9.3-6.6c-0.5-0.9-2.3-1.3-3.6-1.5c-3.4-0.5-7.1,2.2-7.8,5.6c-0.6,2.8,1.8,6.6,4.8,7.6c4.9,1.5,6.6,4.7,5.8,10.5
		c7.3,0,14.5,0,21.7,0C103.6,426.8,102.4,425.3,95.3,425.5z M965.9,296.6c-13.3-14.1-27.1-28.7-40.8-43.3c-0.3,0.2-0.6,0.5-0.9,0.7
		c0.2,0.4,0.3,0.8,0.5,1.2c7.7,13.1,15.3,26.3,23,39.3c0.5,0.8,1.5,1.9,2.3,1.9C955.8,296.6,961.6,296.6,965.9,296.6z M871,296.6
		c4.1,0,9-0.1,13.9,0.1c2.6,0.1,4.1-0.7,5.5-3c7.2-12.5,14.6-25,21.9-37.5c0.4-0.7,0.7-1.5,1-2.2c-0.4-0.3-0.7-0.6-1.1-0.8
		C898.4,267.7,884.7,282.2,871,296.6z M900.7,246.5c-5.7,0-11,0-16.5,0c0,10.9,0,21.6,0,32.3c0.4,0.3,0.9,0.7,1.3,1
		c4.7-5.1,9.4-10.3,14.1-15.4c0.5-0.5,1-1.2,1-1.8C900.7,257.2,900.7,252,900.7,246.5z M557.9,365.8c-3.1-8.6-6-16.8-9-24.9
		c-0.7-1.9-10.2-2.5-11.2-0.9c-0.2,0.3-0.2,0.7-0.2,1c0,8.2,0,16.3,0,24.7C544.4,365.8,550.8,365.8,557.9,365.8z M535.8,339.9
		c-0.5-0.4-0.6-0.5-0.7-0.5c-9.7-1.1-9.7-1.1-13,8.1c-2.1,6-4.3,11.9-6.5,18.2c7,0,13.6,0,20.2,0
		C535.8,356.9,535.8,348.4,535.8,339.9z M493.5,366c6.9,0,12.9,0.1,18.9-0.1c0.8,0,1.8-1.3,2.2-2.3c2-5.3,3.9-10.6,5.8-16
		c0.9-2.6,1.8-5.1,2.9-8.3c-3.1,0-5.5-0.2-7.8,0.1c-1.3,0.1-3.1,0.5-3.8,1.5C505.7,348.8,499.9,357,493.5,366z M579.6,366
		c-0.8-1.3-1.1-2-1.6-2.7c-4.6-6.4-9.1-12.7-13.7-19.1c-3.8-5.3-7.3-6.3-14-4.2c2.9,8.1,5.8,16.3,8.8,24.4c0.3,0.7,1.6,1.5,2.4,1.5
		C567.4,366,573.1,366,579.6,366z M282.6,163.8c-3.5,2.5-4.5,5.3-4.5,9c0.1,28,0.1,56,0.1,83.9c0,1.3,0.1,2.6,0.2,3.9
		c1.6,0,2.8,0,4.2,0C282.6,228.4,282.6,196.4,282.6,163.8z M472.4,365.1c0.1,0.3,0.3,0.6,0.4,0.8c5.3,0,10.6,0.2,15.9-0.1
		c1.5-0.1,3.4-1.1,4.3-2.3c5.3-7,10.3-14.2,15.5-21.4c0.5-0.7,0.8-1.6,1.4-2.7c-5.5-0.5-10.3-1.1-14.1,3.7c-2.2,2.8-5.2,5-7.9,7.4
		C482.8,355.5,477.6,360.3,472.4,365.1z M943.8,228.9c3-0.9,6.3-1.9,9.7-2.7c3.2-0.7,5.6-2.2,7.8-4.8c10-11.7,20.2-23.3,30.4-35
		c2.3-2.6,4.5-5.2,6.7-7.8c-0.2-0.3-0.5-0.6-0.7-1c-2.8,1.7-6,3-8.3,5.2c-7.9,7.4-15.7,15-23.3,22.8
		C958.5,213.3,951.2,221.1,943.8,228.9z M906.8,397.2c0.1,1.7,0.2,3,0.2,4.3c0,10.4,0,20.8,0,31.1c0,2.4,0.6,3.7,3.3,2.7
		c0-13.9,0-27.7,0-41.7c-8.3,0-16.2,0-24.2,0c-2.4,0-2.4,1.4-2.4,3.1c0,12.1,0,24.1,0,36.2c0,2.7,1,3.4,3.6,2.3c0-1.5,0-3,0-4.4
		c0-10.1-0.1-20.3,0.1-30.4c0-1.1,1.1-3,1.8-3C895,397.1,900.7,397.2,906.8,397.2z M433.4,146.6c-0.3-0.1-0.6-0.2-1-0.2
		c-3.7,4.5-7.5,9.1-11.2,13.6c-0.4,0.5-0.8,1.3-0.8,1.9c-0.1,6.5,0,12.9,0,19.9c3.6,0,6.8-0.1,10,0c2.5,0.1,3-1,3-3.2
		c-0.1-6.9,0-13.7,0-20.6C433.4,154.2,433.4,150.4,433.4,146.6z M827.7,391.1c6.5-0.6,10.3-5.3,9.8-11.5c-0.5-5.6-5.7-9.8-11.4-9.3
		c-5.5,0.4-10.1,5.6-9.7,11.1c0.3,5.4,4.7,9.8,10.2,9.4c0-3.4,0-6.8,0-10.2c0.4,0,0.8,0,1.1,0C827.7,384.1,827.7,387.6,827.7,391.1z
		 M1136.9,339.9c10.6,11.1,21,21.6,30.9,32.4c3.4,3.8,7,3.7,11.9,2.9c-13-13.5-25.5-26.6-37.6-39.2
		C1140.1,337.4,1138.7,338.5,1136.9,339.9z M273.2,260.6c3.2,1,3.5-0.5,3.5-2.7c0-27.8,0-55.5,0-83.3c0-0.9-0.2-1.8-0.4-2.8
		c-0.4-0.1-0.8-0.2-1.2-0.3c-0.6,2.1-1.8,4.2-1.8,6.4c-0.1,26.3-0.1,52.6-0.1,78.9C273.2,258,273.2,259.2,273.2,260.6z M563.1,339.6
		c1.1,1.6,1.8,2.8,2.6,3.9c4.6,6.4,9.3,12.6,13.6,19.1c2.2,3.3,4.7,4,8.1,3c1.2-7.4,1.3-14.2-6.1-18.7c-1.6-1-3.1-2.4-4.2-3.9
		C573.5,338.1,568.6,339.2,563.1,339.6z M502.8,284.5c-3.4-2.1-6.5-3.9-9.6-5.8c0.2-0.3,0.4-0.7,0.5-1c3.3,1.7,6.5,3.4,9.8,5.1
		c2.3-5,0.6-10.5-4-13.1c-4.5-2.6-10.6-1.2-13.5,3c-3.1,4.4-2.2,10.6,2,14C492.4,290.2,497.8,289.6,502.8,284.5z M415.2,411.1
		c-2.6,2.5-2.1,3.6-0.4,5.1c3.9,3.4,5.1,7.9,3.4,12.8c-0.8,2.3-2.4,4.2-3.7,6.4c10.6,0,21.1,0,31.5,0c-1.8-3.2-3.4-6.2-5.6-10
		c-3.9,0.6-8.4,1.5-13,2c-1,0.1-2.7-0.5-3.2-1.4C421.2,421.2,418.4,416.3,415.2,411.1z M1407.3,408.5c0.5,0.2,1,0.4,1.5,0.7
		c0.9-1.9,2.3-3.7,2.6-5.7c1.4-7.9,0.9-15.9-1-23.7c-0.9-3.8-2.3-7.6-3.5-11.4c-0.5,0-0.9,0.1-1.4,0.1c-1.3,5-3.2,9.9-3.8,14.9
		c-0.8,6.4-0.7,13-0.5,19.4c0.1,2.4,0.6,5.3,4.5,6c-0.6-7.3,2-14.7-4.4-20.9c0.4-0.1,0.8-0.2,1.1-0.3c0.9,0.8,1.8,1.6,3.5,3.1
		c0-4.6,0-8.3,0-12c0.2,0,0.4,0,0.6,0.1c0.5,2.8,1,5.6,1.4,8.4c0.2-0.1,0.5-0.2,0.7-0.3c-0.6,2.2-1.3,4.5-2.1,7.3
		c1.7-0.6,2.4-0.8,3-1C1405.8,398.1,1407.1,403.4,1407.3,408.5z M1135.8,341.2c-11.1,11.4-21.9,22.5-33.1,34
		c5.1,1.2,8.5,0.3,11.6-3.2c6.4-7.2,13.3-14,20.1-20.8c1.8-1.8,4.1-3.3,6.2-4.9c-1.5-1.8-2.1-2.4-2.6-3
		C1137.4,342.6,1136.8,342.1,1135.8,341.2z M120.4,319.8c-0.1,1-0.3,1.8-0.4,2.6c-0.2,4.9-0.2,4.9,4.8,4.9c7.6,0,15.2,0,22.8,0
		c1.3,0,2.5-0.2,3.7-0.2c0-2.7,0-4.9,0-7.3C140.9,319.8,130.7,319.8,120.4,319.8z M120.3,365.4c-0.1,1.3-0.1,2.3-0.3,3.2
		c-0.5,3.4,0.7,4.7,4.3,4.5c5.2-0.3,10.3-0.1,15.5-0.1c3.8,0,7.6,0,11.4,0c0-2.8,0-5.1,0-7.6C140.8,365.4,130.7,365.4,120.3,365.4z
		 M120.3,338.1c0,2.6,0,4.9,0,7.1c10.6,0,20.8,0,31,0c0-2.6,0-4.8,0-7.1C140.9,338.1,130.7,338.1,120.3,338.1z M151.5,301.6
		c-10.6,0-20.7,0-30.9,0c-1.7,6.8-1.2,7.5,5.3,7.5c7,0,14,0,20.9,0c1.5,0,3-0.2,4.6-0.2C151.5,306.3,151.5,304.2,151.5,301.6z
		 M900.5,244.8c0.1-1.9,0.5-3.4,0.1-4.7c-0.2-0.9-1.5-2.2-2.2-2.2c-9.4-0.2-18.8-0.1-28.3-0.1c-2.8,0-2.3,1.9-2.3,3.5
		c0,1.6-0.6,3.6,2.2,3.6C880.1,244.8,890.1,244.8,900.5,244.8z M120.2,363.5c10.7,0,20.9,0,31.1,0c0-2.5,0-4.7,0-7.1
		c-10.5,0-20.7,0-31.1,0C120.2,358.8,120.2,361.1,120.2,363.5z M120.2,354.3c10.7,0,21,0,31.2,0c0-2.5,0-4.6,0-6.9
		c-10.5,0-20.8,0-31.2,0C120.2,349.8,120.2,351.9,120.2,354.3z M151.4,310.8c-10.5,0-20.7,0-31.1,0c0,2.5,0,4.8,0,7.1
		c10.5,0,20.7,0,31.1,0C151.4,315.5,151.4,313.4,151.4,310.8z M151.5,374.6c-10.6,0-20.8,0-31.2,0c0,2.5,0,4.8,0,7.1
		c10.6,0,20.8,0,31.2,0C151.5,379.3,151.5,377.2,151.5,374.6z M151.4,329.2c-10.7,0-20.9,0-31.1,0c0,2.6,0,4.8,0,6.9
		c10.6,0,20.8,0,31.1,0C151.4,333.6,151.4,331.5,151.4,329.2z M731.8,367.6c2.4-3.8,1.4-8.2-2.3-10.6c-3.8-2.5-8.6-1.7-11.3,1.8
		c-2.7,3.6-2.1,8.8,1.5,11.6c3.4,2.7,8,2.2,10.9-1.3c-1.7-1.8-3.4-3.7-5.3-5.8c0.9-0.2,1.2-0.3,1.3-0.2
		C728.3,364.7,730,366.1,731.8,367.6z M723.1,328.2c0.8-4.4-1.6-8.2-5.8-9.3c-4.3-1.1-8.8,1.5-10.1,6c-1.2,4,1.1,8.3,5.1,9.9
		c4.2,1.6,8.2-0.1,10.2-4.7c-2.5-1.4-5.1-2.8-7.9-4.3c0.7-0.3,1-0.6,1.1-0.5C718.2,326.3,720.7,327.3,723.1,328.2z M1111.2,318.3
		c2.2-4.6,1-8.9-2.9-11.1c-3.8-2.2-8.8-0.9-11.2,2.7c-2.3,3.5-1.5,8.5,1.8,11.1c3.5,2.7,7.9,2.3,11-1.2c-1.7-1.8-3.4-3.7-5.2-5.5
		c0.2-0.3,0.5-0.5,0.7-0.8C1107.3,315.1,1109.1,316.6,1111.2,318.3z M1102.5,289.7c0.5-4.9-2-8.6-6.1-9.4c-4.6-0.9-8.8,1.8-9.9,6.3
		c-1,4.2,1.4,8.5,5.4,9.8c4.3,1.4,8.2-0.4,10-4.8c-2.5-1.4-5-2.7-7.4-4.1c0.2-0.3,0.3-0.7,0.5-1
		C1097.3,287.5,1099.8,288.6,1102.5,289.7z M1295.4,420.9c10.8,0,21.2,0,31.7,0c0-1.9,0-3.5,0-5.2c-10.7,0-21.1,0-31.7,0
		C1295.4,417.5,1295.4,419,1295.4,420.9z M779.1,415.7c-10.7,0-21.1,0-31.6,0c0,1.8,0,3.5,0,5.2c10.7,0,21,0,31.6,0
		C779.1,419.1,779.1,417.6,779.1,415.7z M312.1,420.7c10.7,0,21.1,0,31.8,0c-0.1-1.9-0.2-3.5-0.2-5.2c-10.7,0-21.1,0-31.6,0
		C312.1,417.3,312.1,418.8,312.1,420.7z M626.7,435.4c0-9.7,0.1-19.1-0.1-28.5c0-1.4-1.5-2.8-2.2-4.2c-0.4,0-0.9,0-1.3,0
		c-0.6,2-1.7,4-1.8,6.1c-0.2,6.6-0.1,13.3-0.1,19.9c0,2.2,0,4.5,0,6.8C623.2,435.4,624.7,435.4,626.7,435.4z M835.5,414.3
		c3.6,3.6,7.8,4.1,10.9,1.5c3.1-2.5,3.8-7.1,1.6-10.4c-2.2-3.2-6.5-4.3-9.9-2.5c-3.7,2-4.9,5.6-3.3,9.6c2.4-1.1,4.8-2.2,7.1-3.4
		c0.2,0.3,0.3,0.6,0.5,0.9C840.2,411.4,838,412.8,835.5,414.3z M1067,410.7c0.2,6.1,5.2,10.5,11.1,10.3c5.7-0.2,10.4-4.7,10.3-10.3
		C1081.3,410.7,1074.3,410.7,1067,410.7z M615.7,410.1c-7.4,0-14.5,0-21.7,0c0.5,6,5,10.1,10.7,10.2
		C610.4,420.4,615,416.3,615.7,410.1z M651,198.6c5.9,6.2,23,9,33.4,5.5c-2.9-2-5.3-5-7.8-5.2C668.3,198.2,660,198.6,651,198.6z
		 M1326.7,273.5c5.6,9.3,11.4,19,17.2,28.7c0-4.9,0.8-10-0.3-14.7c-0.8-3.5-3.6-7.2-6.5-9.5C1334,275.6,1329.7,274.8,1326.7,273.5z
		 M219.6,218.3c-5-4.9-9.8-9-13.9-13.8c-3.2-3.8-6.8-3.4-11.5-2.9c4,4.3,7.9,7.9,11,12.2C208.8,218.7,213.1,219.8,219.6,218.3z
		 M1345.4,302.5c5.8-9.5,11.4-18.9,17-28c-3.2,1.1-7,2.5-10.8,3.9c-0.5,0.2-1.1,0.8-1.2,1.2c-0.2,2.9-1.6,4.9-4.3,6.1
		c-0.4,0.2-0.6,1.2-0.7,1.9C1345.3,292.6,1345.4,297.6,1345.4,302.5z M164.7,218.4c6.1,1.3,10.8,0.7,14.1-4.6
		c1.4-2.2,3.5-3.9,5.3-5.9c1.8-2,3.6-4,5.3-6c-0.2-0.3-0.3-0.6-0.5-0.9c-2.6,0.3-6.1-0.3-7.8,1.2
		C175.5,207.1,170.4,212.7,164.7,218.4z M630.5,183c-0.1-3.7-3.2-6.5-6.9-6.4c-3.6,0.1-6.2,3-6.2,6.6c0,3.7,3.1,6.6,6.8,6.4
		C627.7,189.5,630.6,186.4,630.5,183z M1017.3,428.3c-0.9,2.5-0.2,3.4,2.2,3.4c10.6,0,21.2,0,31.8-0.1c0.8,0,1.7-1.1,2.5-1.7
		c-0.9-0.5-1.7-1.5-2.6-1.5c-7-0.1-14-0.1-21-0.1C1025.9,428.3,1021.6,428.3,1017.3,428.3z M1017.4,413.7c-1,2.7-0.1,3.4,2.2,3.4
		c10.5,0,20.9,0.1,31.4,0c0.9,0,1.9-1.1,2.8-1.7c-1-0.5-2-1.5-3-1.5c-6.9-0.1-13.7-0.1-20.6-0.1
		C1025.9,413.7,1021.6,413.7,1017.4,413.7z M1016.6,425.5c0.3,0.4,0.6,0.9,0.9,1.3c11.4,0,22.9,0,34.3-0.1c0.7,0,1.4-1.1,2.1-1.7
		c-0.8-0.5-1.5-1.5-2.3-1.5c-10.7-0.1-21.4-0.1-32.2,0C1018.4,423.5,1017.5,424.8,1016.6,425.5z M1017.5,408.9
		c-1,2.6-0.3,3.4,2.1,3.4c10.6-0.1,21.2,0,31.8-0.1c0.8,0,1.7-1.1,2.5-1.6c-0.9-0.6-1.7-1.6-2.6-1.6c-8.2-0.1-16.4-0.1-24.6-0.1
		C1023.5,408.9,1020.4,408.9,1017.5,408.9z M135.6,244c-10,4.2-11.2,6.3-9.8,15.3c3.2,0,6.5,0,9.8,0
		C135.6,254.1,135.6,249.2,135.6,244z M521.1,303.8c3.6,2.7,6.8,2.6,9.3,0.1c2.4-2.5,2.5-6.3,0.3-8.9c-2.2-2.6-6.1-3.1-8.8-1.2
		c-2.8,1.9-3.4,5-1.8,8.1c1.5-1.2,3-2.3,4.5-3.5c0.2,0.2,0.4,0.5,0.6,0.7C524,300.6,522.7,302.1,521.1,303.8z M527.6,272.1
		c2.8,3.9,5.7,4.9,8.9,3.3c3.1-1.6,4.5-5.1,3.2-8.3c-1.2-3.2-4.5-4.9-7.9-4.1c-3.2,0.8-4.9,3.4-4.4,7c2-0.8,4-1.5,6.1-2.3
		c0.1,0.3,0.3,0.6,0.4,0.9C531.8,269.7,529.8,270.8,527.6,272.1z M191.1,202.7c-5.1,5.6-9.6,10.5-14.5,15.9c5.4,0,9.9,0,14.5,0
		C191.1,213.4,191.1,208.5,191.1,202.7z M193,218.5c4.9,0,9.4,0,14.7,0c-5.1-5.5-9.6-10.4-14.7-15.8C193,208.6,193,213.5,193,218.5z
		 M22,423.9c-3.3,0.1-6,2.9-5.9,6.1c0.1,3.3,2.7,5.8,6.2,5.8c3.3,0,6-2.8,5.9-6C28,426.5,25.2,423.8,22,423.9z M641.5,435.7
		c3.5,0.1,6-2.3,6.1-5.7c0.1-3.3-2.5-6-5.8-6.1c-3.3-0.1-6,2.6-6.1,5.8C635.6,433.1,638.1,435.7,641.5,435.7z M1035.5,421.9
		c5.3,0,10.6,0.1,15.9-0.1c0.8,0,1.6-1.1,2.4-1.7c-0.8-0.5-1.6-1.4-2.4-1.4c-10.6-0.1-21.2-0.1-31.8,0c-0.9,0-1.7,1-2.6,1.5
		c0.8,0.5,1.7,1.6,2.5,1.6C1024.8,422,1030.2,421.9,1035.5,421.9z M1016.7,406.2c0.3,0.3,0.6,0.7,0.9,1c12,0,24,0,36,0
		c0.2-0.3,0.4-0.7,0.6-1c-0.9-0.6-1.8-1.7-2.6-1.7c-10.7-0.1-21.4-0.1-32.2,0C1018.4,404.4,1017.5,405.6,1016.7,406.2z
		 M1311.3,425.3C1311.3,425.3,1311.3,425.3,1311.3,425.3c4.6,0,9.1,0.1,13.7,0c0.8,0,1.5-0.7,2.2-1.1c-0.7-0.5-1.5-1.5-2.2-1.5
		c-9.1-0.1-18.3-0.1-27.4,0c-0.8,0-1.5,1-2.3,1.5c0.7,0.4,1.5,1.1,2.3,1.1C1302.2,425.3,1306.8,425.3,1311.3,425.3z M763.2,425.3
		c4.6,0,9.1,0.1,13.7-0.1c0.8,0,1.5-0.9,2.3-1.4c-0.7-0.4-1.5-1.2-2.2-1.2c-9.1-0.1-18.3-0.1-27.4,0c-0.8,0-1.5,0.9-2.3,1.4
		c0.8,0.4,1.7,1.1,2.5,1.2C754.3,425.3,758.8,425.3,763.2,425.3z M327.9,422.5c-4.6,0-9.1-0.1-13.7,0.1c-0.8,0-1.5,0.7-2.2,1.1
		c0.7,0.5,1.3,1.4,2,1.4c9.3,0.1,18.5,0.1,27.8,0c0.7,0,1.4-0.9,2-1.4c-0.7-0.4-1.4-1.1-2.2-1.1
		C337.1,422.4,332.5,422.5,327.9,422.5z M115.9,267.8c-0.4-0.2-0.8-0.4-1.3-0.6c-0.8,1.5-2.2,2.9-2.2,4.4c-0.3,5.7-0.1,11.3,0,17
		c0,0.8,0.9,1.6,1.4,2.4c0.7-0.7,2-1.5,2-2.2C116,281.7,115.9,274.8,115.9,267.8z M624.9,214.1c3.9-4.5,7.9-9,11.8-13.4
		c-3.6,0-7.6,0-11.8,0C624.9,205.4,624.9,209.9,624.9,214.1z M1035.5,435.7C1035.5,435.7,1035.5,435.7,1035.5,435.7
		c5.3,0,10.6,0.1,15.9,0c0.8,0,1.5-0.7,2.3-1.1c-0.8-0.5-1.6-1.4-2.4-1.4c-10.6-0.1-21.3-0.1-31.9,0c-0.8,0-1.7,0.8-2.5,1.3
		c0.8,0.4,1.7,1.2,2.5,1.2C1024.9,435.8,1030.2,435.7,1035.5,435.7z M902.5,260.9c3.3-1.7,4.4-3.9,4.2-7c-0.2-2.9-0.2-5.8,0-8.6
		c0.1-3-1.6-4.3-4.1-5.6C902.5,246.9,902.5,253.7,902.5,260.9z M443.5,418.2c-2.7-2.3-5.4-4.5-8.4-7c0,4.7,0,8.8,0,12.9
		C440.9,424.9,440.9,424.9,443.5,418.2z M1365.8,435.5c2.6,0.1,4.9-2,5-4.6c0.1-2.7-1.9-5-4.5-5.1c-2.9-0.2-5.2,1.9-5.2,4.8
		C1361.1,433.1,1363.2,435.4,1365.8,435.5z M120,263.3c-0.3-0.1-0.6-0.2-0.8-0.3c-0.6,0.9-1.7,1.8-1.7,2.7
		c-0.1,7.8-0.1,15.7-0.1,23.5c0,0.5,0.7,1,1.1,1.5c0.5-0.5,1.4-1.1,1.4-1.6C120,280.5,120,271.9,120,263.3z M625.8,400.7
		c0-5.7,0.1-11.3-0.1-16.9c0-1.2-0.9-2.4-1.3-3.6c-0.5,0.1-1,0.1-1.5,0.2c-1.7,6.6-0.3,13.5-0.9,20.3
		C623.3,400.7,624.3,400.7,625.8,400.7z M589.6,354.5c0,4.4,0,7.8,0,11.3c3.9,0,7.5,0,12.1,0C597.4,361.8,593.8,358.4,589.6,354.5z
		 M1311.5,432.3C1311.5,432.3,1311.5,432.3,1311.5,432.3c4.4,0,8.9,0.1,13.3,0c0.8,0,1.6-0.9,2.5-1.3c-0.8-0.4-1.6-1.3-2.4-1.3
		c-9-0.1-18-0.1-27,0c-0.8,0-1.6,0.8-2.5,1.2c0.8,0.5,1.6,1.3,2.4,1.3C1302.4,432.3,1306.9,432.3,1311.5,432.3z M763.2,429.6
		c-4.5,0-8.9-0.1-13.4,0.1c-0.9,0-1.7,0.8-2.6,1.2c0.8,0.5,1.6,1.3,2.5,1.3c9.1,0.1,18.1,0.1,27.2,0c0.8,0,1.5-0.9,2.3-1.4
		c-0.7-0.4-1.5-1.1-2.2-1.1C772.4,429.5,767.8,429.6,763.2,429.6z M1347.8,435.6c-1.1-4.8,2.1-10-3.3-13.5c-5,3.9-2.1,8.9-2.9,13.5
		C1343.8,435.6,1345.5,435.6,1347.8,435.6z M328.1,432.1c4.5,0,8.9,0.1,13.4-0.1c0.8,0,1.6-0.8,2.4-1.3c-0.7-0.4-1.5-1.2-2.2-1.2
		c-9.1-0.1-18.3-0.1-27.4,0c-0.8,0-1.5,0.7-2.3,1.1c0.8,0.5,1.6,1.3,2.4,1.3C318.9,432.1,323.5,432.1,328.1,432.1z M312.1,434.1
		c0,0.5,0,1.1,0.1,1.6c10.5,0,21.1,0.1,31.6-0.1c0-0.5,0-1,0-1.6C333.2,434.1,322.6,434.1,312.1,434.1z M822,403.7
		c0.9-3,0.1-5.1-2.4-6.2c-2.4-1.1-4.5-0.4-6,1.7c-1.5,2.2-1.2,4.4,0.7,6.2c2,1.8,4.2,1.8,6.6,0.1c-1.1-1.4-2-2.5-2.9-3.7
		c0.2-0.2,0.4-0.5,0.6-0.7C819.4,401.8,820.5,402.6,822,403.7z M463.8,424c-0.1-5.2-3.8-8.9-9-8.8C452.9,422,457.8,426.2,463.8,424z
		 M407.9,435.4c5.6-0.4,9-4,9-9.1C408.8,425.2,406.9,427.1,407.9,435.4z M396.8,424.1c7.4,2,11-3.2,8.9-9.1
		C400.4,415.5,397.2,418.7,396.8,424.1z M454.9,435.4c5.6-0.5,9.1-4.1,8.9-9.1C457.6,424.5,453,428.2,454.9,435.4z M452.8,435.4
		c0.8-8.1-1.9-10.7-9.2-8.9C444.1,431.7,447.4,435,452.8,435.4z M405.7,435.4c2-7.3-2.6-11-9-9.1C397,431.5,400.1,434.7,405.7,435.4
		z M831.2,289.9c0.4-0.4,0.8-0.7,1.3-1.1c-7.9-10.4-15.9-20.8-23.8-31.2c-0.4,0.3-0.8,0.6-1.1,0.9
		C815.4,269,823.3,279.5,831.2,289.9z M603,367.7c-4.7,0-9.1,0-13.5,0c0,1.4,0,2.6,0,3.9c4.6,0,9,0,13.5,0
		C603,370.3,603,369.2,603,367.7z M147.9,241.1c0-4.6,0-8.8,0-13.1c-0.3-0.3-0.6-0.6-0.9-0.8c-1.1,0.8-3,1.5-3.1,2.4
		c-0.3,3.8-0.1,7.6-0.1,11.6C145.4,241.1,146.4,241.1,147.9,241.1z M1342.3,420.7c1.7,0,3.2,0,4.9,0c-1.2-4.1,2.1-9-2.7-12.7
		C1340.5,412,1343,416.7,1342.3,420.7z M1327,427.8c0-0.2,0-0.4,0-0.6c-10.4,0-20.8,0-31.3,0c0,0.2,0,0.4,0,0.6
		C1306.1,427.8,1316.6,427.8,1327,427.8z M779,435.2c-3.6-2.1-29.5-1.8-31.8,0C758,435.2,768.5,435.2,779,435.2z M1295.5,434.2
		c0,0.3,0,0.7,0,1c10.6,0,21.1,0,31.7,0c0-0.3,0-0.7,0-1C1316.6,434.2,1306,434.2,1295.5,434.2z M747.6,426.9c0,0.2,0,0.5,0,0.7
		c10.4,0,20.8,0,31.2,0c0-0.2,0-0.5,0-0.7C768.4,426.9,758,426.9,747.6,426.9z M312.6,426.8c0,0.2,0,0.4,0,0.7c10.3,0,20.6,0,30.9,0
		c0-0.2,0-0.4,0-0.7C333.1,426.8,322.8,426.8,312.6,426.8z M413.1,416.1c-0.6,0.2-1.2,0.3-1.9,0.5c-0.4,2.3-1.7,5.3-0.8,6.7
		c0.9,1.3,4.2,1.1,6.5,1.5c0.3-0.4,0.6-0.9,0.8-1.3C416.3,421,414.7,418.5,413.1,416.1z M1359.3,409.2c-1.7-4.9-5.1-7.1-9.7-8.6
		C1351.3,406.5,1354.4,409.2,1359.3,409.2z M1373,409.1c4.5,0.3,7.9-2.6,9.6-8.6C1378,402.2,1374.4,404.2,1373,409.1z M1359.2,393.6
		c-1.5-4.8-4.9-7-9.4-8.5C1350.9,390.4,1354.4,393.6,1359.2,393.6z M1382.5,385.2c-5.5,1.5-8.2,3.9-9.3,8.2
		C1377.6,393.6,1380.7,390.9,1382.5,385.2z M1359.3,378c-1.8-4.8-5.1-7.2-9.8-8.5C1351.2,375.1,1354.5,378,1359.3,378z M1372.9,378
		c4.9-0.1,8.4-3.4,9.4-8.5C1377.9,370.9,1374.5,373.2,1372.9,378z M1366.1,359c-3,5.6-2.8,9.9,0.4,13
		C1369.1,367.7,1368.4,363.6,1366.1,359z M453.5,415.4c-0.4-0.3-0.8-0.6-1.2-1c-2.1,1-4.1,2.1-6.2,3.1c0,0.4,0,0.9,0,1.3
		c2,1,3.9,2,5.9,3C452.5,419.7,453,417.6,453.5,415.4z M1381.7,431.7c-2.2-1.5-3.6-3.1-4.7-3c-1.2,0.2-2.1,2-3.2,3.2
		c1.1,1,2.2,2.8,3.4,2.9C1378.3,434.8,1379.6,433.2,1381.7,431.7z M606.5,426.5C606.5,426.5,606.5,426.5,606.5,426.5
		c0-0.8,0.2-1.7,0-2.5c-0.3-0.8-1-1.5-1.6-2.2c-0.5,0.7-1.4,1.4-1.6,2.2c-0.2,1.6-0.2,3.3,0,5c0.1,0.6,0.9,1.1,1.4,1.6
		c0.6-0.6,1.4-1,1.7-1.7C606.7,428.2,606.5,427.3,606.5,426.5z M797.4,248.8c-5.7-2.8-11.4-5.6-17.8-8.7
		C780.9,243.2,789.4,247.4,797.4,248.8z M1394.1,265.1c-0.2-0.5-0.4-1-0.6-1.5c-4.2,0.3-7.7,2-10.6,5c0.3,0.5,0.5,1,0.8,1.6
		C1387.1,268.5,1390.6,266.8,1394.1,265.1z M745.3,421c0.9-5.6,0.5-6.1-4.3-4.9c0,1.6,0,3.2,0,4.9C742.6,421,743.8,421,745.3,421z
		 M1311.7,270.5c0.2-0.4,0.4-0.8,0.5-1.2c-2.8-3.7-7.4-5.6-11.4-3.9C1304.9,267.3,1308.3,268.9,1311.7,270.5z M761.6,232.4
		c6.1,5.1,14.8,8.7,17.3,7.4C772.9,237.2,767.2,234.8,761.6,232.4z M305.7,415.6c-0.7,5.7-0.1,6.2,4.7,4.7c-0.1-1.5-0.1-3.2-0.2-4.7
		C308.5,415.6,307.2,415.6,305.7,415.6z M1329,415.9c0,1.7,0,3.2,0,4.8c1.7,0,3.1,0,4.5,0C1334,415.1,1333.9,415,1329,415.9z
		 M1293.7,420.9c0.1-1.2,0.2-1.9,0.2-2.6c0-0.8-0.1-1.6-0.2-2.3c-5-0.9-5.4-0.4-4.3,4.9C1290.6,420.9,1292,420.9,1293.7,420.9z
		 M785.4,420.9c0.6-5.7,0.1-6.2-4.3-4.8c0,1.6,0,3.2,0,4.8C782.6,420.9,783.9,420.9,785.4,420.9z M1079.4,431c0-2.4,0.1-4.7-0.1-7
		c0-0.5-1-1.4-1.5-1.4c-0.5,0-1.4,0.8-1.5,1.4c-0.2,1.7,0,3.4-0.1,5C1076,431.2,1076.9,431.8,1079.4,431z M345.8,415.6
		c0,1.9,0,3.6,0,5.2c1.6,0,2.9,0,4.2,0c0-1.8,0-3.4,0-5.2C348.6,415.6,347.3,415.6,345.8,415.6z M599.4,435.4c3.8,0,7.1,0,10.8,0
		C606.6,431.3,603.4,431.3,599.4,435.4z M485.8,297.3c-0.3,0-0.7,0-1,0c-2.1,3.7-2,6.2,1.4,8.6C486.1,303.1,486,300.2,485.8,297.3z
		 M478,312.1c0.5-0.6,1-1.1,1.5-1.7c-2.3-1.9-4.5-3.8-6.8-5.8c-0.4,0.5-0.8,0.9-1.2,1.4C473.7,308,475.8,310,478,312.1z
		 M490.3,322.8c0.3,0.3,0.6,0.6,0.8,0.9c3.8-0.6,5.6-2.4,6.4-7.2C494.7,319,492.5,320.9,490.3,322.8z M449.5,424.3
		c0.1-0.2,0.3-0.5,0.4-0.7c-1.6-1.3-3.2-2.6-5.2-4.3c-0.5,2-0.9,3.4-1.3,5C445.8,424.3,447.6,424.3,449.5,424.3z M478.6,323.9
		c0.3-0.3,0.6-0.7,0.9-1c-2.2-1.9-4.5-3.8-6.7-5.7c-0.3,0.3-0.5,0.6-0.8,1C473.5,320.9,474.9,323.7,478.6,323.9z M490.4,335.2
		c0.3,0.4,0.6,0.8,0.9,1.1c3.5-0.3,5.1-2.9,6.4-5.8c-0.3-0.3-0.5-0.6-0.8-0.9C494.7,331.5,492.5,333.4,490.4,335.2z M804.8,269.4
		c-0.6,0-1.3,0-1.9,0c-0.1,2.2-0.3,4.5-0.3,6.7c0,0.3,0.9,0.8,1.4,0.7c0.4,0,1.2-0.6,1.2-1C805.1,273.7,805,271.6,804.8,269.4z
		 M472.8,329.6c-0.3,0.3-0.6,0.7-0.9,1c1.5,2.8,3,5.6,6.6,5.8c0.3-0.3,0.6-0.7,0.9-1C477.3,333.4,475,331.5,472.8,329.6z
		 M498.3,305.9c-0.5-0.5-1-1-1.5-1.5c-2.1,2-4.3,4-6.4,6c0.5,0.5,1,1,1.5,1.5C494,310,496.1,308,498.3,305.9z M1082.8,435.5
		c-4.4-3.5-7.1-3.3-9.3,0C1076.3,435.5,1079.2,435.5,1082.8,435.5z M804.3,255.8c-0.4,0-0.8,0-1.2,0c0.6,3.9-1,7.9,1.2,11.6
		C804.3,263.6,804.3,259.7,804.3,255.8z M141.9,230.4c-1.8,2.3-1.9,7.9,0,11.1C141.9,237.5,141.9,234,141.9,230.4z"/>
	<path class="st1" d="M328.8,496.8c166,0,332.1,0,498.1,0c0,0.2,0,0.5,0,0.7c-166.1,0-332.1,0-498.2,0
		C328.8,497.3,328.8,497,328.8,496.8z"/>
	<path class="st1" d="M1325.4,187.6c3.4,1.4,6.1,2.5,8.7,3.6c0.3,0.4,0.7,0.7,1,1.1c3.5-4.1,6.9-8.2,10.4-12.3
		c0.4,0.4,0.8,0.8,1.2,1.1c-3.7,3.9-7.4,7.8-11,11.5c1,2.4,1.7,4.7,2.8,6.8c0.4,0.8,1.6,1.7,2.5,1.7c3.5,0.2,7,0.1,10.5,0.1
		c1.1,0,2.2,0.1,3.3,0.1c0,0.4,0,0.7,0,1.1c-5.3,0-10.6,0-15.5,0c-1.3,3.2-2.4,5.9-3.9,9.4c3.6,3.2,7.5,6.8,11.5,10.4
		c-0.4,0.4-0.8,0.9-1.2,1.3c-3.8-3.7-7.6-7.3-11.8-11.4c-2.1,3.2-7.2,1.8-9.6,5.9c3,0.5,5,0.7,7,1.3c5.9,1.9,9.5,7.9,8.7,13.9
		c-0.3,2.7-1.4,3.9-4.4,3.8c-14.7-0.2-29.5-0.1-44.2-0.1c-5.6,0-11.2,0.4-16.6-0.3c-4.3-0.6-8.3-2.7-12.5-4.1
		c-1.1-0.4-2.2-1-3.3-0.9c-7.6,0.6-12.4-1.5-15-6.8c-2.7-5.4-1.5-10.7,3.8-16.6c-0.5-0.8-1-1.7-1.4-2.7c-3-6.1-0.9-13.3,4.8-16.8
		c5.6-3.5,12.8-2.2,17,2.9c2.7,3.3,5.9,2.8,7.6-1.2c2.7-6.2,9.2-9.4,15.5-7.5c6.5,1.9,10.5,7.9,9.3,14.4c-0.4,2.2,0,3.3,1.9,4.4
		c1.2,0.7,2.1,1.9,3.4,3.1c1.6-0.5,3.4-1,4.6-1.4c1.2-3.8,2.3-7.2,3.8-11.9c-1.3-1.1-3.5-2.8-5.5-4.7c-1.9-1.8-3.7-3.8-4.9-6.3
		c3.5,3.9,7,7.9,10.5,11.8c0.4-0.4,0.8-0.8,1.2-1.2c2.7-1.1,5.5-2.3,8.6-3.6c0-5,0-10.2,0-15.5c0.4,0,0.7,0,1.1-0.1
		C1325.4,177.5,1325.4,182.8,1325.4,187.6z M1250.4,208.7c-0.2,0.3-0.3,0.4-0.4,0.5c-5.5,4.6-7,9.6-4.5,14.9c2.4,5.1,7,7,14,5.9
		c0.8-0.1,2,0.1,2.6,0.6c5.5,4.5,12,5.2,18.8,5.2c17.7-0.1,35.5-0.1,53.2-0.1c1.3,0,2.6,0,3.7,0c1.5-3.9,0.9-7.1-1.1-10.1
		c-3.1-4.9-7.9-5.7-13.2-5c1.7-11.3-7.2-18.8-17.8-13.7c-2.4-2-4.8-4-7.3-6c0-0.2-0.1-0.6,0-0.9c2-7-0.7-13-6.7-15.1
		c-6.4-2.2-12.2,0.9-15,8.1c-0.3,0.8-1,1.6-1.7,1.9c-1.8,0.6-3.7,1-5.5,1.4c-5.9-8-12.1-9.9-18.1-5.5
		C1245.8,194.8,1245.3,201.3,1250.4,208.7z M1325.1,213.9c7-0.3,11.9-5.2,12-11.7c0.1-6.4-4.9-11.8-11.4-12.3
		c-6.2-0.5-12.1,4.5-12.6,10.9c-0.1,0.9,0.8,2.6,1.6,2.8C1320,205.1,1323.4,208.5,1325.1,213.9z"/>
	<path class="st1" d="M1079.7,341.3c-0.8-3.7-1.3-7.6-2.5-11.2c-2-5.6-0.6-10.3,2.2-15.1c3.9,3.4,5,10.5,3.2,15.1
		c-1.3,3.4-1.8,7.2-2.7,10.8c0.6,0.2,1.1,0.5,1.7,0.7c1.2-2,2.8-3.8,3.7-6c2.1-5.1,8.1-9.4,13.4-9.1c-1,6.3-5.3,11-11,12.2
		c-4.4,0.9-5.9,4.5-6.6,8.1c-0.6,3.2-0.1,6.6,0.6,10.4c1.2-2,2.8-3.9,3.7-6.1c2.1-5,7.5-8.9,13.2-9.1c-0.5,5.3-4.7,11.2-9.4,11.9
		c-5.1,0.7-7.1,4.1-8.1,8c-0.8,3.4-0.2,7,0.6,10.9c1.3-2.2,2.8-4.3,3.8-6.6c2-4.7,7.5-8.5,13-8.7c-0.5,5.5-4.9,11.3-9.7,12
		c-5.1,0.7-7.1,4.3-7.7,8.3c-0.8,5-0.2,10.2-0.2,15.4c2.7-1.4,5.3-2.7,7.8-4c0.3,0.4,0.6,0.8,0.9,1.2c-6.9,2.2-10.6,7.1-11.8,14.4
		c-5.4-9.7-5.4-9.7-12.1-14.7c3.9-0.6,6.3,1.2,12.6,9c0.3-2.1,0.7-4.2,0.8-6.3c0.1-4,0.5-8-0.2-11.9c-0.6-3.3-2.3-6.4-3.8-9.5
		c-0.4-0.8-1.7-1.4-2.6-1.6c-7.2-1-9.6-6.4-11.9-12.2c5.1-0.5,11.2,3.5,13.4,8.3c1.1,2.4,2.6,4.7,4.5,6.8c0.3-4.9,1.6-9.8-1.3-14.3
		c-1.5-2.3-3.2-4-6.4-4.6c-6-1.2-8.3-6.4-10.2-11.7c5.2-0.6,11.5,3.5,13.6,8.5c1,2.3,2.5,4.4,3.8,6.6c0.4-0.1,0.9-0.2,1.3-0.4
		c-0.3-3.9-0.1-7.9-1-11.6c-0.9-3.6-3.1-6.3-7.6-7.2c-6-1.2-8.2-6.4-10.1-11.8c5.6-0.3,11.5,3.8,13.6,8.8c1,2.3,2.6,4.4,3.9,6.6
		C1078.6,341.7,1079.1,341.5,1079.7,341.3z M1079.7,318.2c-2.8,4.8-2.7,9.1,0.2,12.5C1082.7,327.1,1082.7,322.5,1079.7,318.2z
		 M1096.3,359.4c-4.8,1.5-8.1,3.8-9.7,8.4C1091.1,368.3,1094.4,365.4,1096.3,359.4z M1086.6,352.6c5.2-0.5,8.8-4,9.2-8.6
		C1091.5,345.4,1088,347.6,1086.6,352.6z M1063.2,328.4c2,6,5.4,8.8,9.5,8.3C1071.3,332.2,1069,330.2,1063.2,328.4z M1063.4,359.5
		c1.3,5.5,4.8,8.6,9.6,8.4C1071.3,363.2,1067.9,360.9,1063.4,359.5z M1096.1,328.6c-5.2,1.1-8,3.6-9.1,8
		C1091.2,337,1094.7,333.9,1096.1,328.6z M1063.2,343.7c2,6.2,5.4,9.1,9.7,8.5C1071.4,347.6,1068,345.5,1063.2,343.7z"/>
	<path class="st1" d="M1413.3,497.7c-96.2,0-192.4,0-288.7,0C1126.4,496.2,1408.6,495.7,1413.3,497.7z"/>
	<path class="st1" d="M281.8,497.6c-92.9,0-185.7,0-278.6,0c0-0.2,0-0.5,0-0.7c92.9,0,185.7,0,278.6,0
		C281.8,497.1,281.8,497.4,281.8,497.6z"/>
	<path class="st1" d="M925.5,455.5c-67.9,0-135.9,0-203.8,0c0-0.2,0-0.4,0-0.6c67.9,0,135.9,0,203.8,0
		C925.5,455.1,925.5,455.3,925.5,455.5z"/>
	<path class="st1" d="M1413.2,475.2c-67.5,0-134.9,0-202.4,0c0-0.2,0-0.5,0-0.7c67.5,0,134.9,0,202.4,0
		C1413.2,474.7,1413.2,475,1413.2,475.2z"/>
	<path class="st1" d="M900.6,496.8c56.6,0,113.1,0,169.7,0c0,0.2,0,0.5,0,0.7c-56.6,0-113.1,0-169.7,0
		C900.6,497.3,900.6,497,900.6,496.8z"/>
	<path class="st1" d="M249.8,475.3c-49.3,0-98.6,0-147.9,0c0-0.2,0-0.5,0-0.7c49.3,0,98.6,0,147.9,0
		C249.7,474.8,249.8,475,249.8,475.3z"/>
	<path class="st1" d="M652,474.3c49.1,0,98.2,0,147.3,0c0,0.2,0,0.5,0,0.7c-49.1,0-98.2,0-147.4,0C652,474.8,652,474.6,652,474.3z"
		/>
	<path class="st1" d="M1009.4,474.3c48.4,0,96.8,0,145.2,0c0,0.2,0,0.5,0,0.7c-48.4,0-96.8,0-145.2,0
		C1009.3,474.8,1009.3,474.6,1009.4,474.3z"/>
	<path class="st1" d="M794.9,193.3c-1.6,2.4-2.8,4.2-4,5.9c-2.5,3.7-4.1,3.7-6.7-0.1c-1-1.4-1.9-2.8-2.8-4.2
		c-0.2-0.3-0.5-0.5-1.3-1.1c-1.4,2-2.8,4-4.3,6c-2.1,2.8-3.5,2.9-5.6,0.2c-1.5-1.9-2.7-3.9-4.5-6.6c-1.7,2.3-3,4.2-4.4,6.1
		c-2.4,3.4-4.8,3.3-6.9-0.3c-0.6-1.1-1-2.5-1.7-3.6c-0.6-0.9-1.5-1.7-2.3-2.5c0.2-0.3,0.4-0.5,0.6-0.8c1,0.7,2.2,1.3,2.9,2.2
		c0.8,1,1.1,2.4,1.7,3.6c1.5,2.8,2.6,2.8,4.4,0.3c0.7-1,1.3-2.1,2-3c2.7-3.8,4.4-3.8,7,0c1.2,1.7,2.4,3.4,3.9,5.6
		c1.6-2.4,2.7-4.1,3.9-5.7c2.7-3.9,4.3-3.8,7,0.2c1.1,1.7,2.3,3.3,3.8,5.5c1.8-2.6,3.1-4.5,4.5-6.4c2-2.7,3.6-2.7,5.7,0
		c0.7,1,1.3,2,2,3c0.7,1,1.4,1.9,2.6,3.3c1.6-2.4,2.9-4.3,4.3-6.2c2.2-2.9,3.8-2.9,5.9,0c1.3,1.8,2.5,3.8,4.3,6.4
		c1.6-2.3,2.8-4,4-5.8c2.5-3.7,4.3-3.7,6.8-0.2c1.5,2.1,2.9,4.2,4.9,7c-4.8-1.2-5-6.2-8.6-8.3c-1.4,2.1-2.7,4-4.1,5.9
		c-2.2,2.9-3.7,2.9-5.9,0c-1.3-1.8-2.6-3.7-4.3-6.3c-1.4,1.9-2.5,3.3-3.5,4.9c-3.1,4.8-4.6,4.9-7.7,0.2
		C797.5,197.1,796.5,195.6,794.9,193.3z"/>
	<path class="st1" d="M423.2,455.5c-42.4,0-84.9,0-127.3,0c0-0.2,0-0.4,0-0.6c42.4,0,84.9,0,127.3,0
		C423.2,455.1,423.2,455.3,423.2,455.5z"/>
	<path class="st1" d="M1123,224.5c-0.8,1.8-1.4,3.7-2.4,5.4c-0.5,1-1.7,2.3-2.4,2.3c-1-0.1-2.3-1.2-2.9-2.2c-1-1.7-1.6-3.6-2.8-6.5
		c-1.1,2.2-1.5,3.5-2.3,4.6c-1,1.5-2.3,2.8-3.4,4.3c-1.2-1.4-2.4-2.7-3.5-4.2c-0.8-1.1-1.2-2.5-2.3-4.7c-1.1,2.6-1.6,4.3-2.6,5.7
		c-0.8,1.2-2,2.1-3.1,3.2c-1-1.1-2.2-2-3-3.3c-0.9-1.4-1.3-3-2.4-5.5c-1.1,2.4-1.7,3.9-2.5,5.2c-0.9,1.3-2,2.4-3,3.7
		c-1.2-1.2-2.5-2.4-3.4-3.8c-1-1.5-1.7-3.3-2-5.6c0.9,1,2,2,2.7,3.1c0.8,1.4,1.4,3,2.3,5.2c0.9-1.2,1.4-1.9,1.9-2.7
		c1.3-1.9,2.6-3.8,3.9-5.6c1.4,1.9,2.8,3.9,4.2,5.8c0.5,0.6,0.9,1.3,1.8,2.4c0.9-1.8,1.4-3.3,2.2-4.6c0.9-1.3,2-2.4,3.1-3.6
		c1.1,1.2,2.4,2.4,3.4,3.7c0.8,1.1,1.2,2.6,2.2,4.9c1.1-2.3,1.7-3.7,2.6-5c0.9-1.3,2-2.4,3.1-3.6c1.1,1.2,2.4,2.4,3.4,3.7
		c0.8,1.2,1.3,2.7,2.5,5.1c1.2-2.9,1.8-4.8,2.8-6.5c0.6-1,1.8-2.1,2.9-2.2c0.8-0.1,1.9,1.2,2.5,2.2c1,1.7,1.6,3.6,2.4,5.4
		c0.3,0,0.7,0,1,0c0.8-1.8,1.5-3.7,2.4-5.4c0.5-0.9,1.7-2.2,2.5-2.1c1,0.1,2.3,1.2,2.8,2.2c1.3,2.1,2.2,4.4,3.4,7
		c-4.5-0.9-3.3-5.9-6.5-8.2c-0.9,2-1.5,3.9-2.5,5.6c-0.6,1-1.8,2.4-2.8,2.4c-0.9,0-2.1-1.4-2.7-2.4c-1-1.6-1.5-3.5-2.3-5.2
		C1123.8,224.5,1123.4,224.5,1123,224.5z"/>
	<path class="st1" d="M1136.3,455.5c-38.1,0-76.3,0-114.4,0c0-0.2,0-0.5,0-0.7c38.1,0,76.3,0,114.4,0
		C1136.3,455,1136.3,455.3,1136.3,455.5z"/>
	<path class="st1" d="M588.1,173.7c0-1.5-0.3-3,0.1-4.4c1.6-6.4-0.8-12.7-6.4-16.4c-5.4-3.5-13-3.5-17.3,1.4
		c-3.3,3.8-6.5,5.3-11.4,5.7c-5.6,0.5-8.5,4.9-10,10.4c-4.8-0.7-8.9,0.4-12.1,4.1c-0.4,0.5-1.5,0.4-2.3,0.5
		c-1.4,0.3-2.9,0.5-4.3,0.7c0.5,1.3,1,2.6,1.6,4.1c-2.2,0.5-3.4-1-3.2-2.8c0.2-1.4,2-3.8,2.8-3.7c3.5,0.6,5.6-1.3,8-3.1
		c0.9-0.6,2-1.3,3-1.2c4.3,0.4,6-2.3,8-5.5c2.5-4,6.7-5.8,11.5-5.7c2.1,0,3.4-0.4,4.8-2.2c4.7-6.4,12.8-8.4,19.7-5.3
		c7.1,3.2,10.9,10.7,9.4,18.5c-0.3,1.5-0.4,3-0.6,4.5C588.9,173.6,588.5,173.7,588.1,173.7z"/>
	<path class="st1" d="M604.8,475.1c-33.1,0-66.2,0-99.3,0c0-0.2,0-0.5,0-0.7c33.1,0,66.2,0,99.3,0
		C604.8,474.7,604.8,474.9,604.8,475.1z"/>
	<path class="st1" d="M839.7,474.4c32.5,0,65,0,97.5,0c0,0.2,0,0.5,0,0.7c-32.5,0-65,0-97.5,0C839.7,474.9,839.7,474.6,839.7,474.4z
		"/>
	<path class="st1" d="M583.4,454.7c28.8,0,57.5,0,86.3,0c0,0.2,0,0.5,0,0.7c-28.8,0-57.5,0-86.3,0
		C583.4,455.2,583.4,454.9,583.4,454.7z"/>
	<path class="st1" d="M430.2,475.2c-28.3,0-56.5,0-84.8,0c0-0.2,0-0.5,0-0.7c28.3,0,56.6,0,84.8,0
		C430.2,474.7,430.2,475,430.2,475.2z"/>
	<path class="st1" d="M950.6,151.3c1.7,0.7,3.5,1.2,5,2.2c1.3,0.8,2.2,2.2,3.3,3.3c2.9,2.7,6.1,2.7,9-0.1c1-0.9,1.8-2,2.7-2.9
		c3.3-3.1,7.4-3.1,10.7-0.1c1,0.9,1.8,1.9,2.8,2.9c3,2.9,6.3,2.9,9.2,0c1-1,1.9-2.2,3-3.1c3.1-2.7,7.1-2.6,10.2,0
		c2.5,2.2,5.1,4.3,8.4,7.1c-2.2-0.7-3.9-1.1-5.4-1.9c-1.2-0.7-2.1-2-3.1-3c-3.3-3.3-6.7-3.3-10,0c-1.4,1.4-2.7,2.9-4.3,3.8
		c-3.2,1.9-6.8,0.7-10.2-2.9c-4.4-4.7-7.4-4.7-11.7,0c-4.8,5.2-8.9,5-13.8,0c-1.7-1.7-3.9-2.9-5.9-4.4
		C950.5,151.9,950.5,151.6,950.6,151.3z"/>
	<path class="st1" d="M192.7,455.5c-27.1,0-54.1,0-81.2,0c0-0.2,0-0.5,0-0.7c27.1,0,54.1,0,81.2,0
		C192.7,455,192.7,455.2,192.7,455.5z"/>
	<path class="st1" d="M1225.1,454.7c25.5,0,51.1,0,76.6,0c0,0.2,0,0.5,0,0.7c-25.5,0-51.1,0-76.6,0
		C1225.1,455.2,1225.1,455,1225.1,454.7z"/>
	<path class="st1" d="M269.4,455.5c-24.1,0-48.2,0-72.4,0c0-0.2,0-0.5,0-0.7c24.1,0,48.2,0,72.3,0
		C269.4,455,269.4,455.2,269.4,455.5z"/>
	<path class="st1" d="M141.1,214.3c-1.6-9.5-2.4-10.1-11.1-10.2c-4.2-7.2-8.5-7.8-14.7-1.7c-2.7-3-5.9-5.5-10.3-3.4
		c-4,2-4.8,5.6-4.1,9.8c-2.3-2.9-1.9-6.7,0.8-9.4c3.6-3.7,7.9-3.6,13.6,0.3c6.1-4.5,10.1-4,14.9,1.5c0.6,0.7,2,1,3,1.1
		c5.8,0.3,9.9,5,8.8,10.4C142,213.2,141.6,213.6,141.1,214.3z"/>
	<path class="st1" d="M263.8,210.2c-1.7-9.8-2.7-10.7-11.1-10.4c-4.3-7.3-8.3-7.8-14.9-1.7c-2.5-3.1-5.4-5.2-9.6-3.6
		c-4.5,1.8-5,5.6-4.5,10.1c-2.5-2.7-2.1-6.4,0.6-9.4c3.3-3.7,8.2-3.6,13.6,0.2c6.5-4.5,9.5-4.1,15.1,1.7c0.7,0.7,2.1,0.8,3.2,0.8
		C262.6,198.5,266.3,204,263.8,210.2z"/>
	<path class="st1" d="M1092.9,206.7c21.8,0,43.6,0,65.4,0c0,0.2,0,0.5,0,0.7c-21.8,0-43.6,0-65.4,0
		C1092.9,207.2,1092.9,207,1092.9,206.7z"/>
	<path class="st1" d="M488.9,202c21.1,0,42.2,0,63.4,0c0,0.2,0,0.5,0,0.7c-21.1,0-42.2,0-63.4,0C488.9,202.4,488.9,202.2,488.9,202z
		"/>
	<path class="st1" d="M535.4,455.4c-21.1,0-42.2,0-63.4,0c0-0.2,0-0.5,0-0.7c21.1,0,42.3,0,63.4,0
		C535.4,454.9,535.4,455.2,535.4,455.4z"/>
	<path class="st1" d="M3.3,474.4c18.1,0,36.2,0,54.3,0c0,0.2,0,0.5,0,0.7c-18.1,0-36.2,0-54.3,0C3.3,474.9,3.3,474.7,3.3,474.4z"/>
	<path class="st1" d="M1362.2,454.7c16.5,0,33,0,49.5,0c0,0.2,0,0.4,0,0.6c-16.5,0-33,0-49.5,0
		C1362.2,455.1,1362.2,454.9,1362.2,454.7z"/>
	<path class="st1" d="M98.3,455.5c-15.3,0-30.6,0-45.8,0c0-0.2,0-0.5,0-0.7c15.3,0,30.6,0,45.8,0C98.3,455,98.3,455.3,98.3,455.5z"
		/>
	<path class="st1" d="M589,193.7c-14.1,0-28.3,0-42.4,0c0-0.3,0-0.5,0-0.8c14.2,0,28.3,0,42.5,0C589,193.2,589,193.5,589,193.7z"/>
	<path class="st1" d="M616.1,389.4c-7.9,5.1-7.4,4.1-11.4,14.4c-1.5-3-2.4-6.2-4.4-8.5c-2-2.4-4.9-3.9-7.3-5.7
		c3.5-0.8,5.9,1,11.6,9.1C607.2,393.8,610.3,389.7,616.1,389.4z"/>
	<path class="st1" d="M203.9,176.7c8.8,0,17.5,0,26.3,0c0,0.3,0,0.5,0,0.8c-8.7,0-17.5,0-26.2,0C204,177.2,203.9,176.9,203.9,176.7z
		"/>
	<path class="st1" d="M666.3,260.7c0,8.8,0,17.6,0,26.3c-0.3,0-0.6,0-0.8,0c0-8.8,0-17.6,0-26.4C665.8,260.6,666,260.7,666.3,260.7z
		"/>
	<path class="st1" d="M169.2,176.7c8.6,0,17.1,0,25.7,0c0,0.3,0,0.5,0,0.8c-8.6,0-17.1,0-25.7,0C169.2,177.3,169.2,177,169.2,176.7z
		"/>
	<path class="st1" d="M821.8,270.6c7.8-8.9,10.1-18.8,5.6-31C834.2,246.7,831.2,265.4,821.8,270.6z"/>
	<path class="st1" d="M1222.4,270.8c-4.5-5.5-8.2-2.8-12.3,1.4c-0.1-6-2.6-8.7-8.6-7.5c3.8-3.1,7.1-1.7,9.6,2.7
		c2.9-0.3,5.7-0.9,8.3-0.8c1.3,0.1,2.4,1.7,3.6,2.7C1222.9,269.8,1222.6,270.3,1222.4,270.8z"/>
	<path class="st1" d="M511.9,120.7c0.2-5.7-2.8-7.8-8.1-7.2c4.4-2.3,6.5-1.4,9.8,3.8c6.2-3,8.8-2.6,11,1.8c-2.1-0.7-4.3-2.2-6.2-2
		C516.3,117.2,514.4,119.1,511.9,120.7z"/>
	<path class="st1" d="M540.3,220.8c5.6-3.2,8.7-2.7,10.9,1.6c-2.1-0.7-4.3-2.1-6.3-1.9c-2,0.2-3.8,2.1-6.2,3.6
		c-0.1-5.2-2.6-7.9-8.7-6.7C534.1,214.2,536.9,215.4,540.3,220.8z"/>
	<path class="st1" d="M1198,172.2c-4.6-4.9-8.4-2.7-12.5,2c0-6.2-2.6-8.8-8.4-7.6c3.4-3.3,6.8-1.9,9.8,3.4
		C1192.9,166.9,1195.7,167.3,1198,172.2z"/>
	<path class="st1" d="M496.9,163.8c5.7-3.3,9.2-2.7,10.9,1.7c-6.1-2.4-6.1-2.4-12.5,1.6c0-5.4-2.7-7.9-9-6.7
		C490.9,157.3,493.8,158.4,496.9,163.8z"/>
	<path class="st1" d="M1280.2,270.9c4.3-2.3,6.6-1.2,9,3.2c2.9-0.3,5.7-1,8.3-0.8c1.3,0.1,2.5,1.7,3.3,3.2c-2.1-0.7-4.3-2.1-6.3-1.9
		c-2,0.2-3.9,2.1-6.2,3.5C1288.1,273,1285.6,270.2,1280.2,270.9z"/>
	<path class="st1" d="M1237.4,241.3c6.3-3.1,9.1-2.7,11.1,1.7c-2.1-0.7-4.3-2.1-6.3-1.9c-2,0.2-3.9,2.1-6.2,3.5
		c0-5.4-2.7-7.8-8.2-7.1C1231.9,235.1,1234.6,236.2,1237.4,241.3z"/>
	<path class="st1" d="M357.9,196.5c6.3-3.2,9.4-2.7,11.5,3.1c-5-5.7-8.7-3.8-12.1,0.4c-1-2.3-1.5-4.6-2.9-5.8
		c-1.3-1.2-3.7-1.2-5.5-1.8C351.6,189.9,355.3,191.4,357.9,196.5z"/>
	<path class="st1" d="M557.2,171.6c4.1-2.5,6.9-1.3,9.1,2.9c3.1-0.2,6-0.7,8.8-0.5c1.1,0.1,2.1,1.7,3,2.8c-6.2-2.2-6.2-2.2-12.6,1.8
		C565.3,173.5,562.8,170.8,557.2,171.6z"/>
	<path class="st1" d="M467.9,474.4c8.7,0,17.4,0,26.1,0c0,0.2,0,0.5,0,0.7c-8.7,0-17.4,0-26.1,0
		C467.9,474.9,467.9,474.6,467.9,474.4z"/>
	<path class="st1" d="M666.4,214.3c0,5.5,0,11.1,0,16.6c-0.3,0-0.6,0-0.8,0c0-5.6,0-11.1,0-16.7
		C665.8,214.2,666.1,214.2,666.4,214.3z"/>
	<path class="st1" d="M649.9,234.8c1.9-7,3.9-14,5.8-21.1c0.5,0.1,0.9,0.3,1.4,0.4c-1.9,7-3.9,14.1-5.8,21.1
		C650.9,235.1,650.4,234.9,649.9,234.8z"/>
	<path class="st1" d="M184.7,167.8c7.6,0,15.2,0,22.8,0c0,0.2,0,0.4,0,0.6c-7.6,0-15.2,0-22.8,0C184.7,168.2,184.7,168,184.7,167.8z
		"/>
	<path class="st1" d="M1061.3,396.5c6.4-1.9,14.5,4.2,14.6,10.9C1072.8,401.4,1068.6,396.9,1061.3,396.5z"/>
	<path class="st1" d="M1201.7,189.1c7.2,0,14.4,0,21.6,0c0,0.3,0,0.5,0,0.8c-7.2,0-14.4,0-21.6,0
		C1201.7,189.6,1201.7,189.3,1201.7,189.1z"/>
	<path class="st1" d="M696.5,268.1c1.9,6.3,3.8,12.5,5.7,18.8c-0.5,0.1-0.9,0.3-1.4,0.4c-1.9-6.3-3.9-12.6-5.8-18.8
		C695.5,268.3,696,268.2,696.5,268.1z"/>
	<path class="st1" d="M1093.2,396.4c-7.1,0.6-11.4,5-14.6,11.6C1078.2,401.3,1086.4,395,1093.2,396.4z"/>
	<path class="st1" d="M795.3,265.9c-5.9-0.5-11-10-8.8-16.2C787,256.4,789.6,262,795.3,265.9z"/>
	<path class="st1" d="M691,255.4c-1.7-5.6-3.4-11.2-5.2-16.7c0.5-0.1,0.9-0.3,1.4-0.4c1.8,5.6,3.5,11.1,5.3,16.7
		C691.9,255.1,691.4,255.3,691,255.4z"/>
	<path class="st1" d="M181.2,168.5c-5.8,0-11.7,0-17.5,0c0-0.2,0-0.4,0-0.6c5.8,0,11.7,0,17.5,0
		C181.2,168.1,181.2,168.3,181.2,168.5z"/>
	<path class="st1" d="M844.3,190.7c5.8,0,11.6,0,17.4,0c0,0.2,0,0.5,0,0.7c-5.8,0-11.6,0-17.4,0
		C844.3,191.1,844.3,190.9,844.3,190.7z"/>
	<path class="st1" d="M643.4,258.3c1.4-4.9,2.7-9.7,4.1-14.6c0.5,0.1,1,0.3,1.5,0.4c-1.4,4.9-2.7,9.7-4.1,14.6
		C644.4,258.6,643.9,258.5,643.4,258.3z"/>
	<path class="st1" d="M886.4,180.9c5.8,0,11.5,0,17.3,0c0,0.3,0,0.5,0,0.8c-5.8,0-11.5,0-17.3,0
		C886.4,181.4,886.4,181.1,886.4,180.9z"/>
	<path class="st1" d="M641.4,270.8c-1.5,5.5-3,10.9-4.5,16.4c-0.4-0.1-0.9-0.2-1.3-0.3c1.5-5.5,3-10.9,4.5-16.4
		C640.6,270.6,641,270.7,641.4,270.8z"/>
	<path class="st1" d="M275.2,475.3c-5.6,0-11.2,0-16.8,0c0-0.2,0-0.5,0-0.7c5.6,0,11.2,0,16.8,0C275.2,474.8,275.2,475,275.2,475.3z
		"/>
	<path class="st1" d="M139.6,177.6c-3.8,0-7.6,0-11.4,0c0-0.3,0-0.5,0-0.8c3.8,0,7.6,0,11.3,0C139.5,177.1,139.6,177.4,139.6,177.6z
		"/>
	<path class="st1" d="M665.5,253.4c0-5.2,0-10.4,0-15.6c0.2,0,0.5,0,0.7,0c0,5.2,0,10.4,0,15.6C665.9,253.4,665.7,253.4,665.5,253.4
		z"/>
	<path class="st1" d="M489.9,192.8c5.1,0,10.3,0,15.4,0c0,0.3,0,0.5,0,0.8c-5.1,0-10.3,0-15.4,0
		C489.9,193.3,489.9,193.1,489.9,192.8z"/>
	<path class="st1" d="M1112.2,189.1c5.3,0,10.6,0,15.9,0c0,0.2,0,0.5,0,0.7c-5.3,0-10.6,0-15.8,0
		C1112.3,189.6,1112.2,189.3,1112.2,189.1z"/>
	<path class="st1" d="M265.8,168.6c-4.9,0-9.8,0-14.7,0c0-0.3,0-0.5,0-0.8c4.9,0,9.8,0,14.6,0C265.8,168.1,265.8,168.3,265.8,168.6z
		"/>
	<path class="st1" d="M1157.1,189.9c-4.4,0-8.8,0-13.1,0c0-0.3,0-0.5,0-0.8c4.4,0,8.8,0,13.2,0
		C1157.2,189.4,1157.2,189.7,1157.1,189.9z"/>
	<path class="st1" d="M156.2,177.6c-3.1,0-6.1,0-9.2,0c0-0.2,0-0.5,0-0.7c3.1,0,6.1,0,9.2,0C156.2,177.1,156.2,177.3,156.2,177.6z"
		/>
	<path class="st1" d="M288.9,474.4c4.3,0,8.7,0,13,0c0,0.2,0,0.5,0,0.7c-4.4,0-8.7,0-13.1,0C288.9,474.9,288.9,474.7,288.9,474.4z"
		/>
	<path class="st1" d="M821.2,253.3c-1-4.2-1.9-8-2.9-11.9C821.4,243.6,822.8,248.9,821.2,253.3z"/>
	<path class="st1" d="M1182.5,189.1c4.1,0,8.2,0,12.3,0c0,0.3,0,0.5,0,0.8c-4.1,0-8.2,0-12.3,0
		C1182.6,189.6,1182.6,189.4,1182.5,189.1z"/>
	<path class="st1" d="M797.3,233.7c2.8-0.4,5.7-0.7,8.5-1.1c0.1,0.5,0.1,0.9,0.2,1.4c-2.8,0.4-5.7,0.7-8.5,1.1
		C797.5,234.7,797.4,234.2,797.3,233.7z"/>
	<path class="st1" d="M1079.5,206.6c3.4,0,6.8,0,10.2,0c0,0.2,0,0.5,0,0.7c-3.4,0-6.8,0-10.2,0
		C1079.6,207.1,1079.6,206.9,1079.5,206.6z"/>
	<path class="st1" d="M938.7,180.8c3.2,0,6.5,0,9.7,0c0,0.2,0,0.5,0,0.7c-3.2,0-6.5,0-9.7,0C938.7,181.3,938.7,181.1,938.7,180.8z"
		/>
	<path class="st1" d="M896.6,190.7c3.3,0,6.6,0,9.8,0c0,0.3,0,0.5,0,0.8c-3.3,0-6.5,0-9.8,0C896.7,191.2,896.6,190.9,896.6,190.7z"
		/>
	<path class="st1" d="M932,181.7c-3.2,0-6.5,0-9.7,0c0-0.3,0-0.5,0-0.8c3.2,0,6.5,0,9.7,0C932,181.2,932,181.5,932,181.7z"/>
	<path class="st1" d="M236.1,168.6c-3.2,0-6.5,0-9.7,0c0-0.3,0-0.5,0-0.8c3.2,0,6.5,0,9.7,0C236.1,168.1,236.1,168.3,236.1,168.6z"
		/>
	<path class="st1" d="M880.3,190.6c3.2,0,6.5,0,9.7,0c0,0.2,0,0.5,0,0.7c-3.2,0-6.5,0-9.7,0C880.3,191,880.3,190.8,880.3,190.6z"/>
	<path class="st1" d="M450.1,255.1c-25.4,0-50.7,0-76.1,0c0-0.3,0-0.5,0-0.8c25.4,0,50.7,0,76.1,0
		C450.1,254.6,450.1,254.8,450.1,255.1z"/>
	<path class="st1" d="M374.1,316.6c25.3,0,50.6,0,76,0c0,0.3,0,0.5,0,0.8c-25.3,0-50.7,0-76,0C374,317.1,374,316.8,374.1,316.6z"/>
	<path class="st1" d="M373.9,285.4c25.4,0,50.8,0,76.1,0c0,0.3,0,0.5,0,0.8c-25.4,0-50.8,0-76.1,0
		C373.9,286,373.9,285.7,373.9,285.4z"/>
	<path class="st1" d="M374,363.4c25.3,0,50.6,0,76,0c0,0.2,0,0.5,0,0.7c-25.3,0-50.6,0-76,0C374,363.9,374,363.6,374,363.4z"/>
	<path class="st1" d="M450,333c-25.3,0-50.7,0-76,0c0-0.2,0-0.5,0-0.7c25.3,0,50.7,0,76,0C450,332.5,450,332.8,450,333z"/>
	<path class="st1" d="M374.1,379c25.3,0,50.7,0,76,0c0,0.3,0,0.5,0,0.8c-25.3,0-50.7,0-76,0C374.1,379.5,374.1,379.3,374.1,379z"/>
	<path class="st1" d="M450,270.7c-25.3,0-50.7,0-76,0c0-0.2,0-0.5,0-0.7c25.3,0,50.7,0,76,0C450,270.2,450,270.4,450,270.7z"/>
	<path class="st1" d="M450,301.9c-25.3,0-50.7,0-76,0c0-0.2,0-0.5,0-0.7c25.3,0,50.7,0,76,0C450,301.4,450,301.7,450,301.9z"/>
	<path class="st1" d="M374.1,347.9c25.3,0,50.6,0,75.8,0c0,0.2,0,0.4,0,0.7c-25.3,0-50.6,0-75.8,0
		C374.1,348.3,374.1,348.1,374.1,347.9z"/>
	<path class="st1" d="M404.2,411.1c-10.1,0-20.2,0-30.2,0c0-0.3,0-0.5,0-0.8c10.1,0,20.2,0,30.3,0
		C404.2,410.5,404.2,410.8,404.2,411.1z"/>
	<path class="st1" d="M374,394.6c8.3,0,16.6,0,24.8,0c0,0.2,0,0.4,0,0.7c-8.3,0-16.6,0-24.9,0C374,395,374,394.8,374,394.6z"/>
	<path class="st1" d="M1009.3,296.1c0,14.4,0,28.2,0,42.2c-8.4,0-16.5,0-24.9,0c-0.2-0.9-0.4-1.7-0.4-2.5c0-12.3-0.1-24.6,0.1-36.9
		c0-0.9,1.1-2.7,1.8-2.7C993.6,296.1,1001.3,296.1,1009.3,296.1z M985.9,297.8c0,13.3,0,26.1,0,39c3.5,0,6.7,0,9.9,0
		c0-13.1,0-25.9,0-39C992.4,297.8,989.3,297.8,985.9,297.8z M997.5,297.9c0,3.4,0,6.6,0,9.9c0,9.4,0,9.4,9.5,8.8
		c0.2,0,0.4-0.2,0.8-0.4c0-6,0-12,0-18.2C1004.3,297.9,1001.1,297.9,997.5,297.9z M1007.7,318.1c-3,0-5.5-0.1-8,0.1
		c-0.8,0.1-2.1,1-2.1,1.6c-0.2,5.6-0.1,11.2-0.1,17c3.6,0,6.8,0,10.2,0C1007.7,330.6,1007.7,324.6,1007.7,318.1z"/>
	<path class="st1" d="M984.6,245.6c8.1,0,16.2,0,24.9,0c0,5.4,0,10.5,0,15.7c0,7.7,0,15.5,0.1,23.2c0,2.4-0.5,3.5-3.2,3.4
		c-6.5-0.2-13-0.1-19.6,0c-1.6,0-2.9-0.2-2.9-2.3c0.1-13,0.1-26.1,0.2-39.1C984.2,246.2,984.4,246,984.6,245.6z M985.9,247
		c0,13.3,0,26.1,0,39c3.5,0,6.7,0,9.9,0c0-13.2,0-26.1,0-39C992.3,247,989.2,247,985.9,247z M1007.9,267.2c-2.9,0-5.5-0.1-8.1,0.1
		c-0.8,0.1-2.2,1-2.2,1.6c-0.2,5.7-0.1,11.4-0.1,17.1c3.8,0,7,0,10.4,0C1007.9,279.7,1007.9,273.7,1007.9,267.2z M1007.8,265.3
		c0-6,0-12.1,0-18.5c-2.9,0-5.4-0.2-7.9,0.1c-0.9,0.1-2.3,1.5-2.4,2.5c-0.3,2.6-0.1,5.3-0.1,7.9c0.2,9.5,0.2,9.5,9.8,8.4
		C1007.3,265.7,1007.4,265.6,1007.8,265.3z"/>
	<path class="st1" d="M1009.3,389.1c-8.5,0-16.6,0-25,0c0-14,0-27.8,0-41.9c8.3,0,16.5,0,25,0
		C1009.3,361.1,1009.3,374.8,1009.3,389.1z M995.7,387.6c0-13.3,0-26.1,0-38.9c-3.5,0-6.7,0-9.8,0c0,13.2,0,26,0,38.9
		C989.4,387.6,992.5,387.6,995.7,387.6z M1007.8,348.7c-3.5,0-6.8,0-10.3,0c0,3.6,0,6.8,0,10c0,9.1,0,9.1,9,8.5
		c0.3,0,0.7-0.2,1.2-0.4C1007.8,360.8,1007.8,354.8,1007.8,348.7z M997.7,369c0,6.4,0,12.4,0,18.6c3.4,0,6.6,0,10,0
		c0-6.3,0-12.3,0-18.6C1004.3,369,1001.1,369,997.7,369z"/>
	<path class="st1" d="M1021.5,245.6c8.4,0,16.5,0,24.9,0c0.1,1.1,0.2,2,0.2,3c0,11.8-0.1,23.7,0,35.5c0,2.7-0.5,3.9-3.6,3.8
		c-7.1-0.2-14.2-0.1-21.6-0.1C1021.5,273.7,1021.5,259.8,1021.5,245.6z M1032.8,286.1c0-13.3,0-26.2,0-38.9c-3.5,0-6.7,0-9.8,0
		c0,13.2,0,26,0,38.9C1026.4,286.1,1029.5,286.1,1032.8,286.1z M1034.9,267.5c0,6.3,0,12.3,0,18.6c3.4,0,6.6,0,10,0
		c0-6.3,0-12.3,0-18.6C1041.5,267.5,1038.3,267.5,1034.9,267.5z M1034.7,247.1c0,5.8-0.1,11.2,0.1,16.5c0,0.8,1.2,2,2,2.1
		c2,0.3,4.1,0.3,6.1,0c0.8-0.1,2.1-1.1,2.1-1.7c0.2-5.6,0.1-11.2,0.1-17C1041.5,247.1,1038.4,247.1,1034.7,247.1z"/>
	<path class="st1" d="M1021.5,347.1c8.4,0,16.5,0,24.9,0c0,14,0,27.7,0,41.9c-8.2,0-16.4,0-24.9,0
		C1021.5,375.1,1021.5,361.3,1021.5,347.1z M1023,348.5c0,13.3,0,26.1,0,39c3.5,0,6.7,0,9.8,0c0-13.2,0-26.1,0-39
		C1029.4,348.5,1026.3,348.5,1023,348.5z M1034.7,348.5c0,5.8-0.1,11.2,0.1,16.6c0,0.7,1,2,1.7,2.1c2.3,0.3,4.6,0.2,6.9,0
		c0.6-0.1,1.7-1.1,1.7-1.7c0.1-5.6,0.1-11.3,0.1-17C1041.5,348.5,1038.4,348.5,1034.7,348.5z M1034.9,387.8c2.9,0,5.5,0.1,8.2-0.1
		c0.7,0,1.9-0.9,2-1.4c0.1-5.7,0.1-11.5,0.1-17.2c-3.7,0-6.8,0-10.2,0C1034.9,375.3,1034.9,381.4,1034.9,387.8z"/>
	<path class="st1" d="M1021.5,296.3c8.3,0,16.4,0,24.9,0c0,13.9,0,27.7,0,41.9c-8.2,0-16.4,0-24.9,0
		C1021.5,324.4,1021.5,310.6,1021.5,296.3z M1032.9,336.9c0-13.2,0-26.1,0-39c-3.4,0-6.6,0-9.9,0c0,13.1,0,26.1,0,39
		C1026.4,336.9,1029.5,336.9,1032.9,336.9z M1044.8,336.9c0-6.3,0-12.4,0-18.5c-3.5,0-6.6,0-9.9,0c0,6.3,0,12.4,0,18.5
		C1038.3,336.9,1041.2,336.9,1044.8,336.9z M1034.9,298c0,6.1,0,12.1,0,18.3c3.5,0,6.7,0,10.2,0c0-3.6,0-7,0-10.3c0-9,0-9-9-8.3
		C1035.8,297.7,1035.5,297.9,1034.9,298z"/>
	<path class="st1" d="M913.2,317.5c0,14.2,0,27.8,0,41.9c-2.5,0-4.9,0-7.3,0c-8.2,0-16.4-0.1-24.6,0.1c-2.5,0-3.3-0.8-3.3-3.3
		c0.1-11.8,0-23.7,0.1-35.5c0-1.1,1.1-3,1.7-3C890.9,317.4,901.9,317.5,913.2,317.5z M911.7,319.3c-10.8,0-21.2,0-32,0
		c0,7.5-0.1,14.7,0.1,21.9c0,0.7,1.9,1.9,2.9,2c6.7,0.2,13.5,0.1,20.2,0.1c2.8,0,5.7,0,8.7,0C911.7,335,911.7,327.3,911.7,319.3z
		 M896.8,357.9c4.5,0,8.9,0.1,13.1-0.1c0.6,0,1.7-1,1.8-1.6c0.2-3.7,0.1-7.4,0.1-11.1c-5.3,0-10.2,0-15,0
		C896.8,349.4,896.8,353.5,896.8,357.9z M880,345c0,4.4,0,8.4,0,12.7c5,0,9.7,0,14.8,0c0-4.2,0-8.4,0-12.7
		C889.8,345,885.1,345,880,345z"/>
	<path class="st1" d="M924.2,333.4c0-4.7-0.1-9.2,0.1-13.6c0-0.8,1.5-2.2,2.2-2.2c10.1-0.1,20.3-0.1,30.4,0c0.8,0,2.3,1.3,2.4,2.1
		c0.2,4.4,0.1,8.9,0.1,13.7C947.7,333.4,936.2,333.4,924.2,333.4z M940.9,319.3c-5.2,0-10,0-14.9,0c0,4.4,0,8.4,0,12.5
		c5.1,0,10,0,14.9,0C940.9,327.6,940.9,323.6,940.9,319.3z M942.5,331.8c5.3,0,10.1,0,15.1,0c0-4.3,0-8.3,0-12.8
		c-4.6,0-9-0.1-13.4,0.1c-0.6,0-1.6,1.1-1.6,1.8C942.4,324.5,942.5,328.1,942.5,331.8z"/>
	<path class="st1" d="M924.4,369.1c11.7,0,23.1,0,34.7,0c0,5.3,0,10.4,0,15.7c-11.7,0-23.1,0-34.7,0
		C924.4,379.6,924.4,374.6,924.4,369.1z M940.9,370.7c-5.3,0-10.1,0-14.9,0c0,4.4,0,8.4,0,12.5c5.1,0,10,0,14.9,0
		C940.9,378.9,940.9,375,940.9,370.7z M957.8,383.4c0-3.8,0.1-7.2-0.1-10.5c-0.1-0.8-1.1-2.2-1.8-2.3c-3.8-0.2-7.7-0.2-11.6,0
		c-0.6,0-1.7,1.1-1.8,1.7c-0.2,3.7-0.1,7.4-0.1,11.2C947.8,383.4,952.6,383.4,957.8,383.4z"/>
	<path class="st1" d="M959.1,359.3c-11.7,0-23,0-34.6,0c0-5.1,0-10.2,0-15.7c11.4,0,22.8,0,34.6,0
		C959.1,348.7,959.1,353.8,959.1,359.3z M957.7,345c-10.8,0-21.2,0-31.7,0c0,4.4,0,8.5,0,12.6c10.7,0,21.1,0,31.7,0
		C957.7,353.3,957.7,349.4,957.7,345z"/>
	<path class="st1" d="M913.4,385.1c-7.4,0-14.4,0-21.4,0c-3.7,0-7.5,0.1-11.2-0.1c-0.9-0.1-2.5-1.2-2.5-2c-0.2-4.5-0.1-9.1-0.1-14.1
		c3,0,5.6,0,8.2,0c7.9,0,15.9,0.1,23.8-0.1c2.6-0.1,3.3,0.8,3.2,3.3C913.2,376.2,913.4,380.3,913.4,385.1z M911.9,383.3
		c0-3.8,0.1-7.4-0.1-11c0-0.7-1.3-1.8-2-1.8c-9.9-0.1-19.7-0.1-29.8-0.1c0,4.5,0,8.6,0,12.9C890.7,383.3,901.1,383.3,911.9,383.3z"
		/>
	<path class="st1" d="M959.4,410.7c-12,0-23.3,0-35.1,0c0-4.9-0.1-9.7,0.1-14.4c0-0.6,1.4-1.5,2.2-1.5c10.1-0.1,20.2-0.1,30.4,0.1
		c0.8,0,2.3,1.1,2.4,1.7C959.4,401.2,959.4,405.8,959.4,410.7z M926,396.4c0,4.5,0,8.5,0,12.7c10.7,0,21.1,0,31.6,0
		c0-4.4,0-8.5,0-12.7C946.9,396.4,936.5,396.4,926,396.4z"/>
	<path class="st1" d="M168.6,301.5c7.4,0,14,0,21.2,0c0,5.2,0.1,10.3-0.1,15.4c0,0.6-1.4,1.5-2.2,1.6c-5.5,0.2-11.1,0.2-16.6,0
		c-0.8,0-2.2-1.3-2.2-2C168.5,311.6,168.6,306.7,168.6,301.5z M180.1,316.7c2.9,0,5.4,0,8,0c0-4.7,0-9.1,0-13.6c-2.8,0-5.4,0-8,0
		C180.1,307.7,180.1,312,180.1,316.7z M178.2,316.8c0-4.8,0-9.2,0-13.6c-2.8,0-5.3,0-7.7,0c0,4.7,0,9.1,0,13.6
		C173.2,316.8,175.6,316.8,178.2,316.8z"/>
	<path class="st1" d="M194.5,243.3c0-5.9,0-11.3,0-17c6.9,0,13.6,0,21,0c0,5.2,0.1,10.4-0.1,15.6c0,0.5-1.4,1.3-2.1,1.3
		C207.1,243.3,201,243.3,194.5,243.3z M195.8,241.8c2.3,0,4.4,0.1,6.3-0.1c0.7-0.1,1.8-1,1.8-1.6c0.2-4,0.1-8.1,0.1-12.5
		c-2.3,0-4.3-0.2-6.1,0.1c-0.8,0.1-2,1.3-2.1,2.1C195.7,233.5,195.8,237.4,195.8,241.8z M213.8,241.6c0-4.8,0-9.2,0-13.8
		c-2.7,0-5.2,0-7.7,0c0,4.7,0,9.2,0,13.8C208.8,241.6,211.1,241.6,213.8,241.6z"/>
	<path class="st1" d="M168.8,268.3c0-5.7,0-11.1,0-17c6.5,0,13-0.1,19.4,0.1c0.5,0,1.5,1.5,1.5,2.3c0.2,4.1,0.2,8.2,0,12.3
		c0,0.8-1.2,2.2-1.9,2.3C181.6,268.4,175.3,268.3,168.8,268.3z M180.3,252.9c0,4.9,0,9.2,0,13.6c2.8,0,5.2,0,7.8,0
		c0-4.7,0-9.1,0-13.6C185.3,252.9,182.9,252.9,180.3,252.9z M170.4,252.9c0,4.8,0,9.2,0,13.6c2.8,0,5.3,0,7.8,0c0-4.7,0-9.1,0-13.6
		C175.5,252.9,173.1,252.9,170.4,252.9z"/>
	<path class="st1" d="M168.6,351.5c6.8,0,12.8-0.1,18.8,0.1c0.8,0,2.2,1.4,2.3,2.1c0.2,4,0.1,8,0.1,11.9c0,2.2-1,2.9-3.1,2.9
		c-5.2-0.1-10.4,0.1-15.5,0c-0.9,0-2.5-1-2.5-1.6C168.5,362,168.6,356.9,168.6,351.5z M179.8,353c0,4.4-0.1,8.2,0.1,11.9
		c0,0.8,1.1,2.2,1.8,2.3c2.1,0.2,4.2-0.1,6.5-0.2c0-4.1,0.1-7.9-0.1-11.6c0-0.8-1.1-2.2-1.8-2.3C184.4,352.8,182.4,353,179.8,353z
		 M178.2,367c0-4.7,0-9.2,0-13.7c-2.8,0-5.2,0-7.7,0c0,4.7,0,9.2,0,13.7C173.2,367,175.7,367,178.2,367z"/>
	<path class="st1" d="M194.5,293.1c0-5.7,0-11.1,0-16.6c7,0,13.8,0,20.8,0c0,5.6,0,11,0,16.6C208.4,293.1,201.6,293.1,194.5,293.1z
		 M204.2,291.8c0-2.6,0-5,0-7.5c0-7.1,0-7.1-7.2-6.3c-0.3,0-0.6,0.3-1,0.4c0,4.4,0,8.8,0,13.4C198.7,291.8,201.2,291.8,204.2,291.8z
		 M213.8,291.8c0-4.8,0-9.2,0-13.7c-2.8,0-5.3,0-7.8,0c0,4.8,0,9.3,0,13.7C208.8,291.8,211.2,291.8,213.8,291.8z"/>
	<path class="st1" d="M189.8,343.4c-7.3,0-14,0-21,0c0-5.5,0-10.9,0-16.9c6.5,0,12.9,0,19.4,0.1c0.5,0,1.5,1.3,1.5,2
		C189.9,333.3,189.8,338.1,189.8,343.4z M170.4,341.8c6.2,0,11.9,0,17.7,0c0-4.7,0-9.1,0-13.6c-6,0-11.8,0-17.7,0
		C170.4,332.8,170.4,337.2,170.4,341.8z"/>
	<path class="st1" d="M194.5,343.5c0-5.8,0-11.2,0-16.8c7,0,13.8,0,20.9,0c0,5.1,0.1,10-0.1,14.9c0,0.7-1.5,1.8-2.3,1.8
		C206.9,343.5,200.9,343.5,194.5,343.5z M196.1,328.1c0,4.8,0,9.2,0,13.6c2.9,0,5.6,0,8.2,0c0-4.7,0-9.1,0-13.6
		C201.5,328.1,198.9,328.1,196.1,328.1z M213.9,328.2c-2.8,0-5.1,0-7.5,0c0,4.7,0,9.2,0,13.7c2.7,0,5,0,7.5,0
		C213.9,337.2,213.9,332.8,213.9,328.2z"/>
	<path class="st1" d="M215.3,376.8c0,5.7,0,11,0,16.7c-6.9,0-13.6,0-20.7,0c0-5.5,0-11,0-16.7C201.4,376.8,208.1,376.8,215.3,376.8z
		 M195.9,391.9c3.1,0,5.8,0,8.4,0c0-4.7,0-9.1,0-13.4c-3,0-5.6,0-8.4,0C195.9,383.1,195.9,387.3,195.9,391.9z M206.2,378.3
		c0,4.8,0,9.1,0,13.6c2.7,0,5.1,0,7.5,0c0-4.7,0-9.1,0-13.6C211.2,378.3,208.9,378.3,206.2,378.3z"/>
	<path class="st1" d="M215.3,301.7c0,5.6,0,11,0,16.6c-7,0-13.8,0-20.8,0c0-5.6,0-11,0-16.6C201.4,301.7,208.1,301.7,215.3,301.7z
		 M196,303c0,4.7,0,9.1,0,13.8c6,0,11.9,0,17.7,0c0-4.7,0-9.2,0-13.8C207.7,303,202.1,303,196,303z"/>
	<path class="st1" d="M168.9,243.3c0-6,0-11.5,0-17c7,0,13.7,0,21,0c0,5.2,0.1,10.2-0.1,15.2c0,0.6-1.3,1.7-2.1,1.7
		C181.5,243.3,175.3,243.3,168.9,243.3z M170.4,241.5c6.1,0,11.8,0,17.9,0c0-4.1,0.1-7.9-0.1-11.8c0-0.7-1.1-2-1.8-2
		c-5.3-0.2-10.5-0.1-16-0.1C170.4,232.4,170.4,236.8,170.4,241.5z"/>
	<path class="st1" d="M189.8,293.2c-7.1,0-13.8,0-21.2,0c0-5.2-0.1-10.4,0.1-15.7c0-0.5,1.4-1.2,2.1-1.3c5.5-0.1,11.1-0.1,16.6,0
		c0.8,0,2.2,1.2,2.2,2C189.9,283.2,189.8,288.1,189.8,293.2z M188.3,291.8c0-4.2,0.1-8.2-0.1-12.1c0-0.6-1.1-1.7-1.7-1.8
		c-5.4-0.1-10.7-0.1-16.1-0.1c0,5,0,9.4,0,14C176.3,291.8,182,291.8,188.3,291.8z"/>
	<path class="st1" d="M215.1,368.3c-6.8,0-13.6,0-20.6,0c0-5.7,0-11,0-16.6c6.9,0,13.6,0,20.6,0
		C215.1,357.3,215.1,362.7,215.1,368.3z M195.7,353.1c0,4.3-0.1,8.4,0.1,12.5c0,0.6,1.1,1.6,1.8,1.6c5.4,0.1,10.8,0.1,16.2,0.1
		c0-5.1,0-9.6,0-14.2C207.7,353.1,202,353.1,195.7,353.1z"/>
	<path class="st1" d="M215.2,268.1c-6.9,0-13.6,0-20.6,0c0-5.4,0-10.9,0-16.6c6.8,0,13.5,0,20.6,0
		C215.2,257,215.2,262.5,215.2,268.1z M213.9,253c-6.2,0-12,0-17.8,0c0,4.7,0,9.1,0,13.5c6.1,0,11.9,0,17.8,0
		C213.9,261.9,213.9,257.6,213.9,253z"/>
	<path class="st1" d="M189.8,376.9c0,5.1,0.1,9.9-0.1,14.6c0,0.7-1.4,2-2.1,2.1c-6.1,0.2-12.3,0.1-18.7,0.1c0-5.8,0-11.2,0-16.8
		C175.8,376.9,182.5,376.9,189.8,376.9z M170.3,378.2c0,4.8,0,9.3,0,13.8c6.1,0,11.8,0,17.7,0c0-4.8,0-9.2,0-13.8
		C182,378.2,176.4,378.2,170.3,378.2z"/>
	<path class="st1" d="M320.4,349.8c-6.3,0-12.1,0-18.5,0c0-7.4,0-14.6,0.1-21.8c0-0.6,1.1-1.7,1.7-1.7c5.5-0.1,11-0.1,16.7-0.1
		C320.4,334.3,320.4,342,320.4,349.8z M319,327.7c-2,0-3.6-0.2-5.1,0.1c-0.7,0.1-1.9,1-1.9,1.5c-0.1,6.3-0.1,12.7-0.1,19
		c2.7,0,4.8,0,7,0C319,341.5,319,334.9,319,327.7z M310.2,327.7c-1.6,0-3-0.2-4.4,0.1c-0.8,0.2-2.2,1-2.2,1.6
		c-0.2,6.3-0.1,12.6-0.1,19c2.5,0,4.5,0,6.7,0C310.2,341.5,310.2,334.9,310.2,327.7z"/>
	<path class="st1" d="M330.1,383.5c6.1,0,12,0,18.1,0c0,7.8,0,15.5,0,23.4c-6,0-11.9,0-18.1,0C330.1,399.2,330.1,391.5,330.1,383.5z
		 M331.5,405.5c1.2,0.1,1.9,0.1,2.6,0.2c3.5,0.6,4.7-0.8,4.4-4.3c-0.3-3.6-0.1-7.2-0.1-10.8c0-6,0-6-6.1-5.7c-0.2,0-0.4,0.2-0.8,0.4
		C331.5,391.9,331.5,398.6,331.5,405.5z M346.6,405.5c0-7.1,0-13.8,0-20.5c-2.4,0-4.3,0-6.5,0c0,6.9,0,13.6,0,20.5
		C342.4,405.5,344.4,405.5,346.6,405.5z"/>
	<path class="st1" d="M348.3,298c0,7.7,0,15.4,0,23.6c-5.8,0-11.4,0.1-17-0.1c-0.5,0-1.4-1.3-1.4-2c-0.1-7.1-0.1-14.2-0.1-21.5
		C336.1,298,342,298,348.3,298z M331.4,309.2c4.8,0,9.1,0.1,13.4-0.1c0.7,0,1.9-1.1,2-1.8c0.2-2.6,0.1-5.2,0.1-7.9
		c-5.5,0-10.4,0-15.5,0C331.4,302.7,331.4,305.7,331.4,309.2z M331.4,320.1c3,0,5.6,0,8.2,0c8.2,0,8.2,0,7.2-8.3
		c0-0.2-0.2-0.4-0.4-0.9c-4.9,0-9.9,0-15,0C331.4,313.9,331.4,316.7,331.4,320.1z"/>
	<path class="st1" d="M330,355c6.2,0,12,0,18.2,0c0,7.7,0,15.2,0,23.2c-5.9,0-11.9,0-18.2,0C330,370.6,330,363,330,355z
		 M346.8,356.6c-5.2,0-10.2,0-15.2,0c0,3.2,0,6.1,0,9.2c5.2,0,10.1,0,15.2,0C346.8,362.7,346.8,359.7,346.8,356.6z M331.5,376.8
		c5.2,0,10.2,0,15.2,0c0-3.2,0-6.1,0-9.1c-5.3,0-10.2,0-15.2,0C331.5,370.9,331.5,373.8,331.5,376.8z"/>
	<path class="st1" d="M320.6,297.9c0,7.4,0.1,14.4-0.1,21.5c0,0.7-1.3,2-2.1,2c-4.8,0.2-9.6,0.2-14.4,0c-0.7,0-1.9-0.9-1.9-1.5
		c-0.1-7.3-0.1-14.6-0.1-22.1C308.3,297.9,314.1,297.9,320.6,297.9z M318.8,320.1c0-7.3,0-14,0-20.6c-5.2,0-10.1,0-15.3,0
		c0,6.3-0.1,12.3,0.1,18.3c0,0.8,1.3,2.1,2,2.2C309.9,320.2,314.2,320.1,318.8,320.1z"/>
	<path class="st1" d="M302.3,383.5c6.1,0,12,0,18.1,0c0,7.8,0,15.5,0,23.4c-6,0-11.8,0-18.1,0C302.3,399.2,302.3,391.5,302.3,383.5z
		 M303.5,385c0,6.4-0.1,12.5,0.1,18.7c0,0.7,1.2,1.9,1.9,1.9c4.4,0.2,8.8,0.1,13.4,0.1c0-7.1,0-13.8,0-20.7
		C313.8,385,309,385,303.5,385z"/>
	<path class="st1" d="M302,355c6.3,0,12.1,0,18.3,0c0,7.7,0,15.3,0,23.5c-5.6,0-11.2,0-16.8-0.1c-0.5,0-1.4-1-1.4-1.6
		C301.9,369.7,302,362.5,302,355z M318.9,356.6c-5.2,0-10.1,0-15.2,0c0,6.9,0,13.5,0,20.3c5.2,0,10.1,0,15.2,0
		C318.9,370,318.9,363.5,318.9,356.6z"/>
	<path class="st1" d="M348.5,349.8c-6.3,0-12.2,0-18.7,0c0-4,0-8.1,0-12.1c0-3,0.1-6,0-9c-0.1-1.9,0.7-2.5,2.5-2.5
		c4.6,0.1,9.2-0.1,13.7,0.1c0.8,0,2.3,1.2,2.4,1.8C348.6,335.3,348.5,342.5,348.5,349.8z M346.7,348.5c0-7,0-13.7,0-20.4
		c-5.3,0-10.2,0-15.1,0c0,7,0,13.7,0,20.4C336.8,348.5,341.5,348.5,346.7,348.5z"/>
	<path class="st1" d="M548,426.3c-16,0-31.7,0-47.6,0c0-9,0-17.8,0-27c15.8,0,31.6,0,47.6,0C548,408.2,548,417.1,548,426.3z
		 M534.1,400.8c-11.1,0-21.7,0-32.3,0c0,8.1,0,15.9,0,23.8c10.9,0,21.5,0,32.3,0C534.1,416.6,534.1,408.8,534.1,400.8z M536,400.8
		c0,3.8,0,7.2,0,11c3.5,0,7,0,10.6,0c0-3.7,0-7.2,0-11C543,400.8,539.7,400.8,536,400.8z M546.6,413.8c-3.6,0-7,0-10.5,0
		c0,3.8,0,7.3,0,10.8c3.7,0,7.1,0,10.5,0C546.6,420.9,546.6,417.4,546.6,413.8z"/>
	<path class="st1" d="M1138.7,384.1c-10.9,0-21.9,0-32.8,0c0-0.3,0-0.5,0-0.8c10.9,0,21.8,0,32.8,0
		C1138.6,383.6,1138.6,383.8,1138.7,384.1z"/>
	<path class="st1" d="M1176.2,384c-11,0-22,0-33,0c0-0.3,0-0.5,0-0.8c11,0,22,0,33,0C1176.3,383.5,1176.2,383.8,1176.2,384z"/>
	<path class="st1" d="M1176.3,401.6c-11,0-22,0-33.1,0c0-0.3,0-0.5,0-0.8c11,0,22,0,33,0C1176.3,401,1176.3,401.3,1176.3,401.6z"/>
	<path class="st1" d="M1127.3,427.5c8.7,0,17.4,0,26.1,0c0,0.2,0,0.5,0,0.7c-8.7,0-17.4,0-26.1,0
		C1127.3,428,1127.3,427.8,1127.3,427.5z"/>
	<path class="st1" d="M1105.9,400.7c10.9,0,21.8,0,32.7,0c0,0.3,0,0.5,0,0.8c-10.9,0-21.9,0-32.8,0
		C1105.9,401.2,1105.9,400.9,1105.9,400.7z"/>
	<path class="st1" d="M1143.4,418.1c10.9,0,21.9,0,32.8,0c0,0.3,0,0.5,0,0.8c-10.9,0-21.8,0-32.7,0
		C1143.5,418.6,1143.4,418.3,1143.4,418.1z"/>
	<path class="st1" d="M1138.6,418.9c-10.9,0-21.8,0-32.7,0c0-0.2,0-0.5,0-0.7c10.9,0,21.8,0,32.7,0
		C1138.6,418.4,1138.6,418.7,1138.6,418.9z"/>
	<path class="st1" d="M1127.2,410c8.7,0,17.3,0,26,0c0,0.3,0,0.5,0,0.8c-8.7,0-17.3,0-26,0C1127.2,410.6,1127.2,410.3,1127.2,410z"
		/>
	<path class="st1" d="M1127.5,392.5c8.5,0,17.1,0,25.6,0c0,0.3,0,0.5,0,0.8c-8.5,0-17.1,0-25.6,0
		C1127.4,393,1127.4,392.8,1127.5,392.5z"/>
	<path class="st1" d="M1105.7,427.5c4.5,0,9,0,13.4,0c0,0.2,0,0.5,0,0.7c-4.5,0-9,0-13.4,0C1105.7,427.9,1105.7,427.7,1105.7,427.5z
		"/>
	<path class="st1" d="M1176.2,410.8c-5.8,0-11.7,0-17.5,0c0-0.3,0-0.5,0-0.8c5.8,0,11.6,0,17.4,0
		C1176.2,410.3,1176.2,410.6,1176.2,410.8z"/>
	<path class="st1" d="M1158.7,392.6c5.8,0,11.6,0,17.5,0c0,0.2,0,0.4,0,0.6c-5.8,0-11.6,0-17.5,0
		C1158.7,393,1158.7,392.8,1158.7,392.6z"/>
	<path class="st1" d="M1175.8,428.3c-5.7,0-11.4,0-17.1,0c0-0.3,0-0.5,0-0.8c5.7,0,11.5,0,17.2,0
		C1175.9,427.8,1175.8,428.1,1175.8,428.3z"/>
	<path class="st1" d="M1119.2,393.4c-4.4,0-8.8,0-13.3,0c0-0.2,0-0.5,0-0.7c4.4,0,8.8,0,13.2,0
		C1119.2,392.9,1119.2,393.1,1119.2,393.4z"/>
	<path class="st1" d="M1106,409.9c4.3,0,8.6,0,13,0c0,0.2,0,0.5,0,0.7c-4.3,0-8.7,0-13,0C1106,410.4,1106,410.2,1106,409.9z"/>
	<path class="st1" d="M1235.2,417.4c0-7,0-13.5,0-20.9c4.4,0,8.9-0.1,13.3,0.1c0.4,0,1,1.5,1,2.3c0.1,5.3,0.1,10.6-0.1,15.9
		c0,0.9-1.3,2.4-2,2.4C1243.5,417.6,1239.5,417.4,1235.2,417.4z M1240.8,415.7c0-5.5,0.1-10.7-0.1-16c0-0.6-1.4-1.6-2.1-1.6
		c-0.7,0-2,1.1-2,1.7c-0.2,5.3-0.1,10.5-0.1,15.9C1238.1,415.7,1239.3,415.7,1240.8,415.7z M1242.6,405.2c0,3.7,0,7.1,0,10.6
		c1.8,0,3.3,0,5.4,0c0-2.2,0-4.2,0-6.2C1248.1,404.4,1248.1,404.4,1242.6,405.2z M1242.5,403.5c1.9-0.3,3.8-0.2,5.1-1
		c0.6-0.3,0.5-3.4-0.1-3.8c-1.3-0.7-3.2-0.5-5-0.7C1242.5,400.1,1242.5,401.5,1242.5,403.5z"/>
	<path class="st1" d="M415.3,189.2c3,0,5.6,0,8.5,0c0,12.7,0,25.4,0,38.3c-2.7,0-5.5,0-8.5,0C415.3,214.8,415.3,202.2,415.3,189.2z
		 M422.6,226.1c0-1.5,0-2.8,0-4.1c0-8.9,0-17.9,0-26.8c0-5,0-5-5.7-4.3c0,11.7,0,23.4,0,35.2C418.8,226.1,420.5,226.1,422.6,226.1z"
		/>
	<path class="st1" d="M438.3,227.6c-2.8,0-5.5,0-8.5,0c0-12.9,0-25.6,0-38.5c2.9,0,5.5,0,8.5,0C438.3,202,438.3,214.7,438.3,227.6z
		 M431.4,190.7c0,12,0,23.6,0,35.3c2,0,3.7,0,5.5,0c0-11.9,0-23.6,0-35.3C435,190.7,433.4,190.7,431.4,190.7z"/>
	<path class="st1" d="M452.8,227.6c-2.7,0-5.4,0-8.4,0c0-12.8,0-25.4,0-38.3c2.7,0,5.4,0,8.4,0C452.8,202,452.8,214.7,452.8,227.6z
		 M445.9,190.7c0,11.9,0,23.6,0,35.3c2,0,3.7,0,5.4,0c0-11.9,0-23.5,0-35.3C449.5,190.7,447.9,190.7,445.9,190.7z"/>
	<path class="st1" d="M1015.9,204.6c0,7.3-5.8,13.1-13.1,13c-7.2-0.1-12.8-5.7-12.9-12.9c-0.1-7.2,5.8-13.1,13.1-13
		C1010.1,191.7,1015.8,197.4,1015.9,204.6z M991.8,205.7c0.6,6.1,4.5,9.9,10,9.9c0-3.3,0-6.6,0-9.9
		C998.3,205.7,995,205.7,991.8,205.7z M1004,215.7c5.9-0.5,9.7-4.4,9.9-10c-3.3,0-6.6,0-9.9,0C1004,209.3,1004,212.5,1004,215.7z
		 M1014.1,203.6c-0.9-6.2-4.3-9.6-10.1-10.1c0,3.3,0,6.6,0,10.1C1007.5,203.6,1010.7,203.6,1014.1,203.6z M1001.9,193.5
		c-6.1,0.8-9.4,4.2-10.1,10.1c3.3,0,6.6,0,10.1,0C1001.9,200.2,1001.9,197,1001.9,193.5z"/>
	<path class="st1" d="M238.6,287c2.6,0,4.9,0,7.7,0c0,3.7,0,7.3,0,10.9c-0.2,0.1-0.4,0.4-0.6,0.4C237.5,299,236.7,297.7,238.6,287z
		 M239.7,288.6c0,2.4-0.3,4.4,0.1,6.4c0.2,0.8,1.9,1.8,2.9,1.9c0.8,0,2.1-1.2,2.3-2.1c0.3-1.9,0.1-4,0.1-6.1
		C243.2,288.6,241.7,288.6,239.7,288.6z"/>
	<path class="st1" d="M273.2,287.1c0,3.2,0.1,6.2-0.1,9.2c-0.1,0.8-1.3,1.9-2.1,2c-1.9,0.3-3.8,0.1-6,0.1c0-3.8,0-7.4,0-11.3
		C267.6,287.1,270,287.1,273.2,287.1z M266.2,288.6c0,2.1,0.1,3.8,0,5.4c-0.1,2.1,0.6,3,2.8,3c2.3,0,2.9-1,2.8-3
		c-0.1-1.7,0-3.5,0-5.4C269.7,288.6,268.2,288.6,266.2,288.6z"/>
	<path class="st1" d="M278.1,303.3c8.3-1.1,8.3-1.1,8.3,6.8c0,1.3,0,2.6,0,4.1c-2.9,0-5.4,0-8.3,0
		C278.1,310.6,278.1,307.1,278.1,303.3z M279.4,313c2.1-0.1,3.7-0.2,5.6-0.2c0-2.1-0.1-3.8,0-5.4c0.2-2.2-0.6-2.9-2.8-3
		c-2.3,0-2.9,1-2.8,3.1C279.5,309.1,279.4,310.8,279.4,313z"/>
	<path class="st1" d="M264.9,303.3c8.3-0.9,8.3-0.9,8.3,6.9c0,1.3,0,2.6,0,4.1c-2.9,0-5.5,0-8.3,0
		C264.9,310.5,264.9,307,264.9,303.3z M271.2,312.9c1.4-8.2,0.8-9.2-4.8-7.8c0,2.6,0,5.1,0,7.8C268.2,312.9,269.7,312.9,271.2,312.9
		z"/>
	<path class="st1" d="M286.2,287.1c0,3.8,0,7.3,0,11.1c-2.7,0-5.1,0-8,0c0-3.6,0-7.2,0-11.1C280.8,287.1,283.3,287.1,286.2,287.1z
		 M279.4,288.6c0,1.8,0.1,3.6,0,5.3c-0.1,2,0.4,3.1,2.8,3.1c2.2,0,3-0.8,2.8-3c-0.1-1.7,0-3.5,0-5.4
		C282.9,288.6,281.4,288.6,279.4,288.6z"/>
	<path class="st1" d="M251.8,287c2.6,0,5,0,8,0c0,3.3,0.1,6.5-0.1,9.7c0,0.6-1.3,1.5-2.1,1.6c-1.8,0.2-3.6,0.1-5.8,0.1
		C251.8,294.7,251.8,291,251.8,287z M258.1,288.7c-1.6,0-3.2,0-4.9,0c0,2.7,0,5.2,0,8c1.7,0,3.2,0,4.9,0
		C258.1,294,258.1,291.5,258.1,288.7z"/>
	<path class="st1" d="M251.9,302.6c2.9,0.4,7.1,0.2,7.4,1.3c1,2.9,1.1,6.6,0,9.5c-0.4,1.2-4.6,1-7.4,1.5
		C251.9,310.5,251.9,307,251.9,302.6z M253.1,312.8c1.8,0,3.3,0,4.7,0c1.5-7.9,0.9-9-4.7-7.8C253.1,307.4,253.1,309.9,253.1,312.8z"
		/>
	<path class="st1" d="M238.2,314.4c0-3.5-0.1-6.6,0.1-9.7c0-0.6,1.1-1.6,1.7-1.7c2-0.2,4-0.1,6.6-0.1c0,3.4,0.1,6.5-0.1,9.5
		c0,0.7-1.2,1.7-1.9,1.8C242.7,314.6,240.7,314.4,238.2,314.4z M245,304.1c-2.1,0.5-4.8,0.5-4.9,1.2c-0.6,2.2-0.6,4.8,0,6.9
		c0.2,0.7,3,0.7,4.9,1.1C245,310.1,245,307.5,245,304.1z"/>
	<path class="st1" d="M1175.5,288.9c1.5-2.3,3-4.6,4.5-6.9c0.3,0.2,0.6,0.5,0.9,0.7C1179.5,285.1,1179,288.2,1175.5,288.9
		C1175.4,288.9,1175.5,288.9,1175.5,288.9z"/>
	<path class="st1" d="M459.5,174.6c-0.3,0.3-0.4,0.4-0.5,0.4c-7.4,1.1-7.5,1-7.5-6.3c0-6,0-12,0-18.2c2.9,0,5.4,0,8,0
		C459.5,158.7,459.5,166.8,459.5,174.6z M453.1,173.8c2-0.6,4.9,1.5,5-2c0.3-6.5,0.1-12.9,0.1-19.6c-1.9,0-3.4,0-5.1,0
		C453.1,159.2,453.1,166.2,453.1,173.8z"/>
	<path class="st1" d="M447.9,175c-2.6,0-4.9,0-7.7,0c0-8,0-16,0-24.4c2.4,0,5,0,7.7,0C447.9,158.7,447.9,166.8,447.9,175z
		 M441.6,173.4c1.8,0,3.3,0,4.9,0c0-7.3,0-14.2,0-21.3c-1.7,0-3.2,0-4.9,0C441.6,159.2,441.6,166.2,441.6,173.4z"/>
	<path class="st1" d="M1149.5,362.6c0,2.6,0,4.9,0,7.5c-2.6,0-4.9,0-7.5,0c0-2.4,0-4.8,0-7.5
		C1144.3,362.6,1146.7,362.6,1149.5,362.6z M1143.4,364c0,1.7,0,3.1,0,4.7c1.7,0,3.1,0,4.6,0c0-1.7,0-3.1,0-4.7
		C1146.3,364,1144.9,364,1143.4,364z"/>
	<path class="st1" d="M1131.8,362.5c2.6,0,5,0,7.6,0c0,2.5,0,4.9,0,7.5c-2.5,0-4.9,0-7.6,0C1131.8,367.5,1131.8,365.2,1131.8,362.5z
		 M1133.2,363.9c0,1.8,0,3.2,0,4.6c1.7,0,3.2,0,4.6,0c0-1.7,0-3.1,0-4.6C1136.3,363.9,1134.9,363.9,1133.2,363.9z"/>
	<path class="st1" d="M1264.3,208c3.6-2,6.4-0.8,8.7,3.4c3.1-0.2,5.9-0.7,8.7-0.5c1.1,0.1,2.1,1.7,3,3.3c-4.6-4.2-8.3-2.9-11.9,1.6
		c-1-2.2-1.4-4.5-2.8-5.7C1268.6,208.8,1266.2,208.6,1264.3,208z"/>
</g>
</svg>
