<?xml version="1.0" encoding="utf-8"?>
<!-- Generator: Adobe Illustrator 26.2.1, SVG Export Plug-In . SVG Version: 6.00 Build 0)  -->
<svg version="1.1" id="Capa_1" xmlns="http://www.w3.org/2000/svg" xmlns:xlink="http://www.w3.org/1999/xlink" x="0px" y="0px"
	 viewBox="0 0 765 904" style="enable-background:new 0 0 765 904;" xml:space="preserve">
<g id="QBklJ9.tif_00000114775528522792576480000010745750738895798446_">
	<g>
		<g>
			<path d="M194.12,860c0.05-12.69,0.06-25.37,0.16-38.06c0.22-28.12,17.22-45.38,45.48-45.64c28.06-0.26,56.13-0.06,84.19-0.06
				c2.9,0,5.79,0,9.15,0c0-22.03,0-43.24,0-64.57c-16.58-3.63-33.32-6.41-49.55-10.99c-68.13-19.2-125.04-56.14-170.41-110.46
				c-36.28-43.44-60.47-93.04-71.58-148.56c-20.62-103.1,1.3-197.12,65.46-279.9C199.31,42.67,357.22-1.92,497.45,53.8
				c120.15,47.74,192.23,137.55,214.98,265.67c2.16,12.14,3.17,24.48,4.71,36.73c0,10.8,0,21.6,0,32.4c-0.43,2.33-1.11,4.65-1.26,7
				c-3.43,52.87-18.59,102.16-45.58,147.68C621.78,625.1,551.68,678.7,459.51,702.86c-13.71,3.59-27.75,5.91-41.62,8.81
				c0,21.42,0,42.62,0,64.57c3.39,0,6.3,0,9.2,0c28.05,0,56.11-0.2,84.16,0.06c28.23,0.26,45.21,17.54,45.43,45.65
				c0.1,12.68,0.11,25.36,0.16,38.04C435.93,860,315.03,860,194.12,860z M375.78,58.47C202.46,59.93,62.49,197.31,62.24,372.19
				C62,545.51,201.46,684.71,374.85,685.63c172.09,0.91,314.04-139.74,313.95-313C688.72,199.32,550.76,60.22,375.78,58.47z
				 M528.25,831.82c2.37-21.01-2.1-27.78-22.88-27.66c-87.13,0.5-174.26,0.21-261.39,0.23c-3.23,0-7.09-0.84-9.55,0.59
				c-4.26,2.49-9.17,5.79-11.01,9.98c-2.09,4.76-1.12,10.87-1.51,16.86C324.7,831.82,426.25,831.82,528.25,831.82z M362.11,720.95
				c0,18.85,0,36.73,0,54.58c9.36,0,18.05,0,26.77,0c0-18.61,0-36.51,0-54.58C379.69,720.95,371.12,720.95,362.11,720.95z"/>
			<path d="M257.07,386.07c-2.79,0-5.62,0-8.46,0c-48.3,0-96.61,0.01-144.91-0.01c-16.9-0.01-20.71-4.1-20.99-21.1
				c-0.49-29.92,2.39-58.99,15.23-86.78c26.57-57.53,92.18-94.11,155.11-86.07c42.83,5.47,77.51,24.84,104.21,58.69
				c0.78,0.99,1.7,1.88,3.71,4.07c0.21-4.21,0.47-7.01,0.47-9.8c0.02-48.05,0.01-96.11,0.02-144.16c0-17.52,4.02-21.26,21.39-21.61
				c30.51-0.62,60.04,2.65,88.22,15.94c55.29,26.07,91.87,91.58,84.7,152.26c-5.18,43.79-24.52,79.33-59.16,106.57
				c-1.01,0.79-1.92,1.71-4.01,3.57c4.05,0.19,6.84,0.43,9.63,0.43c48.3,0.02,96.61,0.01,144.91,0.02
				c16.69,0,20.79,4.39,21.11,21.16c0.58,30.5-1.63,60.52-16.01,88.18c-25.92,49.85-66.64,79.39-122.77,84.79
				c-55.09,5.3-100.21-15.07-135.2-57.94c-0.97-1.19-2.07-2.27-4.3-4.7c-0.21,4.25-0.46,7.04-0.46,9.83
				c-0.02,48.05-0.01,96.11-0.02,144.16c-0.01,17.53-3.84,21.04-21.52,21.4c-31.34,0.63-61.67-2.58-90.36-17.03
				c-83.88-42.25-109.71-154.43-51.8-228.43C235.02,407.74,246.24,397.56,257.07,386.07z M639.22,386.53
				c-1.8-0.18-3.12-0.43-4.44-0.43c-61.75-0.02-123.51,0.03-185.26-0.14c-4.84-0.01-6.42,2.01-7.62,6.17
				c-4.58,15.91-14.05,28.44-27.81,37.49c-5.53,3.64-11.73,6.26-17.57,9.31c14.73,51.83,73.34,97.31,142.55,83.82
				C604.77,509.96,646.09,449.12,639.22,386.53z M390.11,108.35c-0.19,1.23-0.55,2.54-0.55,3.84
				c-0.03,62.06,0.03,124.12-0.18,186.18c-0.02,5.12,2.55,6.21,6.41,7.43c20.81,6.55,35.18,20.22,43.8,40.14
				c0.82,1.9,1.78,3.73,2.63,5.52c58.88-18.49,97.81-81.62,83.12-146.42C510.62,140.17,449.42,101.25,390.11,108.35z M111.82,357.36
				c0.69,0.2,1.43,0.62,2.18,0.62c62.82,0.05,125.65,0.02,188.47,0.21c4.94,0.02,5.54-2.85,6.6-6.28
				c4.77-15.51,13.88-27.95,27.39-36.88c5.76-3.81,12.15-6.65,18.22-9.91c-17.89-57.18-79.8-97.53-145.43-82.99
				C142.67,236.88,104.74,298.94,111.82,357.36z M309.1,392.72c-58.45,18.43-98.04,80.61-83.65,145.77
				c14.81,67.07,77.53,104.61,135.59,97.38c0.13-1.7,0.39-3.52,0.39-5.33c0.02-61.24-0.04-122.48,0.12-183.72
				c0.01-4.99-1.67-7-6.41-8.31c-5.12-1.42-10.07-3.85-14.71-6.5C325.03,423.21,315.22,409.69,309.1,392.72z M375.7,330.4
				c-22.74-0.14-41.85,18.76-42.04,41.58c-0.18,22.63,18.8,41.8,41.6,42.02c22.61,0.22,41.82-18.8,42.03-41.59
				C417.5,349.75,398.48,330.54,375.7,330.4z"/>
		</g>
	</g>
</g>
</svg>
