<?xml version="1.0" encoding="utf-8"?>
<!-- Generator: Adobe Illustrator 26.2.1, SVG Export Plug-In . SVG Version: 6.00 Build 0)  -->
<svg version="1.1" id="Capa_1" xmlns="http://www.w3.org/2000/svg" xmlns:xlink="http://www.w3.org/1999/xlink" x="0px" y="0px"
	 viewBox="0 0 514 685" style="enable-background:new 0 0 514 685;" xml:space="preserve">
<g id="Kph94H.tif_00000181780070648382469690000002307998589353819064_">
	<g>
		<path d="M244.55,498.82c-29.66,0-59.32,0.03-88.98-0.02c-13.22-0.02-16.26-3.97-16.99-17.09c-0.93-16.67-2.06-33.47-5.12-49.84
			c-4.12-22.02-15.31-40.3-31.64-56.26c-88.59-86.58-78.64-232.65,20.43-307.18C234.79-16.23,397.57,35.46,438.71,170.1
			c23.17,75.81,6.49,144.77-48.69,201.35c-29.86,30.62-38.91,65.99-39.88,105.91c-0.05,2.06,0.09,4.13-0.01,6.19
			c-0.53,11.24-4.51,15.2-15.82,15.24c-27.6,0.09-55.19,0.03-82.79,0.03C249.19,498.82,246.87,498.82,244.55,498.82z M324.97,473.32
			c1.48-12.36,2.41-23.91,4.31-35.31c4.84-29.08,15.2-55.8,36.79-76.76c44.85-43.54,63.09-96.37,54.48-157.95
			c-7.33-52.45-34.02-93.86-78.16-122.65c-75.94-49.52-171.32-36.33-232.52,30.8c-62.59,68.67-59.08,180.94,8.23,245.15
			c20.79,19.83,33.52,43.57,39.12,71.28c3,14.85,4.61,29.98,6.9,45.42C217.41,473.32,270.98,473.32,324.97,473.32z"/>
		<path d="M243.31,574.36c-27.09,0-54.17,0.2-81.26-0.08c-14.78-0.15-27.14-10.97-29.44-24.82c-2.43-14.61,4.99-28.64,18.56-33.7
			c4.71-1.76,10.05-2.52,15.11-2.54c51.85-0.18,103.7-0.2,155.55-0.06c18.57,0.05,31.92,10.83,33.65,26.49
			c2.11,19.08-11.6,34.43-31.7,34.67c-26.82,0.31-53.65,0.08-80.48,0.08C243.31,574.38,243.31,574.37,243.31,574.36z M244.02,549.28
			c24.73,0,49.47,0,74.2,0c2.06,0,4.49,0.63,6.09-0.25c2.37-1.29,4.16-3.67,6.19-5.58c-2.15-2.09-4.16-4.37-6.51-6.18
			c-0.82-0.63-2.5-0.14-3.79-0.14c-51.02,0-102.03,0-153.05,0c-1.55,0-3.44-0.51-4.56,0.19c-2.13,1.33-5.5,3.58-5.31,5.06
			c0.3,2.37,2.71,5.01,4.94,6.4c1.7,1.07,4.5,0.48,6.81,0.48C194.03,549.29,219.03,549.28,244.02,549.28z"/>
		<path d="M243.62,648.6c-18.04,0-36.09,0.09-54.13-0.02c-19.14-0.12-33.03-12.81-33.36-30.25c-0.32-17.28,13.55-30.95,32.55-31.1
			c36.86-0.28,73.73-0.27,110.59,0c19.23,0.14,32.84,13.5,32.51,30.99c-0.33,17.5-14.18,30.24-33.25,30.36
			C280.23,648.69,261.92,648.6,243.62,648.6z M243.84,623.21c12.38,0,24.76,0.02,37.14-0.01c6.7-0.02,13.47,0.37,20.07-0.45
			c2.19-0.27,3.98-3.73,5.96-5.73c-2.05-1.89-3.93-4.06-6.24-5.56c-1.1-0.71-3.02-0.18-4.56-0.18c-34.82,0-69.63-0.01-104.45,0
			c-2.06,0-4.48-0.54-6.09,0.34c-1.97,1.08-4.44,3.37-4.51,5.21c-0.07,1.89,2.13,4.51,4.03,5.63c1.8,1.05,4.5,0.71,6.81,0.72
			C209.28,623.23,226.56,623.21,243.84,623.21z"/>
		<path d="M401.98,229.94c0,2.06,0.06,4.13-0.01,6.19c-0.27,7.63-4.74,12.78-11.38,13.17c-6.68,0.39-11.93-4.1-12.94-11.68
			c-0.85-6.37-0.83-12.85-1.74-19.21c-9.15-63.99-62.01-111.73-126.69-114.55c-1.29-0.06-2.58-0.05-3.86-0.15
			c-8.3-0.63-13.88-5.94-13.53-12.87c0.36-7,6.18-11.81,14.66-11.65c20.03,0.37,39.32,4.41,57.94,11.87
			C360.67,113.58,400.62,170.46,401.98,229.94z"/>
	</g>
</g>
</svg>
