<?xml version="1.0" encoding="utf-8"?>
<!-- Generator: Adobe Illustrator 26.2.1, SVG Export Plug-In . SVG Version: 6.00 Build 0)  -->
<svg version="1.1" id="Capa_1" xmlns="http://www.w3.org/2000/svg" xmlns:xlink="http://www.w3.org/1999/xlink" x="0px" y="0px"
	 viewBox="0 0 556 819" style="enable-background:new 0 0 556 819;" xml:space="preserve">
<g id="YEhCux.tif_00000164488598242006707740000006303598905558511278_">
	<g>
		<path d="M45.19,470.36c63.92-101.55,127.83-203.12,191.77-304.66c27.68-43.97,55.39-87.92,83.14-131.84
			c7.16-11.34,16.73-15.53,27.32-12.27c12.22,3.76,18.65,14.99,15.41,27.98c-12.44,49.86-25.06,99.67-37.62,149.5
			c-9.85,39.06-19.73,78.11-29.89,118.32c3.23,0,5.85,0,8.47,0c55.6,0,111.21,0.3,166.81-0.21c13.94-0.13,23.9,4.13,29.8,16.87
			c0,4.04,0,8.08,0,12.12c-2.17,3.63-4.27,7.3-6.53,10.87C405.34,497.44,316.79,637.83,228.37,778.3
			c-4.65,7.38-9.77,13.89-17.8,17.7c-4.05,0-8.09,0-12.14,0c-16.65-9.97-19.04-16.04-14.12-35.51
			c16.79-66.45,33.58-132.9,50.34-199.36c5.16-20.44,10.25-40.89,15.53-62c-3.57,0-6.32,0-9.08,0c-55.37,0-110.74-0.3-166.1,0.21
			c-13.92,0.13-23.94-4.07-29.82-16.87C45.19,478.43,45.19,474.39,45.19,470.36z M109.17,453.69c4.21,0,6.93,0,9.64,0
			c52.33,0,104.65-0.02,156.98,0.01c19.94,0.01,29.67,12.44,24.83,31.7c-11.98,47.65-24,95.28-35.97,142.93
			c-0.5,1.99-0.77,4.04-1.15,6.06c0.46,0.17,0.92,0.33,1.37,0.5c56.94-90.32,113.89-180.64,171.54-272.08c-4.19,0-6.9,0-9.6,0
			c-52.33,0-104.65,0.02-156.98-0.01c-19.99-0.01-29.72-12.41-24.89-31.66c10.84-43.17,23.37-92.86,35.97-142.93
			c0.5-1.99,0.79-4.04,1.17-6.06c-0.46-0.17-0.92-0.34-1.38-0.5C223.84,271.83,166.98,362,109.17,453.69z"/>
	</g>
</g>
</svg>
