<?xml version="1.0" encoding="utf-8"?>
<!-- Generator: Adobe Illustrator 26.2.1, SVG Export Plug-In . SVG Version: 6.00 Build 0)  -->
<svg version="1.1" id="Capa_1" xmlns="http://www.w3.org/2000/svg" xmlns:xlink="http://www.w3.org/1999/xlink" x="0px" y="0px"
	 viewBox="0 0 896 963" style="enable-background:new 0 0 896 963;" xml:space="preserve">
<g id="DSwOWJ.tif">
	<g>
		<path d="M70.33,768.87c0-16.96,0-33.92,0-50.88c1.13-11.16,2.14-22.34,3.4-33.48c5.63-49.95,15.93-98.56,40.5-143.2
			c26.9-48.89,66.82-79.21,122.84-87.47c20.71-3.05,39.8-1.19,57.19,11.77c9.72,7.25,19.88,14.23,30.69,19.63
			c18.62,9.3,37.28,19.25,57.03,25.44c55.05,17.26,106.73,5.79,155.42-22.64c14.39-8.4,27.84-18.45,42.4-26.54
			c7.94-4.41,17.25-8.68,26.01-8.84c28.08-0.51,54.91,5.9,79.86,19.42c39.16,21.22,63.11,55.5,79.1,95.24
			c27.26,67.73,35.68,138.72,29.09,211.09c-3.6,39.56-23.2,71.52-55.86,94.85c-29.51,21.08-63.1,27.93-98.68,27.92
			c-135.32-0.06-270.64,0.02-405.97-0.1c-12.14-0.01-24.43-0.13-36.4-1.9c-57.96-8.58-99.45-38.31-118.66-95.04
			C74.47,792.78,72.93,780.64,70.33,768.87z"/>
		<path d="M447.57,32.82c11.31,2.26,22.69,4.2,33.91,6.83c77.07,18.03,142.9,91.42,153.28,169.94
			c6.83,51.69-0.7,100.53-29.95,144.23c-38.85,58.05-92.6,91.85-163.7,96.65c-93.35,6.3-170.13-48.51-204.99-122.89
			c-32.74-69.86-19.5-162.93,31.83-220.85c31.5-35.54,69.45-60.04,116.44-69.58c7.99-1.62,16.06-2.89,24.09-4.32
			C421.51,32.82,434.54,32.82,447.57,32.82z"/>
	</g>
</g>
</svg>
