<?xml version="1.0" encoding="utf-8"?>
<!-- Generator: Adobe Illustrator 26.2.1, SVG Export Plug-In . SVG Version: 6.00 Build 0)  -->
<svg version="1.1" id="Capa_1" xmlns="http://www.w3.org/2000/svg" xmlns:xlink="http://www.w3.org/1999/xlink" x="0px" y="0px"
	 viewBox="0 0 431 504" style="enable-background:new 0 0 431 504;" xml:space="preserve">
<style type="text/css">
	.st0{fill:#F78C1B;}
</style>
<g id="Kph94H.tif_00000181780070648382469690000002307998589353819064_">
	<g>
		<path class="st0" d="M216.15,25.55c3.98,2.35,5.46,5.75,5.39,10.43c-0.22,14.64,0.03,29.29-0.19,43.94
			c-0.04,2.48-0.89,5.6-2.55,7.21c-1.43,1.39-4.7,1.78-6.87,1.3c-3.43-0.76-4.73-3.8-4.73-7.27c0-9.86,0-19.73-0.01-29.59
			c0-5.23,0.23-10.48-0.07-15.69c-0.27-4.7,1.3-8.11,5.44-10.32C213.75,25.55,214.95,25.55,216.15,25.55z"/>
		<path class="st0" d="M214.63,398.16c-17.19,0-34.38,0.02-51.58-0.01c-7.66-0.01-9.43-2.3-9.85-9.9
			c-0.54-9.66-1.19-19.4-2.97-28.89c-2.39-12.76-8.88-23.36-18.34-32.61c-51.35-50.18-45.58-134.86,11.84-178.06
			c65.23-49.07,159.58-19.11,183.43,58.94c13.43,43.94,3.76,83.91-28.23,116.71c-17.31,17.75-22.56,38.25-23.12,61.39
			c-0.03,1.2,0.05,2.39-0.01,3.59c-0.31,6.52-2.61,8.81-9.17,8.83c-16,0.05-31.99,0.02-47.99,0.02
			C217.32,398.16,215.97,398.16,214.63,398.16z M261.24,383.38c0.86-7.16,1.4-13.86,2.5-20.47c2.81-16.86,8.81-32.35,21.32-44.49
			c26-25.24,36.57-55.86,31.58-91.55c-4.25-30.4-19.72-54.41-45.31-71.09c-44.02-28.7-99.31-21.06-134.78,17.85
			c-36.28,39.8-34.25,104.88,4.77,142.1c12.05,11.5,19.43,25.26,22.68,41.32c1.74,8.61,2.67,17.38,4,26.33
			C198.9,383.38,229.95,383.38,261.24,383.38z"/>
		<path class="st0" d="M213.91,441.95c-15.7,0-31.4,0.12-47.1-0.05c-8.57-0.09-15.73-6.36-17.06-14.39
			c-1.41-8.47,2.89-16.6,10.76-19.53c2.73-1.02,5.83-1.46,8.76-1.47c30.05-0.1,60.11-0.12,90.16-0.03
			c10.76,0.03,18.5,6.28,19.51,15.35c1.22,11.06-6.72,19.96-18.37,20.1c-15.55,0.18-31.1,0.05-46.65,0.05
			C213.91,441.96,213.91,441.95,213.91,441.95z M214.32,427.41c14.34,0,28.68,0,43.01,0c1.19,0,2.6,0.36,3.53-0.14
			c1.38-0.75,2.41-2.12,3.59-3.23c-1.24-1.21-2.41-2.53-3.78-3.58c-0.47-0.36-1.45-0.08-2.2-0.08c-29.57,0-59.14,0-88.71,0
			c-0.9,0-1.99-0.29-2.64,0.11c-1.24,0.77-3.19,2.07-3.08,2.93c0.17,1.37,1.57,2.9,2.86,3.71c0.99,0.62,2.61,0.28,3.95,0.28
			C185.34,427.41,199.83,427.41,214.32,427.41z"/>
		<path class="st0" d="M214.09,484.98c-10.46,0-20.92,0.05-31.38-0.01c-11.09-0.07-19.15-7.42-19.34-17.54
			c-0.19-10.01,7.85-17.94,18.87-18.03c21.37-0.16,42.74-0.16,64.1,0c11.15,0.08,19.03,7.82,18.84,17.96
			c-0.19,10.14-8.22,17.53-19.27,17.6C235.31,485.03,224.7,484.98,214.09,484.98z M214.21,470.26c7.18,0,14.35,0.01,21.53,0
			c3.89-0.01,7.81,0.21,11.64-0.26c1.27-0.16,2.31-2.16,3.45-3.32c-1.19-1.1-2.28-2.35-3.62-3.22c-0.64-0.41-1.75-0.1-2.65-0.1
			c-20.18,0-40.36,0-60.55,0c-1.19,0-2.6-0.31-3.53,0.2c-1.14,0.63-2.57,1.95-2.61,3.02c-0.04,1.09,1.24,2.62,2.34,3.26
			c1.04,0.61,2.61,0.41,3.95,0.42C194.18,470.27,204.2,470.26,214.21,470.26z"/>
		<path class="st0" d="M102.92,58.68c1.01,0.75,3.67,1.86,4.98,3.85c8.71,13.21,17.21,26.57,25.61,39.98
			c2.57,4.11,1.51,8.37-2.06,10.63c-3.6,2.28-7.48,1.25-10.27-3.07c-8.43-13.05-16.81-26.12-25.07-39.27
			C92.39,64.89,95.13,58.8,102.92,58.68z"/>
		<path class="st0" d="M354.72,173.57c-1.85-1.55-4.78-2.84-5.4-4.83c-0.7-2.28,0.28-5.35,1.26-7.79c0.5-1.25,2.52-1.97,3.95-2.75
			c12.73-6.9,25.47-13.77,38.23-20.61c1.43-0.77,2.96-1.51,4.52-1.82c3.43-0.68,6.4,0.43,7.76,3.76c1.27,3.12,0.8,6.28-2.13,8.44
			c-1.79,1.32-3.81,2.33-5.78,3.39c-12.07,6.54-24.15,13.07-36.25,19.56C359.21,171.82,357.38,172.44,354.72,173.57z"/>
		<path class="st0" d="M80.02,164.02c0.08,7.39-5.07,10.49-10.45,7.83c-6.15-3.04-12.09-6.48-18.12-9.76
			c-7.73-4.2-15.48-8.37-23.18-12.64c-5.03-2.79-6.4-6.17-4.3-10.14c2.08-3.91,6.43-4.89,11.26-2.28
			c13.39,7.22,26.8,14.42,40.04,21.91C77.57,160.26,79.07,162.98,80.02,164.02z"/>
		<path class="st0" d="M338.16,66.73c-1.05,2.56-1.44,4.19-2.31,5.5c-8.8,13.34-17.64,26.64-26.56,39.9
			c-2.66,3.96-6.2,4.85-9.57,2.77c-3.53-2.18-4.57-6.18-2-10.12c8.9-13.63,17.95-27.15,27.05-40.65c1.81-2.69,4.7-4.25,7.75-2.65
			C334.74,62.64,336.35,64.98,338.16,66.73z"/>
		<path class="st0" d="M305.88,242.3c0,1.2,0.04,2.39-0.01,3.59c-0.15,4.42-2.75,7.41-6.59,7.63c-3.87,0.23-6.91-2.38-7.5-6.77
			c-0.49-3.69-0.48-7.45-1.01-11.13c-5.3-37.09-35.94-64.77-73.44-66.4c-0.75-0.03-1.5-0.03-2.24-0.09
			c-4.81-0.36-8.05-3.44-7.84-7.46c0.21-4.06,3.58-6.85,8.5-6.76c11.61,0.21,22.79,2.56,33.59,6.88
			C281.93,174.86,305.09,207.83,305.88,242.3z"/>
	</g>
</g>
</svg>
