<?xml version="1.0" encoding="utf-8"?>
<!-- Generator: Adobe Illustrator 26.2.1, SVG Export Plug-In . SVG Version: 6.00 Build 0)  -->
<svg version="1.1" id="Capa_1" xmlns="http://www.w3.org/2000/svg" xmlns:xlink="http://www.w3.org/1999/xlink" x="0px" y="0px"
	 viewBox="0 0 408.2 295" style="enable-background:new 0 0 408.2 295;" xml:space="preserve">
<g id="Ndq5ts.tif">
	<g>
		<g>
			<path d="M392,52.6c0,64.9,0,129.7,0,194.6c-2.3,5.5-3.8,11.6-7.1,16.4c-7.1,10.4-18,14-30.3,14c-97.5,0-195,0-292.5,0
				c-4,0-8-0.2-12-0.5c-14.6-1.1-28.3-13.9-29.5-28.4c-0.9-11.3-0.7-22.7-0.7-34.1c-0.1-52,0-104.1,0-156.1c0-17.6,9.7-30.5,26.4-35
				c2.1-0.6,4.2-0.9,6.3-1.3c102.2,0,204.5,0,306.7,0c0.7,0.2,1.3,0.5,2,0.6c9.2,0.9,16.6,5.1,22.7,12.1
				C388.5,39.9,390.4,46.2,392,52.6z M206,43.8c-35.1,0-70.2,0-105.4,0c-15.3,0-30.5-0.1-45.8,0c-7.9,0-12.9,4.9-13.4,12.7
				c-0.1,1.4-0.1,2.9-0.1,4.4c0,48.6,0,97.3,0,145.9c0,11.6,0,23.2,0,34.8c0,7.4,3.3,12.2,9.4,13.8c1.9,0.5,4.1,0.5,6.1,0.5
				c99.4,0,198.9,0,298.3,0c1.3,0,2.7,0,4-0.1c5.7-0.5,10.4-4.9,11.2-10.7c0.3-1.9,0.3-3.9,0.3-5.8c0-34.7,0-69.5,0-104.2
				c0-25.3,0-50.6,0-75.9c0-2.4-0.1-4.9-0.9-7.1c-1.8-5.8-6.5-8.5-14.1-8.5C305.7,43.8,255.8,43.8,206,43.8z"/>
			<path d="M141,153.8c-24.6-0.4-43.9-20.2-43.5-44.5C97.9,85,118,65.4,141.9,65.9c24.5,0.5,44,20.5,43.6,44.6
				C185.1,134.7,165,154.3,141,153.8z M164,109.8c-0.1-12.5-10.2-22.5-22.7-22.4c-12.3,0.1-22.3,10.1-22.4,22.4
				c-0.1,12.3,10.2,22.7,22.6,22.7C153.9,132.5,164,122.3,164,109.8z"/>
			<path d="M141.6,162c6.5,0,13.1-0.4,19.6,0.1c22.2,1.5,38.9,18.4,40.2,40.7c0.4,6.8,0.3,13.5,0.1,20.3
				c-0.1,6.2-4.7,10.7-10.5,10.8c-5.7,0.1-10.5-4.2-10.8-10.5c-0.3-5.5-0.1-11.1-0.1-16.7c-0.1-14.8-8.8-23.5-23.5-23.5
				c-10.2,0-20.3-0.1-30.5,0c-13.6,0.1-22.5,8.7-22.8,22.4c-0.1,5.4,0.1,10.9-0.1,16.3c-0.1,7.2-4.6,12.1-10.9,12
				c-6.3-0.1-10.7-5-10.6-12.2c0.2-8.7-0.4-17.6,1.2-26c4-20.4,21.1-33.5,42.6-33.9c5.3-0.1,10.7,0,16,0
				C141.6,161.8,141.6,161.9,141.6,162z"/>
			<path d="M278.8,100.5c-15.9,0-31.7,0.1-47.6,0c-7,0-11.1-5-9.3-11c0.9-3,2.9-5,6-5.7c1.8-0.4,3.6-0.5,5.4-0.5c30.5,0,61,0,91.6,0
				c1.8,0,3.6,0.1,5.4,0.5c3.7,0.7,6.3,4,6.5,7.7c0.2,3.7-2.2,7.3-5.7,8.3c-1.7,0.5-3.6,0.6-5.4,0.6
				C310,100.5,294.4,100.5,278.8,100.5z"/>
			<path d="M279.2,199.3c15.5,0,31,0,46.5,0c1.7,0,3.4,0.1,5,0.6c3.7,1,6.1,4.3,6,8.1c-0.1,3.9-2.7,7.2-6.6,8
				c-1.2,0.3-2.4,0.4-3.6,0.4c-31.6,0-63.2,0-94.8,0c-4.3,0-8-1.2-9.7-5.5c-2.3-5.7,1.8-11.4,8.5-11.6c5.6-0.2,11.1,0,16.7,0
				C257.9,199.3,268.5,199.3,279.2,199.3z"/>
			<path d="M298.6,183.2c-9.6,0-19.1,0.1-28.7,0c-6.2-0.1-10-3.9-9.6-9.3c0.3-3.7,2.7-6.6,6.3-7.4c1.5-0.3,3.1-0.5,4.7-0.5
				c18.1,0,36.3,0,54.4,0c1.6,0,3.1,0.2,4.7,0.5c3.6,0.8,6.2,4.1,6.3,7.9c0.1,3.7-2.4,7.2-5.9,8.2c-1.6,0.4-3.3,0.6-5,0.6
				C316.8,183.3,307.7,183.2,298.6,183.2z"/>
			<path d="M298.3,150c-9.7,0-19.4,0.1-29.1,0c-4.7-0.1-8-2.8-8.7-6.7c-0.7-4,1-7.8,4.6-9.3c1.6-0.7,3.5-0.9,5.3-0.9
				c18.8-0.1,37.5-0.1,56.3,0c6.2,0,9.8,3.1,10,8.2c0.2,5.1-3.6,8.7-9.4,8.8C317.7,150,308,150,298.3,150z"/>
		</g>
	</g>
</g>
</svg>
