<?xml version="1.0" encoding="utf-8"?>
<!-- Generator: Adobe Illustrator 26.2.1, SVG Export Plug-In . SVG Version: 6.00 Build 0)  -->
<svg version="1.1" id="Capa_1" xmlns="http://www.w3.org/2000/svg" xmlns:xlink="http://www.w3.org/1999/xlink" x="0px" y="0px"
	 viewBox="0 0 330 337" style="enable-background:new 0 0 330 337;" xml:space="preserve">
<style type="text/css">
	.st0{fill:#17112D;}
</style>
<g id="o10Ybj.tif_00000025416728837603107300000001932504219788889531_">
	<g>
		<path class="st0" d="M324.3,129.9c0,2,0,3.9,0,5.9c-1.3,8.5-6.5,14.6-12.4,20.5c-19.3,19.1-38.4,38.3-57.7,57.4
			c-1.4,1.4-2.1,2.8-2,4.9c0.1,24.8,0.1,49.7,0,74.5c0,9.3-3.2,17.3-11.1,22.5c-3.7,2.5-8.4,3.6-12.6,5.3c-61,0-122.1,0-183.1,0
			c-0.4-0.1-0.7-0.4-1.1-0.4c-6.8-1.1-12.3-4.3-16.7-9.6c-3.3-4-4.7-8.7-5.9-13.5c0-84.9,0-169.8,0-254.7c0.1-0.3,0.4-0.5,0.4-0.8
			C24.8,28,35,19.1,49.2,19.1c50.3-0.1,100.6,0,150.8,0c6.6,0,12.8,1.7,17.6,6.4c8.5,8.1,16.8,16.6,25.3,24.8
			c6.4,6.2,9.5,13.7,9.4,22.6c-0.1,21.4,0,42.8,0,64.2c0,1,0,2,0,2.9c0.3,0.1,0.5,0.1,0.8,0.2c0.6-0.7,1.1-1.4,1.7-2
			c7.8-7.8,15.5-15.6,23.4-23.3c12.6-12.4,30.8-11.3,41,2.7C321.7,121.1,322.6,125.8,324.3,129.9z M181.3,36.8c-1.1,0-1.8,0-2.5,0
			c-43,0-86,0-129,0c-6.8,0-10.2,3.5-10.2,10.4c0,81.8,0,163.6,0,245.5c0,7.3,3.3,10.6,10.7,10.6c57.9,0,115.7,0,173.6,0
			c7.3,0,10.6-3.3,10.7-10.6c0-18.7,0-37.3,0-56c0-0.8-0.1-1.7-0.1-2.4c-2.1,1-3.9,2.2-5.9,2.9c-11.4,3.9-22.9,7.6-34.4,11.5
			c-3.9,1.3-7.6,1.4-10.7-1.6c-3.1-3.1-3-6.7-1.7-10.7c3.9-11.3,7.5-22.7,11.5-34c0.8-2.4,2.3-4.8,4.1-6.6
			c11.6-11.8,23.4-23.6,35.3-35.2c1.4-1.4,2-2.8,2-4.9c-0.1-20.8,0-41.6,0-62.5c0-1,0-2.1,0-3.3c-1.5,0-2.5,0-3.6,0
			c-13.1,0-26.2,0-39.3,0c-6.9,0-10.3-3.4-10.3-10.4c0-12.1,0-24.2,0-36.2C181.3,41.2,181.3,39.1,181.3,36.8z M269.9,149
			c-14,13.9-28.1,27.9-41.9,41.7c3.9,3.9,8,8,11.7,11.7c13.9-13.8,28-27.8,42-41.7C277.7,156.8,273.6,152.7,269.9,149z M234.4,72
			c0.4-3.3-0.6-5.8-2.7-7.8c-8.2-8.3-16.5-16.5-24.8-24.7c-2.1-2-4.6-3.1-7.6-2.5c0,11.8,0,23.4,0,35.1C211.1,72,222.6,72,234.4,72z
			 M295.2,147.9c2.7-2.8,5.5-5.5,8.3-8.3c0.3-0.3,0.7-0.7,1-1.1c3-3.8,2.8-8.7-0.6-12c-3.3-3.1-8.3-3.5-11.8-0.4
			c-3.3,3-6.3,6.4-9.3,9.4C286.8,139.6,290.9,143.6,295.2,147.9z M203.8,226.1c0.2,0.2,0.4,0.5,0.5,0.7c7.3-4.1,17-3.2,22.4-10.7
			c-4.2-4.2-8.3-8.3-12.6-12.6c-1.4,1.8-3.6,3.5-4.5,5.7C207.4,214.8,205.7,220.5,203.8,226.1z"/>
		<path class="st0" d="M128.1,125.2c-20.4,0-40.8,0-61.1,0c-6.9,0-11.3-5.8-9.1-11.8c1.3-3.4,3.9-5.4,7.5-5.8
			c1.1-0.1,2.2-0.1,3.2-0.1c39.7,0,79.3,0,119,0c0.3,0,0.6,0,0.9,0c6.5,0,10.6,3.5,10.5,8.9c-0.1,5.3-4.1,8.7-10.4,8.8
			C168.5,125.2,148.3,125.2,128.1,125.2z"/>
		<path class="st0" d="M110.2,160.6c-14.5,0-28.9,0-43.4,0c-4,0-7-1.8-8.7-5.4c-1.5-3.2-0.7-7,1.8-9.6c2.1-2.2,4.8-2.7,7.8-2.7
			c21.3,0,42.5,0,63.8,0c7.4,0,14.8,0,22.1,0c6,0,10,3.6,10,8.8c0,5.3-4,8.8-10,8.8C139.1,160.6,124.6,160.6,110.2,160.6z"/>
		<path class="st0" d="M110.7,178.3c14.5,0,28.9,0,43.4,0c7.1,0,11.5,6.4,8.7,12.4c-1.8,3.8-5,5.3-9.1,5.2c-15.3,0-30.5,0-45.8,0
			c-13.7,0-27.4,0-41,0c-4.8,0-8.1-2.5-9.3-6.7c-1.5-5.6,2.8-10.9,9.1-10.9C81.3,178.2,96,178.3,110.7,178.3z"/>
		<path class="st0" d="M110.7,213.6c14.5,0,28.9,0,43.4,0c7.1,0,11.5,6.4,8.7,12.5c-1.8,3.8-5,5.2-9.1,5.2c-16.4,0-32.9,0-49.3,0
			c-12.5,0-25,0-37.5,0c-4.8,0-8.1-2.5-9.2-6.7c-1.5-5.6,2.8-10.9,9.1-10.9C81.3,213.6,96,213.6,110.7,213.6z"/>
		<path class="st0" d="M163.6,285.6c-8.5,0-16.9,0-25.4,0c-6,0-10-3.6-10-8.9c0-5.3,4-8.8,10.1-8.8c16.9,0,33.9,0,50.8,0
			c6,0,10,3.6,10,8.9c0,5.3-4,8.8-10.1,8.8C180.5,285.6,172,285.6,163.6,285.6z"/>
	</g>
</g>
</svg>
