<?xml version="1.0" encoding="utf-8"?>
<!-- Generator: Adobe Illustrator 26.2.1, SVG Export Plug-In . SVG Version: 6.00 Build 0)  -->
<svg version="1.1" id="Capa_1" xmlns="http://www.w3.org/2000/svg" xmlns:xlink="http://www.w3.org/1999/xlink" x="0px" y="0px"
	 viewBox="0 0 391 298" style="enable-background:new 0 0 391 298;" xml:space="preserve">
<g id="Yx0mvg.tif_00000000907840139696409370000018132298380482648461_">
	<g>
		<path d="M370.1,54.1c0,63.6,0,127.2,0,190.8c-1,3.2-1.6,6.6-3.1,9.6c-6,12.1-16.2,17.6-29.5,17.6c-67,0-134.1,0-201.1,0
			c-27.8,0-55.7,0.1-83.5,0c-18.3-0.1-31.8-13-31.8-31.1c-0.1-61-0.1-121.9,0-182.9c0-10.4,4-19.2,12.7-25c4.3-2.9,9.6-4.2,14.5-6.2
			c98.2,0,196.4,0,294.6,0c0.4,0.2,0.8,0.4,1.2,0.5c7.8,1.2,14.2,5,19.2,11.1C367.1,43.1,368.7,48.5,370.1,54.1z M56.2,47.4
			c1,1.1,1.6,1.8,2.2,2.4c38.1,37.9,76.2,75.8,114.3,113.6c13.6,13.5,31.9,13.5,45.5,0c38.2-37.9,76.4-75.9,114.6-113.8
			c0.6-0.6,1-1.3,1.7-2.2C241.7,47.4,149.3,47.4,56.2,47.4z M144.3,163.7c-29.2,29.7-58,59.1-86.1,87.7c91.1,0,183.6,0,274.6,0
			c-28.2-28.7-56.9-58-86.1-87.8c-5,5.1-9.5,9.8-14.2,14.4c-9.4,9.5-20.7,15-34.1,15.7c-15.6,0.8-28.9-4.7-39.9-15.7
			C153.9,173.4,149.3,168.7,144.3,163.7z M41.6,236.4c0.3,0.2,0.6,0.4,0.9,0.6c28.8-29.3,57.6-58.6,85.6-87.1
			c-28.3-28.8-57.2-58.1-86.4-87.7C41.6,120.6,41.6,178.5,41.6,236.4z M349.5,61.9c-29.4,29.8-58.3,59.1-86,87.3
			c28.1,28.7,56.9,58,86,87.6C349.5,178.5,349.5,120.6,349.5,61.9z"/>
	</g>
</g>
</svg>
