<?xml version="1.0" encoding="utf-8"?>
<!-- Generator: Adobe Illustrator 26.2.1, SVG Export Plug-In . SVG Version: 6.00 Build 0)  -->
<svg version="1.1" id="Capa_1" xmlns="http://www.w3.org/2000/svg" xmlns:xlink="http://www.w3.org/1999/xlink" x="0px" y="0px"
	 viewBox="0 0 391 417" style="enable-background:new 0 0 391 417;" xml:space="preserve">
<g id="R5p5js.tif_00000096753312481552414760000013119165431788651141_">
	<g>
		<path d="M268.5,392.6c-6.3-1.1-12.6-1.9-18.8-3.2c-23.6-5.2-45.1-15.4-66.1-27c-32.5-18.1-61.5-40.9-86.8-68.1
			C66,261,40.5,224.3,24.4,181.5c-5.9-15.6-10.2-31.5-10.6-48.3c-0.4-16.9,3.8-32.1,15.9-44.5c9.6-9.8,18.9-20,29.2-29
			c16-13.9,33.4-13.8,48.8,0.7c16.3,15.3,32,31.3,47.2,47.7c11.7,12.6,11.5,31.2,0.2,44.1c-8.1,9.1-17,17.5-25.5,26.2
			c-0.7,0.8-1.6,1.4-3,2.7c23.4,41.8,55.7,74.3,97.8,97.7c7-7.1,13.7-13.9,20.3-20.6c5.4-5.5,10.9-10.9,18.4-13.6
			c12.3-4.4,24.1-3,33.5,6c17.1,16.2,33.7,32.9,49.9,50.1c11.4,12.1,11.8,31.1,0.9,43.6c-10.4,12.1-21.8,23.4-33.3,34.5
			c-8.1,7.8-18.4,11.8-29.6,13.3c-0.8,0.1-1.6,0.4-2.4,0.7C277.5,392.6,273,392.6,268.5,392.6z M34.1,132.1
			c0.8,5.8,1.2,11.8,2.5,17.5c5.5,25.2,16.1,48.4,29.6,70.3c35.6,57.7,82.9,102.9,144.1,133.1c19,9.3,38.5,16.9,59.9,18.8
			c13.1,1.1,24.6-2,33.9-11.8c7.7-8,15.6-15.9,23.3-23.9c1-1,1.9-2.1,2.8-3.2c5.5-6.8,5.6-13.7-0.4-20.2
			c-5.9-6.4-12.2-12.5-18.4-18.7c-8.8-8.8-17.5-17.7-26.4-26.3c-6.3-6.1-13.3-6.2-20-0.6c-1.3,1.1-2.4,2.3-3.6,3.4
			c-8.1,8.1-16.2,16.3-24.4,24.3c-5.9,5.8-12.4,6.8-19.5,3.3c-5-2.5-9.9-5-14.7-7.9c-21.4-12.8-40.1-28.9-56.9-47.2
			c-14.8-16.1-28.3-33.1-37.4-53.2c-5.1-11.2-4.1-16.1,4.6-24.6c8.6-8.3,17.2-16.7,25.4-25.3c5.8-6.2,5.6-12.6,0.3-19.2
			c-1-1.2-2-2.3-3.1-3.4c-13.4-13.4-26.7-26.8-40.1-40.2c-8.8-8.7-16.3-8.7-25.1,0c-7.7,7.6-15.1,15.4-22.9,22.8
			C38.3,108.7,33.9,119.3,34.1,132.1z"/>
		<path d="M377.3,192.2c-0.1,0.1-0.2,0.1-0.3,0.2c-2.2,6.1-5.8,9.1-10.5,8.8c-5.8-0.4-9.2-3.7-10.5-10.6
			c-4.7-25.5-14.5-48.9-29.6-69.9c-19.8-27.5-45.3-48.3-76.9-60.7c-11.5-4.5-23.7-7.2-35.6-10.5c-6.6-1.8-10.3-6.7-9.1-12.6
			c1.3-5.9,6.7-8.9,13.4-7.6c28.7,5.3,55,16.2,78.7,33.2c22.4,16,40.8,35.9,55,59.6c12.2,20.4,20.3,42.4,24.6,65.7
			c0.1,0.8,0.5,1.6,0.7,2.4C377.3,190.8,377.3,191.5,377.3,192.2z"/>
		<path d="M201.6,105.2c0-6.6,5.6-11.5,12.4-10.3c25.2,4.6,46.9,15.9,64.8,34.3c16.9,17.3,27.5,38,32,61.8
			c1.2,6.4-1.9,11.8-7.7,13.1c-5.5,1.3-11-2.2-12.4-8.4c-2.3-10.5-5.3-20.6-10.5-30c-15.4-27.2-38.3-44.1-69.1-50.3
			C205,114.2,201.7,110.6,201.6,105.2z"/>
	</g>
</g>
</svg>
