<?xml version="1.0" encoding="utf-8"?>
<!-- Generator: Adobe Illustrator 26.2.1, SVG Export Plug-In . SVG Version: 6.00 Build 0)  -->
<svg version="1.1" id="Capa_1" xmlns="http://www.w3.org/2000/svg" xmlns:xlink="http://www.w3.org/1999/xlink" x="0px" y="0px"
	 viewBox="0 0 306 417" style="enable-background:new 0 0 306 417;" xml:space="preserve">
<style type="text/css">
	.st0{fill:#4D4D4D;}
</style>
<g>
	<g id="_x38_Z5mfG.tif">
		<g>
			<path class="st0" d="M17.36,311.01c1.2-6.49,2.03-13.08,3.67-19.47c4.36-17.03,13.43-31.3,26.47-42.98
				c2.16-1.94,2.8-3.82,2.8-6.55c-0.06-57.05-0.08-114.1-0.03-171.15c0.02-27.89,18.46-50.71,45.56-56.61
				c33.91-7.38,67.64,18.52,68.41,53.22c0.62,28.06,0.18,56.15,0.2,84.23c0.01,29.99,0.05,59.98-0.07,89.98
				c-0.01,3.11,0.98,5.09,3.23,7.18c26.29,24.42,35.64,54.41,26.21,88.92c-9.45,34.57-31.99,56.99-67.34,65.53
				c-3.18,0.77-6.43,1.28-9.65,1.9c-5.87,0-11.73,0-17.6,0c-0.71-0.22-1.41-0.56-2.13-0.65c-36.56-4.36-66.26-29.72-76.05-65.31
				c-1.78-6.45-2.48-13.21-3.67-19.82C17.36,316.63,17.36,313.82,17.36,311.01z M148.21,157.82c-0.01,0-0.03,0-0.04,0
				c0-29.35,0.23-58.71-0.06-88.06c-0.29-28.65-28.88-47.79-55.53-37.53C76.4,38.45,66.51,53.51,66.53,72.19
				c0.06,46.2,0.24,92.4,0.27,138.61c0.01,12.76-0.19,25.53-0.6,38.28c-0.08,2.43-0.92,5.63-2.61,7.09
				c-20.85,17.99-29.76,40.55-26.38,67.84c5.03,40.62,46.06,69.94,86.24,61.64c29.18-6.03,48.01-23.75,55.08-52.48
				c7.27-29.52-1.61-54.72-24.66-74.49c-3.84-3.29-5.53-6.6-5.57-11.27c-0.01-1.79-0.09-3.57-0.09-5.36
				C148.2,213.98,148.21,185.9,148.21,157.82z"/>
			<path class="st0" d="M230.05,176.41c7.77,0,15.53-0.11,23.3,0.03c6.75,0.12,10.74,5.58,8.4,11.26c-1.42,3.45-4.24,5.1-7.82,5.11
				c-16.04,0.08-32.08,0.12-48.12-0.01c-5.24-0.04-8.69-3.6-8.64-8.27c0.05-4.66,3.52-8.01,8.82-8.09
				C214.01,176.32,222.03,176.41,230.05,176.41z"/>
			<path class="st0" d="M229.84,94.84c7.76,0,15.53-0.05,23.29,0.02c5.75,0.04,9.12,3.04,9.17,7.96c0.06,5.06-3.48,8.27-9.3,8.29
				c-15.4,0.03-30.8,0.03-46.2,0c-5.82-0.01-9.55-3.16-9.64-8.03c-0.09-5.01,3.65-8.2,9.76-8.23
				C214.57,94.81,222.2,94.84,229.84,94.84z"/>
			<path class="st0" d="M221.45,53.86c5.09,0,10.17-0.06,15.26,0.02c5.77,0.09,9.44,3.42,9.36,8.33c-0.08,4.78-3.64,8.04-9.22,8.09
				c-10.17,0.09-20.35,0.1-30.52,0c-5.56-0.05-9.12-3.35-9.17-8.13c-0.05-4.92,3.61-8.19,9.41-8.28
				C211.53,53.8,216.49,53.86,221.45,53.86z"/>
			<path class="st0" d="M221.61,151.89c-5.21,0-10.42,0.07-15.63-0.02c-5.28-0.09-8.76-3.33-8.81-8c-0.05-4.78,3.61-8.2,9.02-8.23
				c10.29-0.06,20.59-0.06,30.88,0c5.38,0.03,9.06,3.49,9,8.25c-0.06,4.66-3.55,7.89-8.83,7.98
				C232.03,151.95,226.82,151.89,221.61,151.89z"/>
			<path class="st0" d="M221.69,233.65c-5.21,0-10.42,0.05-15.63-0.02c-5.18-0.07-8.79-3.37-8.9-7.98
				c-0.11-4.79,3.48-8.21,8.94-8.25c10.42-0.07,20.84-0.08,31.26,0.01c5.2,0.04,8.73,3.46,8.71,8.09c-0.02,4.63-3.62,7.97-8.75,8.14
				c-0.13,0-0.25,0-0.38,0C231.86,233.65,226.78,233.65,221.69,233.65z"/>
			<path class="st0" d="M131.93,165.01c0,31.66,0.01,63.31-0.02,94.97c0,2.25,0.19,3.87,2.64,5.18c23.7,12.75,34.66,38.07,28,64.19
				c-6.66,26.12-28.01,42.91-54.8,43.11c-27.01,0.2-48.58-16.57-55.49-43.15c-6.72-25.87,4.18-51.32,27.63-63.96
				c2.62-1.41,3.13-3.04,3.13-5.7c-0.06-62.42-0.05-124.83-0.04-187.25c0-13.39,6.68-22.58,18.33-25.84
				c12.77-3.57,29.24,5.81,29.7,19.32c0.23,6.75,1.01,13.5,1.04,20.25c0.13,26.29,0.05,52.59,0.05,78.88
				C132.04,165.01,131.98,165.01,131.93,165.01z M99.22,160.27c0,1.93,0,3.45,0,4.97c0,33.7,0,67.4,0,101.1
				c0,7.07-1.17,8.8-7.72,11.48c-16.62,6.79-26.05,22.1-24.63,40.04c1.48,18.85,13.36,33.17,30.9,37.27
				c21.23,4.96,41.66-6.45,48.15-26.9c6.85-21.61-2.78-42.48-23.46-50.83c-5.58-2.25-6.97-4.28-6.97-10.43
				c-0.01-34.08-0.01-68.16-0.01-102.25c0-1.46,0-2.93,0-4.45C109.8,160.27,104.74,160.27,99.22,160.27z M99.4,143.53
				c5.55,0,10.68,0,16.08,0c0-9.1,0-17.89,0-26.67c0-15.29,0.06-30.59-0.04-45.88c-0.04-6.54-5.38-10.49-10.92-8.27
				c-3.96,1.58-5.32,4.73-5.31,8.82c0.04,23.07,0.02,46.13,0.03,69.2C99.23,141.6,99.33,142.48,99.4,143.53z"/>
		</g>
	</g>
	<circle class="st0" cx="107.92" cy="316.71" r="33.25"/>
</g>
</svg>
