<?xml version="1.0" encoding="utf-8"?>
<!-- Generator: Adobe Illustrator 26.2.1, SVG Export Plug-In . SVG Version: 6.00 Build 0)  -->
<svg version="1.1" id="Capa_1" xmlns="http://www.w3.org/2000/svg" xmlns:xlink="http://www.w3.org/1999/xlink" x="0px" y="0px"
	 viewBox="0 0 896 963" style="enable-background:new 0 0 896 963;" xml:space="preserve">
<g id="WaFwaJ.tif_00000168099172951387615960000008472278177066327223_">
	<g>
		<g>
			<path d="M256.26,76c9.22,1.92,18.6,3.29,27.63,5.86c61.81,17.57,103.43,58.37,129.02,115.8c37.69,84.59,27.85,191.83-43.9,264.65
				c-10.16,10.31-21.63,19.34-33.32,29.68c9.11,0,17.62,0,26.13,0c23.02,0,46.03-0.04,69.05,0.02c12.26,0.03,16.87,4.95,17.17,17.35
				c1.35,57.04-21.16,101.26-70.52,130.83c-18.17,10.88-38.13,16.48-59.3,17.72c-2.1,0.12-4.19,0.48-7.09,0.83
				c1.98,18.42,3.86,36.39,5.86,54.35c6.62,59.43,13.27,118.87,19.98,178.29c0.89,7.87-3.42,12.58-9.2,16.6c-58.5,0-117,0-175.5,0
				c-7.73-4.84-10.68-11.44-8.68-20.62c1.32-6.04,1.43-12.34,2.12-18.52c6.3-56.7,12.62-113.4,18.9-170.11
				c1.47-13.29,2.81-26.59,4.24-40.22c-2.56-0.29-3.86-0.48-5.18-0.59c-54.16-4.18-93.93-30.44-117.76-79.1
				c-6.77-13.81-9.38-29.66-13.89-44.58c0-10.83,0-21.67,0-32.5c4.04-7.5,10.26-10.06,18.74-9.89c21.11,0.43,42.24,0.14,63.37,0.14
				c9.86,0,19.73,0,30.18,0c-11.66-10.34-23.39-19.15-33.24-29.71c-66.12-70.91-80.41-153.75-51.69-244.16
				C78.93,156.6,118.54,111,180,87.23c13.95-5.39,29.14-7.57,43.76-11.23C234.6,76,245.43,76,256.26,76z M184.66,480.4
				c0-19.99-0.18-38.89,0.04-57.78c0.28-23.44,17.65-40.79,41.13-41.36c5.95-0.14,11.92-0.21,17.86,0.16
				c20.42,1.27,37.51,19.31,37.88,39.72c0.15,8.24-5.03,14.55-12.6,15.33c-7.07,0.73-13.1-4.19-14.77-12.07
				c-0.22-1.06-0.39-2.13-0.56-3.2c-1.14-6.97-5.12-12.04-12.17-11.94c-9.68,0.15-21.13-4.51-27.68,7.54
				c-0.63,1.16-1.23,2.54-1.24,3.81c-0.07,22.66-0.05,45.33-0.05,68.31c2.95,0.57,5.3,1.13,7.68,1.46
				c46.17,6.25,86.26-7.62,120.44-38.22c83.83-75.04,88.14-219.23,9.43-299.74c-63.39-64.84-156.21-65.35-219.46-0.35
				c-41.54,42.68-58.55,95.19-56.55,154.01c1.93,56.5,22.11,105.39,63.75,144.49C151.23,463.18,166.43,473.26,184.66,480.4z
				 M74.44,575.04c22.16,34.13,51.25,53.82,89.93,54.92c49.77,1.42,99.62,1.06,149.41,0.24c47.32-0.78,88.61-33.44,101.73-79.19
				c2.84-9.88,3.84-20.29,5.73-30.67c-121.76,0-241.48,0-362.21,0c1.42,9.46,2.71,18.11,4.04,27.01c3.89,0,6.58,0,9.27,0
				c17.6,0,35.19-0.12,52.79,0.1c3.67,0.04,7.73,0.54,10.91,2.19c6,3.12,7.93,8.92,6.24,15.27c-1.81,6.81-6.83,10.12-13.91,10.12
				C111.11,575.05,93.87,575.04,74.44,575.04z M307.42,879.85c-0.44-5.14-0.75-9.93-1.28-14.69
				c-7.39-66.39-14.94-132.77-22.05-199.19c-0.71-6.63-3.19-7.87-9.08-7.8c-23.27,0.26-46.55,0.33-69.82-0.03
				c-6.54-0.1-8.58,1.82-9.28,8.46c-5.41,51.37-11.33,102.69-17.04,154.03c-2.18,19.56-4.23,39.14-6.4,59.22
				C217.68,879.85,262.19,879.85,307.42,879.85z"/>
			<path d="M864,443.24c-6.62,16.18-18.87,21.37-35.96,21.29c-97.14-0.47-194.28-0.22-291.42-0.23c-22.76,0-33.22-10.46-33.23-33.24
				c-0.01-106.34,0.21-212.68-0.22-319.02c-0.07-17.06,5.07-29.36,21.22-36.04c106.16,0,212.33,0,318.49,0
				c10.09,3.99,17.11,11.06,21.12,21.12C864,212.5,864,327.87,864,443.24z M531.53,352.96c46.05,0,91.65,0,137.82,0
				c0-83.05,0-165.75,0-248.61c-46.18,0-91.99,0-137.82,0C531.53,187.49,531.53,269.97,531.53,352.96z M835.96,104.16
				c-46.24,0-91.84,0-137.68,0c0,83.13,0,165.79,0,248.77c46.16,0,91.74,0,137.68,0C835.96,269.91,835.96,187.43,835.96,104.16z
				 M531.37,435.99c101.94,0,203.23,0,304.53,0c0-18.4,0-36.16,0-54.13c-101.7,0-202.98,0-304.53,0
				C531.37,400.07,531.37,417.61,531.37,435.99z"/>
			<path d="M864,579.74c-5.95,11.31-17,9.3-27.33,9.67c-1.1,11.46,2.84,27.03-14.45,26.91c-16.81-0.11-12.94-15.26-13.89-26.53
				c-9.02,0-17.75,0-27.41,0c0,3.1,0,5.99,0,8.89c0,46.03,0.02,92.05-0.01,138.08c-0.01,21.66-10.84,32.59-32.3,32.69
				c-7.28,0.03-14.56,0.01-23.15,0.01c0,4.16,0.07,7.82-0.01,11.47c-0.39,18.68-11.4,29.77-30.03,29.83
				c-35.47,0.11-70.93,0.11-106.4,0c-19.05-0.06-30.16-11.23-30.19-30.44c-0.09-60.1-0.03-120.21-0.03-180.31c0-3.21,0-6.42,0-10.21
				c-9.31,0-18.04,0-27.39,0c-1.18,10.97,3.19,25.45-14.28,26.88c-9.27,0.76-12.29-5.47-14.37-27.49c-3.8,0-7.74,0.15-11.66-0.03
				c-9.36-0.42-15.58-6.33-15.33-14.36c0.25-7.9,6.09-13.01,15.34-13.29c3.73-0.11,7.47-0.02,11.55-0.02
				c2.14-11.27-3.24-27.65,15.18-27.24c17.35,0.39,11.96,15.86,13.78,26.65c8.7,0,17.22,0,27.19,0c0-3.87-0.06-7.78,0.01-11.68
				c0.43-25.74,17.66-43.09,43.69-43.23c44.94-0.23,89.89-0.25,134.83,0.01c26.4,0.15,43.33,17.63,43.58,44.13
				c0.03,3.46,0,6.91,0,10.85c9.36,0,17.9,0,27.74,0c0-4.58-0.19-9.07,0.04-13.54c0.42-8.12,5.65-13.36,13.22-13.58
				c7.88-0.23,13.69,5.07,14.29,13.44c0.31,4.29,0.05,8.62,0.05,13.87c10.13,0.81,21.39-2.03,27.73,8.82
				C864,573.24,864,576.49,864,579.74z M698.17,534.03c-1.93-0.09-4.59-0.31-7.24-0.32c-28.42-0.03-56.85-0.04-85.27,0
				c-14.97,0.02-19.11,4.25-19.12,19.49c-0.02,73.63-0.01,147.26,0.01,220.9c0,2.84,0.24,5.68,0.35,8.32c37.4,0,73.78,0,111.27,0
				C698.17,699.57,698.17,617.36,698.17,534.03z M726.12,589.62c0,50.99,0,101.18,0,151.53c9.17,0,17.7,0,26.6,0
				c0-50.73,0-100.92,0-151.53C743.69,589.62,735.15,589.62,726.12,589.62z M753.15,560.97c-0.48-9.29,2.97-19.3-6.62-24.64
				c-3.86-2.15-11-2.1-14.84,0.11c-9.63,5.53-5.42,15.54-6.13,24.53C734.87,560.97,743.36,560.97,753.15,560.97z"/>
			<path d="M297.42,158.05c-2.93,4.93-4.43,9.13-7.27,11.98c-50.02,50.27-100.16,100.41-150.37,150.49
				c-6.86,6.84-15.03,6.93-20.81,0.85c-5.58-5.87-5.42-13.64,1.16-20.24c50.26-50.41,100.62-100.72,150.95-151.06
				c4.69-4.69,10.63-6.59,16.24-3.34C291.25,149.01,293.75,153.78,297.42,158.05z"/>
			<path d="M214.28,158.11c-3,5.04-4.43,8.97-7.1,11.69c-17.58,17.94-35.36,35.69-53.22,53.36c-6.95,6.87-14.87,7.15-20.78,1.21
				c-5.68-5.71-5.3-14.12,1.33-20.82c17.68-17.84,35.52-35.53,53.25-53.34c4.7-4.71,10.6-6.73,16.15-3.57
				C208.06,149,210.71,153.99,214.28,158.11z"/>
			<path d="M191.42,575.04c-14.01,0.02-20.62-4.32-20.72-13.61c-0.1-9.34,6.75-14.06,20.45-14.06c2.43,0,4.88-0.12,7.29,0.08
				c8.22,0.69,13.97,6.64,13.81,14.12c-0.16,7.59-5.93,13.04-14.35,13.46C195.74,575.13,193.58,575.04,191.42,575.04z"/>
			<path d="M634.62,242.27c-1.62,0-3.24,0.06-4.86-0.01c-9.2-0.38-15.01-5.48-15.26-13.34c-0.26-8.15,5.75-13.9,15.24-14.33
				c4.31-0.2,8.67-0.3,12.95,0.13c7.96,0.8,13.24,6.53,13.25,13.78c0.01,7.69-5.51,13.13-14.03,13.7c-2.42,0.16-4.86,0.02-7.29,0.02
				C634.62,242.24,634.62,242.25,634.62,242.27z"/>
			<path d="M732.17,242.11c-14.01,0.17-20.62-4.19-20.7-13.49c-0.08-9.34,6.81-14.11,20.47-14.07c3.23,0.01,6.54-0.09,9.68,0.53
				c7.36,1.45,11.17,6.4,11.37,13.72c0.19,6.98-5.32,12.53-12.72,13.28C737.59,242.34,734.87,242.11,732.17,242.11z"/>
		</g>
	</g>
</g>
</svg>
