<?xml version="1.0" encoding="utf-8"?>
<!-- Generator: Adobe Illustrator 26.2.1, SVG Export Plug-In . SVG Version: 6.00 Build 0)  -->
<svg version="1.1" id="Capa_1" xmlns="http://www.w3.org/2000/svg" xmlns:xlink="http://www.w3.org/1999/xlink" x="0px" y="0px"
	 viewBox="0 0 719 848" style="enable-background:new 0 0 719 848;" xml:space="preserve">
<g id="Kph94H.tif_00000181780070648382469690000002307998589353819064_">
	<g>
		<path d="M362.17,19c6.86,4.06,9.41,9.92,9.29,17.99c-0.37,25.26,0.06,50.54-0.33,75.8c-0.07,4.28-1.54,9.66-4.4,12.43
			c-2.47,2.39-8.12,3.07-11.86,2.24c-5.91-1.31-8.16-6.55-8.17-12.54c0-17.02-0.01-34.04-0.01-51.05c0-9.02,0.4-18.07-0.12-27.07
			c-0.47-8.12,2.24-13.99,9.39-17.8C358.05,19,360.11,19,362.17,19z"/>
		<path d="M359.55,661.82c-29.66,0-59.32,0.03-88.98-0.02c-13.22-0.02-16.26-3.97-16.99-17.09c-0.93-16.67-2.06-33.47-5.12-49.84
			c-4.12-22.02-15.31-40.3-31.64-56.26c-88.59-86.58-78.64-232.65,20.43-307.18c112.53-84.66,275.31-32.97,316.45,101.68
			c23.17,75.81,6.49,144.77-48.69,201.35c-29.86,30.62-38.91,65.99-39.88,105.91c-0.05,2.06,0.09,4.13-0.01,6.19
			c-0.53,11.24-4.51,15.2-15.82,15.24c-27.6,0.09-55.19,0.03-82.79,0.03C364.2,661.82,361.87,661.82,359.55,661.82z M439.97,636.32
			c1.48-12.36,2.41-23.91,4.31-35.31c4.84-29.08,15.2-55.8,36.79-76.76c44.85-43.54,63.09-96.37,54.48-157.95
			c-7.33-52.45-34.02-93.86-78.16-122.65c-75.94-49.52-171.32-36.33-232.52,30.8c-62.59,68.67-59.08,180.94,8.23,245.15
			c20.79,19.83,33.52,43.57,39.12,71.28c3,14.85,4.61,29.98,6.9,45.42C332.41,636.32,385.98,636.32,439.97,636.32z"/>
		<path d="M358.31,737.36c-27.09,0-54.17,0.2-81.26-0.08c-14.78-0.15-27.14-10.97-29.44-24.82c-2.43-14.61,4.99-28.64,18.56-33.7
			c4.71-1.76,10.05-2.52,15.11-2.54c51.85-0.18,103.7-0.2,155.55-0.06c18.57,0.05,31.92,10.83,33.65,26.49
			c2.11,19.08-11.6,34.43-31.7,34.67c-26.82,0.31-53.65,0.08-80.48,0.08C358.31,737.38,358.31,737.37,358.31,737.36z M359.02,712.28
			c24.73,0,49.47,0,74.2,0c2.06,0,4.49,0.63,6.09-0.25c2.37-1.29,4.16-3.67,6.19-5.58c-2.15-2.09-4.16-4.37-6.51-6.18
			c-0.82-0.63-2.5-0.14-3.79-0.14c-51.02,0-102.03,0-153.05,0c-1.55,0-3.44-0.51-4.56,0.19c-2.13,1.33-5.5,3.58-5.31,5.06
			c0.3,2.37,2.71,5.01,4.94,6.4c1.7,1.07,4.5,0.48,6.81,0.48C309.03,712.29,334.03,712.28,359.02,712.28z"/>
		<path d="M358.62,811.6c-18.04,0-36.09,0.09-54.13-0.02c-19.14-0.12-33.03-12.81-33.36-30.25c-0.32-17.28,13.55-30.95,32.55-31.1
			c36.86-0.28,73.73-0.27,110.59,0c19.23,0.14,32.84,13.5,32.51,30.99c-0.33,17.5-14.18,30.24-33.25,30.36
			C395.23,811.69,376.92,811.6,358.62,811.6z M358.84,786.21c12.38,0,24.76,0.02,37.14-0.01c6.7-0.02,13.47,0.37,20.07-0.45
			c2.19-0.27,3.98-3.73,5.96-5.73c-2.05-1.89-3.93-4.06-6.24-5.56c-1.1-0.71-3.02-0.18-4.56-0.18c-34.82,0-69.63-0.01-104.45,0
			c-2.06,0-4.48-0.54-6.09,0.34c-1.97,1.08-4.44,3.37-4.51,5.21c-0.07,1.89,2.13,4.51,4.03,5.63c1.8,1.05,4.5,0.71,6.81,0.72
			C324.28,786.23,341.56,786.21,358.84,786.21z"/>
		<path d="M166.84,76.16c1.74,1.3,6.32,3.21,8.59,6.65c15.03,22.79,29.69,45.83,44.18,68.98c4.44,7.09,2.61,14.43-3.56,18.34
			c-6.2,3.93-12.9,2.15-17.71-5.3c-14.54-22.51-29-45.06-43.25-67.75C148.68,86.86,153.4,76.36,166.84,76.16z"/>
		<path d="M601.24,274.36c-3.19-2.68-8.25-4.89-9.31-8.34c-1.21-3.94,0.49-9.23,2.17-13.43c0.86-2.15,4.34-3.4,6.81-4.74
			c21.95-11.9,43.93-23.76,65.95-35.55c2.47-1.32,5.1-2.61,7.81-3.14c5.92-1.17,11.04,0.74,13.38,6.49
			c2.19,5.39,1.39,10.83-3.68,14.56c-3.09,2.27-6.58,4.02-9.97,5.85c-20.83,11.28-41.66,22.55-62.53,33.74
			C608.98,271.34,605.83,272.41,601.24,274.36z"/>
		<path d="M127.33,257.89c0.13,12.74-8.74,18.1-18.03,13.51c-10.6-5.24-20.86-11.19-31.26-16.84c-13.34-7.25-26.71-14.45-39.99-21.8
			c-8.68-4.81-11.04-10.65-7.41-17.48c3.58-6.75,11.1-8.43,19.42-3.94c23.1,12.46,46.23,24.87,69.07,37.8
			C123.1,251.39,125.69,256.09,127.33,257.89z"/>
		<path d="M572.67,90.04c-1.82,4.41-2.49,7.22-3.99,9.49c-15.19,23.01-30.44,45.97-45.83,68.84c-4.59,6.83-10.69,8.37-16.51,4.78
			c-6.09-3.75-7.88-10.67-3.45-17.45c15.35-23.51,30.97-46.85,46.66-70.13c3.13-4.64,8.11-7.32,13.38-4.58
			C566.77,82.99,569.55,87.03,572.67,90.04z"/>
		<path d="M516.98,392.94c0,2.06,0.06,4.13-0.01,6.19c-0.27,7.63-4.74,12.78-11.38,13.17c-6.68,0.39-11.93-4.1-12.94-11.68
			c-0.85-6.37-0.83-12.85-1.74-19.21c-9.15-63.99-62.01-111.73-126.69-114.55c-1.29-0.06-2.58-0.05-3.86-0.15
			c-8.3-0.63-13.88-5.94-13.53-12.87c0.36-7,6.18-11.81,14.66-11.65c20.03,0.37,39.32,4.41,57.94,11.87
			C475.67,276.58,515.62,333.46,516.98,392.94z"/>
	</g>
</g>
</svg>
