<?xml version="1.0" encoding="utf-8"?>
<!-- Generator: Adobe Illustrator 26.2.1, SVG Export Plug-In . SVG Version: 6.00 Build 0)  -->
<svg version="1.1" id="Capa_1" xmlns="http://www.w3.org/2000/svg" xmlns:xlink="http://www.w3.org/1999/xlink" x="0px" y="0px"
	 viewBox="0 0 896 963" style="enable-background:new 0 0 896 963;" xml:space="preserve">
<g id="_x38_WNqvN.tif_00000070825838859984791260000009022448669104108435_">
	<g>
		<path d="M38,655.35c3.99-14.36,8.56-28.73,20.57-38.44c7.87-6.36,16.84-11.84,26.14-15.8c6.02-2.57,7.65-5.16,7.61-11.29
			c-0.28-36.22-0.15-72.45-0.13-108.68c0.02-30.41,16.1-46.5,46.52-46.5c122.92-0.01,245.85,0.37,368.76-0.31
			c26.27-0.14,47.1,17.55,46.28,46.32c-1.03,36.2-0.12,72.45-0.37,108.67c-0.04,6.31,1.12,9.64,8.06,11.71
			c25.84,7.71,44.93,31.77,45.73,58.72c0.95,32.23,0.55,64.5,0.61,96.76c0.07,39.93-0.09,79.86,0.1,119.78
			c0.04,8.39-1.87,15.13-10.17,18.71c-20.67,0-41.34,0-62.01,0c-7.34-4.44-9.73-11.06-9.45-19.4c0.37-11.28,0.09-22.59,0.09-34.1
			c-136.04,0-271.24,0-407.05,0c0,12.15-0.36,23.75,0.12,35.32c0.35,8.33-2.46,14.33-9.85,18.18c-23.85,0-47.7,0-71.55,0
			C38,815.12,38,735.23,38,655.35z M580.15,732.21c0-25.08,0.18-49.37-0.18-73.66c-0.06-4.01-1.93-8.26-3.84-11.94
			c-8.84-17.02-23.79-22.66-42.14-22.65c-140.67,0.11-281.35,0.06-422.02,0.06c-1.32,0-2.65-0.03-3.97,0.01
			c-26.31,0.81-42.72,17.56-42.89,43.93c-0.1,15.6-0.02,31.2-0.02,46.8c0,5.71,0,11.41,0,17.44
			C237.24,732.21,408.28,732.21,580.15,732.21z M580.23,760.37c-172.21,0-343.46,0-514.49,0c0,36.22,0,71.75,0,107.12
			c9.04,0,17.41,0,26.43,0c0-12.05-0.04-23.63,0.01-35.22c0.06-13.94,4.54-18.39,18.67-18.39c141.49-0.01,282.99-0.02,424.48,0
			c13.79,0,18.08,4.26,18.15,17.9c0.06,11.82,0.01,23.64,0.01,35.58c9.57,0,18.14,0,26.74,0
			C580.23,831.42,580.23,796.06,580.23,760.37z M336.62,596.53c0-16.73-0.03-32.56,0.01-48.39c0.06-29.57,16.01-45.71,45.46-45.83
			c23.84-0.1,47.69-0.1,71.53,0.04c5,0.03,10.15,0.2,14.97,1.38c17.72,4.34,30.1,19.6,30.48,37.92c0.38,18.16,0.08,36.33,0.08,54.7
			c9.55,0,18.1,0,27.18,0c0-2.92,0-5.26,0-7.61c0-36.23,0.02-72.45-0.01-108.68c-0.01-14.09-4.34-18.38-18.53-18.38
			c-123.19-0.01-246.38-0.01-369.57,0c-14.43,0-18.92,4.5-18.93,19.03c-0.03,35.96-0.02,71.93,0.01,107.89
			c0,2.56,0.22,5.12,0.34,7.69c9.26,0,17.82,0,26.21,0c0.26-1.15,0.48-1.66,0.48-2.16c0.05-16.13-0.08-32.26,0.15-48.39
			c0.35-25.28,15.54-42.39,40.12-43.08c28.58-0.81,57.21-0.41,85.8,0.26c14.31,0.34,25.52,7.97,31.51,20.76
			c3.45,7.37,4.93,16.12,5.34,24.35c0.81,16,0.24,32.07,0.24,48.5C318.81,596.53,327.17,596.53,336.62,596.53z M281.99,596.62
			c0-18.7,0.29-36.62-0.14-54.52c-0.17-7.14-4.69-12.19-12.09-12.27c-27.8-0.3-55.6-0.27-83.4-0.05
			c-6.56,0.05-11.66,4.05-11.86,10.59c-0.55,18.63-0.19,37.29-0.19,56.25C210.13,596.62,245.57,596.62,281.99,596.62z
			 M363.97,596.55c36.49,0,71.89,0,107.89,0c0-18.79,0.39-37.21-0.21-55.61c-0.22-6.75-5.33-11.14-12.3-11.2
			c-27.53-0.24-55.07-0.26-82.6-0.03c-7.27,0.06-12.42,4.47-12.62,11.74C363.64,559.62,363.97,577.8,363.97,596.55z"/>
		<path d="M38,268.1c4.38-3.59,8.22-8.35,13.21-10.59c127.57-57.34,255.28-114.38,382.89-171.64c7.62-3.42,14.31-3.42,21.92,0
			c127.61,57.26,255.32,114.3,382.89,171.64c4.98,2.24,8.83,7.01,13.21,10.6c0,55.55,0,111.1,0,166.64c-8.69,0-17.38,0-27.08,0
			c0-3.54,0-6.34,0-9.15c0-45.75-0.09-91.49,0.12-137.24c0.02-5.45-1.4-8.31-6.68-10.67c-122.45-54.56-244.82-109.31-367.13-164.18
			c-4.54-2.04-8.02-2.04-12.57,0C316.46,168.38,194.1,223.13,71.64,277.69c-5.28,2.35-6.7,5.21-6.68,10.67
			c0.21,45.48,0.12,90.96,0.12,136.44c0,2.89,0,5.77,0,9.95c-9.3,0-18.19,0-27.08,0C38,379.2,38,323.65,38,268.1z"/>
		<path d="M852.11,814.06c-8.69,0-17.38,0-26.94,0c0-27.38,0-53.93,0-80.97c-54.51,0-108.14,0-162.81,0c0,26.75,0,53.29,0,80.3
			c-9.39,0-17.75,0-26.98,0c-0.14-2.76-0.4-5.57-0.4-8.38c-0.02-62.67-0.03-125.34-0.01-188.02c0.01-16.01,4.15-20.05,20.38-20.06
			c58.82-0.01,117.63,0.09,176.45-0.11c8.53-0.03,15.59,1.75,20.31,9.32C852.11,675.45,852.11,744.76,852.11,814.06z M824.69,624.04
			c-53.1,0-105.25,0.04-157.4-0.07c-5.33-0.01-5.1,3.21-5.1,6.79c0.02,17.45,0.01,34.9,0.01,52.35c0,7.09,0,14.18,0,21.7
			c54.7,0,108.54,0,162.49,0C824.69,677.82,824.69,651.45,824.69,624.04z"/>
		<path d="M757.47,502.28c0,14.02,0,26.83,0,40.38c8.78,0,17.15,0,26.09,0c0,9.24,0,17.76,0,26.73c-26.82,0-53.4,0-80.39,0
			c0-8.76,0-17.1,0-26.4c8.68,0,17.25,0,26.24,0c0-13.76,0-26.58,0-40.69c-10.02,0-19.95,0.05-29.88-0.03
			c-3.96-0.03-7.98,0.03-11.86-0.61c-8.68-1.43-13.73-8.32-11.07-16.67c8.71-27.4,17.95-54.64,27.15-81.88
			c2.23-6.62,7.68-9.22,14.31-9.26c16.95-0.11,33.89-0.11,50.84-0.01c7.76,0.04,12.84,3.77,15.33,11.32
			c8.44,25.56,17.17,51.02,25.52,76.61c4.04,12.4-1.64,20.13-14.91,20.46C782.69,502.52,770.53,502.28,757.47,502.28z
			 M778.78,474.55c-5.75-17.18-11.13-33.71-16.96-50.08c-0.6-1.68-3.82-3.32-5.9-3.42c-8.19-0.39-16.43-0.39-24.62-0.01
			c-2.12,0.1-5.44,1.68-6.03,3.34c-5.8,16.37-11.14,32.9-16.87,50.17C732.2,474.55,755.04,474.55,778.78,474.55z"/>
		<path d="M476.29,196.98c-2.73,7.83-5.48,15.7-8.5,24.36c-26.62-7.13-50.66-2.86-70.56,16.52c-13.29,12.94-19.78,29.3-19.88,47.75
			c-0.2,36.9,30.97,67.87,67.8,67.6c33.81-0.25,71.65-27.21,67.23-78.84c8.4-1.47,16.89-2.96,25.35-4.44
			c9.51,36.58-12.17,80.68-48.72,99.59c-39.49,20.43-87.43,11.13-116.15-22.53c-28.56-33.48-30.2-82.42-4.35-117.4
			C394.55,194.32,440.9,182.54,476.29,196.98z"/>
		<path d="M408.42,282.45c6.74-6.82,12.8-12.96,19.6-19.85c5.42,5.86,10.73,11.62,15.88,17.19c29-28.97,57.04-56.98,85.35-85.26
			c6.58,7.27,12.35,13.64,18.75,20.7c-0.55,0.59-2.24,2.49-4.04,4.29c-28.47,28.42-56.94,56.85-85.43,85.25
			c-10.49,10.46-16.35,10.43-26.78,0.21C424.01,297.38,416.16,289.9,408.42,282.45z"/>
		<path d="M716.94,677.74c0-8.9,0-17.25,0-26.07c17.97,0,35.55,0,53.47,0c0,8.87,0,17.2,0,26.07
			C752.62,677.74,735.25,677.74,716.94,677.74z"/>
	</g>
</g>
</svg>
