<?xml version="1.0" encoding="utf-8"?>
<!-- Generator: Adobe Illustrator 26.2.1, SVG Export Plug-In . SVG Version: 6.00 Build 0)  -->
<svg version="1.1" id="Capa_1" xmlns="http://www.w3.org/2000/svg" xmlns:xlink="http://www.w3.org/1999/xlink" x="0px" y="0px"
	 viewBox="0 0 896 703" style="enable-background:new 0 0 896 703;" xml:space="preserve">
<g id="eGR1HE.tif_00000093135421289359251690000004962413127098920329_">
	<g>
		<g>
			<path d="M847.34,36.52c12.58,4.98,16.59,14.36,16.55,27.62c-0.31,113.45-0.18,226.9-0.18,340.36c0,13.21-3.9,19.05-12.59,18.84
				c-8.35-0.19-11.97-5.81-11.97-18.62c0-110.73,0-221.45,0-332.18c0-3.26,0-6.52,0-10.48c-262.91,0-525.44,0-788.54,0
				c0,156.55,0,313.15,0,470.15c262.65,0,525.01,0,788.54,0c0-2.66,0-5.27,0-7.88c0-18-0.08-36,0.04-54
				c0.06-8.48,4.63-13.59,11.81-13.81c7.57-0.24,12.59,5,12.65,13.8c0.14,19.36-0.71,38.76,0.26,58.08
				c0.99,19.65-7.75,29.14-28.55,29.01c-97.4-0.6-194.8-0.27-292.2-0.27c-13.88,0-27.77,0-42.28,0c0,8.76,0,17.05,0,26.35
				c13.16,1.47,26.6,2.99,40.05,4.45c39.84,4.32,79.7,8.53,119.53,12.97c15.98,1.78,26.49,13.14,26.23,29.07
				c-0.12,7.71-0.82,16.01-3.82,22.94c-4.47,10.34-14.2,14.8-25.35,14.92c-20.46,0.22-40.92,0.16-61.38,0.03
				c-9.41-0.06-14.88-5.07-14.62-12.79c0.25-7.47,5.32-11.64,14.67-11.68c19.1-0.09,38.2-0.05,57.29-0.02
				c4.61,0.01,9.03,0.04,8.87-6.52c-0.14-5.62,1.42-11.34-7.62-12.22c-37.71-3.69-75.35-8.23-113.06-11.93
				c-31.73-3.11-63.55-7.69-95.31-7.59c-33.41,0.11-66.84,4.7-100.21,7.91c-35.28,3.39-70.5,7.33-105.71,11.35
				c-4.68,0.53-11.68-1.61-12.02,7.31c-0.41,10.6,0.32,11.68,11.12,11.68c96.31,0.01,192.62,0,288.92,0.01c3,0,6.02-0.13,9,0.17
				c6.24,0.64,9.99,4.25,10.7,10.45c0.76,6.55-2.22,11.15-8.56,13.06c-2.55,0.76-5.37,0.83-8.07,0.83
				c-98.49,0.04-196.98,0.01-295.47,0.06c-13.47,0.01-24.81-4.58-29.48-17.63c-4.9-13.69-5.86-28.4,5.16-39.94
				c4.49-4.7,11.88-8.4,18.35-9.17c49.81-5.95,99.71-11.07,149.59-16.46c3.48-0.38,6.94-0.92,10.62-1.42c0-8.67,0-16.8,0-26.2
				c-3.27,0-6.41,0-9.56,0c-109.4,0-218.81-0.16-328.21,0.22c-12.68,0.04-21.61-3.68-27.03-15.15c0-163.65,0-327.31,0-490.96
				c5.46-4.91,10.91-9.82,16.37-14.73C310.35,36.52,578.85,36.52,847.34,36.52z M475.08,580.54c0-7.28,0-14.93,0-22.88
				c-19.97,0-39.62,0-59.48,0c0,7.97,0,15.44,0,22.88C435.53,580.54,454.99,580.54,475.08,580.54z"/>
			<path d="M99.16,479.46c230.64,0,460.25,0,690.37,0c0-121.55,0-242.74,0-364.36c-229.95,0-459.58,0-690.37,0
				c0,9.99,0,19.98,0,29.97c-0.01,9.55,0.21,19.1-0.1,28.64c-0.25,7.61-5.48,12.48-12.44,12.34c-6.64-0.13-11.82-4.84-11.89-12.04
				c-0.23-24-0.26-48,0.04-72c0.08-6.83,4.29-11.01,11.32-11.69c2.71-0.26,5.45-0.18,8.18-0.18c233.56-0.01,467.11-0.01,700.67,0
				c2.45,0,4.92-0.08,7.36,0.12c7.66,0.6,11.76,4.82,12.27,12.57c0.13,1.9,0.04,3.82,0.04,5.73c0,125.73,0,251.47,0,377.2
				c0,15.22-3.44,18.63-18.84,18.63c-234.1,0.01-468.2,0.01-702.3,0c-15.43,0-18.85-3.39-18.85-18.61c0-82.91,0-165.83,0-248.74
				c0-2.45-0.24-4.97,0.21-7.35c1.21-6.39,5.13-10.27,11.76-10.38c7.02-0.12,11.19,3.81,12.39,10.59c0.47,2.65,0.19,5.44,0.19,8.17
				c0.01,76.91,0.01,153.83,0.01,230.74C99.16,472.04,99.16,475.3,99.16,479.46z"/>
		</g>
	</g>
</g>
</svg>
