<?xml version="1.0" encoding="utf-8"?>
<!-- Generator: Adobe Illustrator 26.2.1, SVG Export Plug-In . SVG Version: 6.00 Build 0)  -->
<svg version="1.1" id="Capa_1" xmlns="http://www.w3.org/2000/svg" xmlns:xlink="http://www.w3.org/1999/xlink" x="0px" y="0px"
	 viewBox="0 0 613.8 131" style="enable-background:new 0 0 613.8 131;" xml:space="preserve">
<style type="text/css">
	.st0{fill:#17112D;}
	.st1{fill:#FFFFFF;}
	.st2{font-family:'Figtree-SemiBold';}
	.st3{font-size:56.2857px;}
	.st4{fill:#F78C1B;}
</style>
<g>
	<g>
		<path class="st0" d="M569.1,120.2H38.4c-16.6,0-30.1-13.5-30.1-30.1V58.5c0-16.6,13.5-30.1,30.1-30.1h530.7
			c16.6,0,30.1,13.5,30.1,30.1V90C599.3,106.7,585.8,120.2,569.1,120.2z"/>
		<g>
			<text transform="matrix(1 0 0 1 143.6592 90.5428)" class="st1 st2 st3">en construcción</text>
		</g>
		<path class="st4" d="M51.9,88.3c0.5-3.6,0.9-7.2,1.5-10.6c1.4-7.2,3.7-14,8.5-19.7c3.2-3.7,7.1-6.3,12-7c0.8-0.1,1.3-0.3,1.5-1.2
			c0.3-1.1,1.3-1.5,2.4-1.5c4.6,0,9.1,0,13.7,0c1.2,0,2,0.6,2.5,1.8c0.1,0.4,0.6,0.8,1,0.8c7.4,1.2,12.2,5.8,15.7,12.1
			c3.8,6.9,5.5,14.4,6.2,22.2c0.1,1,0.2,2,0.3,3.2c2.1,0,4.2,0,6.3,0c2.9,0,3.6,0.7,3.6,3.6c0,2.5,0,5,0,7.5c0,2.3-0.8,3.1-3.1,3.1
			c-26.3,0-52.5,0-78.8,0c-2.2,0-3-0.8-3.1-3c0-2.7,0-5.4,0-8.2c0-2.2,0.9-3,3-3C47.5,88.3,49.7,88.3,51.9,88.3z M75.2,76.4
			c0-7.1,0-13.9,0-20.9c-4.6,0.7-8,3.1-10.6,6.6c-5.7,7.7-7.1,16.8-7.8,26.2c3.1,0,6,0,9,0c0,1.6,0,3.1,0,4.7c-6.3,0-12.4,0-18.7,0
			c0,1.6,0,3.1,0,4.7c25.1,0,50.2,0,75.3,0c0-1.6,0-3,0-4.6c-8.7,0-17.3,0-25.9,0c-8.6,0-17.2,0-25.8,0c0-1.7,0-3.2,0-4.8
			c14,0,27.9,0,41.8,0c-0.3-5.8-1.2-11.4-3-16.9c-1.4-4.1-3.3-8-6.4-11.2c-2.4-2.5-5.3-4.2-9-4.7c0,7,0,14,0,20.9
			c-1.6,0-3.1,0-4.7,0c0-7.9,0-15.6,0-23.4c-3.2,0-6.3,0-9.4,0c0,7.9,0,15.6,0,23.4C78.3,76.4,76.8,76.4,75.2,76.4z"/>
	</g>
	<polygon class="st0" points="276.7,36.8 303,2.7 330.9,36.8 	"/>
</g>
</svg>
