<?xml version="1.0" encoding="utf-8"?>
<!-- Generator: Adobe Illustrator 26.2.1, SVG Export Plug-In . SVG Version: 6.00 Build 0)  -->
<svg version="1.1" id="Capa_1" xmlns="http://www.w3.org/2000/svg" xmlns:xlink="http://www.w3.org/1999/xlink" x="0px" y="0px"
	 viewBox="0 0 326 417" style="enable-background:new 0 0 326 417;" xml:space="preserve">
<g id="z5CGGQ.tif_00000019651005115896277500000015859429615214989447_">
	<g>
		<path d="M28.3,329.9c4.1-15.7,16.2-23.5,29.8-29.1c10.6-4.3,21.7-7.2,32.8-10.4c5.3-1.5,9.4,1,10.4,5.5c1,4.6-1.5,8-6.7,9.8
			c-11.4,3.7-22.8,7.1-33.9,11.5c-4.6,1.8-8.8,5.2-12.5,8.5c-5.3,4.8-5.5,10.6,0.2,14.8c6.3,4.8,13.4,8.9,20.8,11.9
			c23.8,10,49.1,12.9,74.6,13.7c29.4,0.9,58.9,0.5,87.5-7.8c11.1-3.2,22-7.9,31.9-13.7c12.9-7.5,12.5-16,0.1-24.6
			c-11.3-7.9-24.6-10.5-37.7-13.7c-1.4-0.4-2.9-0.6-4.3-1.1c-4.3-1.5-6.3-5-5.5-9.2c0.8-4,4.4-6.8,8.8-5.9
			c15.3,3.1,30.7,6.3,44,14.8c5.5,3.5,10.8,8.3,14.7,13.5c7.6,10.1,7.1,21.5-1.7,30.5c-5.6,5.8-12.5,10.8-19.6,14.5
			c-22.9,11.8-47.8,15.9-73.1,17.8c-2.9,0.2-5.8,0.7-8.8,1c-14.1,0-28.3,0-42.4,0c-6.3-0.7-12.7-1.3-19-2
			c-23.1-2.5-45.6-7.5-66.6-17.9c-10.8-5.4-20-12.5-23.9-24.6C28.3,335.2,28.3,332.6,28.3,329.9z"/>
		<path d="M158.6,18.7c63.5,0.5,107.4,48.4,116.4,100c5.5,31.8-1.8,61-19.3,87.3c-13.5,20.2-28.9,39.1-43.9,58.2
			c-13.2,16.8-27.1,33.1-37,52.2c-3.2,6.1-5.7,12.5-8.4,18.9c-1.5,3.5-3.8,5.6-7.8,5.6c-3.8,0-6.3-1.9-7.5-5.3
			c-8.9-24.9-24.7-45.5-41.1-65.7c-16.8-20.7-34.5-40.6-48.5-63.4c-13.2-21.4-21.3-44.3-21-69.8c0.6-60.8,45.7-110.7,106-117
			C150.4,19.3,154.5,19.1,158.6,18.7z M158.5,313.1c15.8-30.6,38.5-54.8,59-80.6c8.7-10.9,16.9-22.2,24.4-34
			c13.8-21.6,21.3-44.9,18.3-71.1c-6-52.9-53-98.8-113.2-91.9c-63.9,7.3-105.3,70.6-86.4,132.3c6,19.5,17,36.2,29.1,52.3
			C112.7,250.5,140.3,277.6,158.5,313.1z"/>
		<path d="M221.6,137.6c-0.1,34.2-29.1,63.1-63.4,63c-34.1-0.1-63-29.3-62.8-63.6c0.2-33.9,29.3-62.8,63.2-62.7
			C192.8,74.3,221.7,103.4,221.6,137.6z M158.6,184.8c25.5,0,47.2-21.6,47.3-47.1c0.1-25.8-21.6-47.6-47.3-47.6
			c-25.5,0-47.2,21.7-47.3,47.2C111.1,163,132.8,184.8,158.6,184.8z"/>
	</g>
</g>
</svg>
