<?xml version="1.0" encoding="utf-8"?>
<!-- Generator: Adobe Illustrator 26.2.1, SVG Export Plug-In . SVG Version: 6.00 Build 0)  -->
<svg version="1.1" id="Capa_1" xmlns="http://www.w3.org/2000/svg" xmlns:xlink="http://www.w3.org/1999/xlink" x="0px" y="0px"
	 viewBox="0 0 431 504" style="enable-background:new 0 0 431 504;" xml:space="preserve">
<style type="text/css">
	.st0{fill:#F78C1B;}
</style>
<g id="YEhCux.tif_00000067947157368536951950000018238341225487712170_">
	<g>
		<path class="st0" d="M90.05,286.11c35.11-55.79,70.22-111.58,105.34-167.36c15.21-24.15,30.43-48.3,45.67-72.43
			c3.94-6.23,9.19-8.53,15.01-6.74c6.71,2.06,10.24,8.23,8.46,15.37c-6.83,27.39-13.76,54.75-20.67,82.12
			c-5.41,21.46-10.84,42.91-16.42,65c1.78,0,3.21,0,4.65,0c30.54,0,61.09,0.17,91.63-0.12c7.66-0.07,13.13,2.27,16.37,9.27
			c0,2.22,0,4.44,0,6.66c-1.19,1.99-2.35,4.01-3.58,5.97c-48.62,77.13-97.27,154.25-145.84,231.42c-2.55,4.06-5.37,7.63-9.78,9.72
			c-2.22,0-4.45,0-6.67,0c-9.15-5.48-10.46-8.81-7.76-19.51c9.23-36.5,18.44-73.01,27.65-109.51c2.83-11.23,5.63-22.46,8.53-34.06
			c-1.96,0-3.47,0-4.99,0c-30.42,0-60.83-0.16-91.24,0.11c-7.65,0.07-13.15-2.24-16.38-9.27C90.05,290.55,90.05,288.33,90.05,286.11
			z M125.2,276.96c2.31,0,3.81,0,5.3,0c28.74,0,57.49-0.01,86.23,0c10.96,0.01,16.3,6.83,13.64,17.42
			c-6.58,26.17-13.18,52.34-19.76,78.51c-0.28,1.09-0.42,2.22-0.63,3.33c0.25,0.09,0.5,0.18,0.76,0.27
			c31.28-49.61,62.56-99.23,94.23-149.46c-2.3,0-3.79,0-5.28,0c-28.74,0-57.49,0.01-86.23,0c-10.98-0.01-16.33-6.82-13.67-17.39
			c5.95-23.71,12.84-51.01,19.76-78.51c0.28-1.1,0.43-2.22,0.64-3.33c-0.25-0.09-0.51-0.18-0.76-0.28
			C188.19,177.06,156.96,226.59,125.2,276.96z"/>
	</g>
</g>
</svg>
