<?xml version="1.0" encoding="utf-8"?>
<!-- Generator: Adobe Illustrator 26.2.1, SVG Export Plug-In . SVG Version: 6.00 Build 0)  -->
<svg version="1.1" id="Capa_1" xmlns="http://www.w3.org/2000/svg" xmlns:xlink="http://www.w3.org/1999/xlink" x="0px" y="0px"
	 viewBox="0 0 386.3 417" style="enable-background:new 0 0 386.3 417;" xml:space="preserve">
<g>
	<path d="M97.9,27.6c63.6,0,127.2,0,190.7,0c3.9,1.8,5.5,4.8,5.2,9.1c-0.2,2.5,0,4.9,0,7.4c0,5.3,0,10.5,0,16c1.8,0,3.1,0,4.3,0
		c15,0,29.9,0,44.9,0c7.9,0,10,2,10,10.1c0,88.8,0,177.5,0,266.3c0,1.5,0,3,0,4.8c4.1,0,7.9,0.2,11.6-0.1c4.4-0.3,7.5,1.2,9.6,5
		c0,12.7,0,25.4,0,38.1c-2.1,3.8-5.3,5-9.6,5c-45.7-0.1-91.3-0.1-137-0.1c-0.8,0-1.7,0-2.5,0c-4.1-0.3-7-3.2-7-7
		c0-3.8,2.8-6.8,6.9-7.1c1.2-0.1,2.4,0,3.5,0c42.4,0,84.7,0,127.1,0c1.4,0,2.8,0,4.2,0c0-6.8,0-13.2,0-19.5c-111.2,0-222.1,0-333,0
		c0,6.6,0,12.9,0,19.5c1.5,0,2.9,0,4.3,0c43.1,0,86.2,0,129.2,0c5.1,0,8.3,2.9,8.2,7.2c-0.1,4.2-3.2,6.9-8.1,6.9
		c-46.6,0-93.2,0-139.8,0c-5.5,0-8.1-2.7-8.1-8.3c0-10.5,0-21,0-31.4c0-5.6,2.7-8.2,8.2-8.2c4.2,0,8.4,0,12.9,0c0-1.8,0-3.3,0-4.8
		c0-89,0-178,0-267c0-7,2.3-9.3,9.3-9.3c15.3,0,30.6,0,45.9,0c1.2,0,2.5,0,4,0c0-8.1,0.2-15.8-0.1-23.4C92.6,32.4,94,29.4,97.9,27.6
		z M48,74.4c0,89.1,0,177.8,0,266.7c29.2,0,58.2,0,87.4,0c0-1.5,0-2.8,0-4c0-12.5-0.1-25,0.1-37.4c0.1-4.6,0.5-9.2,1.5-13.6
		c5.8-27.2,31.2-46.2,59.6-44.9c27.2,1.2,51.2,22.8,53.9,49.9c1.4,14,0.6,28.2,0.8,42.3c0,2.6,0,5.1,0,7.8c29.3,0,58.3,0,87.3,0
		c0-89,0-177.8,0-266.7C241.6,74.4,144.9,74.4,48,74.4z M107.1,59.9c57.7,0,114.9,0,172.3,0c0-6.1,0-12,0-18
		c-57.6,0-114.9,0-172.3,0C107.1,48,107.1,53.9,107.1,59.9z M200.6,255.9c0,28.5,0,56.8,0,85.1c12.2,0,24.2,0,36.5,0
		c0-4.8,0.1-9.5,0-14.2c-0.2-11.8,0.4-23.6-0.8-35.2C234.3,273.7,218,258,200.6,255.9z M186.1,256c-0.5,0-0.8-0.1-1.1-0.1
		c-17.5,3-33.1,18.2-34.6,35.9c-1.3,16.1-0.6,32.4-0.8,48.7c0,0.2,0.2,0.4,0.3,0.5c12.1,0,24.1,0,36.2,0
		C186.1,312.5,186.1,284.3,186.1,256z"/>
	<path d="M193.3,389.3c-3.9,0-7.1-3.3-7.1-7.2c0.1-3.8,3.3-6.9,7-6.9c3.9,0,7.2,3.3,7.1,7.2C200.2,386.1,197.1,389.3,193.3,389.3z"
		/>
	<path d="M115.6,129.5c0,5.2,0,10.3,0,15.5c0,5.6-2.7,8.3-8.1,8.3c-10.6,0-21.2,0-31.7,0c-5.5,0-8.1-2.7-8.1-8.3
		c0-10.5,0-20.9,0-31.4c0-5.7,2.7-8.3,8.5-8.3c10.3,0,20.7,0,31,0c6,0,8.5,2.6,8.5,8.7C115.6,119.2,115.6,124.3,115.6,129.5z
		 M81.9,119.6c0,6.7,0,13.1,0,19.3c6.6,0,13,0,19.3,0c0-6.6,0-12.9,0-19.3C94.8,119.6,88.5,119.6,81.9,119.6z"/>
	<path d="M159.5,153.4c-5.4,0-10.8,0.1-16.2,0c-5.1-0.1-7.8-2.8-7.9-7.9c-0.1-10.8-0.1-21.6,0-32.4c0-4.9,2.8-7.7,7.7-7.7
		c10.9-0.1,21.9-0.1,32.8,0c4.7,0,7.5,2.8,7.5,7.5c0.1,11,0.1,22.1,0,33.1c0,4.4-2.9,7.2-7.3,7.3C170.5,153.4,165,153.4,159.5,153.4
		z M169,139.1c0-6.7,0-13.1,0-19.3c-6.6,0-13,0-19.3,0c0,6.6,0,12.9,0,19.3C156.2,139.1,162.5,139.1,169,139.1z"/>
	<path d="M227.4,153.4c-5.4,0-10.8,0-16.2,0c-5.3-0.1-8-2.8-8-8.1c0-10.6,0-21.2,0-31.7c0-5.5,2.7-8.1,8.3-8.2c10.5,0,20.9,0,31.4,0
		c5.8,0,8.3,2.6,8.3,8.5c0,10.3,0,20.7,0,31c0,6-2.6,8.5-8.6,8.5C237.5,153.4,232.5,153.4,227.4,153.4z M217.5,119.5
		c0,6.7,0,13.1,0,19.4c6.6,0,13,0,19.3,0c0-6.6,0-13,0-19.4C230.3,119.5,224.1,119.5,217.5,119.5z"/>
	<path d="M294.8,153.4c-5.2,0-10.3,0-15.5,0c-5.6,0-8.3-2.6-8.3-8.1c0-10.6,0-21.2,0-31.7c0-5.5,2.7-8.1,8.3-8.1
		c10.5,0,20.9,0,31.4,0c5.7,0,8.3,2.7,8.3,8.5c0,10.3,0,20.7,0,31c0,6-2.6,8.5-8.7,8.5C305.2,153.4,300,153.4,294.8,153.4z
		 M285.2,139c6.7,0,13.1,0,19.5,0c0-6.6,0-13,0-19.3c-6.6,0-13,0-19.5,0C285.2,126.2,285.2,132.4,285.2,139z"/>
	<path d="M115.6,197.3c0,5.2,0,10.3,0,15.5c0,5.6-2.7,8.3-8.2,8.3c-10.6,0-21.2,0-31.7,0c-5.5,0-8.1-2.7-8.1-8.3
		c0-10.5,0-20.9,0-31.4c0-5.6,2.6-8.3,8.1-8.3c10.6,0,21.2,0,31.7,0c5.5,0,8.1,2.7,8.1,8.3C115.6,186.8,115.6,192.1,115.6,197.3z
		 M82,187.4c0,6.7,0,13.1,0,19.5c6.6,0,12.9,0,19.3,0c0-6.6,0-12.9,0-19.5C94.7,187.4,88.4,187.4,82,187.4z"/>
	<path d="M159.3,221.2c-5.3,0-10.6,0-15.9,0c-5.3-0.1-8-2.8-8-8.1c0-10.6,0-21.2,0-31.7c0-5.5,2.7-8.2,8.3-8.2c10.6,0,21.2,0,31.7,0
		c5.3,0,8,2.7,8,8.1c0,10.6,0,21.2,0,31.7c0,5.5-2.7,8.2-8.3,8.2C169.8,221.2,164.5,221.2,159.3,221.2z M169,206.9
		c0-6.7,0-13.1,0-19.5c-6.6,0-12.9,0-19.3,0c0,6.6,0,12.9,0,19.5C156.2,206.9,162.5,206.9,169,206.9z"/>
	<path d="M251.2,197.4c0,5.3,0.1,10.6,0,15.9c-0.1,5.1-2.8,7.8-7.9,7.9c-10.8,0.1-21.6,0.1-32.4,0c-4.9,0-7.7-2.8-7.7-7.7
		c-0.1-10.9-0.1-21.9,0-32.8c0-4.7,2.8-7.5,7.5-7.5c11-0.1,22.1-0.1,33.1,0c4.4,0,7.2,2.9,7.3,7.3
		C251.3,186.1,251.2,191.8,251.2,197.4z M217.5,187.4c0,6.7,0,13,0,19.4c6.6,0,13,0,19.3,0c0-6.6,0-13,0-19.4
		C230.3,187.4,224,187.4,217.5,187.4z"/>
	<path d="M271,197c0-5.2,0-10.3,0-15.5c0-5.6,2.6-8.3,8.1-8.3c10.6,0,21.2,0,31.7,0c5.5,0,8.1,2.7,8.1,8.3c0,10.5,0,20.9,0,31.4
		c0,5.7-2.7,8.3-8.5,8.3c-10.3,0-20.7,0-31,0c-6,0-8.5-2.6-8.5-8.7C271,207.3,271,202.2,271,197z M304.7,206.9c0-6.7,0-13,0-19.4
		c-6.6,0-13,0-19.3,0c0,6.6,0,13,0,19.4C291.9,206.9,298.3,206.9,304.7,206.9z"/>
	<path d="M91.4,289c-5.2,0-10.3,0-15.5,0c-5.6,0-8.3-2.6-8.3-8.1c0-10.6,0-21.2,0-31.7c0-5.5,2.7-8.1,8.3-8.2c10.5,0,20.9,0,31.4,0
		c5.7,0,8.3,2.6,8.3,8.5c0,10.3,0,20.7,0,31c0,6-2.6,8.5-8.7,8.5C101.8,289,96.6,289,91.4,289z M101.3,274.7c0-6.6,0-12.9,0-19.4
		c-6.6,0-13,0-19.3,0c0,6.6,0,13,0,19.4C88.5,274.7,94.8,274.7,101.3,274.7z"/>
	<path d="M319,265.2c0,5.3,0.1,10.6,0,15.9c-0.1,5.1-2.8,7.8-7.9,7.9c-10.8,0.1-21.6,0.1-32.4,0c-4.9,0-7.7-2.8-7.7-7.7
		c-0.1-10.9-0.1-21.9,0-32.8c0-4.7,2.8-7.5,7.5-7.5c11-0.1,22.1-0.1,33.1,0c4.4,0,7.2,2.9,7.3,7.3C319.1,254,319,259.6,319,265.2z
		 M285.4,255.2c0,6.7,0,13.1,0,19.5c6.6,0,12.9,0,19.3,0c0-6.6,0-12.9,0-19.5C298.2,255.2,291.9,255.2,285.4,255.2z"/>
</g>
</svg>
