<?xml version="1.0" encoding="utf-8"?>
<!-- Generator: Adobe Illustrator 26.2.1, SVG Export Plug-In . SVG Version: 6.00 Build 0)  -->
<svg version="1.1" id="Capa_1" xmlns="http://www.w3.org/2000/svg" xmlns:xlink="http://www.w3.org/1999/xlink" x="0px" y="0px"
	 viewBox="0 0 670 662" style="enable-background:new 0 0 670 662;" xml:space="preserve">
<style type="text/css">
	.st0{fill:#17112D;}
</style>
<g id="KPf6i1.tif">
	<g>
		<path class="st0" d="M20,351c0-13.3,0-26.7,0-40c0.9-7.6,1.7-15.3,2.8-22.9c11.6-79.6,47.3-146.6,108.4-198.9
			c77.3-66.1,167.2-91,267.1-72.7c180.3,33.1,294.9,210.4,253,388.7c-28.9,122.8-132.2,220-256.1,240.8c-11.6,2-23.4,3.3-35.1,4.9
			c-13.3,0-26.7,0-40,0c-4.1-0.5-8.2-1.1-12.3-1.5c-63.3-6.9-120-29.9-169.2-70.3C77.3,528.7,39,464.4,24.9,386.1
			C22.8,374.5,21.6,362.7,20,351z M339.7,613.5c155.6,0.3,282.7-126.6,282.8-282.4c0.1-155.5-126.2-282.1-281.9-282.6
			C185.1,48,57.9,174.7,57.5,330.5C57.1,486.1,183.9,613.2,339.7,613.5z"/>
		<path class="st0" d="M358.8,268.9c0,16,0.2,32.1-0.1,48.1c-0.1,4.6,1.4,7.7,4.6,10.8c33.5,33.3,66.9,66.8,100.4,100.2
			c5.5,5.5,9,11.6,7.1,19.5c-3.2,13.8-18.9,19.2-30,10.5c-1.6-1.3-3.1-2.8-4.5-4.3c-35.4-35.3-70.6-70.8-106.1-105.9
			c-6.2-6.1-9-12.8-8.9-21.6c0.3-35.4,0.1-70.8,0.1-106.2c0-15.2,14-24.6,26.9-18.1c7.2,3.6,10.5,9.7,10.6,17.7
			C358.8,236,358.8,252.4,358.8,268.9z"/>
		<path class="st0" d="M358.8,124.7c0,6.2,0.1,12.5,0,18.7c-0.3,10.7-8.3,18.7-18.5,18.8c-10.4,0.1-18.8-8.1-18.9-19.1
			c-0.2-12.2-0.2-24.5,0-36.8c0.1-11,8.4-19.2,18.8-19.1s18.4,8.3,18.6,19.4C358.9,112.7,358.8,118.7,358.8,124.7z"/>
		<path class="st0" d="M133.7,312.3c6.2,0,12.5-0.1,18.7,0c10.7,0.3,18.7,8.3,18.9,18.5c0.1,10.5-8,18.8-19,18.9
			c-12.2,0.2-24.5,0.2-36.8,0c-11-0.1-19.2-8.4-19.2-18.8c0-10.4,8.3-18.4,19.3-18.6C121.6,312.2,127.7,312.3,133.7,312.3z"/>
		<path class="st0" d="M546.4,349.8c-6.2,0-12.5,0.1-18.7,0c-10.6-0.3-18.7-8.3-18.8-18.5c-0.1-10.4,8.1-18.7,19.1-18.9
			c12.3-0.2,24.5-0.2,36.8,0c11,0.1,19.2,8.4,19.1,18.8c-0.1,10.5-8.3,18.4-19.4,18.6C558.4,349.9,552.4,349.8,546.4,349.8z"/>
		<path class="st0" d="M358.8,537.8c0,6,0.1,12,0,18.1c-0.3,10.7-8.3,18.7-18.5,18.9c-10.4,0.2-18.8-8-19-19
			c-0.2-12.2-0.2-24.5,0-36.8c0.1-11,8.3-19.2,18.8-19.2c10.4,0,18.5,8.2,18.7,19.3C358.9,525.3,358.8,531.5,358.8,537.8z"/>
		<path class="st0" d="M517.7,490.1c0,10.5-8.1,18.6-18.6,18.6c-10.4,0-18.8-8.3-18.8-18.6c0-10.1,8.6-18.8,18.8-18.8
			C509.5,471.3,517.8,479.7,517.7,490.1z"/>
		<path class="st0" d="M162.3,172c0-10.5,8-18.6,18.5-18.6c10.4,0,18.8,8.2,18.8,18.5c0,10.1-8.6,18.8-18.7,18.8
			C170.7,190.7,162.4,182.4,162.3,172z"/>
		<path class="st0" d="M499,153.3c10.5-0.1,18.7,8,18.8,18.4c0.1,10.3-8.2,18.9-18.4,19c-10,0.1-18.9-8.5-19-18.6
			C480.2,162,488.7,153.4,499,153.3z"/>
		<path class="st0" d="M180.7,508.7c-10.3-0.1-18.5-8.5-18.4-18.9c0.1-10.3,8.7-18.7,18.9-18.5c10.1,0.2,18.7,9.1,18.5,19
			C199.6,500.6,191,508.8,180.7,508.7z"/>
	</g>
</g>
</svg>
