<?xml version="1.0" encoding="utf-8"?>
<!-- Generator: Adobe Illustrator 26.2.1, SVG Export Plug-In . SVG Version: 6.00 Build 0)  -->
<svg version="1.1" id="Capa_1" xmlns="http://www.w3.org/2000/svg" xmlns:xlink="http://www.w3.org/1999/xlink" x="0px" y="0px"
	 viewBox="0 0 330 337" style="enable-background:new 0 0 330 337;" xml:space="preserve">
<g id="hGFNvW.tif_00000145016848906823746850000015398608788887037847_">
	<g>
		<path d="M302.2,155.5c0,49.8,0,99.7,0,149.5c-0.2,0.3-0.4,0.5-0.5,0.9c-2.7,12-10.5,18.6-22.6,18.6c-76.2,0-152.4,0-228.6,0
			c-13.5,0-22.7-9.3-22.7-22.8c-0.1-47.6,0-95.2,0-142.8c0-7.4,2.8-13.5,8.5-18.3c8.5-7.1,16.8-14.4,25.2-21.5
			c1.8-1.5,2.5-3.1,2.5-5.5c-0.1-15.8-0.1-31.6,0-47.4c0-6.4,2.5-8.8,8.8-8.9c6.1,0,12.2-0.1,18.3,0.1c2.4,0.1,3.4-0.8,4.3-3
			c8.3-21.3,23.3-35.9,44.9-43.4c6.4-2.2,13.3-3,20-4.4c2.7,0,5.4,0,8.1,0c0.8,0.2,1.5,0.4,2.3,0.5c30.4,3.6,51.3,19.6,62.8,47.9
			c0.8,2,1.8,2.4,3.7,2.4c6.5-0.1,13.1,0,19.6,0c6.8,0,9.2,2.3,9.2,9.1c0,15.8,0,31.5,0,47.3c0,2.2,0.6,3.7,2.4,5.2
			c7.1,5.9,13.9,12.1,21.1,17.9C295.5,141.9,300.8,147.4,302.2,155.5z M78.5,72c-0.1,0.9-0.1,1.5-0.1,2c0,32.3,0,64.5,0.1,96.8
			c0,1.4,1.3,3.3,2.5,4.2c25.9,18.6,51.9,37.1,77.9,55.6c5.1,3.6,7.1,3.7,12.1,0.1c36.5-26,73-52,109.6-78.1c0.8-0.6,1.5-1.2,2.4-2
			c-5.6-4.8-11-9.4-16.8-14.4c-0.1,1.8-0.2,2.8-0.2,3.9c0,3.8,0.1,7.7-0.1,11.5c-0.2,4.1-3.1,6.7-7,6.8c-3.8,0.1-6.9-2.6-7.3-6.5
			c-0.1-1-0.1-2-0.1-3c0-24.2,0-48.5,0-72.7c0-1.3,0-2.6,0-4c-4.8,0-9.3,0-13.8,0c0.1,1.1,0.1,1.8,0.2,2.6
			c2.3,30.3-12.8,58.7-39.7,71.5c-9.1,4.4-16.1,10.2-22.2,17.8c-1.5,1.8-3.1,3.6-4.7,5.4c-4.3,4.8-8.4,4.8-12.9,0.1
			c-5.2-5.5-10.3-11-15.5-16.5c-1-1-2.2-2-3.5-2.5c-32.3-12.6-50.3-40.1-48.9-74.8c0-1.2,0-2.4,0-3.7C86.3,72,82.6,72,78.5,72z
			 M164.7,154.9c3.9-4.4,7.5-8.9,11.5-13c1.9-1.9,4.3-3.7,6.8-4.6c28.7-10.1,45.2-38.5,39.5-68.3c-5.7-29.6-33.3-49.9-64.3-47.3
			c-28.8,2.4-52.6,27.8-53.4,57c-0.7,27,15.6,50.2,41.2,58.8c2.1,0.7,4.2,2.2,5.8,3.8C156.1,145.6,160.3,150.2,164.7,154.9z
			 M145.4,238.2c-29.9,24-59.2,47.5-89,71.5c72.7,0,144.6,0,217.1,0c-29.9-24-59.2-47.5-88.9-71.4
			C171.7,250.6,158.5,251,145.4,238.2z M42.5,302.3c30.4-24.4,60.3-48.4,90.4-72.6c-30.2-21.5-60.1-42.8-90.4-64.4
			C42.5,211.3,42.5,256.5,42.5,302.3z M197,229.8c30.2,24.3,60.1,48.2,90.2,72.4c0-45.9,0-91,0-136.7C257,187,227.2,208.2,197,229.8
			z M63.7,162.3c0-8.7,0-17.1,0-26.1c-5.8,5-11.2,9.7-16.9,14.5c5.5,3.9,10.5,7.5,15.5,11C62.7,162,63.1,162.1,63.7,162.3z"/>
		<path d="M172.2,100.5c3.6,0.8,6.3,2.4,6.9,6.1c0.8,4.4-2.1,8.1-6.6,8.4c-2.4,0.2-4.7,0.1-7.1,0.1c-5-0.1-7.7-2.8-7.8-7.8
			c-0.1-11.5-0.1-23,0-34.5c0-5,2.9-8,7.2-8c4.3,0,7.2,3,7.3,8c0.1,8.2,0,16.4,0,24.7C172.2,98.4,172.2,99.4,172.2,100.5z"/>
		<path d="M165,43.1c3.9,0,7.1,3.1,7.1,7c0.1,4-3.3,7.3-7.3,7.3c-4,0-7.3-3.5-7.1-7.4C157.9,46.1,161,43.1,165,43.1z"/>
		<path d="M165.1,281.2c4.6,0,9.2-0.1,13.8,0c4.6,0.1,7.7,3.1,7.7,7.2c0,4.1-3.2,7.1-7.8,7.1c-9.2,0.1-18.4,0.1-27.6,0
			c-4.6,0-7.8-3-7.8-7.1c-0.1-4.1,3-7.1,7.6-7.2C155.6,281.2,160.4,281.2,165.1,281.2z"/>
	</g>
</g>
</svg>
