<?xml version="1.0" encoding="utf-8"?>
<!-- Generator: Adobe Illustrator 26.2.1, SVG Export Plug-In . SVG Version: 6.00 Build 0)  -->
<svg version="1.1" id="Capa_1" xmlns="http://www.w3.org/2000/svg" xmlns:xlink="http://www.w3.org/1999/xlink" x="0px" y="0px"
	 viewBox="0 0 306 417" style="enable-background:new 0 0 306 417;" xml:space="preserve">
<style type="text/css">
	.st0{fill:#F78C1B;}
</style>
<g>
	<g id="_x38_Z5mfG.tif">
		<g>
			<path class="st0" d="M17.4,311c1.2-6.5,2-13.1,3.7-19.5c4.4-17,13.4-31.3,26.5-43c2.2-1.9,2.8-3.8,2.8-6.6
				c-0.1-57.1-0.1-114.1,0-171.1c0-27.9,18.5-50.7,45.6-56.6c33.9-7.4,67.6,18.5,68.4,53.2c0.6,28.1,0.2,56.2,0.2,84.2
				c0,30,0.1,60-0.1,90c0,3.1,1,5.1,3.2,7.2c26.3,24.4,35.6,54.4,26.2,88.9c-9.4,34.6-32,57-67.3,65.5c-3.2,0.8-6.4,1.3-9.7,1.9
				c-5.9,0-11.7,0-17.6,0c-0.7-0.2-1.4-0.6-2.1-0.6c-36.6-4.4-66.3-29.7-76.1-65.3c-1.8-6.5-2.5-13.2-3.7-19.8
				C17.4,316.6,17.4,313.8,17.4,311z M148.2,157.8C148.2,157.8,148.2,157.8,148.2,157.8c0-29.4,0.2-58.7-0.1-88.1
				c-0.3-28.7-28.9-47.8-55.5-37.5c-16.2,6.2-26.1,21.3-26.1,40c0.1,46.2,0.2,92.4,0.3,138.6c0,12.8-0.2,25.5-0.6,38.3
				c-0.1,2.4-0.9,5.6-2.6,7.1c-20.8,18-29.8,40.5-26.4,67.8c5,40.6,46.1,69.9,86.2,61.6c29.2-6,48-23.8,55.1-52.5
				c7.3-29.5-1.6-54.7-24.7-74.5c-3.8-3.3-5.5-6.6-5.6-11.3c0-1.8-0.1-3.6-0.1-5.4C148.2,214,148.2,185.9,148.2,157.8z"/>
			<path class="st0" d="M230.1,176.4c7.8,0,15.5-0.1,23.3,0c6.8,0.1,10.7,5.6,8.4,11.3c-1.4,3.4-4.2,5.1-7.8,5.1
				c-16,0.1-32.1,0.1-48.1,0c-5.2,0-8.7-3.6-8.6-8.3c0.1-4.7,3.5-8,8.8-8.1C214,176.3,222,176.4,230.1,176.4z"/>
			<path class="st0" d="M229.8,94.8c7.8,0,15.5-0.1,23.3,0c5.8,0,9.1,3,9.2,8c0.1,5.1-3.5,8.3-9.3,8.3c-15.4,0-30.8,0-46.2,0
				c-5.8,0-9.6-3.2-9.6-8c-0.1-5,3.6-8.2,9.8-8.2C214.6,94.8,222.2,94.8,229.8,94.8z"/>
			<path class="st0" d="M221.4,53.9c5.1,0,10.2-0.1,15.3,0c5.8,0.1,9.4,3.4,9.4,8.3c-0.1,4.8-3.6,8-9.2,8.1
				c-10.2,0.1-20.4,0.1-30.5,0c-5.6-0.1-9.1-3.3-9.2-8.1c-0.1-4.9,3.6-8.2,9.4-8.3C211.5,53.8,216.5,53.9,221.4,53.9z"/>
			<path class="st0" d="M221.6,151.9c-5.2,0-10.4,0.1-15.6,0c-5.3-0.1-8.8-3.3-8.8-8c-0.1-4.8,3.6-8.2,9-8.2
				c10.3-0.1,20.6-0.1,30.9,0c5.4,0,9.1,3.5,9,8.2c-0.1,4.7-3.6,7.9-8.8,8C232,151.9,226.8,151.9,221.6,151.9z"/>
			<path class="st0" d="M221.7,233.6c-5.2,0-10.4,0.1-15.6,0c-5.2-0.1-8.8-3.4-8.9-8c-0.1-4.8,3.5-8.2,8.9-8.2
				c10.4-0.1,20.8-0.1,31.3,0c5.2,0,8.7,3.5,8.7,8.1c0,4.6-3.6,8-8.8,8.1c-0.1,0-0.2,0-0.4,0C231.9,233.6,226.8,233.6,221.7,233.6z"
				/>
			<path class="st0" d="M131.9,165c0,31.7,0,63.3,0,95c0,2.2,0.2,3.9,2.6,5.2c23.7,12.8,34.7,38.1,28,64.2s-28,42.9-54.8,43.1
				c-27,0.2-48.6-16.6-55.5-43.1c-6.7-25.9,4.2-51.3,27.6-64c2.6-1.4,3.1-3,3.1-5.7C83,197.2,83,134.8,83,72.4
				c0-13.4,6.7-22.6,18.3-25.8c12.8-3.6,29.2,5.8,29.7,19.3c0.2,6.8,1,13.5,1,20.2c0.1,26.3,0.1,52.6,0.1,78.9
				C132,165,132,165,131.9,165z M99.2,160.3c0,1.9,0,3.4,0,5c0,33.7,0,67.4,0,101.1c0,7.1-1.2,8.8-7.7,11.5
				c-16.6,6.8-26.1,22.1-24.6,40c1.5,18.9,13.4,33.2,30.9,37.3c21.2,5,41.7-6.5,48.2-26.9c6.9-21.6-2.8-42.5-23.5-50.8
				c-5.6-2.2-7-4.3-7-10.4c0-34.1,0-68.2,0-102.2c0-1.5,0-2.9,0-4.4C109.8,160.3,104.7,160.3,99.2,160.3z M99.4,143.5
				c5.6,0,10.7,0,16.1,0c0-9.1,0-17.9,0-26.7c0-15.3,0.1-30.6,0-45.9c0-6.5-5.4-10.5-10.9-8.3c-4,1.6-5.3,4.7-5.3,8.8
				c0,23.1,0,46.1,0,69.2C99.2,141.6,99.3,142.5,99.4,143.5z"/>
		</g>
	</g>
	<circle class="st0" cx="107.9" cy="316.7" r="33.2"/>
</g>
</svg>
