<svg enable-background="new 0 0 76.00 76.00" height="76" viewBox="0 0 76 76" width="76" xmlns="http://www.w3.org/2000/svg"><path d="m41.5 49c0 3.0376-2.4624 5.5-5.5 5.5s-5.5-2.4624-5.5-5.5c0-2.6961 1.9399-4.9391 4.5-5.4093v-12.5907h2v12.5907c2.5601.4703 4.5 2.7132 4.5 5.4093zm3.5 0c0 4.9706-4.0295 9-9 9-4.9706 0-9-4.0294-9-9 0-3.5337 2.0365-6.5917 5-8.0644v-18.9355c0-2.2092 1.7908-4 4-4 2.2091 0 4 1.7908 4 4v18.9354c2.9634 1.4727 5 4.5308 5 8.0645zm-11-6.7101c-2.8915.8606-5 3.5391-5 6.7101 0 3.866 3.134 7 7 7s6.9999-3.134 6.9999-7c0-3.171-2.1085-5.8495-4.9999-6.7101v-20.2898c0-1.1046-.8955-2-2-2-1.1046 0-2 .8954-2 2zm-3-21.2899v1h-6v-1zm0 3v1h-4v-1zm0 3v1h-6v-1zm0 3v1h-4v-1zm0 3v1h-6v-1zm0 3v1h-4v-1zm0 3v1h-6v-1zm21.8267-1.5017c-.9431.4589-2.1749.6884-3.6955.6884-1.9852 0-3.5457-.5863-4.6812-1.7588-1.1356-1.1725-1.7033-2.7339-1.7033-4.6841 0-2.0787.6387-3.7645 1.9162-5.0575 1.2775-1.2931 2.9351-1.9396 4.9729-1.9396 1.262 0 2.3256.1633 3.1909.49v2.87c-.8517-.4978-1.822-.7467-2.9109-.7467-1.1958 0-2.1607.3753-2.8948 1.1258-.734.7506-1.101 1.7675-1.101 3.0509 0 1.2308.3461 2.2113 1.0383 2.9414.6922.7302 1.6246 1.0952 2.7971 1.0952 1.1181 0 2.1418-.2488 3.0713-.7466zm4.4741-7.7116c-.7272 0-1.3436-.246-1.8491-.7379-.5056-.492-.7584-1.0909-.7584-1.7967 0-.7039.2528-1.2974.7584-1.7806.5055-.4832 1.1219-.7248 1.8491-.7248.7234 0 1.3407.2416 1.8521.7248s.7671 1.0767.7671 1.7806c0 .7058-.2557 1.3047-.7671 1.7967-.5114.4919-1.1287.7379-1.8521.7379zm.0059-3.7334c-.3131 0-.578.1167-.7948.35-.2168.2334-.3252.5182-.3252.8546s.1084.6242.3252.8634c.2168.2391.4817.3587.7948.3587.3072 0 .5707-.1196.7904-.3587.2197-.2392.3296-.527.3296-.8634s-.1084-.6212-.3252-.8546c-.2169-.2333-.4818-.35-.7948-.35z" stroke-linejoin="round" stroke-width=".2"/></svg>