<?xml version="1.0" encoding="utf-8"?>
<!-- Generator: Adobe Illustrator 26.2.1, SVG Export Plug-In . SVG Version: 6.00 Build 0)  -->
<svg version="1.1" id="Capa_1" xmlns="http://www.w3.org/2000/svg" xmlns:xlink="http://www.w3.org/1999/xlink" x="0px" y="0px"
	 viewBox="0 0 330 368" style="enable-background:new 0 0 330 368;" xml:space="preserve">
<g id="k0gI98.tif_00000131366937666359734070000018444658724222135708_">
	<g>
		<path d="M21.2,280.4c0.7-6.3,1.2-12.5,2-18.8c2.6-19.5,7.3-38.4,17.9-55.3c12.6-20.1,31-30,54.5-30.3c3.5,0,7.3,1.8,10.5,3.5
			c5,2.7,9.6,6,14.4,9c28.7,17.9,57.5,17.9,86.2,0c3.9-2.4,7.8-4.7,11.5-7.4c6.8-5.1,14.3-5.8,22.5-4.6
			c22.2,3.3,37.8,15.4,48.4,34.7c9.4,17.3,13.7,36,15.5,55.4c1,9.9,1.4,20,1.3,29.9c-0.4,29.8-20.8,52-50.4,55.2
			c-0.7,0.1-1.4,0.4-2.2,0.6c-59.8,0-119.6,0-179.4,0c-1-0.2-2.1-0.5-3.1-0.7c-23-3.6-39.2-15.5-46.7-38.1
			c-1.4-4.3-1.9-8.8-2.9-13.2C21.2,293.8,21.2,287.1,21.2,280.4z M163.5,332.4c26.7,0,53.3,0,80,0c3.7,0,7.3-0.2,11-0.6
			c16.7-1.9,28.9-13.5,30.9-30c1.7-13.4,0.4-26.9-1.5-40.2c-2-14-5.3-27.7-12.1-40.3c-8-14.6-19.4-24.1-36.7-25.1
			c-1.5-0.1-3.3,0.3-4.7,1.1c-5,3-9.9,6.4-14.9,9.5c-13.7,8.5-28.6,13.7-44.7,14.9c-22,1.7-42.2-4.3-60.7-16
			c-4.4-2.8-8.8-5.7-13.2-8.4c-1.1-0.7-2.5-1.2-3.7-1.1c-7,0.2-13.6,2-19.7,5.5c-11,6.3-17.2,16.6-21.8,27.8
			c-8.9,21.9-10.9,45-10.3,68.3c0.4,13.8,6.9,24.4,19.6,30.6c6.7,3.2,14,4.1,21.4,4.1C109.5,332.4,136.5,332.4,163.5,332.4z"/>
		<path d="M169.2,11c4.4,0.9,8.9,1.7,13.3,2.7c30.3,7.1,56.1,35.9,60.2,66.8c2.7,20.3-0.3,39.5-11.8,56.7
			c-15.3,22.8-36.4,36.1-64.3,38c-36.6,2.5-66.8-19.1-80.5-48.3c-12.8-27.5-7.7-64.1,12.5-86.8c12.4-14,27.3-23.6,45.7-27.4
			c3.1-0.6,6.3-1.1,9.5-1.7C159,11,164.1,11,169.2,11z M223.7,93.4c0.2-34.3-27.3-62-61.8-62.3c-34.5-0.3-62.4,27.1-62.7,61.8
			c-0.3,34.6,27.3,62.5,62.1,62.7C195.7,155.7,223.5,128,223.7,93.4z"/>
	</g>
</g>
</svg>
